<?xml version="1.0" encoding="UTF-8"?>
<svg xmlns="http://www.w3.org/2000/svg" width="250px" height="250px" viewBox="0 0 125 125">
	<title>NYCS Bullet, Standard Set - 0 Local</title>
	<circle cx="62.5" cy="62.5" r="50" fill="#808183"/>
	<path d="M70,86.6c-2.4,1.1-5,1.6-7.7,1.6c-8.7,0-13-5.2-14.7-7.9c-3.2-5-3.7-12-3.7-17.9c0-5.2,0.4-13.6,4.5-19.3c2.8-3.8,7.8-7.1,14.3-7.1c4.5,0,10.1,1.5,14,7.4C80.7,49.2,81,57,81,61.9C81,71,79.7,82.2,70,86.6zM62.8,44.3c-8.1,0-9,9.6-9,18.3c0,8.3,0.8,17.3,8.9,17.3c7.1,0,8.7-7,8.7-17.7C71.3,50.6,69.1,44.3,62.8,44.3z" fill="#FFF"/>
</svg>
