<svg version="1.1" id="Layer_1" xmlns="http://www.w3.org/2000/svg" x="0" y="0" viewBox="0 0 759.7 1677" xml:space="preserve"><style>.st0{fill:#000}.st1{fill:#343434}.st2{fill:#76e9c8}.st3{fill:#44d262}</style><path class="st0" d="M725.3 890.9c-1.9-2.7-1.7-5.9-1.9-8.9-1.2-17.1-5-33.6-11.8-49.2-18.5-42.7-49.6-71.7-94.5-85.4-8.2-2.5-16.8-3.4-25.3-4-.3-3.3-.4-6.1-.9-8.9-3.5-17.1-7.2-34.1-11.6-51.1-11.3-43.7-24.9-86.6-40.4-129-11.6-31.6-20-63.5-20.2-97.6-.2-35-13.1-65.9-35.2-92.9-10.6-13-24.1-22.9-36.7-33.8-3.9-3.3-6.6-6.5-5.7-12.1.5-3.1-.5-6.6-3.8-8-3.2-1.3-5.2 1.2-7.1 3.4-.4.5-1 .8-1.7 1.3-.1-.7-.3-1.2-.2-1.6 5.1-19.5 2.9-39.6 4.9-59.4.2-2.1.4-4.6-2.2-5.6-2.6-.9-3.9 1.3-5.3 2.9-3.2 3.7-6.4 7.4-11.4 10.5 2.1-7 2.7-14 6.2-19 4.4-6.5 10.2-12.1 14.8-18.6 1.8-2.5 2.6-4.4 1.5-7.1-1.6-3.9-3.4-7.8-5-11.7 1.1-.7 1.8-.1 2.6.1 2 .7 3.9.9 5.4-1.1 1.3-1.8.6-3.5-.3-5.1-.4-.7-.9-1.4-1.3-2.1-7.6-14.4-15.6-28.5-15-45.6.2-4.9 1.5-9.6 2.7-14.1 5.7-20.7 5.2-41.4 2.3-62.3-2-14.7-4.5-29.2-12.2-42.2-4.2-7.2-8.6-8.4-15.6-4-2.4 1.5-4.6 3.4-6.3 5.6-4.5 5.6-8.1 11.8-10.7 18.5-2.2 5.7-4.2 11.5-6.6 17.9-1.9-3.8-3.3-7-4.9-10-8.2-14.9-19.4-26.5-36-31.8-4.4-1.4-9-2.4-13.7-2-1.8.1-3.2 1-3.8 2.7-.8 2.1 1 2.9 2.4 3.8 2.2 1.3 4.8 2 6.8 4.8-15.2-2-28.9 1.6-41.9 6.7-10-9.7-18.9-19.6-29.4-28h-6c-1.7 2.2-3.4 4.3-5 6.6-8.5 12.4-14.3 26-18.8 40.4-7.8 24.9-9.3 49.8-3.2 75.2 1.5 6.1 4.1 11.7 5.9 17.4-14.5 9.9-28.5 19.6-42.6 29.3-3.6 2.5-6.6 5.6-7.7 10.1-2.6 10.3 1.7 26.5 14 31.7 1.7.7 2.8 1.6 3.4 3.3 7.2 21.3 23.9 31.3 44.2 36.9 9 2.5 18.4 1.8 27.5 2.5.8 1.4.3 2.5.1 3.7-1.5 9.9-6.9 18.2-11.6 26.8-7.4 13.6-18.7 22.9-32.2 29.5-14.2 6.9-28.8 13-44.7 15.2-2.4.3-4.9 1-6 3.5.9 2.6 3.5 2.9 5.6 4.2-1 .9-1.7 1.5-2.5 2.1-21.7 17.2-35.9 39.7-43.7 66-9 30.5-15.5 61.5-19.4 93.1-2.6 20.6-5.1 41.2-7.2 61.9-1.9 18.5-3.7 37.1-4.1 55.8-.3.3-.4.7-.2 1.2-.1 2.6-.3 5.1-.4 7.7 2.7 1.5 1.7-1.8 2.8-2.2-.1.1-.1.2-.2.3-.7 2.4-2.5 4.4-2.3 7.1-.7 2-1.5 4.1-2.2 6.1-8.2 21-17.2 41.8-24.2 63.2-11.6 35.4-18.3 71.9-22.4 109-2.5 22.8-2.3 45.5-1.6 68.3.1 3.3-.4 6.5-1.7 9.7-2.7 6.6-5 13.4-7.4 20.1-2.8 7.2-5.5 14.7-8.2 22.3v9c2 2.2 1.6 5.3 2.5 7.9 8.2 23.3 22.6 42.8 38 61.7 1.8 2.2 4.2 3.8 6.4 5.6 2.1 1.7 4.6 2.7 7.4 2.8 8.6.1 17.3 1 25.7-2.3.9-.4 2-.7 2.9-.6 6.8 1.1 13.7 2.3 20.6 3.6 1.5 7.8.8 15.7 1.8 23.4 2.4 18.8 4.5 37.6 7.9 56.3 3.5 19.8 6.4 39.7 11.4 59.2 2.6 10.1 6.1 19.9 5.8 30.7-.3 14.3-.4 28.6 2.4 42.8 1.3 6.8 2.7 13.8 2.3 20.8-.7 15.1-1.5 30.2-.3 45.4 1 12.6 2.4 25.2 4.8 37.6 4.2 22 7.9 44.1 13.3 65.9 4.6 18.5 8.4 37.2 13.2 55.7 7.6 28.9 15.5 57.7 18.6 87.5.7 6.5.1 13.2.1 19.8-2.4.7-4.6 1-6.5 1.9-4.8 2.2-9.4 1.2-13-1.8-7.2-5.9-15.3-5.2-22.7-2.2-5.7 2.3-10.5 5-16.5 1.5-1.1-.7-3-.4-4.4-.2-14 1.9-21.1 12.2-27.4 23.1-1.3 2.3-2.4 4.7-4.2 6.7-8.9 10-11.4 21.6-8.4 34.4 2.4 10 11.2 16.8 21.4 16.8 6 0 11.9.6 17.9 1.3 1.6.7 3.3.4 4.9.4h45.6c4.1-.1 8.3-.3 12.4-.3 6.7-.1 13.5-1.2 20.2.8h7c.2-.8.7-1 1.4-1 10.4.7 20.5-1.7 30.8-2.4 10.2-.7 20.6-2.3 26.3-12.4 9.1-16.1 11.3-33.9 6.6-51.2-6.6-24.1-7.3-48.2-4.9-72.7 1.6-15.9 4.2-31.6 5.5-47.5 2.1-25 5.4-49.9 6.7-75 1.7-32 3.7-63.8 1.3-95.8-1.3-17.5-2.8-34.8-8.9-51.4-.7-1.8-.3-3.2 1-4.5 5.5-5.4 8.3-12.3 11.3-19.2 14.6-33.7 25.1-68.7 31.2-104.9 1-6.1 1.3-12.4 3.6-18.7.6.9.9 1.2 1.1 1.7 10.9 33 26.5 63.7 45.2 93 .9 1.4 1 2.7.5 4.2-4.4 12.3-5.7 25.3-7 38.1-3.1 29.3 1.1 58.1 6.7 86.7 5.8 29.9 14.1 59.1 24.3 87.8 9.5 26.4 22.4 51.4 31.9 77.9 1.4 4 2.3 8 2.4 12.2 1.1 35.5-.4 70.9-7.9 105.8-1.7 7.9-.5 15.6 1.3 23.2.6 2.5 1.7 5.3 4.4 6.3 6.5 2.5 12.6 5.9 19.3 7.7 15.1 4.1 30.2 2 45-1.1 7.9-1.7 15.5-2.1 23.5-1.5 14.3 1 28.5 0 42.3-4.8 6.1-2.2 8.6-6.8 9.1-12.9 1.3-14.3-1.4-27.9-8.7-40.3-12.3-21-23-42.5-28.1-66.6-3.8-17.7-4.3-35.6-5.1-53.5-.6-14.5-.6-29 .4-43.5 1.1-15.9 2.8-31.9 3.1-47.8.7-32.8-1.1-65.6-2.9-98.4-.4-7.6-1.3-15.3-2.6-22.8-3.3-19.2-8.3-38-14-56.7-.6-2.1-1-4.2-1.2-6.3-1.8-13.9-3-27.8-5.6-41.5-1.1-5.8-2.1-11.7-3.4-17.1 1.4-1.5 2.8-1.6 4-1.7 19.8-2.3 38.8-7.8 57.2-15.3 38.4-15.8 71.2-38.7 95.2-73.2 22-31.6 31-67.7 35.4-105.3.4-3.5 0-7.2 2.1-10.3v-6c-.8-8.7-.8-17.3 0-26 .1-1.8.1-3.2.1-4.5zM248.8 260.6c-19-2.6-34.4-11-44-28.2-1.2-2.1-2.2-4.2-1.7-6.6 1-4.9 0-9.6-1.2-14.3-1.1-4.4-1.7-9-1-13.4 1.1-6.9.6-14.5 7.3-19.4 6.9-5 13.8-9.9 20.3-15.4.5-.5 1.2-.5 2-.2 2.2 2.1 1.7 4.6.7 7.2-1.9 5.6-1.8 11.1.4 16.6 2.8 7 13.3 12.8 20.6 6.4.5-.4 1.2-1.3 2.3-.1-3.6 5.6-6.8 11.4-8.5 17.9-.5 1.9-1.5 4.1-.4 5.8 2.1 3.4 1.6 7 1.4 10.6-.2 4.7.8 9.3 1.5 13.9.4 2.4 1.2 5 4.6 4.7 0-.1.1-.1.1-.2-.2.5-.3.9-.5 1.4-2 4.4.3 9.3 4.3 9.2 4.6-.2 5.4 2.6 6.8 6.1-5.1-.9-10.1-1.3-15-2zm5.4-20.5c0-.8 0-1.6.1-2.4v1c.1.5.1 1-.1 1.4zm-77.4 1342.7c6.3-1.8 12.5-2.2 18.8.1-7.5 2.1-14.6 5.4-22 7.8.5-.6.7-1.5.6-2.8-.3-2.4-.1-4.3 2.6-5.1zm534.8-648.2c-1.5 14.2-4.1 28.3-7.4 42.3-7.3 30.5-22.1 56.8-44.2 78.7-18.6 18.4-40.4 32.5-64.6 42.9-40.7 17.5-82.7 26.1-127.1 20.1-20.5-2.8-40.1-8.7-58.3-18.6-38.4-20.8-66.1-51.2-81.6-92.3-5.1-13.6-8.6-27.6-10.9-42-2.5-15.2-1.7-30.5-1.9-45.8-.1-10.9 1.6-21.6 4.4-32 2.7-9.9 6-19.4 14.4-26.3 1.7-1.4 4.6-3.1 2.9-5.5-1.9-2.7-4.8-1.1-7.1.3-1.1.7-2.2 1.5-3.3 2.3-3.1 2.2-6.6 3.7-10.2 4.7-.3-.7-.3-1-.1-1.3l.9-1.8c7.6-14.2 17.5-26.3 31.3-34.9 1.8-1.1 4.4-2.2 3.3-4.8-1.1-2.7-3.6-1.6-5.7-1.1-4.3 1-8.7 1.8-13.9 2.2 3.2-3 5.7-5.6 8.5-8 9.5-8.1 19.5-15.5 30-22.4 1.8-1.2 4-2.8 2.5-5.2-1.5-2.5-3.8-.8-5.7 0-.5.2-.9.5-1.3.8-12.3 6.8-23.5 15.2-34 24.4-5.8 5-11.1 10.5-16.2 16.3-1.5 1.7-2.4 3.7-.9 5.9 1.4 2 3.5 2.4 5.8 1.9 1.8-.4 3.6-.9 5.1-1.9.1 0 .3-.1.4-.2l-.3.3c-4 2.8-6.8 6.8-9.7 10.6-5.9 7.8-11.5 16-13.7 25.8-1.2 5 2 8.8 6.4 8.2 1.3-.2 2.4-1.2 4.1-1-4.2 8-5.7 16.7-7.7 25.2-3.9 17.4-2.7 35.1-2.9 52.7 1.1 11.3 2.9 22.5 5.9 33.4 1.2 4.3.3 7-3.9 8.8-3.4 1.4-6.6 3.3-9.9 4.8-1.6.7-3.4 1.3-3.9 3.1 1.3 2.5 3.2 2 5 1.7 3.6-.5 7.1-1.6 10.6-2.9 5.5-2.1 5.9-1.9 8 3.6 8.5 22.5 20.1 43.2 36.2 61.1 2.1 2.3 2.7 4.7 2.4 7.8-.4 4.3-1.8 8.5-2.5 12.7-3.2 18.9-6.8 37.7-11.8 56.2-8.3 30.7-20.4 59.9-31.5 89.5-.4 1.1-.9 2.2-2.2 2.6-3.3 1-2.7 3.3-2.5 6 .4 5.9 2.7 11.1 4.4 16.6 4.2 13.5 4.6 27.6 4.5 41.6-.1 25.6 1.2 51.2-1.4 76.9-1.2 11.8-2 23.9-2.9 35.8-1.3 17.3-3.4 34.5-5.4 51.7-1.9 16.5-2.8 33.2-4.6 49.7-1.9 17.5-.9 34.9-1.3 52.4 0 1.7.4 3.3.7 4.9 1.6 7.8 3 15.7 4.5 23.6 2.8 14.2.6 27.8-4.4 41.1-2.5 6.7-7.2 10.4-14.4 11.4-12.5 1.9-25.3 1.3-37.7 3.7-3.1.6-6.3.1-9.5-.4-3.4-.6-6.9-1.5-10.4-1.4-21.7.6-43.3-1.3-64.9-1.1-7.2.1-14.3 0-21.5 0-7.9-.1-13.1-3.8-14.9-11.4-2.3-9.8-.5-19.1 6.3-26.7 8.9-10.1 20.4-8.7 27.1 2.7 1.1 1.9 2.2 3.8 3.7 5.3s3 3.8 5.4 2.5c2.2-1.2 1.7-3.8 1.4-5.9-1.7-11.7-12.1-20.6-23.9-20.5-2.4 0-4.8.3-7.8.9 3.8-4.4 7.3-7.7 11.3-10.4 5.4-3.6 10.9-3.6 16.3 0 2.1 1.4 4 3.1 6.3 3.9.7.2 1.3.4 1.8.4-1.3.4-2.5.7-3.8 1-3 .7-6.7.8-7.8 5 2.7 2.5 5.7 1.9 8.6 1.5 8.8-1 17.2-4.1 25.6-6.7 7.6-2.3 15.2-4.5 23.3-8.4-.4 6.7-1.2 12.4-1.1 18.2.1 2.1-.2 4.3 2.2 5 2.8.8 3.6-1.7 4.5-3.6 4.9-10.7 6.2-22.2 5.4-33.7-1.4-22-4.8-43.7-10.4-65-12.4-47.6-23.6-95.4-32.5-143.8-5.2-28.4-9.7-56.8-9.8-85.7 0-11.8-1.7-23.6-.8-35.4.1-.7 0-1.3-.3-2-.4-1.1-1-2.2-2.3-2.3-1.5-.1-1.8 1.1-2.1 2.3-.1.3-.2.4-.1.4.6.3-.3.1-.2 0 1.6-9.4-.2-18.2-.6-26.2 3.1 5.2 3 13.2 9.4 18.1 2.5-3 2.2-5.9 1.5-8.6-2.7-9.8-4-19.9-6.8-29.7-5.7-19.7-11.3-39.4-13.9-59.8-3.2-15.8-6.2-31.7-9.3-47.6-2.9-14.9-4.7-29.9-6.5-44.9-.5-4.1.8-6.5 5-7.7 5.3-1.4 9.5-4.6 13.3-8.5 6.1-6.1 10.2-13.5 14.6-20.7 8.8-14.5 7.7-29.9 1.9-45.2-1.2-3.1-1.8-5.9-1-9.2 2-8.5-1.8-15-8.1-20.1-3.6-3-8.9-5.6-13-2.9-7.6 5-13.2 2.2-19-2.4-.3-.2-.6-.3-.9-.5-3-1.2-3.7-3.2-2.8-6.4 2.2-8.5 4.7-17 8.1-25.2 6.2-14.9 12.1-29.9 18.9-44.6 9.7-21 16.1-43.5 27.3-63.8 5-9 7.5-18.8 9.5-28.8.1-.8.1-1.5.1-2.3 0-.7.1-1.5.2-2.2.2-.7.4-1.4.6-2.2.2-.8.3-1.6.3-2.4.1-2 .1-4 0-5.9-.1-3.5 0-7-3.3-9.3-2.4-.4-2.9 1.2-3.3 3-1.3 5.4-.3 11.1-2.1 16.3-2.8 8.2-5.6 16.4-9.6 24.1-4.1 8-8.5 15.9-11.8 24.3-12.2 31-25.2 61.7-37.3 92.7-2.5 6.4-4.7 12.8-5.6 19.6-.3 2.4-.5 4.9-3.6 5.9-2.1.7-1.9 2.9-1.3 4.8.8 2.5 2.5 4.4 4.8 5.6 5 2.7 9.6 6 14.2 9.2 3.8 2.7 7.6 4.8 12.2 1.2 1.2-1 3.1-1.1 4.7-1.4 5.8-1.1 10.4 2.5 11.1 8.6-8-2.8-9.9-2.2-14.6 4.6-1.4 2.1-3.1 2.6-5.5 2.7-8.8.3-15.7 4.3-20.1 11.9-1.8 3.2-3.6 4.6-7.5 3.5-8-2.1-14.3.6-19.1 7.3-3.4 4.7-5.4 9.9-7.3 15.3-.6 1.7-1 3.6.8 5.2 2.4-.4 3.4-2.4 4.6-4.1 2.9-4.3 5.6-8.7 9.1-12.5 5.1-5.6 11.7-5.3 16.8.5 4.2 4.7 4.8 10.5 5.5 16.3 1.2 11.2-4.3 20.8-14.6 25.3-6 2.7-12.5 3.7-19 4-7 .4-13-1.7-17.9-7.1-9.7-10.5-16.6-22.9-24.4-34.7-4.7-7.1-7.9-15-10.6-23.1-1.7-5-2.1-10.2-.9-15.3 2.4-10.6 5.4-21.1 8.8-32.1-.2 8.1.2 15.4 2.1 22.5 1.9-.3 2.2-1.4 2.3-2.3 1.4-7.9 3.1-15.7 1.8-23.8-.6-3.5-.9-7-.4-10.5 1.3-8.3.9-16.6.8-24.9-.2-14.2 1.1-28.3 2.5-42.3 2-20 5.6-39.8 9.2-59.7C76.4 734.8 88.1 702 99 669c5.4-13.5 9.4-27.6 14.4-41.3.3-.8.6-1.6.6-2.4.1-1.5.2-3.2-1.5-3.9-1.8-.6-2.6 1-3.4 2.2-2.1 3.2-2.4 7.2-4.1 10.6-.1.1-.2.3-.3.4.2-.6.4-1.1.8-1.6 1.9-5.7 3.4-11.4 4.3-17.4 1.2-7.6 2-15.1 2.8-22.7 1.8-15.5 2.8-31.1 5.2-46.6 1-6.4 1.8-12.8 2.4-19.3 1.2-12.8 2.7-25.5 4.9-38.1 4-22.8 9.2-45.4 15.2-67.7 5.6-21.1 15.4-39.8 31.5-55.3 6.3-6.1 14.7-9.8 19.5-17.6.4-.7 1.4-.8 2.2-1 10.7-2.2 20.4-7.1 30.3-11.5 15.6-6.9 28.4-17.2 37-32.2 4.9-8.6 9.2-17.3 10.6-27.3.2-1.3 0-2.7 1.3-3.7 1.9.4 2.8 2.2 4.3 3.3s3.2 2.4 4.9.8c1.5-1.5.3-3.2-.7-4.5-6-7.5-8.9-16.3-11.3-25.4-.7-2.7-1.8-5.3-4.7-6-3.8-.9-4-3.5-3.7-6.5.1-1.2.3-2.3.3-3.5 0-1.8-.7-3.3-2.6-3.8-2.1-.5-3.1.9-3.6 2.6-.7 2.2-1.4 4.4-1.6 6.8.1-1.6.3-3.3.8-4.8 1.3-6.5 2.4-13.1 4.8-19.4 2.2-5.7 1.8-6.5-3.1-9.3.2-7.6 6.8-10 13.1-13.9-11.2-4.6-13.7-12.7-13.6-22.4 0-3.8-1.2-7.6-3-11-3.1-6.2-7.1-8.5-14-7.6-2.1.3-3.1-.3-3.8-2.1-3.8-10-6.4-20.4-6.9-31.1-.7-14.5.5-28.8 4-43.1 3.9-15.7 8.9-30.7 18.1-44.1 2.2-3.2 4.2-3.7 7.3-1.1 3.5 2.9 6.9 5.8 9.8 9.2 3.7 4.2 8.2 7.4 11.3 12.4 2.3 3.6 6.8 6.1 9.4 10 7 10.4 13.3 21.1 19.4 32 .8 1.5 1.4 3 2.5 4.3 1.1 1.4 2.5 2.4 4.3 1.4 1.6-.9 1.2-2.6.8-4-.8-2.8-2.2-5.4-3.5-9.3 6.7 3.6 13.1 5.2 17.5 10.5 1.2 1.4 2.8 2.7 4.7 2.3 3.9-1 6.7 1.1 9.6 3.2 3 2.2 6 4.2 9.1 6.1 1.6 1 3.3 2.4 5.3.7.2-3-2-4.4-3.8-6.1-12-11.3-26.6-17.1-42.3-20.8-1.7-.4-3.1-1.1-4-2.6-5.7-9.5-11-19.3-17.8-28.2 10.7-4 21.2-6.4 32.2-5.5 5.4.4 11.1.1 15.1 5 .5.6 1.4.9 2.7.5 1.3-4-.6-7-3.2-9.9-.3-.3-.7-.4-1.1-.7-.1-.1.2-.4.4-.2.4.3.6.7.9.9 11.9 5.4 20.1 14.6 26.3 25.8 5.1 9.1 10.6 18.2 12.3 28.8.3 1.5.7 3 2.7 3 1.8 0 2.6-1.3 3.1-2.8.9-2.3.3-4.6 0-6.9-.5-3.7-1.5-7.4-.1-11.3 3.6-10.3 8.5-19.9 13.5-29.5 1.7-3.1 3.9-5.8 6.5-8.2 4.2-3.9 5.8-3.6 8.6 1.5 6.2 11.2 7.5 23.7 9.5 36 2 12.6 1.8 25.2 2.2 37.9.3 8.7.1 17.3-2.2 26.3-1.1-6.8-3.4-12.5-5.7-18.2-2.8-6.7-6.6-12.7-12-17.6-1.7-1.5-3.4-3.3-6.1-1.5-.2 2.7 1.5 4.5 2.8 6.3 3.2 4.3 6.2 8.7 8.1 13.7 7.2 18.8 10.8 38.1 7.4 58.2-.2 1-.4 2-.3 3 .2 1.6.5 3.1 2.5 3.1 1.7 0 2.2-1.3 2.4-2.7.5-3.4.7-6.9 1.9-10.2 2.5 8.8 6.1 16.9 10.8 24.8-.8-.5-1.3-.8-1.9-1.2-1.8-1-3.8-1.9-5.6-.3-1.7 1.6-1.2 3.7-.6 5.6.8 2.4 1.9 4.6 3.2 6.8 3.8 6.2 3.5 11.9-1.6 17.1-.3.3-.4.5-.7.5-.8-16.3-.8-16.3-4-18.3-2.4 2.7-2.2 6.2-2.6 9.4-2.3 17-5 33.9-13.5 49.3-1.2 2.1-2 4.4 0 6.4 2.1 2.1 4.4.9 6.4-.3 4.1-2.5 8-5.2 12.5-8.6-1.8 7.3-4.5 13.4-6 19.8-1.4 6.3-7 11.2-6.5 19.3 7.6-3.5 10-10.6 14.3-15.2-.4 4.5-.6 9.3-1.8 14-1.3 5.2-3.1 10.2-4.1 15.4-1.3 6.6 1.9 9.2 8.2 7 1.1-.4 2-1.3 3.5-.9.5 8-2.7 15.3-5.1 22.8 8.5-1.2 9.7-9.2 14-13.9 2.5 1 3.7 2.6 5.1 4 5.9 5.7 11.3 11.8 17.5 17.1 15.2 13 26.2 29.1 34.7 47.1 10.1 21.2 14.1 43.5 13.9 66.9 0 7.3.4 14.7 1.4 21.9 2.7 19.4 8.2 38.1 14.9 56.4 5.8 15.8 11.6 31.6 16.8 47.6 9.2 28.5 18.6 57 25.3 86.3 5.8 19.8 10.1 39.8 13.7 60.9-10.7-.1-20.5 2.5-30.5 3.5-9.5 2.5-18.8 5.5-27.6 9.9-4.6 1.5-8.9 3.9-14.3 4.8-.1-4.1-.4-7.7-1-11.3-.9-13.2-4.5-25.2-12-36.5-21.6-32.4-40.1-66.3-54.4-102.7-4-10.2-3.3-18.6 0-28.6 8.3-24.6 19.8-48 27.4-72.9 6.8-22.2 8.8-44.7 7.7-67.5-.4-7.7-1.9-15.5-4.5-23-.8-2.3-1.3-4.9-4.6-5.2-1.8 2.6-.9 5.2-.5 7.8 1.7 9.7 3.7 19.3 3.2 29.2-.2 3.8-1.1 7.6-1.1 11.4 0 12.8-2.5 25-6.3 37.2-7.3 23.4-17.8 45.6-26.8 68.4-13.6 34.5-20.8 69.9-18.1 107.3 1.2 15.9 3.9 31.4 8.9 46.4 9.6 28.8 23.1 56 35.4 83.7 1.7 1.9 1.7 3.7-.2 5.6-2.1 2.1-3.8 4.6-5.7 6.9-1.1.9-1.2 2.8-3.5 3-2.4-12.5-10.8-20.9-20.1-28.1 0-1.4.5-1.8 1-2.3 2.3-2 4.9-4.2 3-7.6-1.8-3.2-5-1.9-7.7-1.5-6.1 1.1-12.2 1.7-18.3-.1-1.6-.4-3.3-.8-5.1 1.7 4.2 4.8 10.1 5.5 16 6.2-3.2 5-3 6.6 2.1 9.7 9.4 5.6 16.4 13.5 22.4 22.4 2.5 3.8 2.8 7.3.9 11.7-13.1 29.3-18.4 60-15.9 92 .6 7.6 2.4 14.9 7.9 20.6 5.4 5.7 12 6.3 18.5 1.9 3.9-2.6 7.3-5.7 10.3-9.3 7-8.6 15.4-15.7 24.8-21.5 7.4-4.5 13.1-4.1 19.8 1.1 5.6 4.4 6 10.6 5.3 16.8-.8 8-4.2 15-9 21.4-1.4 1.9-3.5 3.7-2.5 6.8 3.1 1.2 5-.9 6.9-2.6 7.7-7.2 10.5-16.7 11.9-26.8 1.5-10.5-2.5-18.5-11-24.5-7.9-5.7-16.1-5.5-24.4-.7-10.8 6.4-20.5 14.2-28.6 23.9-2.3 2.8-4.5 5.8-6.8 8.6-2.8 3.5-4.1 3.4-5.9-.6-2.7-5.8-4.2-11.9-4.8-18.3-.9-9.1-.4-18.2-.2-27.4.5-21.9 5.6-42.5 14.3-62.4 2.7-6.3 6.5-11.9 11.4-16.9 4.1-4.1 8.7-7.1 14.2-9.1 1.4-.5 2.8-1.4 2.5-3.3-.3-1.9-1.9-2.1-3.4-2.3-1.2-.1-2.3.1-3.4.5 1.3-.8 2.5-1.8 3.7-2.7 6.8-5.1 13.4-10.5 21.1-14.3 7.9-3.9 16.3-5.6 25.1-6.2 2.6-.2 6.2-.4 6.5-3.5.4-3.4-3.2-4.2-5.9-5-3.5-1.1-7.2-.9-10.3-1.4 12.3-4.3 25.2-7.8 38.9-9.9-1.4-3.4-3.3-4.8-5.4-5.2 6.1.1 12.7-1.6 19.3-.6 7.2 1.1 14.5 1.2 21.7 2.8 33.4 7.1 61.6 23 83.4 49.5 22.4 27.3 32 59.2 32.9 93.9 1 14.4 1.6 27.1.4 39.7zM326.8 833.5c.3-.3.6-.8 1.1-.6-.5-.1-.8.3-1.1.6zM104.6 638.6c.1-.7.2-1.3.3-2 0 .6.1 1.4-.3 2zm386 136.5c.6 2 2.2 2.3 4 2.1 2.8-.3 5.3-1.9 8.5-1.1-12.5 6.3-23.2 14.9-32.2 25.7-10.2-29.6-25.6-56.7-34.9-86.2-6.9-21.7-9.9-43.9-8.4-66.5 1-15.2 2.5-30.4 7.5-46.3 2.2 7.1 3.9 13.1 5.8 19.1 7.7 24.2 19.3 46.6 32.7 68.1 5.3 8.6 10.2 17.6 16.6 25.5 8 9.8 10.1 21.5 11.2 33.5.2 2.5.1 5 .3 7.5.8 8.3.8 8.2-6.8 12.2-1 .5-2.1 1.1-3 1.7-1.7 1.4-1.8 3-1.3 4.7z"/><path class="st1" d="M725.3 920.9c-2-1.8-1-4.1-.9-6 .6-6.7-1.4-13.4.9-20v26zm-620.8-282c.3 2.7-1.2 4.8-2.3 7-.3-1.7-1-3.4-.3-5.2 1.4.3 1.4-1.5 2.6-1.8zm-2.1-7c-.1.4-.1.8-.2 1.2 0-.3-.1-.6-.1-.8 0-.2.2-.3.3-.4z"/><path class="st2" d="M105.3 635.1c1.7-9.6 3.9-19.2 5.1-29 2-17.2 3.2-34.4 5.2-51.6 2.1-18 4.5-35.9 7-53.9 4.3-30 10.9-59.5 19.8-88.5 6.8-22.2 20-40 38.1-54.3 1.7-1.3 3.6-2.4 5.4-3.5 3.2-1.9 3.3-2.1 2.2-6.1 11.8-1.8 22.4-7 33.3-11.5 23.4-9.8 38.7-27 46.9-50.7 1.7-4.9 2.6-9.9 2.4-15.6 4.8 1.4 6.5 6.8 11.5 7.7 0-.9.2-1.5 0-1.8-7.3-7.8-10.6-17.5-13.3-27.5-1.6-5.9-2.5-6.5-8.5-5.4-1.7-4.8 1.4-9.8-.3-15.4-4.3 3-3.1 7.5-4.8 10.6-2.9-1.5-.8-4-1.2-6.1.6-7.2 2.3-14.1 5.2-20.7.8-1.8 1.9-3.7.1-5.5-1.8-1.9-3.3.2-5.4.4 1.1-5.1 4.2-9 5.7-13.7 2.6-.5 5.4.3 7.7-2.2-1.5-.9-3-1.6-4.3-2.6-5-3.6-7.9-8-8-14.6 0-4.8-.2-9.7-2.1-14.3-3.6-8.9-8.4-10.9-16.8-7.3-19.9-39.6-4.4-106.1 17.8-129 26.7 19.2 44.3 45.6 59.8 74.1 1.2-5.9-2.9-10.1-4.2-15 .9-1.1 1.9-.7 2.7-.2 6.7 3.6 14.2 5.8 19.3 12 1.9 2.4 3.9 2.6 5-1.1 7 4.7 13.6 9.2 20.3 13.7 1-1.6 0-2.3-1-3.2-7.1-6.1-14.2-13-22.9-15.8-7-2.2-13.8-6.1-21.3-6.3-2.3-.1-3.2-.7-4.1-2.3-6-10.3-11.4-21-19.5-30.7 7.8-3.5 15.5-5.8 23.6-6.4 7.3-.6 14.6-.2 21.8.9 3.4.5 3.6 4.2 6.4 5.5.1-4.1-2.3-7-4-10.3.1-.4.4-.8.7-1.1 9.6 3.5 16.8 10 22.7 18.1 7.2 9.7 12.2 20.6 16.8 31.7 1.2 2.8.7 5.9 1.4 8.7 1.6.8 2.2-.1 2.9-1.2.7-1.2 1.1-2.6.7-3.9-4.6-12 1.7-22 6.3-32.1 3-6.7 6.1-13.3 10.8-19 1.5-1.8 3.1-3.5 5-4.9 3.1-2.3 5.7-1.8 7.7 1.9 4.2 7.9 6.8 16.2 8.5 24.9 3.6 18.9 4.4 38 4.6 57.1.1 8.5-.4 17.1-3.9 25.5-11-32-14.8-38.7-23.8-41.7 19.8 25.1 23.6 53.6 19.8 83.9 3.1-5.1 2.5-10.9 4.7-16.9 4 11.4 7.9 22 14.5 31.6-4 .2-5.9-3.4-9.1-4-2.4 1.4-1.8 3.3-1 5.2 1.3 3 2.9 6 4.1 9.1 1 2.6 4 5.1 2.7 7.7-2.1 4.5-5 8.7-9.3 12.2 3.4-7.1-3.5-13.2-2.2-16.8-.7 4-1.6 11.4-3.2 18.6-2.8 12.1-4.4 24.6-11.5 35.2-1.1 1.7-2.3 3.6-.4 5.4 1.9 1.7 3.4-.1 4.8-1 4.9-3.4 9.7-6.9 15.7-11.1-3.6 14.8-7.9 28.2-14.3 40.9 6.7-4.6 10-12 15.7-18-.1 11.4-2.5 21.8-5.9 32.1-.9 2.7-2.5 5.5.3 7.8 2.6 2.1 5-.3 7.3-1.3 1.2-.5 2.3-1.2 4.3-2.2-.9 9.5-1.2 18.2-7.1 25.8 4-1.3 5.6-2.7 8-6.9 1.8-3.1 3.5-6.4 5.5-10 15.8 18.1 36 31.4 48.4 52.1 13.7 22.7 24 46.6 23.9 73.6-.2 36.9 9.5 71.5 22.2 105.8 14.4 39 27.3 78.5 36.8 119.1-.5 8.8-1.8 17.4-3.4 26-2.4 12.6-5.4 25-12.3 36.1-.9 1.4-1.8 2.8-3.1 3.9-9 3.3-17.9 6.6-26.9 9.9-5.9-1.5-12.2-2.1-16.8-6.9-.5-3.6-1-7.2-1.6-10.9-1.4-9.2-5.2-17.4-10.4-25.1-23.9-35.7-43.8-73.4-58.6-113.7-1.1-3-.5-5.8.4-8.7 7-21.7 16.2-42.5 24.2-63.9 5.1-13.7 10-27.5 12.2-42.1 2.5-17.1 4.3-34.3 1-51.6-1.3-7-2.5-13.9-5.3-20.4-.4.1-.9.2-1.3.2 1 6.2 1.9 12.4 3.1 18.5.5 2.5.8 4.9.9 7.4 2.4 36.5-9.1 69.9-23.6 102.5-9.4 21.1-18.1 42.6-23.2 65.2-10.4 45.5-7.4 90 11.1 133.4 9.2 21.4 19.5 42.3 27.8 64-.2 5-4.7 7.9-6 12.3-1.3 2.1-2.7 4.1-4.6 7.1-3.5-14.5-10.5-25.7-24.1-32.3 2.3-2.1 4.2-3.8 6-5.6 1.1-1.1 1.9-2.3.8-4-.9-1.3-2-1.6-3.5-1.2-8.3 2.3-16.7 2.4-25.2.3 5.1 4.4 11.2 5.5 17.6 5.4.3 1-.3 1.3-.9 1.6-4.7 3.4-4.7 5.3.4 8.2 10 5.7 17.3 13.9 23.4 23.4 2.8 4.2 3 8 .7 12.9-13.5 28.8-17.8 59.4-15.9 91 .4 6.3 1.9 12.5 5.7 17.9 5 6.9 12.1 8 19 3.2 4-2.8 7.2-6.1 10.3-10 7.4-9.2 16.6-16.4 26.9-22 11-5.9 24.1 2.3 24.8 14.7.6 10.3-2.7 19.3-8.6 27.5-1.4 1.9-2.7 3.7-4.7 6.5 4.2-.7 6.2-2.8 8-5 7.8-9.7 11.1-20.8 9.5-33.1-1.8-13.9-18.4-22.6-31-16.1-11.6 6-21.4 14.4-30.1 24.1-3.2-.7-2.1-3.3-2.2-5.2-.3-6.6.1-13.3-.3-20.5-2.3 1.9-2.3 5-5.1 6-2.2-1.9-1.6-4.4-1.1-6.7 2.1-9.5 6.1-18.3 11.2-26.6 1.8-3 3.7-5.9 6-9.9-5.1 2.7-8.8 5.4-12.4 8.1-1.5 1.1-3.2 2.6-4.9 1-1.9-1.7 0-3.4 1-4.8 9.7-13.6 22.2-23.8 37.2-31 5.8-2.8 11.3-6.3 17.9-9.4-6-3.3-11.9-.1-17.2-1.4-.4-3 1.6-4 3.1-5.2 11.9-9.2 25.1-10.4 39.3-6.5 8.2 2.3 14.7 7.7 22.2 11.4-4.6-5.6-10.6-9.8-15.1-15.4 1.8-2.3 3.6-1.5 5.3-1 13.3 3.8 25.5 9.5 35.3 19.8 3.4 3.5 7 7.1 11.6 9.4 2.7 1.4 4.2 4.2 5.6 6.9 5.5 10.3 8.4 21.4 11.2 32.5 2.7 10.7 7.7 20.6 9 31.7 1.7 14.2.5 28-3.9 41.4-8.5 25.7-24.4 46-45.8 62.2-.9.7-1.9 1.4-2.7 2.2-1 1.1-2.2 2.1-2.9 3.7 3.1-.5 5.1-4 8.7-2.8 1.2 2.8-.9 4.3-2.5 5.9-4.2 4.1-9.1 7.3-13.5 11.1-19.1 17.2-42.6 23-67.2 26.5-14.9 2.1-29.2.5-43.2-4.9-2.5-1-5-1.7-8.8-2.6 11.5 6.4 22.7 10.6 35.2 13.8-3.5 3.6-6.7 2.6-9.7 2.5-15.7-.7-30.6-4.5-44.8-11.1-15.4-7.1-31.2-13.4-44.8-24-6.3-4.9-12-10.5-17.2-16.7-1.7-2-3.4-4.1-6.2-6.1 2.9 4.9 4.4 9.6 6.7 14 2.2 4.3 6.5 7.4 7.5 12.6-3.4 1.3-4.9-.8-6.4-2.4-8.2-9-16.6-17.8-22.1-28.8-.5-1-1.1-2-2.2-3-2.8 2.9-5.8 3.6-8.9.5-9.3-24-13.6-49-13.4-74.7.1-15.8.7-31.6 5.1-47 3.1-10.8 7.5-20.6 16.9-27.6.6-.5.9-1.3 2.3-3.2-9.8 1.7-15.2 10.3-24.4 10.1 8-18.8 20.7-33.6 38.2-44.7-7.7 1-14.9 2.3-23.1 3.1 7-7.7 14.4-13.9 22-19.7 7.5-5.8 15.4-11.1 23.2-16.7-2-2.4-3.2-1.1-4.2-.5-19.6 10.8-36.7 24.7-51.9 41-1.4 1.5-2.6 3.2-1.1 5.3 1.4 2 3.3 1 5 .5 1.8-.5 3.5-1.1 5.2-1.6.7.1 1.1.5 1.4 1.2-8.4 8.6-15.9 17.9-20.9 28.9-1.2 2.7-2.2 5.5-3 8.4-.6 2.1-.5 4.4 1.6 5.8 2.1 1.4 4.1.5 6.1-.6 1.2-.7 2-2.3 3.8-2.1.1.3.4.7.4.9-9.8 20.8-11.8 42.9-11.9 65.5 0 4.8 0 9.6-.1 14.4-1.2 1.9-1 4.2-1.9 6.2-1.5 3.5-2.4 7.3-7.8 6.6-2.7-.4-3.2 2.6-3.9 4.5-4.7 13.7-9.6 27.3-13.2 41.4-2.7 10.8-7.4 21.1-7.8 32.4-.1 1.4-.3 1.4-2.4 3.6-3.7-2.5-1.2-6.9-3.5-10.5-.9 13.3-2.2 26.1-4 38.8-1.7 12.3-4.2 24.3-9.1 36.1-4.8 11.4-9.3 22.7-16.1 33.1-1.1 1.7-2 3.5-4 4.3-.5.2-1 0-1.4-.3-1.3-2.5.3-4.5 1.2-6.6 1.7-4.1 3.7-8.1 4.2-14-6.3 4.3-12.8 5.9-17.7 10.7-2.1 2-4.3 3.9-7.1 4.4-7 1.2-13.3 4.2-19.8 6.8-6.6 2.6-12.7-.4-18.9-2.2-1.1-.3-2.1-1.4-2.1-2.6-.3-7.4-5.8-11.2-10.6-15.4-6.7-32.7-13.9-65.3-16.4-99 5.1-1.7 10.6-2.5 14.5-6.1 11.8-10.8 21.4-23.3 24.5-39.3 2.1-10.8.3-21.6-4.8-31.5-1.1-2.2-1.6-3.9-.5-6.4 2.7-6.1.4-13.5-5.4-18.9-4.8-4.5-11.2-5.3-17.5-2.1-1.9 1-3.8 2-5.9 3.1-4.2-4.7-9.8-7.4-15.4-10.3 2.2-7.9 3.8-15.9 6.6-23.5 8.7-23.4 19.6-45.9 28.9-68.9 7-17.2 13.4-34.7 22.1-51.2 4.1-7.7 5.5-16.3 7.6-24.7 1.4-1.1 2.8-2.1 3.3-4 2.7-6.1 2.1-12.9 3.8-19.2.2-.5.6-.8 1.1-1 2.1-.3 4.1 2.5 6.1.5 2.1-2.1.5-4.8 0-7.1-.8-3.6-2.5-6.9-4.4-10.1-2.8-4.6-2.5-8.7-.3-13.7 9.1-20.2 18.6-40.3 24.1-61.9 6-23.2 13.6-46 19.2-69.4.4-1.6.9-3.2.7-5.4-9.8 24.6-17.3 49.5-24.1 74.6-5.6 20.8-14.2 40.5-21.6 60.7-.5 1.3-1.1 2.5-2.9 3.1-5.7-6.3-7.7-15.2-14-21.7 5.7 10.9 10.2 21.8 14.8 32.7 1.9 4.6 1 5.4-5.7 5.5-.8 3.3 1.9 5.9 1.8 9-.1 2-.8 3.6-3 4.2-2.2-.2-2.2 1.5-2.5 2.9-6.9 7.7-15 14-23.9 19.3-1.8 1.1-4 1.7-5.4 3.4-.7 2.2 2.5 2.7 1.7 5.5-1.7 1.8-3.9.6-5.9-.4-6.6-3.4-13.7-5.9-20.7-10.4.9 5.3 6.1 7.5 6.6 12.4-2.1 2.2-4.2 1.2-6-.4-5.5-4.9-10.6-10.1-13.6-17-2.5-5.8-5.2-11.5-10-15.9-1.5-1.4-1.9-3.5-2.4-5.4-2-7.2-2.7-14.7-4.4-22-.4-1.8-.5-3.6-1.6-5.4-3.2 5.1.2 11.9-5.1 16.5-1.5-14.4-2.3-28.8-4-43.2 5.2-15.5 10.3-31 15.5-46.4-.4-.2-.8-.3-1.2-.5-3.7 3.6-3.3 9.5-7.3 12.9-.3-.1-.4-.3-.3-.5.6.1.6.1.7.1z"/><path class="st3" d="M229.4 1150.9c5.8-6.1 9.8-13.5 13.1-21 6.8-15.4 13.9-30.9 15.4-48 1-11 3.2-21.9 3.6-33.1.2-4.6.3-9.3 2.5-14.7 3 5.1 2.1 9.9 3.9 14.2.3-2 .4-4 .8-5.9 4.7-25.2 13.3-49.2 21.8-73.3 1.3-3.9 3.4-5 6.7-2.1 2.6-2.2 3.3-5.2 4.3-7.9.6-1.6.3-3.9 2.8-4.3 2 12.7 3.6 25.4 7.3 37.7.9 2.9-.8 4-2.9 5-5.5 2.8-11.1 5.5-18 8.9 8.9-.3 15.5-3.4 22.7-6.4 2 5.1 3.8 9.8 5.7 14.6 8 20 19 38.2 33.6 54 3.8 4.1 2.5 8.2 1.6 12.1-3.8 17.5-6.1 35.4-10.5 52.8-7.5 29.7-17.4 58.7-29.2 87-2.7 6.4-5.5 12.9-6.7 19.6-1.5 1.6-2.8-1.4-4.5.5 1.4 3.5 2.7 7.5 1.2 11.6 5.9 5.3 5.1 13 6.6 19.8 2.3 10.4 1.9 21.2 2.3 31.8.7 20.1 1.4 40.4-.3 60.5-1.8 21-3 42.1-5.4 63.1-1.6 14.5-3.3 29.1-4.7 43.7-1.8 18.7-4.4 37.4-5.4 56.1-1.1 21.4-1.5 42.9 4 64 4.1 15.7 2.9 31.3-2.9 46.6-3.1 8.1-8.3 12.8-17.1 13.7-13.7 1.5-27.5 2.4-41.2 3.7-6.8.6-14-1.7-21.2-1.8-27.2-.2-54.3-.7-81.5-.8-7.2 0-11.5-3.8-14.5-9.6-7-13.8 1.5-33.4 16.2-37.9 7.5-2.3 13.5 0 17.4 6.8 2.3 4 4 8.4 9 11.7 1.1-7.4-1.7-12.9-5.5-17.8-7.5-9.4-17.2-9.4-27.9-5.8 5-6.7 10.1-13.1 17.8-16.5 9.1-4 14.9 4.3 22.1 7.4 1.5-3-1.3-4.8-.6-7.7 9.2-4.1 18.7-4.6 29.8-.2-14.4 4.7-27.6 9.1-40.8 13.4.2.6.3 1.1.5 1.7 20.2-1.4 38.7-9 58-16.4-.6 8.5-2 16.6-.4 24.9 3.2-4.3 5.5-8.7 6.4-14 3.7-21.1.3-41.8-3.4-62.4-5.7-31.1-15-61.3-21.9-92.2-5.3-23.8-10.3-47.7-14.8-71.7-2.5-13.2-4.8-26.5-6.9-39.8-2.4-15.6-3.4-31.4-3.9-47.2-.4-13.3-.5-26.6-.8-40 0-1 0-2-1.2-2.9-2.3 2-.3 5-2.4 7.2-.3-12.1-1.6-24.1-1.2-36.4 3.1 7.4 6.2 14.9 9.9 23.6 1.1-3.9.8-6.3.3-8.6-4.5-21.7-11-42.8-16.2-64.3-2.1-8.5-3.9-17.2-4.6-26 2.3-.5 4.1.6 5.1 2.3 2.3 4.2 8.7 6.2 6.6 12.7-.4 1.3 1.6 2 2.8 2.4 7.6 2.1 15.1 4 22.4-.8 3.4-2.2 7.3-3.1 11.2-3.7 2.9-.5 6-1.2 8-3.6 5.4-6.1 13.5-7.7 19.8-12.1.3-.2.9 0 2.1 0 0 8.1-5.1 14.4-6.8 21.8zm365.5 482c-15.1 3.3-30.1 6.6-45.2 5.5-20.4-1.5-40.2 5.1-60.5 3.6-5.7-.4-11.3-1.2-16.8-2.3-7.4-1.5-10.5-6.4-11.1-15-.6-9.4.9-18.6 2.4-27.8 4.8-27.9 3.1-56.1 3.3-84.2.2-25.2-11.3-46.3-19.8-68.6-13.9-36.4-26.4-73.1-34.2-111.4-3.5-16.9-7.6-33.7-9.3-50.9-2.5-24.2-3.8-48.5 2.5-72.5 2.5-9.5 6.2-18.6 10.4-27.4 1.3-2.6 2.7-5.3 2.7-9.9-6.2 7.2-8.6 15.1-13.1 22.6-3.7-7-6.9-13.5-10.5-19.8-14.2-24.7-25.4-50.9-36.8-77-2.8-6.4-.8-13.6.6-21.2 2.6 2.4 4.8 4.3 7 6.3 29.1 26.4 63.3 42.1 101.7 48.7 17.6 3 35.4 3.6 53.2 1 5-.7 6.3 1.4 6.9 5.8 1.9 13.2 2.1 26.5 3.6 40-2.9-1-3.9-4.3-7-4.9-.7 1.6.5 2.7 1.2 3.8 7.3 11 11.4 23.2 14.1 36 2.3 11.2 5.5 22.3 7.8 33.6 3.8 18.5 4.7 37.3 5.4 56.1 1.2 30.1 1.1 60.3-.5 90.4-.6 10.8-1.6 21.5-2.8 32.3-1.9 17.1-2.1 34.3-.1 51.3 1.4 12.2-.3 24.7 2.8 36.8 1.3 4.9 3.8 9.4 4.2 15.8-10.8-14.3-17.9-29.4-26-45.3-1.3 3.7 0 5.3.7 7 7 19.2 17.9 36.4 28.3 53.8 9.7 16.1 20.5 31.6 27.9 49 5.9 12.6 6.7 25.7 7 38.8z"/><path class="st3" d="M327.2 1007.9c1.6.3 3.2.7 4.9.9.5.1 1-.2 1.3-.2 1.5-1.1.3-3 2.2-4.8 8.1 14.1 17.7 27 30 37.7-6.8-8.8-11-18.8-14.8-29.5 32.5 37 73.7 56.1 122.1 60-12.6-3.5-24.5-8.9-35.9-16.3 53.6 18.8 98.8 4.7 139.2-34.1-5.6-.4-7.9 5.6-13 3.7 2.6-3.9 5.7-6.7 9.1-9.3 24-18.7 41-42 47.2-72.3 3-14.9 2.8-29.8-2.6-44.2-4.7-12.5-7.1-25.6-11.6-38.1-1.6-4.4-3.9-8.5-5.6-12.8-1.8-4.5-6.5-5.3-9.5-8.1-6.4-5.8-12.1-12.2-19.8-16.6-7.8-4.6-16.3-7.1-25.5-10 6.2 6.6 12 12.7 17.7 18.7l-.3.6c-4-2.1-8.3-3.9-12-6.4-16.3-11.4-39.4-12.5-54.7 1.8-.2.2-.2.6-.5 1.2 6.4-.7 12.8-2 19 .6-.2 2.9-2.6 3-4.2 3.9-10.5 6-21.8 10.7-31.6 17.9-9 6.6-16.4 14.7-22.2 24.4 6.6-3 11.6-8.7 19.1-10.2-8 13.9-17.1 27.1-18.8 43.9 2-1.4 2.3-3.2 2.9-4.8s1.3-3 3.7-3c1.2 4.4.2 8.9.5 13.2.4 5.1-.9 10.2.8 15.3-2.6 3.5-5 7-7.7 10.4-3.3 4.1-4.6 3.8-7-.8-4.9-9.6-5.9-20.1-6.1-30.6-.6-26.7 3.1-52.7 13.8-77.5 5.8-13.3 13.8-24.3 28.2-29.3.8-.3 1.5-.7 1.7-1.9-2.9-3.1-6.2 1.3-9.2-.5 16.6-15.1 34.8-27 58.8-26.9-4.9-7.1-12.6-4.8-19.8-7 14-5.4 27.2-10 41.8-10.9-2.8-4.6-7.7-2.7-11.4-4.1 8.1-1.9 16.3-3.1 24.6-2.6 31.1 1.6 59.5 10.8 84.3 29.8 31.8 24.5 49.6 57 55.3 96.7 2.6 18.6 3.2 37.3 1.6 55.8-3.9 45.6-16 88.1-49.1 122.1-18.6 19.1-40.4 33.7-64.4 44.9-38.2 17.8-78.4 26.3-120.3 23.3-32.7-2.3-63-13.2-90-32.5-27.4-19.6-47.6-44.9-60.5-75.9-.8-2.1-1.1-3.8-1.7-5.6zM98.4 669.8c2.4.4 2 2.2 2 3.9.5 12.7 2.8 25.4 2.4 38.2 2.4-6 .8-12.9 3.6-18.9 2.9.6 2.7 2.6 3.1 4.3 1.9 9.2 3.8 18.5 5.7 27.7.2 1.1.1 2.4 1.2 3.2 5.3 3.8 7.6 9.6 10.1 15.1 3.2 7.4 8.5 13 14.3 18.3 1.1 1 2.2 1.5 3.9 1-1.8-5.2-7.7-8-8.1-15 9.4 5.1 18.5 9.5 28.5 13.6-.9-3.2-4-2.9-4.6-5.5 4.2-4 10.2-5.6 14.9-9.2 5.9-4.5 11-10.2 17.5-13.9 1.2 13.3-3.7 25.3-9.4 36.7-20 40.1-34.8 82.4-51.9 123.8-3.1 7.4-4.6 15.2-5.4 23.2-1.6 1.1-2.7-1.5-4.8.5-1.2 2.7 1.1 5 3.5 6.6 7.1 4.9 14.5 9.4 21.5 13.9 5.5-3.4 11-5.9 16.9-3.3 5.1 2.3 7.2 6.9 7.3 12.8-11.8-5.4-11.8-5.4-18.3 5.7-13.4-2-21.1 5.1-26.2 16.8-3.7-.7-6.9-2.5-10.6-2.4-4.1.1-7.5 1.4-10.3 4.3-5.9 6-8.6 13.6-11.4 22.8 3.5-2.6 4.6-5.4 6.3-7.6 2.3-3 4.3-6.3 6.8-9.3 5.9-7.2 13.8-6.9 19.8.3 5.5 6.6 6.2 14.3 5.1 22.1-2.4 17.4-8.2 22.1-32.4 25.4-9.5 1.3-17.5-1.8-23.2-9.6-12.3-16.8-25-33.3-32.3-53.1-3-8-3.4-15.8-.9-23.9 3.2-10.3 6-20.7 10-31 .6 8.5 1.2 16.9 1.9 26.3 2.1-10.2 1.7-19.6 2-29.1.7-19.8.5-39.6 1.8-59.3 1.5-23.1 5.3-45.9 9.2-68.6 3.8-22.1 9.2-43.9 16.4-65.2 4.2-12.3 8.1-24.7 12.2-37 .4-1.7.6-3.4 1.9-4.6zm155.7-437.1c.9 1.9-.6 4.3 1.2 6.1.4 3.1-.9 5.9-1.3 8.8-.4 2.6-1.2 5.3 1.2 7.5s4.3-.6 6.5-.9c1.5 3.3 3 6.5 4.7 10.1-14.9-2-29.7-2.5-42.9-10.5-9.4-5.7-16.3-13.6-21.4-23.2-.3-.6-.7-1.3-.6-1.9 1.9-14-5.2-27.9-.2-42 1-2.8 1.7-5.2 4-7.1 8.1-6.9 17.4-12.2 25.1-19.8 3.2 4.1 4.7 7.4 1.9 12.4-3.6 6.4.3 17.4 6.2 20.8 5.2 3 9.1 2.8 13.6-1.2 1.8-1.6 3.4-3 5.2.3-4.8 6.1-8.1 13.2-10.1 20.8-.6 2.2-1.3 4.2 1.1 5.8 1.9 1.2 1.1 2.9.7 4.5-1.5 6.4.2 12.6 1.1 18.8.2 1.4.5 3.3 2.7 4 1.4-4.5-.3-9.1 1.3-13.3z"/><path class="st3" d="M124.6 1025.9c16.4-11.4 14.1-31.4 8.5-47.3-1.8-5.2-.9-8.4 1.5-12.2 5.9-9.1 15-10.3 21.7-2 14.3 17.8 14.8 37.9-1.9 54.5-7.8 7.7-18.3 7.4-29.8 7zm427.6-280c.8-4.9 4.6-8.3 6.3-12.8 6.3-15.9 9.1-32.6 10.8-49.5.1-1.4-.3-3.1 1.6-3.7 6 20.4 9.9 41.3 14.3 62.9-11.1-.6-21.9 2.7-33 3.1z"/><path class="st1" d="M199.2 185.2c-5.2 13.3-2.3 25.9 1.6 38.6-8.8-1.3-14.7-9.3-16.2-20.7-1-7.2 3.4-12.8 14.6-17.9z"/><path d="M237.9 157c3-3.8 5.6-3.1 7.4.2 4.8 9 5.7 18.6 3.5 28.4-.5 2.1-1.9 4-4.6 3.9-3-.2-5.6-1.4-6.9-4.2-2-4.3-2.5-8.8-1.1-13.9 5.5 3.4 1.9 7.4 1.3 10.9 4.6 0 5.8-2.9 5.9-11.7.1-5.4-1.7-9.9-5.5-13.6z" fill="gold"/><path class="st3" d="M161.9 947.8c13.9 9.6 11.7 24.3 11.9 38.2-1.4-4.1-2.8-8.2-4.2-12.4-2-5.6-4.9-10.5-9.2-14.6-5.3-5-5.2-5.7 1.5-11.2zm346.7-198.9c5.1 2.2 10 4.9 15.7 5.4.4 0 .7 1 1.1 1.5-5 2-10 4-15.5 6.1-.5-4.6-.9-8.8-1.3-13zm-313.2-19.1c.9-1.2 2-2.2 2-3.8 2.1.1 2.1 1.8 2.4 3.2 1.3 6 1.6 11.9.4 18-2.1 2.4-2-.3-2.7-1.2-.3-5.5.7-11.1-2.1-16.2zm264.1 86.3c.5-4.9 3.4-8.5 6-12.3 1.9 1.5 1.6 3 .2 4.6-2.1 2.5-4.2 5.1-6.2 7.7z"/><path class="st2" d="M197.5 745.9c.5.7 1 1.3 1.6 2 .9.4 1 1 .8 1.9-.7 1.2-1.6 2.1-3.1 1.1.1-.7.2-1.4.4-2-.1-.4-.1-.7.2-1-.2-.7 0-1.3.1-2z"/><path class="st3" d="M196.7 750.9c.7-.3 1.4-.7 2.2-1 .6-.5 1.1-.5 1.5.3-.2 2.4-2.1 2.5-3.9 2.6.1-.6.1-1.3.2-1.9z"/><path class="st1" d="M105.3 635.1c.2.2.2.5.1.7.2 1.2.2 2.4-.9 3.2l-.1-.1c.1-1.4-.1-2.7.9-3.8z"/><path class="st2" d="M327 832.4c.8-.4 1.6-1 2.5-.2 0 0-.7.9-1.1 1.3-.5-.3-1-.7-1.4-1.1zm9.1-794.2c-.5-.4-1-.8-.4-1.4.1-.1.8.2 1.2.3-.3.3-.5.7-.8 1.1z"/><path class="st3" d="M197.2 747.8c-.1.3-.1.7-.2 1 .1-.3.2-.6.2-1z"/><path class="st0" d="M200.4 750.2l-1.5-.3c.1-.7.1-1.3.2-2 .7-7.4.8-14.8-1.5-21.9-.7-2-1.2-4.1-2-6.1-.7-1.7-1.8-3.4.2-4.9 1.7-1.4 3.1 0 4.4.9.7.5 1.3 1.1 3.1.4-5.2-13.6-11.4-27-17.4-40.5 7.8 6.3 11 15.6 16.3 24.6 2.3-6 4.2-11.5 6.4-16.9 14.3-34.1 21.8-70.5 34-105.3 2.4-7 5.3-13.8 9.9-19.9-.3 2.1-.4 4.2-1 6.2-10 34.3-17.5 69.3-30.5 102.7-4.5 11.6-9.8 22.9-14.9 34.3-1.3 2.9-1.3 5.1.4 7.8 3 4.6 5 9.7 6.3 15.1.5 2.3 1.3 4.6-1.1 6.3-2.4 1.7-4-.3-5.8-1.3-.4-.2-.9-.4-1.3-.6-.5-.1-.6.1-.5.5-.4 7.2-.3 14.3-3.7 20.9zm141.1-171.3c.6-9.9 1.3-18.6 2.7-27.3 3.4-21.8 6.9-43.5 11.1-65.1 4.7-24.4 7.1-49 5.5-73.9-.1-1 .1-2 .2-3.3 2.7 16.7 3.5 33.3 1.6 49.8-2.7 23.1-7.4 45.8-11.6 68.7-2.8 15.2-6.7 30.2-10.2 45.3-.4 1.4-1.2 3 .7 5.8zm-46.7-53c24.4-23.8 46.2-49.1 53.7-83.9 1.2 5.2 1.7 10.3.2 15.4-6.5 21.1-19.3 38.1-34.4 53.6-4.6 4.8-9.8 8.8-15 12.8-1.3 1.1-2.5 2.4-4.5 2.1zm83.1 221.3c-18.9-38.4-31.3-78.3-28.3-121.8.5 42.7 13.5 82.4 28.3 121.8zm29.2-224.8c-14.5-19.4-25.7-40.6-34.4-63.1 13.9 19.8 22.9 42.1 34.4 63.1zM269.2 59c2.9-.6 4.4 1.8 6 3.4 11.1 11.2 18.8 24.2 21.1 40 .2 1.7 2.3 3.1.7 5-.8.4-1.3-.4-1.4-.8-4.6-17.7-13.4-33-25.6-46.5-.3-.3-.5-.8-.7-1.3l-.1.2zm32.7 285.5c-11.9-4.4-22.9-11-35.7-12.7 14.3-2.5 24.4 6.7 35.7 12.7zm59.7-243.9c6.6 3.2 13.2 6.4 21.1 10.2-9.1-1.5-15.7-4.9-21.1-10.2zM528.2 722c-5.3 1.7-10.3 4.8-16.2 4.7 4.7-4.2 10.6-4.1 16.2-4.7zm-229-559.1c-.5 1.3-1.1 2.7-1.6 4-.1 0-.2-.1-.3-.1.7-1.4 1.3-2.7 1.9-3.9zm-8 11.9c.6-.7 1.3-1.3 2-2-.2 1.1-1 1.6-2 2 0-.1 0 0 0 0zm4.7-5.3l-.5.5h-.2c.2-.1.3-.2.7-.5zm63.9-62.7l.1.4.1-.4zm-74.4 74.1c.2-.1.5-.2.7-.3-.4-.4-.6-.2-.7.3zm14-18.1h.1s-.3.1-.1 0c-.2.1 0 0 0 0z"/><path class="st0" d="M269.4 58.9l-.6-.6c.2 0 .4-.1.5 0 .4.2.4.5 0 .7-.1 0 .1-.1.1-.1zm21.8 115.8l-1 1-.1.1c.5-.3.9-.7 1.1-1.1 0 .1 0 0 0 0zm-1 1c0 .1 0 0 0 0zm-4.8 5.2c-.7 0-1.1.3-1 1 .7.1 1.1-.3 1-1zm-1 1l-.1.1.1-.1zM258 1223.6c13.8.2 27.3 1.1 36.9 12.9-11.9-5.5-23.7-11.4-36.9-12.9zm-97.1 421.1c-1.6 2.5-3.2 4.7-6 5.8 1.9-1.8 3.8-3.6 6-5.8z"/><path class="st2" d="M229.4 1150.9c-.1.1-.1.2-.2.3 0-.1 0-.2.2-.3z"/><path class="st0" d="M502.4 1577.6c-5-10.5-5.8-21.6-4.5-33.3-5.2-1.2-5.5-5-4.2-9.5 1.6-5.8 3.5-11.4 6.5-16.7 1-1.8 1.8-3.9 5.2-4.5-2 8.1-6.2 15.1-7.1 23 2.2-.2 2.7-2.1 3.9-3.1 1.4-1.3 2.9-2.4 4.9-1.5 2.1 1 1.7 3.1 1.2 4.8-1.2 4.8-2.4 9.7-3.9 14.4-2.2 7.1-3.7 14.1-2.1 21.6.3 1.6.1 3.2.1 4.8zm-37.2-102.9c.3-11.7 10.1-22.5 22.2-25.8 12.9-3.5 23.3 2.5 33.7 19.2-4.5-2.8-7.7-7.6-12.2-11-12.7-9.9-28.7-7-38 6.9-1.8 3-3.3 6.3-5.7 10.7zm46 136.7c-7.2-9.6-8-40.5-1.6-46.5.5 15.3-1.1 30.3 1.6 46.5zm-26.1-446.9c-15.7-.7-29.8 3-44.1 9.1 4-8.8 29.2-13.6 44.1-9.1z"/><path class="st2" d="M367.9 1043.5c.1.1.2.3.2.4s-.2.2-.2.3c-.1-.1-.2-.3-.2-.4s.1-.2.2-.3zm3.5 3.4c-.4-.1-.8-.2-.1 0-.7-.5-.2-.2.1 0zm0 0c.1.1.2.1.3.2-.1-.1-.2-.1-.3-.2z"/><path class="st0" d="M125.8 953.2c-6.6-6.4-12.4-11.9-19.8-16.2 8-2.9 18.4 5.3 19.8 16.2z"/><path class="st2" d="M202.8 718.9c-.3-.8-.4-1.3-.6-1.8.3-.1.6-.2.7-.1.8.5.3 1-.1 1.9zm1.1 10.5c-.4-.4-.5-.8 0-1.3.2.2.4.5.5.7-.2.3-.3.4-.5.6z"/></svg>