<?xml version="1.0" encoding="utf-8"?>
<!-- Generator: Adobe Illustrator 21.1.0, SVG Export Plug-In . SVG Version: 6.00 Build 0)  -->
<svg version="1.1" id="Layer_1" xmlns="http://www.w3.org/2000/svg" xmlns:xlink="http://www.w3.org/1999/xlink" x="0px" y="0px"
	 viewBox="0 0 165.6 330.3" style="enable-background:new 0 0 165.6 330.3;" xml:space="preserve">
<style type="text/css">
	.st0{fill:#000000;}
	.st1{fill:#343434;}
	.st2{fill:#76e9c8;}
	.st3{fill:#44d262;}
	.st4{fill:#ffd700;}
	.st5{fill:#ffd700;}
	.st6{fill:#ffffff;}
	.st7{fill:#000000;}
	.st8{fill:#4FC6A3;}
</style>
<g id="dY9amp.tif">
	<g>
		<path class="st0" d="M77.1,22.9c0.9-0.8,1.8-1.5,3-1.6c0.1,0.1,0.1,0.2,0.1,0.3c-1.5,1-3,2.2-4.6,3.1c-0.1,0-0.2-0.1-0.2-0.2
			c0.2-1.2,0.8-2.2,1-3.2c-0.5,1.4-1.4,2.8-2.7,3.7c-0.6,0.4-0.7,1-0.5,1.7c1.2,3.6,2.3,7.3,3.8,10.8c0.3,0.7,0.7,1.3,1.4,1.7
			c0.5,0.3,0.7,0.7-0.2,0.9c-0.1,0-0.3-0.1-0.4-0.2c-0.1-0.1-0.1,0.2,0,0.1c0.1-0.2,0.2,0.1,0.3,0.1c1.1,0.7,2.2,1.6,3.3,2.3
			c1,0.7,1.8,0.7,2.7,0c0.9-0.7,2.1-1.2,2.9-2.1c0.1-0.1,0.3-0.2,0.5-0.1c-0.2-0.2-0.6,0-0.8-0.3c-0.1-0.2,0.1-0.4,0.3-0.5
			c1.3-0.7,1.8-1.9,2.3-3.2c0.6-1.7,1-3.5,1.6-5.3c0.3-0.7,0-1-0.7-1.1c-0.5-0.1-1-0.1-1.3-0.6c0.3-0.5,0.9-0.4,1.3-0.4
			c1.6-0.1,1.8-0.3,1.9-2.1c-0.7-0.1-1.3,0.2-2-0.1c-0.1,0-0.2-0.1-0.3-0.3c0.6-1.1,2.3-0.3,3.1-1.6c-4.4-0.6-8.7-2-13.1-0.1
			c-0.2,0.1-0.5,0.1-0.7,0.1c-0.1,0-0.2-0.1-0.3-0.2c-0.1-0.5,0.3-0.7,0.7-0.9c1.5-0.6,2.7-1.5,3.9-2.6c0.1,0,0.2,0,0.3,0.1
			c-0.1,0.6-0.4,1-0.9,1.3c0.1,0.2,0.3,0.3,0.5,0.3c2.9-0.4,5.6,0.5,8.3,0.9c1.8,0.3,1.8,0.2,2.3-1.4C95.5,17.1,97,12,98.6,6.9
			c0.6-1.9,1.6-3.6,2.9-5c1-1.1,2.1-1.3,3.4-0.7c1.8,0.7,3.2,2,4.3,3.6c4,6,6,12.9,7.4,19.9c0.7,3.3,1.1,6.7,1.3,10.3
			c0.8-0.6,1-1.5,1.9-2.1c0.1,2.2-0.2,4.3-0.6,6.6c0.9-0.2,1.4-1.1,2.4-1.2c-0.6,1.7-0.8,3.5-1.1,5.3c-0.3,1.7-1,3.3-2.3,4.8
			c1,0.1,1.9-0.5,2.8,0.1c-2,2.4-3.7,4.9-5.4,7.6c1.2,1,2.8,1.3,4.2,2c-0.6,0.6-1.3,0.7-1.9,1.1c1.3,2,3.5,5.8,6,6.9
			c-0.8,0.9-2,1-3.1,1.6c0.3,0.7,0.7,1.5,0.9,2.2c0.2,0.8,0.6,1.5,0.3,2.5c-0.7-0.4-1.4-0.7-2.1-1.1c0.2,1.1,0.4,2,0.5,3
			c0.3,1.3,0.2,1.4-1.2,1.4c-3.1,0.1-6.1-0.1-9.1,1c-1.2,0.4-2.4,0.7-3.6,1.5c1.2,2.3,2.4,4.6,3.7,6.9c0.3,0.5,0.6,0.8,1.2,1
			c5.3,1.7,10.4,3.8,15.9,4.8c1.7,0.3,3.3,0.4,5.1-0.5c-0.4,1.2-1.2,1.8-1.6,2.7c2.4,1.7,3.6,4.8,6.8,5.8c-1.3,1-2.5,1.3-3.8,1.7
			c0.8,1.8,1.6,3.6,2.4,5.4c-0.9,0.3-1.7-0.1-2.6-0.4c0.6,2.6,0.9,5.2,1.2,7.7c0.6,4.5,1.6,8.9,2.6,13.3c0.9,4.1,1.9,8.1,3.3,12
			c3.5,10,6,20.4,9.4,30.4c1.5,4.6,3.9,8.9,5.5,13.5c1,2.7,1.8,5.5,3.3,8c1,1.6,2.2,3,3.3,4.6c2,2.8,3.4,5.8,3.6,9.3
			c0.1,1.6-0.5,3.2-1.2,4.6c-0.7,1.4-1.8,2.6-2.2,4.2c-0.1,0.4-0.5,1-1.1,1c-0.7,0-0.7-0.6-0.8-1.1c-0.6,0.1-0.8,0.6-1,0.9
			c-1,1.7-2.4,2.9-4.1,3.8c-0.6,0.3-1,0.6-1.2,1.3c-0.3,0.8-0.8,1.5-1.9,1.8c-0.2,0-0.4-0.4-0.4-0.7c0-1.4-0.9-1.7-2.1-2
			c-1.7-0.5-3.2-0.9-4.7,0.5c-0.5,0.5-1.4,0.7-2.1,0.6c-1.2-0.1-2.3,0-3,1.3c-0.4,0.7-1,0.5-1.1-0.3c-0.3-1.4-1.1-2.2-2.3-2.9
			c-2.9-1.7-3.3-4.5-2.9-7.5c0.2-1.8,0.6-3.5,0.7-5.4c-2,3-4.6,3.8-7.8,2.1c-0.5,0.3-0.7,1-1.4,1.1c-0.7-0.5-0.6-1.3-0.7-1.9
			c-0.1-0.7-0.3-1.3-0.7-1.9c-1.9-3.2-0.9-6.9,1.1-9.4c1-1.2,1.9-2.6,3.1-3.7c0.6-0.5,0.9-1.3,1.1-2.1c0.4-1.7,0.9-3.5,1.8-5.1
			c0.3-0.5,0.2-1,0-1.5c-1-3.8-2.8-7.3-3.9-11c-1.3-4.4-2.6-8.8-3-13.4c-0.3-2.5-1.3-4.8-2.3-7.1c-2.8-6.4-5.2-12.9-7.6-19.4
			c-0.6-1.6-1-3.2-2-4.7c-0.2,1.1-0.4,2.2-0.5,3.4c-0.3,4.6-0.7,9.3-0.7,13.9c0,4.6-0.2,9.2,0,13.8c0.2,5,0.7,10,1.7,14.9
			c1.2,5.7,2.8,11.4,4.4,17c2.6,9.3,5.1,18.7,7.2,28.1c1,4.4,1.5,8.8,1.9,13.2c0.3,3.6,0.4,7.3,0.5,10.9c0,3.3-0.9,6.4-1.3,9.6
			c-0.7,5.4-1.7,10.7-2.1,16.1c-0.6,7.2-0.3,14.4,0.1,21.7c0.3,4.9,1.3,9.8,2.3,14.7c5.1-0.2,8.5,3.1,11.9,6.1
			c1.7,1.5,2.2,3.9,2.6,6.1c0.6,3,0.6,6,0.3,9.1c-0.2,2.8-1.4,3.9-4.2,3.9c-8.8,0-17.7,0-26.5,0c-2.3,0-4.6,0-7,0
			c-3.3,0-5-1.3-5.8-4.5c-0.8-3.1-0.8-6.2-1.1-9.4c-0.4-6-0.2-12.1-0.8-18.1c-0.8-8.2-1.2-16.5-2.5-24.6c-0.7-4.3-1-8.7-0.8-13.1
			c0.2-3.3,0.6-6.6,1.5-9.8c0.9-2.8,0.9-5.5,0-8.4c-1.8-5.4-3.2-10.9-4.2-16.4c-1-5.3-1.9-10.6-2.3-16c-0.1-1-0.3-2-0.4-3.1
			c-0.1-0.6-0.3-0.8-0.9-0.8c-1.6,0-3.1,0.1-4.7,0c-0.9,0-1.1,0.4-1.2,1.2c-0.8,7.3-1.6,14.5-3.3,21.6c-1.2,5-2.3,10-4,14.9
			c-0.7,2-0.4,3.9,0.2,5.9c2.2,7.5,2.2,15.1,1.1,22.8c-1,7.4-1.8,14.8-2.3,22.3c-0.4,5.7-0.8,11.5-0.9,17.2c-0.1,4.3-0.3,8.5-1,12.8
			c-0.2,1-0.5,1.8-0.9,2.7c-1,1.9-2.4,2.9-4.8,2.9c-11.3-0.1-22.6-0.1-33.8-0.1c-2.8,0-4-1.2-4.2-4c-0.3-3.3-0.3-6.6,0.5-9.8
			c0.7-3,2.1-5.5,4.8-7.3c2.1-1.4,4-3.2,6.6-3.7c0.9-0.2,1.9-0.2,3-0.4c0.6-3.2,1.1-6.4,1.7-9.7c0.8-4.9,0.9-9.9,1-14.8
			c0.1-4.3,0-8.7-0.4-13c-0.7-7-1.9-14-3.1-20.9c-0.5-2.9-0.2-5.9-0.1-8.8c0.1-5.6,0.6-11.2,1.8-16.8c1.5-7,3.1-14,5.1-20.9
			c1.4-4.9,2.6-9.8,4-14.7c2-7.2,3.6-14.6,4.3-22.1c0.6-6.2,0.2-12.4,0.2-18.6c0-2.5-0.2-5.1-0.3-7.6c-0.2-3.1-0.1-6.2-0.9-9.2
			c-0.5,0.1-0.5,0.5-0.6,0.9c-2,6.3-4.8,12.4-7.1,18.7c-1.3,3.6-3.3,7-4,10.8c-0.6,3-1,6-1.7,9c-1.3,5.5-3.6,10.6-5.3,16
			c-0.3,0.8-0.3,1.5,0.1,2.3c0.7,1.2,1.1,2.5,1.4,3.8c0.3,1.7,1.4,2.9,2.5,4.1c1.1,1.2,2.1,2.4,2.9,3.8c1.7,3.2,1.6,6.2-0.6,9.1
			c-0.1,0.2-0.2,0.4-0.4,0.5c-0.3,0.3-0.7,0.5-1,0.8c-0.1,0.1-0.2,0.1-0.3,0.2c-0.5-0.1-0.8,0.2-1.2,0.4c-2.5,1-4.5,0.4-6.2-1.7
			c-0.2-0.3-0.4-0.6-0.8-0.8c0.1,1,0.3,2,0.4,3.1c0.2,1.6,0.5,3.3,0.4,5c-0.2,2.5-1.6,4.1-3.5,5.3c-0.5,0.3-1,0.5-1.3,0.9
			c-0.1,0.1-0.2,0.1-0.3,0.1c-0.7,0-1.2,0.5-1.8,0.7c0,0-0.1-0.1-0.1-0.1c-0.1-0.1-0.1-0.1-0.2-0.2c-0.7,0.1-1.4,0.2-2.1-0.1
			c-1.3,0-2.5-0.6-3.5-1.4c-0.5-0.4-0.8-0.5-1.4-0.2c-0.5,0.2-1,0.5-1.5,0.5c-1.8,0.1-3,0.8-2.8,3c-1.3-0.6-2.2-1.3-2.5-2.5
			c-0.1-0.4-0.2-0.6-0.6-0.8c-2-0.9-3.5-2.2-4.5-4.1c-0.2-0.3-0.3-0.6-0.8-0.7C5,213.2,5.1,214,4.4,214c-0.7,0-0.9-0.6-1.2-1.2
			c-0.5-1.1-1-2.2-1.7-3.2c-1.9-3-2-6.3-0.7-9.6c0.9-2.3,2.1-4.4,3.6-6.3c2.2-2.6,3.8-5.6,4.8-8.8c1.1-3.7,2.8-7.2,4.4-10.7
			c2.5-5.5,4.1-11.3,5.7-17.1c1.9-7,4.3-13.8,6.4-20.7c1.5-4.9,2.6-9.9,3.7-15c1.1-5.1,1.7-10.4,2.7-15.5c0-0.1,0-0.2-0.1-0.4
			c-0.8,0.2-1.6,0.7-2.6,0.3c1.1-1.6,1.4-3.6,2.5-5.3c-1.3-0.5-2.5-0.9-4-1.7c3.5-0.9,4.6-4.1,7.1-5.8c-0.6-0.8-1.2-1.5-1.6-2.6
			c3.2,1.4,6,0.2,8.9-0.5c3.3-0.7,6.4-2.3,9.6-3.1c2.4-0.6,3.9-1.8,4.8-4.1c0.7-1.6,1.6-3.1,2.4-4.8c-2.9-1.3-5.7-2.3-8.8-2.4
			c-1.4-0.1-2.8-0.1-4.2-0.1c-0.8,0-1.2-0.2-1-1.2c0.2-1,0.4-2.1,0.8-3.4c-0.9,0.5-1.5,0.8-2.4,1.3c0-1.8,0.6-3.3,1.4-4.8
			c-1-0.6-2.2-0.9-3.2-1.7c3-1.5,4.2-4.4,6.1-6.8c-0.5-0.5-1.4-0.5-2-1.2c1.4-0.7,2.8-1.1,4.1-2c-1.7-2.7-3.3-5.6-5.7-7.8
			c-2-1.8-1.6-4.1-0.3-5.5c0.8-0.8,0.8-1.6,0.6-2.5c-0.2-0.6-0.4-1.3-0.6-2c0.9,0.2,1.5,0.9,2.3,1.3c-0.3-2.2-0.7-4.3-0.6-6.8
			c0.7,0.9,1.2,1.5,1.8,2.4c0.2-2.1,0.4-4,0.6-5.9c0.8-6.7,2.5-13.1,5.2-19.3c1.1-2.5,2.3-4.9,4.4-6.8c0.1-0.1,0.2-0.2,0.3-0.3
			c2.9-2.7,5.2-2.3,7.2,1c1.7,2.9,2.4,6.1,3.4,9.3c1.2,3.9,2.5,7.7,3.5,11.7c0,0.1,0.1,0.2,0.3,0.3c2.7-1.4,3.4-4.1,4.2-6.7
			c0.3,1.4,0.1,2.8,0.1,4.2C76.9,22.6,76.9,22.8,77.1,22.9z"/>
		<path class="st1" d="M80.1,21.5c0-0.1,0-0.1,0-0.2c1.4-0.9,2.9-1.4,4.2-2.4c0.3-0.2,0.4,0,0.4,0.2c0,0.7-0.5,1.2-0.8,1.9
			c-0.1,0-0.2,0-0.2-0.2c-0.1-0.3,0-0.6,0.2-0.8c0,0,0,0,0,0s0,0.1,0,0.1c-0.8,0.7-1.9,1.1-2.8,1.6C80.6,21.7,80.3,21.8,80.1,21.5z"
			/>
		<path class="st1" d="M39.5,206.4c0-0.1,0-0.2,0.1-0.4c1,0.5,0.8-0.5,1.2-0.9c0.1-0.2,0.2-0.3,0.4-0.3c0.3,1,0.2,1.9-0.7,2.6
			C39.9,207.3,39.6,206.9,39.5,206.4z"/>
		<path class="st1" d="M27.1,218.6c0.1,0,0.2,0,0.2,0c0,0.2,0,0.3-0.1,0.5c-0.1,0.6,0,1.5-0.8,1.7c-0.8,0.1-0.9-0.7-1.3-1.2
			c0,0,0.1-0.1,0.1-0.1c0.3-0.1,0.6,0.2,0.9,0.2C26.6,219.4,26.5,218.7,27.1,218.6z"/>
		<path class="st1" d="M22.8,219.1c0.7,0,1.4-0.1,2.1,0.1C24.2,219.2,23.5,219.4,22.8,219.1z"/>
		<path class="st0" d="M84.6,19.1c-0.1-0.1-0.3-0.1-0.4-0.2c0.2-0.2,0.3-0.4,0.5-0.6C84.9,18.6,84.7,18.9,84.6,19.1z"/>
		<path class="st1" d="M83.7,21.1c-0.1,0-0.2,0-0.3,0c-0.1-0.2,0-0.3,0.2-0.3C83.7,20.9,83.8,20.9,83.7,21.1
			C83.8,21,83.8,21.1,83.7,21.1z"/>
		<path class="st1" d="M25.1,219.3c0.1,0.1,0.3,0.1,0.4,0.2c-0.1-0.1-0.2-0.1-0.3,0c0,0,0,0,0,0C25.1,219.5,25.1,219.4,25.1,219.3z"
			/>
		<path class="st2" d="M35.3,91.5c3.1,0.3,6.1-0.7,9-1.5c3.3-0.9,6.5-2.1,9.8-3.2c1.3-0.4,2.1-0.3,2.7,1c0.1,0.1,0.2,0.2,0.3,0.3
			C57,88,56.9,87.8,57,87.7c-0.9-1.1-0.7-2.3,0-3.4c1-1.9,2-3.9,3-5.9c1.7,0.7,3.2,1.3,4.8,1.9C59,76.7,53,74.2,46,74.8
			c0.1-2.2,0.7-4,1.8-6c-1.3,0.5-2.2,1.3-3.3,2.1c0.2-1.7,1-2.8,2-4c-1.1-0.4-2.2-0.4-3.4-1.1c2.7-2,3.8-5.3,6.5-7.3
			c-0.6-0.3-1.4-0.1-2-0.6c1.1-0.5,2-0.9,3.1-1.4c1.1,1.4,2.5,2.6,3.8,3.7c-0.1,0.9-0.9,1.5-0.9,2.3c0,0,0,0.1,0,0.1
			c0,0.1-0.2,0.3,0.1,0.3c0.2,0,0.4-0.1,0.3-0.4c0-0.1-0.1-0.2-0.1-0.3c1.4-4,3.9-7.2,7.1-9.8c-0.1,0,0-0.3-0.2-0.2
			c-2.5,2-4.9,4.2-6.1,7.4c-4-2.9-5.8-7.5-9-11.1c1.4-0.2,2.5,0.7,3.8,0.8c-0.3-0.2-0.6-0.4-1-0.6c1.2-0.6,2.2-0.9,3.1-1.5
			c1.3-0.7,2.3-1.7,3-3c0.4-0.9,0.4-1.9,0-2.8c-0.2-0.5-0.6-0.8-1.2-0.7c-0.5,0.1-0.9,0.4-0.8,1c0.2,2.2-1.3,3.3-3,3.8
			c-2.9,0.9-3.1,0.8-3.8-2.1c-0.3-1.4-0.6-2.8-0.8-4.2c0,0,0-0.1,0.1-0.2c0.9,0.7,1.7,1.3,2.5,2c-1.1-2.1-1.1-4.4-1.3-6.8
			c0.9,0.8,1.3,1.8,2.1,2.7c-0.2-2.2-0.2-4.2,0.1-6.2c1.2-8.1,2.8-16.1,7-23.4c1.1-1.9,2.3-3.8,4.1-5.1c1.9-1.3,3.2-1.1,4.5,0.9
			c2.1,3,2.8,6.6,3.9,10c2.2,7.3,4.3,14.6,6.9,21.8c0.3,0.8,0.7,1.5,0.8,2.2c0.5,2.8,2.5,4.2,4.7,5.4c0.8,0.4,1.6,0.9,1.6,2
			c0,0.3,0.4,0.6,0.6,0.8c-0.8,0.4-0.1,0.8,0.1,1.1c-0.5-0.8,0.5-1.7-0.2-2.5c1.2-0.7,2.2-1.6,3.4-2.1c1.2-0.6,1.9-1.7,3-2.4
			c0.5-0.3,0.2-0.7,0.3-1.1c3.2-8.2,5.3-16.7,8-25.1c1.1-3.4,1.8-6.9,3.7-9.9c1.4-2.3,2.9-2.6,5.1-0.9c2.5,2,4,4.7,5.2,7.5
			c3.2,7,4.8,14.5,5.7,22.2c0.2,1.4,0,2.9,0,4.5c0.9-0.8,1.3-1.8,2.2-2.8c-0.2,2.5-0.2,4.8-1.4,7c0.8-0.6,1.6-1.2,2.5-1.9
			c0.2,3.8-1.4,7.4-4.6,10.5c1.4-0.3,2.5-1.2,4.1-1.2c-3.2,3.7-5.1,8.2-9,11.2c-1.1-2.6-2.8-4.7-5-6.4c-0.1,0-0.1,0-0.2-0.1
			c0,0-0.1,0.1-0.1,0.1s0.1,0,0.1,0c0,0.1,0,0.1-0.1,0.2c1.8,1.8,3.7,3.5,4.7,6c0.4,1.1,0.9,2.2,1.5,3.2c-0.2,0.4-0.5-0.1-0.6,0.2
			c0.3,0.4,0.9,0.4,1.6,0.6c-0.7-1.1-1.4-2.1-1.8-3.2c1.3-1.2,2.7-2.3,3.8-3.8c1,0.5,2,0.9,3,1.4c-0.6,0.5-1.3,0.3-2,0.5
			c2.7,2.1,3.8,5.4,6.6,7.4c-1,0.7-2.3,0.7-3.4,1.1c0.9,1.1,1.7,2.1,2,3.4c-0.1,0.1-0.1,0.2-0.2,0.3c-0.9-0.6-1.6-1.4-2.9-1.8
			c1,1.9,1.6,3.7,1.7,5.9c-7-0.6-13.1,1.9-18.9,5.3c0.8,0,1.5-0.5,2.3-0.8c0.8-0.3,1.6-0.6,2.5-1c1.3,2.4,2.7,4.8,3.6,7.4
			c0.2,0.6-0.2,1.1-0.5,1.7c-0.2,0.4-0.4,0.9-0.6,1.4c0.6-0.1,0.7-0.6,0.8-0.8c0.5-1.4,1.4-1.5,2.7-1.1c3.9,1.3,7.7,2.8,11.6,3.7
			c2.4,0.6,4.8,1.3,7.4,1c-0.2,0.7-0.9,1-1.6,1.4c3.2,1,4,4.5,7,5.8c-1.1,0.7-2.4,0.8-3.6,1.3c1.5,1.4,1.7,3.3,2.6,5
			c-1.2-0.1-2-0.9-3-1.3c1.6,3.3,1.5,6.8,2.1,10.2c1.4,8,3,15.9,5.4,23.7c0.6,2.1,1.3,4.2,2,6.3c-0.3,0.3-0.6,0.3-1,0.4
			c-5.3,1.2-10.5,2.8-15.2,5.4c-0.4,0.2-0.7,0.6-1.2,0.2c-0.2-0.8,0.1-1.6-0.3-2.5c0,1-0.1,1.9-0.1,2.9c-0.3,0.4-0.6,0.5-1,0.3
			c-1.7-3.1-2.7-6.5-3.9-9.8c-1.8-4.8-3.7-9.7-5.5-14.5c-0.6-1.5-0.7-2.9-0.3-4.4c0.8-2.8,1.4-5.7,1.8-8.8c-0.6,0.5-0.5,1-0.6,1.5
			c-1,4.1-2.2,8.3-3,12.4c-0.5,2.3-0.3,4.8-0.5,7.1c-0.5,6.1-0.6,12.3-0.7,18.4c-0.1,9.7,1.3,19.3,3.8,28.6
			c1.7,6.5,3.7,12.9,5.5,19.4c2.8,10.4,5.5,20.9,6.2,31.8c0.4,6,0.4,11.9-0.9,17.8c-0.2,0.9-0.3,1.8-0.4,2.7c-1,0.6-2,0.4-3,0.3
			c-7.8-1.2-13.1-5.4-15.4-13.2c-0.9-3.1-1.4-6.2-2-9.4c-1.1-5.9-1.8-11.9-2.5-17.9c-0.4-3.6-0.7-7.2-1.1-10.8
			c-0.7-5.4-1.1-10.8-2.7-16.1c-1.1-3.6-3.4-6.1-6.6-7.8c-0.3-0.2-0.6-0.3-0.9-0.6c-0.3-0.9-0.1-1.7,0-2.6c0.3-5.2-4.8-9.5-9.7-7.1
			c-2.6,1.3-3.9,3.6-4.1,6.4c-0.1,1.1,0.4,2.1,0,3.2c-0.4,0.5-1,0.6-1.5,0.9c-3.8,2.2-5.7,5.6-6.6,9.7c-0.8,3.7-1.2,7.5-1.7,11.3
			c-0.9,6.3-1.3,12.7-2.1,19.1c-0.9,6.8-1.9,13.6-3.4,20.3c-1.9,8.2-7.4,13.3-15.8,14.5c-1,0.1-2.1,0.3-3-0.2
			c-1.1-5.7-1.8-11.4-1.5-17.2c0.4-9.9,2.2-19.5,4.7-29c2.5-9.3,5.4-18.5,7.7-27.9c2.2-8.7,3.3-17.5,3.2-26.5
			c-0.1-6.3-0.1-12.5-0.8-18.8c-0.3-2.6,0-5.4-0.7-8c-1.1-4.1-2.1-8.2-3.3-12.3c0.1,0.5,0.1,1,0.2,1.5c0.5,2.5,1,5,1.6,7.5
			c0.3,1.4,0.2,2.7-0.3,4c-2,5.1-3.9,10.3-5.9,15.4c-1.2,3.1-2.1,6.2-3.7,9.1c-0.4,0.2-0.7,0-1-0.4c-0.2-1,0.2-2.1-0.2-2.8
			c-0.4,0.6,0.1,1.5-0.3,2.4c-0.4,0.2-0.8-0.1-1.1-0.3c-4.8-2.5-9.9-4.1-15.2-5.3c-0.4-0.1-0.8,0-1.1-0.4c0.6-1.9,1.1-3.7,1.7-5.6
			c2.1-6.4,3.4-13,4.8-19.7c0.6-3.1,1.1-6.3,1.5-9.4c0.2-1.8,0.5-3.7,1.6-5.6c-1.1,0.7-2,1.3-3.2,1.6c0.9-1.8,1.1-3.7,2.6-5.1
			c-1.1-0.6-2.4-0.6-3.5-1.4c3-1.2,3.8-4.8,7-5.8c-0.5-0.4-1.1-0.7-1.5-1.3C35.1,91.7,35.2,91.6,35.3,91.5z"/>
		<path class="st3" d="M89.7,177.3c3.6,1.5,6.1,3.9,7.5,7.6c1.4,3.7,1.8,7.6,2.3,11.5c0.6,4.6,1.2,9.2,1.6,13.9
			c0.4,4.8,1.1,9.6,1.8,14.3c0.8,5.5,1.5,11.2,3.3,16.5c2.2,6.6,7,10.3,13.8,11.6c1.3,0.2,2.6,0.3,3.9,0.2c-1.1,7-2,14-2.1,21.1
			c-0.2,11,0.8,21.8,3.4,32.4c0.8,3.3,1.2,6.6,1.6,9.9c0.6-4-0.4-7.8-1.2-11.8c2.7-0.3,4.9,0.8,7,2.5c-1.1,0.2-2.2,0-3.1,0.7
			c0.1,0.3,0.2,0.2,0.4,0.2c3.4-0.8,6.5,0.7,7.9,3.8c2,4.5,2.1,9.3,1.5,14.1c-0.1,1.2-0.9,1.8-2,2c-0.6,0.1-1.3,0.2-1.9,0.2
			c-11,0-22.1-0.1-33.1,0c-2.9,0-4.2-1.5-4.9-3.9c-0.5-1.7-0.6-3.5-0.8-5.3c-0.8-9.8-0.6-19.6-1.5-29.4c-0.6-6.8-1.4-13.5-2.3-20.2
			c-1.1-8.3-0.4-16.4,2.4-24.3c0.4-1.1,1.2-2,1.3-3.2c0,0,0.1,0,0.1-0.1c0,0,0,0,0,0s-0.1,0.1-0.1,0.1c-0.7,0.7-1,1.7-1.7,2.7
			c-4.1-13-6.6-26.1-8.1-39.6c0.7,0,1.2-0.1,1.7-0.1c-1.3-1.6-9.7-1.6-11.6,0c0.5,0,1,0.1,1.7,0.1c-1.4,13.5-3.9,26.6-8.1,39.6
			c-0.5-0.8-0.9-1.5-1.4-2.2c1.6,3.4,2.3,7,3.1,10.5c1.2,5,1.1,10.1,0.4,15.1c-1.2,9.5-2.4,18.9-2.9,28.5c-0.1,2.4-0.3,4.9-0.4,7.3
			c-0.4,1.4-0.3,2.8-0.3,4.2c0,1.6-0.1,3.2,0.1,4.9c-0.3,3.7-0.4,7.5-1.1,11.2c-0.2,1.2-0.9,2.2-1.7,3.1c-0.6,0.7-1.3,1-2.3,1
			c-11.4,0-22.9,0-34.3,0c-0.6,0-1.2-0.1-1.8-0.2c-1.2-0.2-1.9-0.9-2.1-2.1c-0.3-2-0.3-4-0.2-6c0.1-2.7,0.5-5.3,1.7-7.8
			c1.1-2.3,2.8-3.9,5.4-4.4c1-0.2,2,0.2,3.3,0.5c-1.1-1-2.1-0.9-3.2-1c-0.1,0-0.1,0-0.1-0.1c1.9-1.6,4.1-2.6,6.8-2.4
			c-0.7,4-1.8,7.8-1.1,11.9c0.3-2.2,0.5-4.3,0.9-6.5c1-5.4,2.1-10.8,3.1-16.2c0.7-4,0.7-8,0.9-12c0-0.3,0.1-0.5,0.1-0.8
			c0.3-0.1,0.3-0.3,0.3-0.6c0-2.6,0-5.1,0-7.7c0-0.2,0.1-0.5-0.3-0.6c-0.4-3.9-0.7-7.8-1.1-11.6c-0.3-2.4-0.7-4.9-1-7.3
			c5.3,0.1,9.9-1.5,13.7-5.2c2.6-2.6,4-5.8,4.8-9.3c1.4-6.1,2.3-12.3,3.1-18.5c0.6-4.1,1-8.2,1.4-12.3c0.7-6.8,1.4-13.7,2.9-20.4
			c0.9-3.9,3-7,6.5-9.1c0.6-0.3,1.1-0.6,1.7-0.8c0.5,0.2,0.5,0.6,0.6,1c0.8,2.1,2,4,3.4,5.7c1.8,2.1,3.5,2.2,5.5,0.2
			c1.5-1.5,2.5-3.3,3.4-5.2C89.1,178.5,89.1,177.7,89.7,177.3z"/>
		<path class="st3" d="M24.2,143.9c2.8,0.2,5.4,1.1,8,2c3.2,1.1,6.5,2.2,9.4,4.1c0.2,3.9-0.8,7.6-1.3,11.4c-0.9,5.9-3,11.5-5.1,17.1
			c-0.4,1.1-0.8,2.3-1.2,3.5c-1.4-1.4-2.8-2.5-4.9-2.7c0.1,0.2,0.1,0.3,0.2,0.3c3.3,0.9,4.9,3.4,5.6,6.3c0.8,3.1,2.3,5.6,4.5,7.9
			c1.8,1.9,2.9,4.1,2.8,6.8c-0.1,3.6-3.9,6.7-7.1,5.8c-1.5-0.4-2.3-1.6-3.1-2.8c-0.4-0.7-0.8-1.4-1.2-2.1c-0.6,0.4-0.4,0.9-0.3,1.4
			c0.3,2.7,1,5.4,1.1,8.2c0.1,4.9-5.1,8.7-9.7,7.2c-0.5-0.2-1-0.4-1.5-0.7c-0.7-0.5-1.2-1-0.5-1.9c0.4-0.5,0.6-1.1,0.7-1.7
			c0.5,0.1,0.5,0.6,0.8,0.7c0,0,0.1,0,0.1,0c0.1,0.1,0.2,0.1,0.4,0.2c0.1,0.1,0.2,0.1,0.2,0.2c0.1,0.1,0.2,0.1,0.3,0.2
			c0,0,0.1,0,0.1,0.1c1.7,0.5,3.3,0.2,4.8-0.8c0.1-0.1,0.1-0.2,0.2-0.2c0.1-0.1,0.1-0.2,0.2-0.2c0,0,0.1-0.1,0.1-0.1
			c0.1-0.1,0.2-0.2,0.2-0.2c0.1-0.1,0.2-0.2,0.2-0.2c0.9-1.2,1-2.5,0.8-4c-0.2-1.5-0.2-2.9-0.8-4.3c-0.1-0.1-0.1-0.2-0.2-0.2
			c-0.1-0.1-0.1-0.2-0.2-0.4c0-0.1-0.1-0.1-0.1-0.2c-0.1-0.1-0.2-0.2-0.3-0.3c0,0,0-0.1,0-0.1c-0.9-1.3-2.2-1-3.4-0.7
			c-1.4,0.4-2.4,1.3-2.6,2.8c-0.3,2-0.6,3.9-0.9,5.9c-0.9,4.7-4.7,6.9-9.2,5.1c-2-0.8-3.5-2.2-4.5-4.2c1-0.4,1.8-0.9,2.6-1.7
			c0.4,0.6,0.5,1.3,1.1,1.7c0,0,0.1,0,0.1,0c0.1,0,0.2,0.1,0.3,0.1c0,0,0.1,0.1,0.1,0.1c0.1,0.1,0.2,0.1,0.2,0.2
			c0,0,0.1,0.1,0.1,0.1c1.7,1.1,3.5,1.5,5.4,0.7c0.1-0.1,0.2-0.1,0.3-0.2c0.1-0.1,0.2-0.1,0.2-0.2c0,0,0.1-0.1,0.1-0.1
			c0.1-0.1,0.2-0.2,0.2-0.2c0.1-0.1,0.2-0.2,0.2-0.2c1.4-2.6,1.8-5.5,1.7-8.4c0-0.4-0.2-0.8-0.5-1.1c-0.1-0.1-0.2-0.2-0.2-0.2
			c-0.1-0.1-0.2-0.1-0.2-0.2c0,0-0.1-0.1-0.1-0.1c-0.1-0.1-0.2-0.1-0.2-0.2c0,0-0.1-0.1-0.1-0.1c-1.2-0.9-2.5-0.9-3.8-0.3
			c-0.1,0.1-0.2,0.1-0.2,0.2c-0.1,0.1-0.2,0.2-0.3,0.3c0,0-0.1,0-0.1,0.1c-0.7,0.3-0.8,1.1-1.1,1.7c-0.8,1.7-1.6,3.5-2.7,5.1
			c-0.4,0.6-0.9,1.2-1.5,1.6c-1.4,0.9-2.7,0.9-4-0.1c-3.1-2.5-3.9-5.8-3-9.6c0.6-2.6,1.8-5,3.5-7c2.9-3.4,4.8-7.3,6.1-11.6
			c0.2-0.5,0.4-1,0.6-1.6c0.9-2.8,2.8-4,5.7-4c0.4,0,0.8-0.1,1.2-0.1c-1.2-0.7-3.1-0.5-5.1,0.5c-0.1,0-0.1-0.1-0.1-0.2
			c3.9-8.3,6.2-17.2,8.7-26C22.3,149.1,23.3,146.5,24.2,143.9z"/>
		<path class="st3" d="M124,150c4.9-2.8,10.2-4.5,15.6-5.8c0.6-0.1,1.2-0.2,1.8-0.2c1.3,3.5,2.4,7,3.4,10.6
			c2.1,7.9,4.4,15.7,7.8,23.2c0,0.1-0.1,0.2-0.2,0.2c-1.6-0.8-3.3-1-5-0.5c1,0.1,2,0.2,3,0.4c1.7,0.2,2.7,1.2,3.5,2.6
			c1.1,2.3,1.8,4.8,2.7,7.2c0.9,2.1,2.1,4,3.5,5.8c2,2.4,3.5,5,4.3,8.1c0.9,3.6,0.4,6.9-2.6,9.5c-1.8,1.6-3.6,1.5-5.2-0.4
			c-1.3-1.5-2-3.3-2.9-5c-0.4-0.8-0.7-1.6-1.2-2.4c-0.9-1.5-1.8-1.8-3.5-1.5c-1.7,0.3-2.9,1.4-3.1,2.8c-0.3,3.1,0.4,6,1.6,8.7
			c0.4,0.8,1.2,1.3,2.1,1.4c2.1,0.3,5.4-0.3,6.6-3.4c0.8,0.5,1.5,1.2,2.7,1.4c-1.2,2.4-2.9,3.9-5.4,4.6c-1.9,0.5-3.6,0.2-5.4-0.5
			c-1.5-0.6-2.2-1.8-2.6-3.3c-0.6-2.4-0.9-4.8-1.2-7.2c-0.1-0.8-0.2-1.5-0.9-2c-0.1,0-0.1,0-0.2,0c-0.1,0-0.2-0.1-0.3-0.2
			c0,0-0.1-0.1-0.1-0.1c-1.4-1-2.8-1.2-4.3-0.3c-0.1,0.1-0.2,0.1-0.3,0.2c-0.8,0.4-1,1.2-1.2,2c-0.3,1.6-0.6,3.2-0.6,4.9
			c0.1,2.4,1.8,4.3,4.3,4.5c1,0.1,2.1,0.2,3-0.5c0.1,0,0.1,0,0.2-0.1c0.7,0,0.6-0.8,1.1-1c0.3,0.9,0.7,1.8,1.3,2.6
			c-1.6,1.9-3.6,2.3-5.9,1.9c-1.7-0.3-3.2-1.1-4.6-2.3c-1.4-1.2-1.9-2.8-1.9-4.6c0.1-2.8,0.7-5.6,1.1-8.4c0.1-0.5,0.2-1-0.1-1.6
			c-0.8,0.6-0.9,1.4-1.4,2c-0.9,1.3-1.7,2.6-3.3,3c-3.1,0.8-6.8-2.3-7-5.7c-0.1-1.8,0.3-3.6,1.3-5.1c0.8-1.2,1.7-2.4,2.8-3.5
			c1.4-1.3,2.2-2.9,2.6-4.7c0.3-1.5,1-2.8,1.7-4.1c1-1.8,2.3-3.1,4.4-3.6c0.1,0,0.2-0.2,0.6-0.4c-2.3,0.1-3.7,1.2-5.2,2.7
			c-0.4-1.2-0.7-2.2-1.1-3.3c-1.7-4.7-3.6-9.2-4.5-14.1C125.1,159.7,124,154.9,124,150z"/>
		<path class="st2" d="M83.7,20.8c-0.2,0-0.2,0.1-0.2,0.3c-0.7,1.2-1.8,1.9-3.1,2.4c-0.5,0.2-1.1,0.4-1.4,0.9l0,0
			c3.2-1.4,6.5-1.7,9.9-0.9c1.5,0.3,3,0.7,4.6,0.5c0,2.4-2.2,1.3-3.2,2.1c0.9,0.2,1.7-0.1,2.7-0.1c-0.3,0.9-0.4,2-0.9,2.7
			c-0.6,0.8-1.7,0-2.6,0.4c0.6,0.4,1.5,0.2,2.3,0.6c-1,2.9-1.5,6-2.9,8.8c-0.4,0.7-1.2,1-1.9,1.4c0.4,0.2,0.7-0.2,1.2-0.1
			c-1.4,1.7-3.2,2.7-5,3.7c-0.5,0.3-0.8,0-1.1-0.2c-1.4-1-3-1.8-4.2-3.1c0-0.2,0.1-0.2,0.2-0.3c0.2,0,0.3,0,0.5,0.1
			c-1.6-0.6-1.9-2.1-2.3-3.5c-1.2-3.4-2.3-6.8-3.5-10.2c-0.1-0.4-0.2-0.8,0.2-1.1c2-1.2,3-3,3.7-5.2c0.4,1.1-0.1,3.1-1.2,4.6
			c0.2,0.1,0.1,0.2,0,0.3c-0.1,0.1-0.2,0.2-0.3,0.3c-0.1,0.1-0.1,0.1-0.2,0.2c0,0,0,0,0.1,0c0-0.1,0.1-0.1,0.1-0.1
			c0.1-0.1,0.2-0.2,0.2-0.2c0.1-0.1,0.2-0.2,0.3-0.2c1.3-1.3,2.8-2.5,4.5-3.2c1.4-0.4,2.6-1.1,3.8-1.9c0.1,0,0.1,0,0.1,0.1
			C83.9,20.1,83.8,20.5,83.7,20.8z"/>
		<path class="st1" d="M10.2,212.9c-0.9-1.7,0-3.1,0.8-4.6c1-1.7,1.7-3.5,2.3-5.3c0,0,0,0,0,0c0.2-0.1,0.1-0.3,0.2-0.5l0,0
			c1.6-1,3.1-0.6,4.6,0.2l0,0c0.1,0.1,0.1,0.2,0.2,0.2l0,0c0.1,0.1,0.1,0.2,0.2,0.2l0,0c1,1,0.8,2.3,0.7,3.5
			c-0.2,2.4-0.5,4.8-1.9,6.8l0,0c-0.1,0.1-0.2,0.1-0.2,0.2l0,0c-0.1,0.1-0.2,0.1-0.2,0.2l0,0c-1.6,0.8-3.1,0.6-4.7,0
			c-0.5-0.2-1.1-0.5-1.6-0.8l0,0c-0.1-0.1-0.1-0.2-0.2-0.2l0,0C10.4,213,10.3,212.9,10.2,212.9L10.2,212.9z"/>
		<path class="st1" d="M151,214.3c-2.1,0-2.8-0.4-3.5-2.4c-0.7-2.1-1.2-4.3-1.1-6.5c0-1.5,0.9-2.7,2.4-3.1c1.9-0.5,2.9-0.2,3.7,1.4
			c1.1,2.2,2,4.5,3.2,6.7c0.6,1-0.4,2.7-1.9,3.3C152.8,214.1,151.9,214.4,151,214.3z"/>
		<path class="st1" d="M21.3,214.6c-0.6-2.4,0.1-4.6,0.4-7c0-0.2,0.1-0.3,0.1-0.5c0.4-3.4,2.1-4.4,5.3-3.2c0.1,0,0.2,0,0.2,0
			c0,0,0,0,0,0c0.1,0.2,0.3,0.1,0.5,0.2l0,0c0.1,0.1,0.1,0.4,0.2,0.5l0,0c0.7,1.3,0.8,2.7,0.9,4.1c0.1,1,0.4,2,0.1,3
			c-0.3,0.7-0.5,1.4-1,2l0,0c-0.1,0.1-0.2,0.1-0.2,0.2l0,0c-0.1,0.1-0.2,0.1-0.2,0.2l0,0c-1.7,1.2-3.5,1.7-5.5,1l0,0
			c-0.1-0.1-0.1-0.2-0.2-0.2l0,0C21.6,214.8,21.5,214.7,21.3,214.6L21.3,214.6z"/>
		<path class="st1" d="M143.5,204.4c0.4,2.4,0.7,4.9,1.1,7.3c0.2,1.2-0.3,2.1-0.6,3.1c0,0,0,0,0,0c-0.9,1.1-2.1,0.8-3.1,0.7
			c-2.4-0.3-4.2-1.8-4.3-4.4c-0.1-1.7,0.3-3.4,0.6-5.1c0.2-0.9,0.7-1.6,1.3-2.2l0,0c1.7-0.8,3.3-0.6,4.8,0.5l0,0
			C143.3,204.3,143.4,204.4,143.5,204.4L143.5,204.4z"/>
		<path class="st4" d="M44.8,42.5c0.3,0.2,0.8,1.1,0.6,1.4c-0.8,1.6,0.4,2.1,1.4,2.7c2.8,1,6.4-1.3,6.6-4.2c0-0.4,0.1-0.7,0.4-0.9
			c0.9,0.8,0.8,1.7,0.4,2.7c-1.2,2.9-6,4.9-8.8,3.8c-0.9-0.3-1.7-0.9-1.9-2C43.8,44.8,44.2,43.6,44.8,42.5z"/>
		<path class="st5" d="M53.9,41.5c-0.1,0.2-0.2,0.5-0.2,0.7c-0.3,3-3.2,5.4-6.2,5c-0.4,0-0.7-0.1-0.7-0.6c2.1,0.1,3.9-0.4,5.4-2
			c0.6-0.7,1.1-1.4,1-2.4C53.1,41.8,53.2,41.4,53.9,41.5z"/>
		<path class="st6" d="M152.2,220c-0.2-0.6-0.4-1.1-0.3-1.7c0.6-0.1,1.3,0,1.9-0.3C153.6,219.2,153.3,219.7,152.2,220z"/>
		<path class="st6" d="M13.2,220.2c-0.8-0.5-1.3-1.2-1.5-2.2c0.7,0.1,1.3,0.2,2,0.2C13.7,218.9,13.6,219.5,13.2,220.2z"/>
		<path class="st7" d="M69.3,312.7c-0.3-0.2-0.2-0.6-0.2-0.9c0-2.5,0-4.9,0-7.4c0-0.3-0.1-0.7,0.4-0.9
			C69.4,306.6,69.3,309.6,69.3,312.7z"/>
		<path class="st5" d="M44.8,42.5c-0.3,1.2-0.4,2.4-1.2,3.5C43.3,44.6,43.8,43.5,44.8,42.5z"/>
		<path class="st6" d="M25.1,219.6c0.1,0,0.2,0,0.3,0c0.1-1.1,0.9-0.9,1.6-0.9c-0.2,0.5-0.4,1.1-0.7,1.7c-0.5,0-0.5-0.5-0.8-0.8
			C25.4,219.3,25.3,219.3,25.1,219.6z"/>
		<path class="st6" d="M162.4,211.4c-0.2,0.8-0.5,1.5-1.2,2.1C160.2,212,162,212.1,162.4,211.4z"/>
		<path class="st3" d="M122.6,150.7c0.3-0.1,0.7-0.2,1-0.3c0,0.7,0,1.4,0,2.2C123,152.1,122.9,151.4,122.6,150.7z"/>
		<path class="st6" d="M3.2,211.4c0.4,0.7,2.2,0.5,1.3,2.1C3.6,213,3.4,212.2,3.2,211.4z"/>
		<path class="st6" d="M139.2,220.5c-0.2-0.7-0.4-1.3-0.6-2c0.6,0.2,1.1,0.3,1.5,0.4C140.1,219.5,139.7,219.9,139.2,220.5z"/>
		<path class="st3" d="M41.9,150.4c0.3,0.1,0.7,0.2,1,0.4c-0.2,0.6-0.4,1.2-1,1.8C41.9,151.7,41.9,151.1,41.9,150.4z"/>
		<path class="st6" d="M126,206.1c-0.3,0.4-0.6,0.6-0.9,1c-0.2-0.7-0.4-1.2-0.3-1.9C125.3,205.5,125.6,205.7,126,206.1z"/>
		<path class="st6" d="M40.7,205.2c0,0.6,0.1,1.2-0.3,1.7c-0.4-0.1-0.6-0.5-0.8-0.8C40,205.8,40.4,205.5,40.7,205.2z"/>
		<path class="st2" d="M53.7,62.6c0.1-0.1,0.2-0.1,0.3-0.2c0.1,0.1,0.2,0.2,0.3,0.3c-0.1,0.2-0.3,0.4-0.5,0.3
			C53.5,63,53.6,62.8,53.7,62.6L53.7,62.6z"/>
		<path class="st6" d="M77.1,22.9C77,23,76.8,23.1,76.7,23c-0.2-0.2,0-0.4,0.1-0.6C76.9,22.6,77,22.7,77.1,22.9z"/>
		<path class="st6" d="M83.3,22.7c-0.2,0.1-0.4,0.3-0.6,0.1c-0.1-0.2,0-0.3,0.2-0.3C83,22.5,83.2,22.6,83.3,22.7z"/>
		<path class="st2" d="M77.8,40.2c-0.1-0.1-0.4-0.1-0.4-0.4c0.2-0.2,0.4,0.1,0.6,0.1C78,40,77.9,40.1,77.8,40.2z"/>
		<path class="st3" d="M33.2,307c-0.1,0-0.2,0-0.3,0c0,0,0.1-0.1,0.1-0.1C33.1,306.9,33.1,307,33.2,307z"/>
		<path class="st3" d="M13,178c-0.1,0.1-0.2,0.1-0.3,0c0,0,0.1-0.1,0.1-0.2C12.9,177.8,13,177.9,13,178z"/>
		<path class="st3" d="M152.7,177.7c0,0.1,0,0.2,0.1,0.3c-0.1,0-0.2-0.1-0.2-0.1C152.6,177.8,152.6,177.8,152.7,177.7z"/>
		<path class="st2" d="M121,70.4c0,0.1,0,0.2,0,0.3c-0.1,0-0.2,0-0.3,0C120.9,70.6,120.9,70.5,121,70.4z"/>
		<path class="st2" d="M35.1,91.8c0-0.1,0-0.2-0.1-0.3c0.1,0,0.2,0,0.3,0.1C35.2,91.6,35.2,91.7,35.1,91.8z"/>
		<path class="st2" d="M83.9,19.6c0-0.1,0.1-0.2,0.1-0.2c0.1,0.1,0.1,0.2,0,0.3C84,19.7,84,19.7,83.9,19.6z"/>
		<path class="st0" d="M89.7,177.3c-0.9,2.7-2.2,5.2-4.3,7.3c-1.9,1.9-3.4,1.9-5.3,0c-2-2.1-3.4-4.5-4.2-7.3
			c-0.5-2.3-0.5-4.6,0.7-6.7c1.6-2.8,3.9-4,7.1-3.6c2.8,0.3,5.1,2.3,6,5.2C90.2,173.8,90,175.6,89.7,177.3z"/>
		<path class="st0" d="M82.9,118.9c0,13.5,0,26.9,0,40.4c-0.1,0-0.2,0-0.2,0c0-13.5,0-26.9,0-40.4C82.8,118.9,82.9,118.9,82.9,118.9
			z"/>
		<path class="st0" d="M66.5,123.9c1.3-2.3,1.6-4.8,2-7.3c0.4-2.4,0.5-4.8,0.8-7.2c0.2,2.8-0.2,5.5-0.6,8.2
			c-0.3,1.7-0.6,3.5-1.2,5.1c-0.2,0.5-0.4,1.1-0.8,1.4C66.5,124.1,66.5,124.1,66.5,123.9z"/>
		<path class="st0" d="M99.2,124.4c-1.4-1.5-1.6-3.5-2-5.4c-0.7-3.2-1.1-6.4-0.9-10c0.3,2.8,0.5,5.3,0.9,7.9
			c0.4,2.5,0.7,5.1,2.2,7.4C99.3,124.3,99.3,124.4,99.2,124.4z"/>
		<path class="st0" d="M79.4,110.3c0.8,0.5,1.6,1,2.4,1.5c0.7,0.5,1.3,0.4,2,0c2.2-1.4,4.3-3.1,6.2-4.8c0.2,0,0.2,0.1,0.2,0.2
			c-2,1.9-4.1,3.6-6.5,5c-0.7,0.4-1.3,0.4-2,0c-0.8-0.6-1.7-1.2-2.6-1.8C79.2,110.4,79.3,110.3,79.4,110.3z"/>
		<path class="st0" d="M77.5,84c3.5,0.1,7,0,10.5,0C84.6,84.6,81.1,84.6,77.5,84z"/>
		<path class="st0" d="M106.9,91.1c-0.2,1.8-1.3,3.2-1.9,4.9c-0.4-0.1-0.3-0.6-0.6-0.8c-0.7,0.9-1.1,2-2,2.7
			c0.7-1.2,1.5-2.4,1.9-3.7c0.5,0.1,0.2,0.7,0.6,0.9C105.7,93.8,106.1,92.3,106.9,91.1L106.9,91.1z"/>
		<path class="st0" d="M60.5,95.9c-0.7-1.5-1.3-3.1-2-4.6c1,1.1,1.5,2.4,2,3.7c0.5-0.1,0.2-0.6,0.6-0.9c0.4,0.8,0.8,1.7,1.3,2.7
			c-0.7-0.4-0.8-1.1-1.2-1.5C60.7,95.2,61.1,96.2,60.5,95.9z"/>
		<path class="st0" d="M110.4,65.3c0.3,0.5,0.5,0.8,0.5,0.8c-1.2,1.9-1.4,4.1-3,5.9C108.8,69.6,110,67.7,110.4,65.3z"/>
		<path class="st0" d="M54.7,66.1c0.1-0.2,0.3-0.4,0.5-0.7c0.5,2.4,1.6,4.5,2.5,6.6c-1.1-1.4-1.8-3-2.3-4.7c-0.1-0.3,0-0.8-0.5-1
			C54.7,66.3,54.7,66.2,54.7,66.1z"/>
		<path class="st0" d="M71.3,105.1c0.2,0.2,0.4,0.5,0.7,0.8c0.2-1.1,0.1-2,0.1-3c0.4,0.7,0.8,1.4,1.2,2c-0.3,0.3-0.4-0.3-0.7-0.2
			c-0.2,0.5,0.1,1.2-0.3,1.8c-0.5-0.4-0.9-0.9-1.2-1.3C71.2,105.2,71.2,105.2,71.3,105.1z"/>
		<path class="st0" d="M64,99.1c0.3,0.4,0.7,0.8,1.1,1.3c0.4-1,0.3-1.9,0.6-2.8c0.3,1.2-0.1,2.4-0.4,3.8c-0.6-0.8-1-1.5-1.4-2.1
			C63.8,99.1,63.9,99,64,99.1z"/>
		<path class="st0" d="M92.4,104.7c0.3-0.6,0.6-1.1,1-1.7c0.1,0,0.1,0,0.2,0c-0.1,0.8-0.1,1.5-0.2,2.3c0,0.3-0.1,0.6,0.4,0.5
			c0.2-0.1,0.2,0,0.2,0.2c-0.2,0.3-0.5,0.5-0.8,0.9c-0.3-0.6-0.2-1.1-0.2-1.7c0-0.4-0.1-0.4-0.4-0.3
			C92.4,104.9,92.4,104.9,92.4,104.7z"/>
		<path class="st0" d="M101.4,99.7c-0.3,0.5-0.6,1-1,1.6c-0.5-1.3-0.8-2.5-0.5-3.8c0.2,0.9,0.2,1.9,0.5,2.8c0.5,0,0.4-0.6,0.8-0.7
			C101.4,99.5,101.4,99.5,101.4,99.7z"/>
		<path class="st0" d="M96.1,103.1c1-1.2,2-2.2,2.7-3.6c-0.3,1.7-1.4,2.8-2.5,3.9C96.2,103.3,96.2,103.2,96.1,103.1z"/>
		<path class="st0" d="M98.7,47.8c1.3,0.9,2.6,1.8,3.8,2.8c-0.1,0.1-0.1,0.2-0.2,0.2c-1.3-1-2.5-1.9-3.8-2.9
			C98.5,47.8,98.6,47.8,98.7,47.8z"/>
		<path class="st0" d="M54.9,66.2c-0.2,0.4-0.4,0.8-0.9,1c-0.5-1.3-0.2-2.3,0.5-3.4c-0.2,0.8-0.4,1.7-0.4,2.6
			c0.4,0.2,0.5-0.3,0.7-0.4C54.8,66.1,54.9,66.2,54.9,66.2z"/>
		<path class="st0" d="M111.1,63.9c0.7,1,0.9,2.1,0.3,3.3C111.5,66.1,111.6,65,111.1,63.9z"/>
		<path class="st0" d="M92.6,104.9c-0.6,1-1.5,1.7-2.4,2.4c-0.1-0.1-0.1-0.2-0.2-0.2c0.8-0.8,1.6-1.6,2.4-2.4
			C92.5,104.8,92.5,104.8,92.6,104.9z"/>
		<path class="st0" d="M70.6,104.8c-0.8-0.8-1.5-1.7-2.3-2.5c0-0.2,0-0.2,0.2-0.2c0.8,0.8,1.5,1.7,2.3,2.5
			C70.8,104.7,70.7,104.8,70.6,104.8z"/>
		<path class="st0" d="M66.5,48.1c0.9-0.6,1.6-1.5,2.8-1.8l0,0c-0.8,0.8-1.7,1.4-2.6,2C66.6,48.3,66.5,48.2,66.5,48.1z"/>
		<path class="st0" d="M62.8,126.4c0.9-0.5,1.7-1,2.6-1.4C64.6,125.7,63.8,126.3,62.8,126.4L62.8,126.4z"/>
		<path class="st0" d="M67.9,101.9c-0.6-0.7-1.1-1.4-1.3-2.6c0.6,1,1,1.7,1.5,2.4C68.2,101.9,68.1,101.9,67.9,101.9z"/>
		<path class="st0" d="M90.6,83.6c-0.7,0.5-1.3,0.4-2,0.6C89.2,83.6,89.2,83.6,90.6,83.6z"/>
		<path class="st0" d="M100.5,125.3c0.7,0.3,1.5,0.7,2.2,1C101.8,126.2,101,126,100.5,125.3L100.5,125.3z"/>
		<path class="st0" d="M76.7,84.1c-0.5-0.1-1-0.2-1.5-0.2c0.6-0.5,1.1-0.2,1.6-0.2C76.8,83.9,76.7,84,76.7,84.1z"/>
		<path class="st0" d="M95.5,104.2c-0.5,0.6-1,1.2-1.5,1.8c-0.1-0.1-0.1-0.1-0.2-0.2c0.5-0.6,1-1.2,1.6-1.8
			C95.4,104,95.5,104,95.5,104.2z"/>
		<path class="st0" d="M53.7,62.6c0,0.1,0,0.3,0,0.4c0.2-0.1,0.4-0.2,0.6-0.3c0,0.9-0.9,0.5-1.4,1C53,63,53.2,62.7,53.7,62.6z"/>
		<path class="st0" d="M63.9,99.2c-0.4-0.6-0.8-1.1-1.2-1.7c0-0.2,0-0.2,0.2-0.2c0.5,0.5,0.9,1.1,1.2,1.7
			C64,99.1,63.9,99.2,63.9,99.2z"/>
		<path class="st0" d="M103.8,51.6c0.5,0.4,1,0.8,1.4,1.2c-0.7-0.1-1.2-0.5-1.6-1C103.6,51.7,103.6,51.6,103.8,51.6z"/>
		<path class="st0" d="M101.2,99.5c0.3-0.6,0.6-1.1,1.3-1.6c-0.2,0.9-0.7,1.3-1.1,1.8C101.3,99.6,101.2,99.6,101.2,99.5z"/>
		<path class="st0" d="M76.2,108c-0.4-0.4-0.9-0.7-1.3-1.1c0-0.1,0.1-0.2,0.2-0.2c0.4,0.4,0.9,0.7,1.3,1.1
			C76.4,107.9,76.3,108,76.2,108z"/>
		<path class="st0" d="M91.3,83.7c0.5-0.6,1-0.4,1.7-0.7C92.4,83.6,91.9,83.6,91.3,83.7z"/>
		<path class="st0" d="M62.3,51.3c0.4-0.4,0.9-0.7,1.3-1.1c0.2,0,0.2,0,0.2,0.2c-0.4,0.4-0.9,0.7-1.3,1.1
			C62.3,51.5,62.2,51.5,62.3,51.3z"/>
		<path class="st0" d="M103.6,51.8c-0.4-0.2-0.8-0.5-0.9-1c0.4,0.3,0.7,0.6,1.1,0.8C103.7,51.7,103.6,51.8,103.6,51.8z"/>
		<path class="st0" d="M77.9,109.4c-0.4-0.3-0.7-0.6-1.1-0.9c0-0.1,0.1-0.2,0.2-0.2c0.4,0.3,0.7,0.6,1.1,0.9
			C78.1,109.4,78,109.5,77.9,109.4z"/>
		<path class="st0" d="M62.5,51.5c-0.3,0.3-0.7,0.6-1,0.9c0-0.6,0.5-0.8,0.9-1.1C62.4,51.4,62.4,51.4,62.5,51.5z"/>
		<path class="st0" d="M57,87.7c0.2,0.3,0.3,0.6,0.5,1c-0.4-0.2-0.6-0.5-0.7-0.8C56.9,87.8,56.9,87.7,57,87.7z"/>
		<path class="st0" d="M73.1,83.3c0.3,0,0.7-0.1,1,0.2C73.7,83.7,73.4,83.4,73.1,83.3z"/>
		<path class="st0" d="M64.8,49.7c-0.3,0.2-0.6,0.5-1,0.7c-0.1-0.1-0.1-0.1-0.2-0.2c0.3-0.2,0.6-0.5,1-0.7
			C64.7,49.5,64.8,49.5,64.8,49.7z"/>
		<path class="st0" d="M78.5,109.6c0.3,0.2,0.6,0.5,1,0.7c-0.1,0.1-0.1,0.1-0.2,0.2c-0.3-0.2-0.6-0.5-1-0.7
			C78.2,109.6,78.3,109.6,78.5,109.6z"/>
		<path class="st0" d="M66.7,48.2c-0.3,0.2-0.6,0.5-0.9,0.7c0-0.6,0.5-0.7,0.7-0.9C66.6,48.1,66.6,48.2,66.7,48.2z"/>
		<path class="st0" d="M97.8,47.1c0.3,0.2,0.6,0.5,1,0.7c-0.1,0.1-0.1,0.1-0.2,0.2c-0.4-0.2-0.7-0.4-1-0.7
			C97.6,47.1,97.6,47.1,97.8,47.1z"/>
		<path class="st0" d="M66.7,124.1c-0.2,0.3-0.4,0.6-0.7,0.7c-0.1,0-0.1,0-0.1-0.1c0.2-0.3,0.5-0.5,0.7-0.8
			C66.6,124,66.6,124,66.7,124.1z"/>
		<path class="st0" d="M64.6,49.5c0.3-0.2,0.5-0.4,1-0.7c-0.1,0.7-0.5,0.7-0.8,0.9C64.7,49.6,64.7,49.5,64.6,49.5z"/>
		<path class="st0" d="M58.3,72.7c0.3,0.2,0.4,0.4,0.5,0.7l0,0C58.4,73.3,58.1,73.1,58.3,72.7L58.3,72.7z"/>
		<path class="st0" d="M99.8,124.7c0.3,0.1,0.6,0.2,0.7,0.5c0,0,0,0,0,0c-0.4,0.2-0.6-0.2-0.8-0.3C99.7,124.8,99.7,124.8,99.8,124.7
			z"/>
		<path class="st0" d="M107.5,72.7c-0.2-0.4,0.1-0.5,0.4-0.9C107.9,72.3,107.7,72.5,107.5,72.7L107.5,72.7z"/>
		<path class="st0" d="M69.3,46.3c-0.1-0.4,0.2-0.4,0.4-0.4C69.7,46.2,69.5,46.3,69.3,46.3C69.3,46.3,69.3,46.3,69.3,46.3z"/>
		<path class="st0" d="M106.9,73.4c0.1,0.3-0.1,0.3-0.2,0.5C106.5,73.6,106.7,73.5,106.9,73.4z"/>
		<path class="st0" d="M58.9,73.9c0.2-0.2,0.2,0.1,0.2,0.3C59.1,74.1,59,74,58.9,73.9L58.9,73.9z"/>
		<path class="st0" d="M95.9,46c-0.2-0.1-0.3-0.2-0.7-0.5C95.7,45.7,96,45.7,95.9,46L95.9,46z"/>
		<path class="st0" d="M62.7,97.5c-0.1-0.2-0.2-0.4-0.5-0.7c0.5,0.1,0.6,0.3,0.7,0.5C62.8,97.4,62.7,97.5,62.7,97.5z"/>
		<path class="st0" d="M107.5,72.7c0,0.2-0.1,0.4-0.4,0.5C107.1,72.9,107.1,72.6,107.5,72.7C107.5,72.7,107.5,72.7,107.5,72.7z"/>
		<path class="st0" d="M97.6,47.3c-0.2-0.1-0.4-0.2-0.6-0.4c0-0.1,0-0.2,0.1-0.2c0.2,0.1,0.4,0.2,0.6,0.4
			C97.7,47.2,97.7,47.2,97.6,47.3z"/>
		<path class="st0" d="M58.3,72.7c-0.5,0.2-0.3-0.3-0.5-0.4C58.2,72.2,58.2,72.5,58.3,72.7C58.3,72.7,58.3,72.7,58.3,72.7z"/>
		<path class="st0" d="M95.3,103.9c0.1-0.1,0.2-0.2,0.3-0.3c0.1,0,0.2,0.1,0.3,0.1c-0.1,0.1-0.3,0.3-0.4,0.4
			C95.4,104.1,95.4,104,95.3,103.9z"/>
		<path class="st0" d="M68.1,101.7c0.1,0.1,0.2,0.2,0.4,0.4c-0.1,0.1-0.1,0.1-0.2,0.2c-0.1-0.1-0.2-0.2-0.4-0.4
			C68,101.8,68.1,101.8,68.1,101.7z"/>
		<path class="st0" d="M97,46.9c-0.1-0.1-0.3-0.2-0.4-0.4c0,0,0.1-0.1,0.1-0.1c0.1,0.1,0.3,0.2,0.4,0.3C97.1,46.8,97.1,46.8,97,46.9
			z"/>
		<path class="st0" d="M59,73.9c-0.2-0.1-0.3-0.3-0.2-0.5c0,0,0,0,0,0C59,73.5,59.1,73.7,59,73.9C58.9,73.9,59,73.9,59,73.9z"/>
		<path class="st0" d="M95.9,46.1c0.3-0.2,0.4,0,0.5,0.2l0,0C96.2,46.3,96,46.3,95.9,46.1C95.9,46,95.9,46.1,95.9,46.1z"/>
		<path class="st0" d="M78.1,109.3c0.1,0.1,0.2,0.2,0.4,0.3c-0.1,0.1-0.1,0.1-0.2,0.2c-0.1-0.1-0.2-0.2-0.4-0.3
			C78,109.4,78,109.3,78.1,109.3z"/>
		<path class="st0" d="M74.7,106.7c-0.1-0.1-0.3-0.3-0.4-0.4c0-0.1,0.1-0.2,0.1-0.2c0.1,0.1,0.3,0.3,0.4,0.4
			C74.8,106.6,74.8,106.7,74.7,106.7z"/>
		<path class="st0" d="M71,105.1c-0.1-0.1-0.2-0.2-0.4-0.4c0.1-0.1,0.1-0.1,0.2-0.2c0.1,0.1,0.3,0.3,0.4,0.4
			C71.1,105.1,71,105.1,71,105.1z"/>
		<path class="st0" d="M70.5,45.3C70.5,45.3,70.6,45.3,70.5,45.3C70.6,45.3,70.5,45.3,70.5,45.3L70.5,45.3z"/>
		<path class="st0" d="M96.4,46.3c0.1,0.1,0.2,0.1,0.3,0.2c0,0-0.1,0.1-0.1,0.1C96.5,46.5,96.4,46.5,96.4,46.3
			C96.4,46.3,96.4,46.3,96.4,46.3z"/>
		<path class="st0" d="M94.9,45.3c-0.1-0.1-0.1-0.2-0.2-0.3l0,0C94.8,45.2,94.9,45.3,94.9,45.3L94.9,45.3z"/>
		<path class="st0" d="M70.5,45.3c0,0.2-0.1,0.2-0.2,0.3l0,0C70.4,45.5,70.4,45.4,70.5,45.3C70.5,45.3,70.5,45.3,70.5,45.3z"/>
		<path class="st0" d="M94.9,45.4c0.1,0,0.1,0,0.1,0C95.1,45.4,95,45.4,94.9,45.4C94.9,45.3,94.9,45.4,94.9,45.4z"/>
		<path class="st0" d="M70.3,45.6c0,0-0.1,0.1-0.1,0.1c0,0,0-0.1,0-0.1C70.2,45.6,70.2,45.6,70.3,45.6
			C70.3,45.6,70.3,45.6,70.3,45.6z"/>
		<polygon class="st0" points="94.7,45.1 94.7,45.1 94.7,45.1 		"/>
		<path class="st0" d="M73.7,105.4c0.1,0.1,0.2,0.2,0.3,0.3c0,0.1-0.1,0.1-0.2,0.2c-0.1-0.1-0.2-0.2-0.2-0.2
			C73.6,105.5,73.6,105.4,73.7,105.4z"/>
		<path class="st0" d="M74,105.7c0.1,0.1,0.2,0.2,0.2,0.2c0,0.1-0.1,0.1-0.2,0.2c-0.1-0.1-0.2-0.2-0.2-0.2
			C73.9,105.8,74,105.7,74,105.7z"/>
		<path class="st0" d="M74.3,106.3c-0.1-0.1-0.2-0.2-0.2-0.2c0.1-0.1,0.1-0.1,0.2-0.2c0.1,0,0.1,0.1,0.2,0.2
			C74.4,106.2,74.4,106.2,74.3,106.3z"/>
		<path class="st0" d="M74.9,106.9c-0.1-0.1-0.1-0.1-0.2-0.2c0-0.1,0.1-0.1,0.1-0.2c0.1,0.1,0.2,0.2,0.2,0.2
			C75,106.8,75,106.8,74.9,106.9z"/>
		<path class="st0" d="M76.4,107.8c0.1,0.1,0.2,0.2,0,0.3c0,0-0.2-0.1-0.2-0.2C76.3,108,76.4,107.9,76.4,107.8z"/>
		<path class="st0" d="M76.8,108.6c0-0.1-0.1-0.2-0.1-0.3c0.2-0.2,0.2,0,0.3,0.1C76.9,108.5,76.9,108.5,76.8,108.6z"/>
		<path class="st0" d="M99.4,124.7c-0.1-0.1-0.2-0.2-0.2-0.2c0-0.1,0.1-0.1,0.2-0.2c0.1,0.1,0.2,0.2,0.2,0.2
			C99.6,124.6,99.5,124.7,99.4,124.7z"/>
		<path class="st0" d="M99.6,124.5c0.1,0.1,0.2,0.2,0.2,0.2c0,0-0.1,0.1-0.1,0.1c-0.1-0.1-0.2-0.1-0.3-0.2
			C99.5,124.6,99.5,124.6,99.6,124.5z"/>
		<path class="st0" d="M66,124.8c-0.1,0.1-0.2,0.2-0.2,0.2c-0.2-0.1,0-0.2,0.1-0.3C65.9,124.7,65.9,124.7,66,124.8z"/>
		<polygon class="st0" points="62.8,126.4 62.8,126.5 62.8,126.4 		"/>
		<path class="st0" d="M60.9,52.5c0.1-0.1,0.2-0.3,0.3-0.1c0,0-0.1,0.2-0.1,0.3C61,52.6,60.9,52.5,60.9,52.5z"/>
		<path class="st0" d="M105.4,53.4c-0.1-0.1-0.3-0.2-0.2-0.4c0.2-0.2,0.2,0,0.3,0.1C105.6,53.3,105.5,53.4,105.4,53.4z"/>
		<path class="st0" d="M105.6,53.6c-0.1,0-0.1-0.1-0.2-0.2c0.1-0.1,0.1-0.2,0.2-0.2c0.1,0.1,0.2,0.2,0.2,0.2
			C105.7,53.5,105.7,53.5,105.6,53.6z"/>
		<path class="st0" d="M107,91.1c0,0,0.1-0.1,0.1-0.1C107.1,91.2,107.1,91.2,107,91.1C106.9,91.1,107,91.1,107,91.1z"/>
		<path class="st0" d="M95.9,103.4c0.1-0.1,0.2-0.2,0.2-0.2c0.1,0.1,0.1,0.2,0.2,0.3c-0.1,0.1-0.2,0.2-0.3,0.2
			C96,103.6,95.9,103.5,95.9,103.4z"/>
		<path class="st0" d="M95.7,103.6c0.1-0.1,0.2-0.2,0.2-0.2c0,0.1,0.1,0.2,0.1,0.3c0,0.1-0.1,0.1-0.1,0.1
			C95.8,103.7,95.7,103.7,95.7,103.6z"/>
		<path class="st0" d="M71.2,105.4c-0.1-0.1-0.2-0.2-0.2-0.2c0.1,0,0.2-0.1,0.2-0.1c0.1,0,0.1,0.1,0.2,0.2
			C71.3,105.2,71.2,105.3,71.2,105.4z"/>
		<path class="st0" d="M73.6,105.6c-0.1-0.1-0.3-0.2-0.1-0.3c0,0,0.2,0.1,0.3,0.1C73.7,105.4,73.6,105.5,73.6,105.6z"/>
		<path class="st0" d="M68.3,240.7c0.2,0.3,0.5,0.5,0.5,1l0,0C68.5,241.4,68.4,241,68.3,240.7L68.3,240.7z"/>
		<path class="st0" d="M96.9,241.4c0-0.2,0-0.4,0.4-0.6C97.1,241.1,97,241.2,96.9,241.4L96.9,241.4z"/>
		<path class="st0" d="M97.6,240.3C97.6,240.3,97.6,240.3,97.6,240.3C97.6,240.2,97.6,240.2,97.6,240.3
			C97.7,240.2,97.6,240.3,97.6,240.3z"/>
		<path class="st0" d="M67.9,240c0.1,0.2,0.2,0.3,0.2,0.5l0,0C68,240.3,67.9,240.1,67.9,240L67.9,240z"/>
		<path class="st0" d="M68.8,241.7c0.1,0,0.1,0,0.2,0c0,0,0,0.1-0.1,0.1C68.9,241.8,68.9,241.7,68.8,241.7
			C68.8,241.6,68.8,241.7,68.8,241.7z"/>
		<path class="st0" d="M96.7,241.7c0-0.1,0.1-0.3,0.2-0.2c0,0,0,0,0,0C96.9,241.5,96.8,241.7,96.7,241.7
			C96.6,241.6,96.7,241.7,96.7,241.7z"/>
		<path class="st0" d="M68.1,240.5c0.1,0.1,0.2,0.2,0.3,0.2c0,0,0,0,0,0C68.3,240.6,68.2,240.5,68.1,240.5
			C68.1,240.4,68.1,240.5,68.1,240.5z"/>
		<path class="st0" d="M67.6,239.7c0.1,0.1,0.2,0.2,0.2,0.2c0,0,0,0,0,0C67.8,239.9,67.7,239.8,67.6,239.7
			C67.6,239.7,67.6,239.7,67.6,239.7z"/>
		<path class="st0" d="M20.9,183.7c0.4,0.1,0.8,0.3,1.3,0.4c0.5-0.7,0.2-1.6,0.4-2.5c0.5,0.8,0,1.6,0.2,2.4c1.1,0.3,2.3-0.1,3.4-0.2
			c3.4-0.3,5.1,1.2,5,4.6c-0.1,2.6-1,4.9-2.6,6.9c0,0-0.1-0.1-0.1-0.1c-0.2-0.6,0.1-1,0.4-1.4c1-1.9,1.7-3.9,1.6-6
			c-0.1-2.3-1.6-3.6-3.9-3.3c-0.9,0.1-1.7,0.2-2.6,0.3c-0.7,0.1-1,0.4-1.1,1c-0.2,0.6-0.2,1.4-0.9,1.7c-0.5-0.2-0.5-0.6-0.4-0.9
			c0.5-1.1,0.3-2-0.7-2.7C20.7,183.8,20.8,183.7,20.9,183.7z"/>
		<path class="st0" d="M15.3,197.5c-3.3-2.5-4.1-5.9-3.5-9.8c0.2-1.4,0.6-2.8,1.5-4c0.1,0,0.2,0.1,0.3,0.2c-0.3,1.6-1,3.2-1.2,4.9
			c-0.3,2.7,0.3,5.1,2.2,7.2c0.3,0.4,0.8,0.7,0.9,1.3C15.4,197.3,15.4,197.5,15.3,197.5z"/>
		<path class="st0" d="M26.5,197.6c-3.2,2.5-7.5,2.6-10.8,0.2c0-0.1,0.1-0.2,0.2-0.3c0.5-0.1,0.9,0.2,1.3,0.4
			c2.6,1.2,5.2,1.2,7.7-0.2c0.4-0.2,0.8-0.6,1.3-0.5C26.4,197.4,26.5,197.5,26.5,197.6z"/>
		<path class="st0" d="M17.5,213.6c1-2.4,1.7-4.8,1.7-7.5c0-1,0-2-0.5-2.9c0.7,0.2,0.8,0.8,0.9,1.4c0.3,3-0.4,5.8-1.5,8.5
			C18,213.3,17.9,213.7,17.5,213.6z"/>
		<path class="st0" d="M28,213.8c1.5-2.8,0.7-5.5,0.1-8.3c0-0.3-0.1-0.5-0.1-0.8c0.6,0.1,0.5,0.6,0.6,1c0.4,1.7,0.6,3.4,0.6,5.1
			C29.3,211.9,29.2,213.1,28,213.8z"/>
		<path class="st0" d="M10.4,199c1,1,1.2,2.2,0.9,3.6c-0.4,1.6-0.9,3-1.9,4.3c-0.1,0-0.2-0.1-0.3-0.2c-0.1-0.3,0-0.6,0.2-0.9
			c1.1-2.1,1.8-4.3,0.8-6.6C10.1,199.1,10.2,199,10.4,199z"/>
		<path class="st0" d="M4,207.9c-1.8-2.3-1.8-4.8,0-7.3c0.1,0.1,0.2,0.2,0.2,0.3c0.1,0.4-0.1,0.7-0.2,1c-0.8,1.6-0.8,3.2,0,4.8
			c0.1,0.3,0.3,0.6,0.2,0.9C4.1,207.7,4.1,207.8,4,207.9z"/>
		<path class="st0" d="M32.7,201.7c-2-2.8-2.1-4.8-0.4-6.9c0,0,0.1,0.1,0.1,0.1c0.2,0.4,0,0.7-0.1,1c-0.8,1.3-0.6,2.6,0.1,3.9
			c0.3,0.6,0.7,1.1,0.6,1.8C32.9,201.7,32.8,201.8,32.7,201.7z"/>
		<path class="st0" d="M10.7,213.3c0.3-0.1,0.6,0,0.9,0.2c1.7,1,3.5,0.9,5.4,0.5c-0.3,0.7-1,0.7-1.5,0.7
			C13.7,214.9,12.1,214.6,10.7,213.3z"/>
		<path class="st0" d="M14.5,182.6c1.2-0.9,2.5-0.9,3.8-0.3c0.9,0.4,1.7,1,2.6,1.5c0,0-0.1,0.1-0.1,0.1c-0.4,0.3-0.7,0.1-1-0.1
			c-1.5-1.1-3.2-1.2-5-1C14.7,182.7,14.6,182.7,14.5,182.6z"/>
		<path class="st0" d="M39,195.9c1.5,2.2,1.6,4.5,0.2,6.5c-0.1,0-0.2,0-0.3-0.2c-0.1-0.3,0-0.6,0.2-0.9c0.6-1.4,0.5-2.8-0.2-4.2
			c-0.2-0.3-0.3-0.7-0.2-1C38.7,196,38.8,195.9,39,195.9z"/>
		<path class="st0" d="M22,215.3c2,0.5,3.8-0.1,5.5-1C26.3,215.8,23.7,216.2,22,215.3z"/>
		<path class="st0" d="M18.2,202.8c-1.5-0.5-3-0.9-4.6-0.2C14.8,201.4,16.9,201.5,18.2,202.8z"/>
		<path class="st0" d="M6.1,198.1c1.3-0.8,2.4-0.7,3.9,0.5c0,0.1,0,0.2-0.2,0.3c-1.1-0.3-2.3-0.7-3.5-0.5
			C6.1,198.3,6.1,198.2,6.1,198.1z"/>
		<path class="st0" d="M38.2,203.4c-1.5,1.1-2.3,1.1-3.8,0.1c0,0,0.1-0.1,0.1-0.1c1.2,0,2.3,0,3.5-0.3
			C38.2,203.1,38.3,203.2,38.2,203.4z"/>
		<path class="st0" d="M33.4,193.7c1.5-0.9,2.5-0.8,3.8,0.3c0,0.1-0.1,0.2-0.2,0.3c-1.1-0.3-2.3-0.3-3.4-0.2
			C33.5,194,33.4,193.9,33.4,193.7z"/>
		<path class="st0" d="M8,208.6c-1.2,0.9-2,0.9-3.3-0.1c0.1-0.1,0.1-0.2,0.3-0.2c0.9,0.1,1.9,0.1,2.8,0C7.9,208.4,8,208.5,8,208.6z"
			/>
		<path class="st0" d="M33.4,202.6c-0.2-0.3-0.5-0.6-0.7-0.9c0.1-0.1,0.1-0.1,0.2-0.2c0.6,0,0.8,0.4,0.8,0.9
			C33.7,202.6,33.6,202.7,33.4,202.6z"/>
		<path class="st0" d="M4.7,208.6c-0.3-0.1-0.6-0.4-0.7-0.7c0,0,0.1-0.1,0.1-0.1C4.7,207.6,4.9,207.9,4.7,208.6L4.7,208.6z"/>
		<path class="st0" d="M8.7,207.9c-0.2,0.3-0.4,0.6-0.8,0.7c0,0-0.1-0.1-0.1-0.1c-0.1-0.6,0.3-0.7,0.7-0.8
			C8.7,207.7,8.8,207.8,8.7,207.9z"/>
		<path class="st0" d="M4.1,200.2c0.2-0.2,0.3-0.5,0.5-0.7c0.1,0,0.2,0,0.3,0.2c0.1,0.4-0.1,0.7-0.6,0.8
			C4.2,200.5,4.1,200.4,4.1,200.2z"/>
		<path class="st0" d="M38.2,195c0.1,0.2,0.3,0.4,0.4,0.5c-0.1,0.1-0.1,0.2-0.2,0.2c-0.4,0-0.5-0.3-0.4-0.6
			C38,195,38.1,194.9,38.2,195z"/>
		<path class="st0" d="M28.5,195.4c-0.1,0.2-0.3,0.4-0.4,0.6c-0.2,0-0.2-0.1-0.3-0.2C27.9,195.3,28.1,195.1,28.5,195.4
			C28.5,195.3,28.5,195.4,28.5,195.4z"/>
		<path class="st0" d="M28.2,195.9c-0.2,0.2-0.4,0.4-0.6,0.6c0,0-0.1-0.1-0.1-0.1c-0.1-0.4,0.1-0.7,0.6-0.6
			C28.1,195.8,28.1,195.9,28.2,195.9z"/>
		<path class="st0" d="M21.3,214.5c0.3,0,0.5,0.2,0.5,0.5C21.4,215,21.3,214.8,21.3,214.5z"/>
		<path class="st0" d="M34.5,203.5c-0.2-0.1-0.4-0.3-0.6-0.4c0-0.1,0.1-0.2,0.2-0.2C34.5,202.9,34.7,203.1,34.5,203.5L34.5,203.5z"
			/>
		<path class="st0" d="M9.1,207.4c-0.1,0.2-0.3,0.4-0.4,0.6c-0.1-0.1-0.1-0.1-0.2-0.2c-0.2-0.4,0-0.5,0.3-0.6
			C9,207.2,9.1,207.3,9.1,207.4z"/>
		<path class="st0" d="M38.7,202.9c-0.2,0.2-0.3,0.3-0.5,0.5c-0.1,0-0.1-0.1-0.2-0.2c0-0.4,0.2-0.5,0.5-0.6
			C38.8,202.7,38.8,202.8,38.7,202.9z"/>
		<path class="st0" d="M39.2,202.4c-0.1,0.2-0.3,0.3-0.4,0.5c-0.1-0.1-0.1-0.1-0.2-0.2c0-0.4,0.1-0.5,0.5-0.5
			C39.1,202.3,39.1,202.4,39.2,202.4z"/>
		<path class="st0" d="M13.3,183.7c0.2-0.2,0.3-0.4,0.5-0.5c0.1-0.1,0.2,0,0.2,0.1c0,0.3-0.2,0.6-0.6,0.5
			C13.3,183.8,13.3,183.7,13.3,183.7z"/>
		<path class="st0" d="M13.7,183.2c0.2-0.1,0.3-0.3,0.5-0.4c0.1,0,0.2,0,0.2,0.2c-0.1,0.3-0.2,0.5-0.6,0.4
			C13.8,183.3,13.8,183.2,13.7,183.2z"/>
		<path class="st0" d="M5.4,198.6c0.1-0.1,0.3-0.2,0.4-0.4c0.1,0,0.2,0.1,0.2,0.2c0,0.2-0.2,0.3-0.3,0.3
			C5.6,198.8,5.5,198.7,5.4,198.6z"/>
		<path class="st0" d="M4.6,199.5c0.1-0.1,0.2-0.3,0.3-0.4c0,0,0.1,0.1,0.1,0.1c0,0.2,0,0.4-0.3,0.4C4.7,199.6,4.7,199.6,4.6,199.5z
			"/>
		<path class="st0" d="M9.4,207c-0.1,0.1-0.2,0.3-0.3,0.4c0,0-0.1-0.1-0.1-0.1c-0.2-0.3-0.1-0.5,0.2-0.5
			C9.3,206.9,9.4,206.9,9.4,207z"/>
		<path class="st0" d="M28,204.7c-0.2-0.1-0.3-0.3-0.2-0.5C28,204.3,28.2,204.4,28,204.7z"/>
		<path class="st0" d="M27.8,204.2c-0.2,0-0.4,0-0.5-0.2C27.6,203.8,27.7,204,27.8,204.2z"/>
		<path class="st0" d="M13.6,202.5c0,0.2,0,0.4-0.2,0.5C13.3,202.7,13.4,202.6,13.6,202.5z"/>
		<path class="st0" d="M33,194.1c0.1-0.1,0.3-0.2,0.4-0.3c0,0,0.1,0.1,0.1,0.2c0.1,0.3-0.1,0.3-0.3,0.3
			C33.1,194.2,33.1,194.2,33,194.1z"/>
		<path class="st0" d="M38.6,195.5c0.1,0.1,0.2,0.3,0.3,0.4c0,0-0.1,0.1-0.2,0.1C38.4,196,38.4,195.8,38.6,195.5L38.6,195.5z"/>
		<path class="st0" d="M15.7,197.9c-0.1-0.1-0.3-0.2-0.4-0.3c0,0,0-0.1,0-0.1c0.3-0.2,0.5-0.1,0.5,0.2
			C15.8,197.8,15.7,197.8,15.7,197.9z"/>
		<path class="st0" d="M26.8,197.3c-0.1,0.1-0.3,0.2-0.4,0.3c0,0-0.1-0.1-0.1-0.2c0-0.3,0.2-0.3,0.4-0.3
			C26.8,197.2,26.8,197.2,26.8,197.3z"/>
		<path class="st0" d="M27.5,214.3c0.1-0.1,0.2-0.2,0.2-0.2C27.9,214.3,27.7,214.3,27.5,214.3z"/>
		<path class="st0" d="M21.8,215c0.1,0.1,0.2,0.2,0.2,0.2C21.8,215.3,21.7,215.2,21.8,215z"/>
		<path class="st0" d="M27.8,214.1c0.1-0.1,0.2-0.2,0.2-0.2C28.1,214,28,214.1,27.8,214.1z"/>
		<path class="st0" d="M10.2,212.9c0.1,0.1,0.2,0.2,0.2,0.2C10.3,213.1,10.3,213,10.2,212.9z"/>
		<path class="st0" d="M10.5,213.1c0.1,0.1,0.2,0.2,0.2,0.2C10.6,213.3,10.5,213.2,10.5,213.1z"/>
		<path class="st0" d="M17.2,213.8c0.1-0.1,0.2-0.2,0.2-0.2C17.5,213.8,17.5,213.9,17.2,213.8z"/>
		<path class="st0" d="M17,214.1c0.1-0.1,0.2-0.2,0.2-0.2C17.3,214.1,17.2,214.1,17,214.1z"/>
		<path class="st0" d="M27.1,197c-0.1,0.1-0.2,0.2-0.2,0.2c0,0,0,0,0,0c0-0.1,0-0.2,0.1-0.3C27,197,27,197,27.1,197z"/>
		<path class="st0" d="M27.3,196.8c-0.1,0.1-0.2,0.2-0.2,0.2c0,0,0,0,0,0c0-0.1,0-0.2,0.1-0.3C27.2,196.8,27.3,196.8,27.3,196.8z"/>
		<path class="st0" d="M27.6,196.6c-0.1,0.1-0.2,0.2-0.2,0.2c0,0,0,0,0,0C27.3,196.6,27.3,196.5,27.6,196.6L27.6,196.6z"/>
		<path class="st0" d="M38,194.7c0.1,0.1,0.2,0.2,0.2,0.3c0,0-0.1,0.1-0.1,0.1c-0.2,0.1-0.3-0.1-0.3-0.2
			C37.8,194.8,37.9,194.7,38,194.7z"/>
		<path class="st0" d="M37.7,194.5c0.1,0.1,0.2,0.2,0.2,0.3c0,0-0.1,0.1-0.1,0.1c-0.2,0.1-0.3-0.1-0.3-0.2
			C37.6,194.5,37.6,194.5,37.7,194.5z"/>
		<path class="st0" d="M32.3,194.8c0.1-0.1,0.1-0.2,0.2-0.3c0,0,0.1,0.1,0.1,0.1C32.6,194.8,32.5,194.9,32.3,194.8L32.3,194.8z"/>
		<path class="st0" d="M37.5,194.2c0.1,0.1,0.2,0.2,0.2,0.2c0,0.1-0.1,0.1-0.1,0.2c-0.2,0.1-0.3-0.1-0.3-0.2
			C37.3,194.3,37.4,194.2,37.5,194.2z"/>
		<path class="st0" d="M32.5,194.5c0.1-0.1,0.2-0.2,0.2-0.2c0,0,0.1,0.1,0.1,0.1C32.8,194.6,32.8,194.7,32.5,194.5L32.5,194.5z"/>
		<path class="st0" d="M37.3,194c0.1,0.1,0.2,0.1,0.2,0.2c0,0.1-0.1,0.1-0.1,0.2c-0.2,0-0.3,0-0.2-0.2C37.2,194.1,37.2,194,37.3,194
			z"/>
		<path class="st0" d="M32.8,194.3c0.1-0.1,0.2-0.2,0.2-0.2c0,0,0.1,0.1,0.1,0.1C33.1,194.3,33,194.4,32.8,194.3L32.8,194.3z"/>
		<path class="st0" d="M14.2,182.7c0.1-0.1,0.2-0.1,0.3-0.2c0,0,0,0,0,0c0.1,0.2,0,0.3-0.2,0.2C14.3,182.8,14.3,182.8,14.2,182.7z"
			/>
		<path class="st0" d="M18.7,203.2c-0.1-0.1-0.2-0.2-0.2-0.2C18.7,202.9,18.7,203,18.7,203.2z"/>
		<path class="st0" d="M33.9,203.1c-0.1-0.1-0.2-0.2-0.2-0.2c0-0.1,0.1-0.2,0.2-0.2c0.2,0,0.3,0.1,0.2,0.3
			C34,203,33.9,203.1,33.9,203.1z"/>
		<path class="st0" d="M18.4,203c-0.1-0.1-0.2-0.2-0.2-0.2C18.4,202.7,18.5,202.7,18.4,203z"/>
		<path class="st0" d="M33.7,202.9c-0.1-0.1-0.2-0.2-0.2-0.2c0,0,0.1-0.1,0.1-0.1c0.2,0,0.3,0.1,0.2,0.2
			C33.7,202.8,33.7,202.8,33.7,202.9z"/>
		<path class="st0" d="M4,200.5c0.1-0.1,0.1-0.2,0.2-0.3c0.1,0,0.1,0.1,0.2,0.1C4.3,200.6,4.2,200.7,4,200.5
			C4,200.6,4,200.5,4,200.5z"/>
		<path class="st0" d="M10.1,198.8c0.1,0.1,0.2,0.2,0.2,0.3c0,0.1-0.1,0.1-0.1,0.2c-0.2,0-0.3-0.1-0.3-0.2
			C10,198.8,10,198.8,10.1,198.8z"/>
		<path class="st0" d="M4.9,199.1c0.1-0.1,0.2-0.2,0.2-0.2c0,0.1,0.1,0.1,0.1,0.2C5.2,199.2,5.1,199.2,4.9,199.1
			C5,199.2,4.9,199.1,4.9,199.1z"/>
		<path class="st0" d="M9.9,198.6c0.1,0.1,0.1,0.1,0.2,0.2c0,0.1-0.1,0.1-0.1,0.2c-0.2,0-0.3,0-0.2-0.2
			C9.8,198.7,9.9,198.6,9.9,198.6z"/>
		<path class="st0" d="M5.2,198.9c0.1-0.1,0.2-0.2,0.2-0.2c0,0,0,0,0,0C5.5,198.9,5.4,199,5.2,198.9C5.2,198.9,5.2,198.9,5.2,198.9z
			"/>
		<path class="st0" d="M5.8,198.3c0.1-0.1,0.2-0.1,0.2-0.2c0,0,0.1,0.1,0.1,0.1c0,0.2,0,0.3-0.2,0.2C5.9,198.4,5.9,198.4,5.8,198.3z
			"/>
		<path class="st1" d="M151.6,196.4c-0.2,0.2-0.4,0.4-0.6,0.6c-0.2,0.1-0.4,0.1-0.6,0.3l0,0c-2.6,2.3-7.2,3-10.4,0.8
			c-0.2-0.1-0.4-0.2-0.6-0.3l0,0c-0.2-0.3-0.5-0.5-0.7-0.7l0,0c-2.2-2.1-3.5-4.8-4-7.8c-0.3-1.6,0.2-3,0.9-4.3c0-0.1,0-0.1,0.1-0.1
			c0.2-0.1,0.4-0.1,0.6-0.3l0,0c1.4-1.1,3-0.4,4.5-0.4c0.2,0,0.4,0.1,0.6,0.1c1.7,0.2,1.7,0.2,2.1,2c-0.4-1.7-0.4-1.7,1.2-2.5
			c0.3-0.2,0.7-0.3,0.9-0.5l0,0c1.6-1.1,3.4-1.7,5.3-0.7l0,0c1.8,1.1,2.2,2.9,2.6,4.6C154.3,190.6,153.6,193.6,151.6,196.4z"/>
		<path class="st1" d="M132.2,202.7c-0.1,0.1-0.2,0.2-0.4,0.4c-0.1,0-0.2,0-0.2,0.1c-1.2,0.8-2.4,1.3-3.8,0.5
			c-1.6-1-2.4-2.5-2.2-4.4c0.1-1.4,0.6-2.5,1.5-3.6l0,0c0.2-0.1,0.1-0.3,0.2-0.5l0,0c0.4-0.4,0.8-0.8,1.2-1.2l0,0
			c1.4-0.7,2.8-0.8,4,0.4c1.3,1.3,2.3,2.7,1.6,4.7c-0.4,1.1-0.9,2.2-1.7,3.1l0,0C132.3,202.2,132.3,202.5,132.2,202.7z"/>
		<path class="st0" d="M138.4,203.7c-1.4,1.9-1.4,4.2-1.7,6.5c-0.5,4.6,4.4,6,7.2,4.6c0,0.8-0.8,0.8-1.3,0.9
			c-3.5,0.7-6.6-1.8-6.4-5.4c0.1-1.6,0.3-3.2,0.7-4.7C137.2,204.7,137.5,204,138.4,203.7z"/>
		<path class="st0" d="M151.6,196.4c-0.1-0.5,0.2-0.9,0.5-1.3c2.3-3.6,1.9-9-1-12.2c-0.1-0.1-0.1-0.2-0.2-0.3c0.7,0,1.1,0.6,1.5,1.1
			C154.9,187.2,154.5,193.1,151.6,196.4z"/>
		<path class="st0" d="M157.6,208.6c-2.2-2-3.4-4.5-3.4-7.4c0-2.8,3.3-4.5,5.4-3.1c-0.1,0.1-0.1,0.2-0.3,0.2c-1.4-0.1-2.7,0-3.7,1.2
			c-0.6,0.7-0.9,1.6-0.7,2.5c0.4,1.9,1.1,3.7,2.3,5.2c0.2,0.3,0.6,0.6,0.6,1C157.7,208.4,157.7,208.5,157.6,208.6z"/>
		<path class="st0" d="M145.6,183.3c-0.2,0.5-0.7,0.7-1.1,0.8c-1.2,0.3-1.1,1-0.8,1.9c0.1,0.4,0.5,0.8,0.1,1.3
			c-0.5-0.8-0.7-1.7-0.9-2.7c-2.2,0-4.4-1-6.6-0.1c0.3-0.9,1.1-0.8,1.8-0.7c1.5,0,3.1,0.2,4.7,0.3c0-0.9,0-1.6,0-2.4
			c0.1,0,0.1,0,0.2,0c0.1,0.8,0.2,1.5,0.3,2.3C144.2,184.1,144.7,183.2,145.6,183.3z"/>
		<path class="st0" d="M132.4,202.1c0.4-0.8,0.8-1.6,1.2-2.4c0.8-1.6,0.5-3.1-0.5-4.5c-1.1-1.4-2.5-1.9-4.2-1.3c-0.1,0-0.2,0-0.4,0
			c0.8-0.9,1.8-0.9,2.8-0.6c1.7,0.5,3.8,3.1,3,5.5C133.9,200,133.6,201.3,132.4,202.1z"/>
		<path class="st0" d="M135.5,184.9c0,1.1-0.7,2-0.7,3.1c0.1,3,1.2,5.6,3.1,7.9c0.3,0.4,0.8,0.6,0.8,1.1c-0.1,0-0.2,0-0.2,0
			c-2.8-2.9-4.4-6.2-3.9-10.3C134.7,186,135,185.4,135.5,184.9z"/>
		<path class="st0" d="M127.1,195.5c-0.3,0.8-0.7,1.5-1,2.3c-0.6,1.8-0.4,3.5,1,4.9c1.2,1.2,2.1,1.3,3.6,0.6c0.3-0.2,0.6-0.4,1-0.3
			c-2.4,2.2-5.6,1-6.3-2.3c-0.4-1.8,0-3.6,1.2-5.1C126.8,195.5,126.9,195.4,127.1,195.5z"/>
		<path class="st0" d="M139.4,197.7c0.9,0,1.5,0.7,2.4,1c2.8,0.9,5.3,0.5,7.8-1c0.3-0.2,0.5-0.5,0.9-0.5c0,0.1,0,0.2-0.1,0.3
			C147.7,200.2,142.1,200.3,139.4,197.7z"/>
		<path class="st0" d="M161,199.6c2.3,2.8,2.6,5.6,0.9,8c-0.2,0.3-0.5,0.6-0.8,0.9c-0.1,0-0.2-0.1-0.2-0.2c0-0.4,0.2-0.7,0.4-1
			c1.3-2,1.2-4,0.1-6.1c-0.2-0.4-0.6-0.8-0.5-1.3C160.8,199.8,160.9,199.7,161,199.6z"/>
		<path class="st0" d="M150.9,182.6c-1.9-0.6-3.6-0.1-5.3,0.7C147,181.7,149.5,181.4,150.9,182.6z"/>
		<path class="st0" d="M143.2,204.2c-1.6-0.7-3.2-0.9-4.8-0.5C139.8,202.6,142,202.8,143.2,204.2z"/>
		<path class="st0" d="M161.1,208.5c-0.9,0.9-2,1.1-3.1,0.4c0-0.1,0-0.3,0.2-0.3c0.9-0.1,1.9-0.4,2.8-0.3
			C161,208.3,161.1,208.4,161.1,208.5z"/>
		<path class="st0" d="M159.6,198.1c0.6,0.4,1.1,0.8,1.4,1.5c0,0-0.1,0.1-0.1,0.1C159.9,199.7,159.5,199.3,159.6,198.1L159.6,198.1z
			"/>
		<path class="st0" d="M128.6,193.9c-0.1,0.7-0.5,1.1-1.2,1.2C127.6,194.5,128,194.1,128.6,193.9z"/>
		<path class="st0" d="M138.6,197c0.5,0,0.7,0.2,0.7,0.7C139,197.6,138.6,197.5,138.6,197z"/>
		<path class="st0" d="M132.2,202.7c0-0.2,0-0.5,0.3-0.6C132.6,202.4,132.3,202.5,132.2,202.7z"/>
		<path class="st0" d="M158,208.9c-0.1-0.1-0.3-0.2-0.4-0.3c0,0,0.1-0.1,0.1-0.1c0.3-0.2,0.5-0.1,0.5,0.2
			C158.1,208.8,158,208.9,158,208.9z"/>
		<path class="st0" d="M136.3,184.5c-0.1,0.3-0.4,0.3-0.6,0.3C135.8,184.6,135.9,184.3,136.3,184.5z"/>
		<path class="st0" d="M127.4,195.1c0,0.2,0,0.4-0.2,0.5C126.9,195.3,127.2,195.2,127.4,195.1z"/>
		<path class="st0" d="M150.4,197.3c0.1-0.3,0.3-0.3,0.6-0.3C150.8,197.2,150.7,197.4,150.4,197.3z"/>
		<path class="st0" d="M143.5,204.4c-0.1-0.1-0.2-0.2-0.2-0.2C143.4,204.2,143.5,204.3,143.5,204.4z"/>
		<path class="st0" d="M74.6,25.6c0.1-0.2,0.3-0.4,0.4-0.6c0,0,0.1,0,0.1,0l0,0.1C75,25.5,74.8,25.6,74.6,25.6L74.6,25.6z"/>
		<path class="st0" d="M78.9,24.5c-0.1,0-0.1,0.1-0.2,0.1C78.8,24.5,78.9,24.5,78.9,24.5C78.9,24.5,78.9,24.5,78.9,24.5z"/>
		<path class="st0" d="M75.1,24.8c0.1-0.1,0.1-0.2,0.2-0.2c0.1,0.1,0.2,0.1,0.2,0.2c-0.1,0.1-0.2,0.2-0.2,0.2
			C75.2,25,75.2,24.9,75.1,24.8z"/>
		<path class="st0" d="M75,25.1c0.1-0.1,0.1-0.2,0.2-0.3c0.1,0.1,0.1,0.1,0.2,0.2c-0.1,0.1-0.2,0.2-0.2,0.2C75,25.2,75,25.1,75,25.1
			z"/>
		<polygon class="st0" points="74.6,25.6 74.5,25.7 74.6,25.6 		"/>
		<path class="st8" d="M89.5,175.1c-0.3,3.8-2.1,7-4.9,9.6c-1.2,1.1-2.2,1.2-3.3,0.2c-3.5-3.1-5.8-6.9-5-11.8
			c0.7-4.6,5.4-7.1,9.5-5.1C88.5,169.4,89.5,171.9,89.5,175.1z"/>
		<path class="st1" d="M14.3,182.9c0.1-0.1,0.2-0.2,0.2-0.2c2.3-0.8,4.3,0.2,6.2,1.2c0.5,0.3,0.9,0.6,1.5,0.9
			c-0.2,0.8-0.4,1.7-0.6,2.5c0.6-0.5,0.8-1.2,0.9-1.9c0.1-0.5,0.2-0.7,0.7-0.8c1.3-0.1,2.6-0.3,3.9-0.5c1.9-0.2,3.4,1.4,3.5,3.4
			c0.2,2.5-0.6,4.6-1.8,6.7c-0.2,0.3-0.5,0.6-0.4,1.1c-0.3,0-0.5,0.2-0.5,0.5c-0.3,0.2-0.5,0.4-0.5,0.7c-0.1,0.1-0.2,0.2-0.2,0.2
			c-0.1,0.1-0.2,0.2-0.2,0.2c-0.1,0.1-0.2,0.2-0.2,0.2c-0.2,0-0.4,0-0.5,0.2c-1.8,1-3.6,1.9-5.8,1.7c-1.7-0.1-3.2-0.8-4.7-1.5
			c-0.1-0.2-0.3-0.2-0.5-0.2c0-0.6-0.5-0.8-0.8-1.1c-2.1-2.2-2.8-4.7-2.4-7.7c0.2-1.7,0.8-3.2,1.3-4.8c0.2-0.2,0.3-0.3,0.5-0.5
			C14,183.2,14.2,183,14.3,182.9z"/>
		<path class="st1" d="M5.9,198.5c0.1-0.1,0.2-0.2,0.2-0.2c1.3-0.4,2.5-0.2,3.6,0.5c0.1,0.1,0.2,0.2,0.2,0.2
			c0.1,0.1,0.2,0.2,0.2,0.2c1.2,2,0.8,3.9-0.1,5.8c-0.3,0.6-0.6,1.2-0.8,1.8c-0.2,0.1-0.2,0.3-0.2,0.5c-0.3,0-0.4,0.2-0.5,0.5
			c-0.3,0.2-0.5,0.4-0.7,0.7c-1,0.4-2.1,0.2-3.1,0c0-0.4-0.3-0.7-0.7-0.7c-0.3-1.3-1.1-2.5-1-3.9c0.1-1.2,0.9-2.1,1-3.2
			c0.1-0.1,0.2-0.2,0.2-0.2c0.3-0.1,0.5-0.4,0.5-0.7c0.2-0.1,0.2-0.3,0.2-0.5c0.1-0.1,0.2-0.2,0.2-0.2c0.1-0.1,0.2-0.2,0.2-0.2
			C5.7,198.7,5.8,198.6,5.9,198.5z"/>
		<path class="st1" d="M33.8,202.8c-0.1-0.1-0.2-0.2-0.2-0.2c-0.1-0.5-0.4-0.7-0.7-1c-0.1-0.3-0.2-0.7-0.4-1c-1-1.7-1.4-3.5-0.1-5.2
			c0.1-0.1,0-0.3,0.1-0.5c0.1-0.1,0.2-0.2,0.2-0.2c0.1-0.1,0.2-0.2,0.2-0.2c0.1-0.1,0.2-0.2,0.2-0.2c0.2,0,0.4,0,0.5-0.2
			c1.2-0.4,2.4-0.4,3.6,0.2c0.1,0.1,0.2,0.2,0.2,0.2c0.1,0.1,0.2,0.2,0.2,0.2c0.1,0.1,0.2,0.2,0.2,0.2c0.1,0.1,0.2,0.2,0.2,0.2
			c0,0.3,0.2,0.5,0.5,0.5c0,0.2,0,0.4,0.2,0.5c0.2,0.9,0.8,1.7,1,2.7c0.2,1.3-0.2,2.4-0.7,3.5c-0.2,0.2-0.3,0.3-0.5,0.5
			c-0.2,0.2-0.3,0.3-0.5,0.5c-1.2,0.7-2.4,0.6-3.6,0.3c0-0.3-0.2-0.5-0.5-0.5C34,202.9,33.9,202.8,33.8,202.8z"/>
		<path class="st1" d="M158.1,208.7c-0.1-0.2-0.3-0.2-0.5-0.2c-0.6-1.2-1.6-2.2-2.1-3.5c-0.5-1.3-1.1-2.6-0.9-4
			c0.4-2.2,2.3-3.2,4.9-2.8c0.2,0.7,0.7,1.2,1.4,1.4c0,0.2,0,0.5,0.2,0.7c1.8,2.7,1.8,5.3-0.2,7.9
			C160.1,208.9,159.1,208.8,158.1,208.7z"/>
	</g>
</g>
</svg>
