<svg viewBox="0 0 165.6 330.3" xmlns="http://www.w3.org/2000/svg"><path d="m77.1 22.9c.9-.8 1.8-1.5 3-1.6.1.1.1.2.1.3-1.5 1-3 2.2-4.6 3.1-.1 0-.2-.1-.2-.2.2-1.2.8-2.2 1-3.2-.5 1.4-1.4 2.8-2.7 3.7-.6.4-.7 1-.5 1.7 1.2 3.6 2.3 7.3 3.8 10.8.3.7.7 1.3 1.4 1.7.5.3.7.7-.2.9-.1 0-.3-.1-.4-.2s-.1.2 0 .1c.1-.2.2.1.3.1 1.1.7 2.2 1.6 3.3 2.3 1 .7 1.8.7 2.7 0s2.1-1.2 2.9-2.1c.1-.1.3-.2.5-.1-.2-.2-.6 0-.8-.3-.1-.2.1-.4.3-.5 1.3-.7 1.8-1.9 2.3-3.2.6-1.7 1-3.5 1.6-5.3.3-.7 0-1-.7-1.1-.5-.1-1-.1-1.3-.6.3-.5.9-.4 1.3-.4 1.6-.1 1.8-.3 1.9-2.1-.7-.1-1.3.2-2-.1-.1 0-.2-.1-.3-.3.6-1.1 2.3-.3 3.1-1.6-4.4-.6-8.7-2-13.1-.1-.2.1-.5.1-.7.1-.1 0-.2-.1-.3-.2-.1-.5.3-.7.7-.9 1.5-.6 2.7-1.5 3.9-2.6.1 0 .2 0 .3.1-.1.6-.4 1-.9 1.3.1.2.3.3.5.3 2.9-.4 5.6.5 8.3.9 1.8.3 1.8.2 2.3-1.4 1.6-5.1 3.1-10.2 4.7-15.3.6-1.9 1.6-3.6 2.9-5 1-1.1 2.1-1.3 3.4-.7 1.8.7 3.2 2 4.3 3.6 4 6 6 12.9 7.4 19.9.7 3.3 1.1 6.7 1.3 10.3.8-.6 1-1.5 1.9-2.1.1 2.2-.2 4.3-.6 6.6.9-.2 1.4-1.1 2.4-1.2-.6 1.7-.8 3.5-1.1 5.3-.3 1.7-1 3.3-2.3 4.8 1 .1 1.9-.5 2.8.1-2 2.4-3.7 4.9-5.4 7.6 1.2 1 2.8 1.3 4.2 2-.6.6-1.3.7-1.9 1.1 1.3 2 3.5 5.8 6 6.9-.8.9-2 1-3.1 1.6.3.7.7 1.5.9 2.2.2.8.6 1.5.3 2.5-.7-.4-1.4-.7-2.1-1.1.2 1.1.4 2 .5 3 .3 1.3.2 1.4-1.2 1.4-3.1.1-6.1-.1-9.1 1-1.2.4-2.4.7-3.6 1.5 1.2 2.3 2.4 4.6 3.7 6.9.3.5.6.8 1.2 1 5.3 1.7 10.4 3.8 15.9 4.8 1.7.3 3.3.4 5.1-.5-.4 1.2-1.2 1.8-1.6 2.7 2.4 1.7 3.6 4.8 6.8 5.8-1.3 1-2.5 1.3-3.8 1.7l2.4 5.4c-.9.3-1.7-.1-2.6-.4.6 2.6.9 5.2 1.2 7.7.6 4.5 1.6 8.9 2.6 13.3.9 4.1 1.9 8.1 3.3 12 3.5 10 6 20.4 9.4 30.4 1.5 4.6 3.9 8.9 5.5 13.5 1 2.7 1.8 5.5 3.3 8 1 1.6 2.2 3 3.3 4.6 2 2.8 3.4 5.8 3.6 9.3.1 1.6-.5 3.2-1.2 4.6s-1.8 2.6-2.2 4.2c-.1.4-.5 1-1.1 1-.7 0-.7-.6-.8-1.1-.6.1-.8.6-1 .9-1 1.7-2.4 2.9-4.1 3.8-.6.3-1 .6-1.2 1.3-.3.8-.8 1.5-1.9 1.8-.2 0-.4-.4-.4-.7 0-1.4-.9-1.7-2.1-2-1.7-.5-3.2-.9-4.7.5-.5.5-1.4.7-2.1.6-1.2-.1-2.3 0-3 1.3-.4.7-1 .5-1.1-.3-.3-1.4-1.1-2.2-2.3-2.9-2.9-1.7-3.3-4.5-2.9-7.5.2-1.8.6-3.5.7-5.4-2 3-4.6 3.8-7.8 2.1-.5.3-.7 1-1.4 1.1-.7-.5-.6-1.3-.7-1.9-.1-.7-.3-1.3-.7-1.9-1.9-3.2-.9-6.9 1.1-9.4 1-1.2 1.9-2.6 3.1-3.7.6-.5.9-1.3 1.1-2.1.4-1.7.9-3.5 1.8-5.1.3-.5.2-1 0-1.5-1-3.8-2.8-7.3-3.9-11-1.3-4.4-2.6-8.8-3-13.4-.3-2.5-1.3-4.8-2.3-7.1-2.8-6.4-5.2-12.9-7.6-19.4-.6-1.6-1-3.2-2-4.7-.2 1.1-.4 2.2-.5 3.4-.3 4.6-.7 9.3-.7 13.9s-.2 9.2 0 13.8c.2 5 .7 10 1.7 14.9 1.2 5.7 2.8 11.4 4.4 17 2.6 9.3 5.1 18.7 7.2 28.1 1 4.4 1.5 8.8 1.9 13.2.3 3.6.4 7.3.5 10.9 0 3.3-.9 6.4-1.3 9.6-.7 5.4-1.7 10.7-2.1 16.1-.6 7.2-.3 14.4.1 21.7.3 4.9 1.3 9.8 2.3 14.7 5.1-.2 8.5 3.1 11.9 6.1 1.7 1.5 2.2 3.9 2.6 6.1.6 3 .6 6 .3 9.1-.2 2.8-1.4 3.9-4.2 3.9h-33.5c-3.3 0-5-1.3-5.8-4.5-.8-3.1-.8-6.2-1.1-9.4-.4-6-.2-12.1-.8-18.1-.8-8.2-1.2-16.5-2.5-24.6-.7-4.3-1-8.7-.8-13.1.2-3.3.6-6.6 1.5-9.8.9-2.8.9-5.5 0-8.4-1.8-5.4-3.2-10.9-4.2-16.4-1-5.3-1.9-10.6-2.3-16-.1-1-.3-2-.4-3.1-.1-.6-.3-.8-.9-.8-1.6 0-3.1.1-4.7 0-.9 0-1.1.4-1.2 1.2-.8 7.3-1.6 14.5-3.3 21.6-1.2 5-2.3 10-4 14.9-.7 2-.4 3.9.2 5.9 2.2 7.5 2.2 15.1 1.1 22.8-1 7.4-1.8 14.8-2.3 22.3-.4 5.7-.8 11.5-.9 17.2-.1 4.3-.3 8.5-1 12.8-.2 1-.5 1.8-.9 2.7-1 1.9-2.4 2.9-4.8 2.9-11.3-.1-22.6-.1-33.8-.1-2.8 0-4-1.2-4.2-4-.3-3.3-.3-6.6.5-9.8.7-3 2.1-5.5 4.8-7.3 2.1-1.4 4-3.2 6.6-3.7.9-.2 1.9-.2 3-.4.6-3.2 1.1-6.4 1.7-9.7.8-4.9.9-9.9 1-14.8.1-4.3 0-8.7-.4-13-.7-7-1.9-14-3.1-20.9-.5-2.9-.2-5.9-.1-8.8.1-5.6.6-11.2 1.8-16.8 1.5-7 3.1-14 5.1-20.9 1.4-4.9 2.6-9.8 4-14.7 2-7.2 3.6-14.6 4.3-22.1.6-6.2.2-12.4.2-18.6 0-2.5-.2-5.1-.3-7.6-.2-3.1-.1-6.2-.9-9.2-.5.1-.5.5-.6.9-2 6.3-4.8 12.4-7.1 18.7-1.3 3.6-3.3 7-4 10.8-.6 3-1 6-1.7 9-1.3 5.5-3.6 10.6-5.3 16-.3.8-.3 1.5.1 2.3.7 1.2 1.1 2.5 1.4 3.8.3 1.7 1.4 2.9 2.5 4.1s2.1 2.4 2.9 3.8c1.7 3.2 1.6 6.2-.6 9.1-.1.2-.2.4-.4.5-.3.3-.7.5-1 .8-.1.1-.2.1-.3.2-.5-.1-.8.2-1.2.4-2.5 1-4.5.4-6.2-1.7-.2-.3-.4-.6-.8-.8.1 1 .3 2 .4 3.1.2 1.6.5 3.3.4 5-.2 2.5-1.6 4.1-3.5 5.3-.5.3-1 .5-1.3.9-.1.1-.2.1-.3.1-.7 0-1.2.5-1.8.7l-.1-.1-.2-.2c-.7.1-1.4.2-2.1-.1-1.3 0-2.5-.6-3.5-1.4-.5-.4-.8-.5-1.4-.2-.5.2-1 .5-1.5.5-1.8.1-3 .8-2.8 3-1.3-.6-2.2-1.3-2.5-2.5-.1-.4-.2-.6-.6-.8-2-.9-3.5-2.2-4.5-4.1-.2-.3-.3-.6-.8-.7-.4.1-.3.9-1 .9s-.9-.6-1.2-1.2c-.5-1.1-1-2.2-1.7-3.2-1.9-3-2-6.3-.7-9.6.9-2.3 2.1-4.4 3.6-6.3 2.2-2.6 3.8-5.6 4.8-8.8 1.1-3.7 2.8-7.2 4.4-10.7 2.5-5.5 4.1-11.3 5.7-17.1 1.9-7 4.3-13.8 6.4-20.7 1.5-4.9 2.6-9.9 3.7-15s1.7-10.4 2.7-15.5c0-.1 0-.2-.1-.4-.8.2-1.6.7-2.6.3 1.1-1.6 1.4-3.6 2.5-5.3-1.3-.5-2.5-.9-4-1.7 3.5-.9 4.6-4.1 7.1-5.8-.6-.8-1.2-1.5-1.6-2.6 3.2 1.4 6 .2 8.9-.5 3.3-.7 6.4-2.3 9.6-3.1 2.4-.6 3.9-1.8 4.8-4.1.7-1.6 1.6-3.1 2.4-4.8-2.9-1.3-5.7-2.3-8.8-2.4-1.4-.1-2.8-.1-4.2-.1-.8 0-1.2-.2-1-1.2s.4-2.1.8-3.4c-.9.5-1.5.8-2.4 1.3 0-1.8.6-3.3 1.4-4.8-1-.6-2.2-.9-3.2-1.7 3-1.5 4.2-4.4 6.1-6.8-.5-.5-1.4-.5-2-1.2 1.4-.7 2.8-1.1 4.1-2-1.7-2.7-3.3-5.6-5.7-7.8-2-1.8-1.6-4.1-.3-5.5.8-.8.8-1.6.6-2.5-.2-.6-.4-1.3-.6-2 .9.2 1.5.9 2.3 1.3-.3-2.2-.7-4.3-.6-6.8.7.9 1.2 1.5 1.8 2.4.2-2.1.4-4 .6-5.9.8-6.7 2.5-13.1 5.2-19.3 1.1-2.5 2.3-4.9 4.4-6.8l.3-.3c2.9-2.7 5.2-2.3 7.2 1 1.7 2.9 2.4 6.1 3.4 9.3 1.2 3.9 2.5 7.7 3.5 11.7 0 .1.1.2.3.3 2.7-1.4 3.4-4.1 4.2-6.7.3 1.4.1 2.8.1 4.2.3.4.3.6.5.7z"/><path d="m80.1 21.5v-.2c1.4-.9 2.9-1.4 4.2-2.4.3-.2.4 0 .4.2 0 .7-.5 1.2-.8 1.9-.1 0-.2 0-.2-.2-.1-.3 0-.6.2-.8s0 .1 0 .1c-.8.7-1.9 1.1-2.8 1.6-.5 0-.8.1-1-.2zm-40.6 184.9c0-.1 0-.2.1-.4 1 .5.8-.5 1.2-.9.1-.2.2-.3.4-.3.3 1 .2 1.9-.7 2.6-.6-.1-.9-.5-1-1zm-12.4 12.2h.2c0 .2 0 .3-.1.5-.1.6 0 1.5-.8 1.7-.8.1-.9-.7-1.3-1.2l.1-.1c.3-.1.6.2.9.2.5-.3.4-1 1-1.1zm-4.3.5c.7 0 1.4-.1 2.1.1-.7 0-1.4.2-2.1-.1z" fill="#343434"/><path d="m84.6 19.1c-.1-.1-.3-.1-.4-.2.2-.2.3-.4.5-.6.2.3 0 .6-.1.8z"/><path d="m83.7 21.1h-.3c-.1-.2 0-.3.2-.3.1.1.2.1.1.3.1-.1.1 0 0 0zm-58.6 198.2c.1.1.3.1.4.2-.1-.1-.2-.1-.3 0-.1 0-.1-.1-.1-.2z" fill="#343434"/><path d="m35.3 91.5c3.1.3 6.1-.7 9-1.5 3.3-.9 6.5-2.1 9.8-3.2 1.3-.4 2.1-.3 2.7 1l.3.3c-.1-.1-.2-.3-.1-.4-.9-1.1-.7-2.3 0-3.4 1-1.9 2-3.9 3-5.9 1.7.7 3.2 1.3 4.8 1.9-5.8-3.6-11.8-6.1-18.8-5.5.1-2.2.7-4 1.8-6-1.3.5-2.2 1.3-3.3 2.1.2-1.7 1-2.8 2-4-1.1-.4-2.2-.4-3.4-1.1 2.7-2 3.8-5.3 6.5-7.3-.6-.3-1.4-.1-2-.6 1.1-.5 2-.9 3.1-1.4 1.1 1.4 2.5 2.6 3.8 3.7-.1.9-.9 1.5-.9 2.3v.1c0 .1-.2.3.1.3.2 0 .4-.1.3-.4 0-.1-.1-.2-.1-.3 1.4-4 3.9-7.2 7.1-9.8-.1 0 0-.3-.2-.2-2.5 2-4.9 4.2-6.1 7.4-4-2.9-5.8-7.5-9-11.1 1.4-.2 2.5.7 3.8.8-.3-.2-.6-.4-1-.6 1.2-.6 2.2-.9 3.1-1.5 1.3-.7 2.3-1.7 3-3 .4-.9.4-1.9 0-2.8-.2-.5-.6-.8-1.2-.7-.5.1-.9.4-.8 1 .2 2.2-1.3 3.3-3 3.8-2.9.9-3.1.8-3.8-2.1-.3-1.4-.6-2.8-.8-4.2 0 0 0-.1.1-.2.9.7 1.7 1.3 2.5 2-1.1-2.1-1.1-4.4-1.3-6.8.9.8 1.3 1.8 2.1 2.7-.2-2.2-.2-4.2.1-6.2 1.2-8.1 2.8-16.1 7-23.4 1.1-1.9 2.3-3.8 4.1-5.1 1.9-1.3 3.2-1.1 4.5.9 2.1 3 2.8 6.6 3.9 10 2.2 7.3 4.3 14.6 6.9 21.8.3.8.7 1.5.8 2.2.5 2.8 2.5 4.2 4.7 5.4.8.4 1.6.9 1.6 2 0 .3.4.6.6.8-.8.4-.1.8.1 1.1-.5-.8.5-1.7-.2-2.5 1.2-.7 2.2-1.6 3.4-2.1 1.2-.6 1.9-1.7 3-2.4.5-.3.2-.7.3-1.1 3.2-8.2 5.3-16.7 8-25.1 1.1-3.4 1.8-6.9 3.7-9.9 1.4-2.3 2.9-2.6 5.1-.9 2.5 2 4 4.7 5.2 7.5 3.2 7 4.8 14.5 5.7 22.2.2 1.4 0 2.9 0 4.5.9-.8 1.3-1.8 2.2-2.8-.2 2.5-.2 4.8-1.4 7 .8-.6 1.6-1.2 2.5-1.9.2 3.8-1.4 7.4-4.6 10.5 1.4-.3 2.5-1.2 4.1-1.2-3.2 3.7-5.1 8.2-9 11.2-1.1-2.6-2.8-4.7-5-6.4-.1 0-.1 0-.2-.1l-.1.1h.1c0 .1 0 .1-.1.2 1.8 1.8 3.7 3.5 4.7 6 .4 1.1.9 2.2 1.5 3.2-.2.4-.5-.1-.6.2.3.4.9.4 1.6.6-.7-1.1-1.4-2.1-1.8-3.2 1.3-1.2 2.7-2.3 3.8-3.8 1 .5 2 .9 3 1.4-.6.5-1.3.3-2 .5 2.7 2.1 3.8 5.4 6.6 7.4-1 .7-2.3.7-3.4 1.1.9 1.1 1.7 2.1 2 3.4-.1.1-.1.2-.2.3-.9-.6-1.6-1.4-2.9-1.8 1 1.9 1.6 3.7 1.7 5.9-7-.6-13.1 1.9-18.9 5.3.8 0 1.5-.5 2.3-.8s1.6-.6 2.5-1c1.3 2.4 2.7 4.8 3.6 7.4.2.6-.2 1.1-.5 1.7-.2.4-.4.9-.6 1.4.6-.1.7-.6.8-.8.5-1.4 1.4-1.5 2.7-1.1 3.9 1.3 7.7 2.8 11.6 3.7 2.4.6 4.8 1.3 7.4 1-.2.7-.9 1-1.6 1.4 3.2 1 4 4.5 7 5.8-1.1.7-2.4.8-3.6 1.3 1.5 1.4 1.7 3.3 2.6 5-1.2-.1-2-.9-3-1.3 1.6 3.3 1.5 6.8 2.1 10.2 1.4 8 3 15.9 5.4 23.7.6 2.1 1.3 4.2 2 6.3-.3.3-.6.3-1 .4-5.3 1.2-10.5 2.8-15.2 5.4-.4.2-.7.6-1.2.2-.2-.8.1-1.6-.3-2.5 0 1-.1 1.9-.1 2.9-.3.4-.6.5-1 .3-1.7-3.1-2.7-6.5-3.9-9.8-1.8-4.8-3.7-9.7-5.5-14.5-.6-1.5-.7-2.9-.3-4.4.8-2.8 1.4-5.7 1.8-8.8-.6.5-.5 1-.6 1.5-1 4.1-2.2 8.3-3 12.4-.5 2.3-.3 4.8-.5 7.1-.5 6.1-.6 12.3-.7 18.4-.1 9.7 1.3 19.3 3.8 28.6 1.7 6.5 3.7 12.9 5.5 19.4 2.8 10.4 5.5 20.9 6.2 31.8.4 6 .4 11.9-.9 17.8-.2.9-.3 1.8-.4 2.7-1 .6-2 .4-3 .3-7.8-1.2-13.1-5.4-15.4-13.2-.9-3.1-1.4-6.2-2-9.4-1.1-5.9-1.8-11.9-2.5-17.9-.4-3.6-.7-7.2-1.1-10.8-.7-5.4-1.1-10.8-2.7-16.1-1.1-3.6-3.4-6.1-6.6-7.8-.3-.2-.6-.3-.9-.6-.3-.9-.1-1.7 0-2.6.3-5.2-4.8-9.5-9.7-7.1-2.6 1.3-3.9 3.6-4.1 6.4-.1 1.1.4 2.1 0 3.2-.4.5-1 .6-1.5.9-3.8 2.2-5.7 5.6-6.6 9.7-.8 3.7-1.2 7.5-1.7 11.3-.9 6.3-1.3 12.7-2.1 19.1-.9 6.8-1.9 13.6-3.4 20.3-1.9 8.2-7.4 13.3-15.8 14.5-1 .1-2.1.3-3-.2-1.1-5.7-1.8-11.4-1.5-17.2.4-9.9 2.2-19.5 4.7-29 2.5-9.3 5.4-18.5 7.7-27.9 2.2-8.7 3.3-17.5 3.2-26.5-.1-6.3-.1-12.5-.8-18.8-.3-2.6 0-5.4-.7-8-1.1-4.1-2.1-8.2-3.3-12.3.1.5.1 1 .2 1.5.5 2.5 1 5 1.6 7.5.3 1.4.2 2.7-.3 4-2 5.1-3.9 10.3-5.9 15.4-1.2 3.1-2.1 6.2-3.7 9.1-.4.2-.7 0-1-.4-.2-1 .2-2.1-.2-2.8-.4.6.1 1.5-.3 2.4-.4.2-.8-.1-1.1-.3-4.8-2.5-9.9-4.1-15.2-5.3-.4-.1-.8 0-1.1-.4.6-1.9 1.1-3.7 1.7-5.6 2.1-6.4 3.4-13 4.8-19.7.6-3.1 1.1-6.3 1.5-9.4.2-1.8.5-3.7 1.6-5.6-1.1.7-2 1.3-3.2 1.6.9-1.8 1.1-3.7 2.6-5.1-1.1-.6-2.4-.6-3.5-1.4 3-1.2 3.8-4.8 7-5.8-.5-.4-1.1-.7-1.5-1.3 0 .5.1.4.2.3z" fill="#76e9c8"/><path d="m89.7 177.3c3.6 1.5 6.1 3.9 7.5 7.6s1.8 7.6 2.3 11.5c.6 4.6 1.2 9.2 1.6 13.9.4 4.8 1.1 9.6 1.8 14.3.8 5.5 1.5 11.2 3.3 16.5 2.2 6.6 7 10.3 13.8 11.6 1.3.2 2.6.3 3.9.2-1.1 7-2 14-2.1 21.1-.2 11 .8 21.8 3.4 32.4.8 3.3 1.2 6.6 1.6 9.9.6-4-.4-7.8-1.2-11.8 2.7-.3 4.9.8 7 2.5-1.1.2-2.2 0-3.1.7.1.3.2.2.4.2 3.4-.8 6.5.7 7.9 3.8 2 4.5 2.1 9.3 1.5 14.1-.1 1.2-.9 1.8-2 2-.6.1-1.3.2-1.9.2-11 0-22.1-.1-33.1 0-2.9 0-4.2-1.5-4.9-3.9-.5-1.7-.6-3.5-.8-5.3-.8-9.8-.6-19.6-1.5-29.4-.6-6.8-1.4-13.5-2.3-20.2-1.1-8.3-.4-16.4 2.4-24.3.4-1.1 1.2-2 1.3-3.2 0 0 .1 0 .1-.1s-.1.1-.1.1c-.7.7-1 1.7-1.7 2.7-4.1-13-6.6-26.1-8.1-39.6.7 0 1.2-.1 1.7-.1-1.3-1.6-9.7-1.6-11.6 0 .5 0 1 .1 1.7.1-1.4 13.5-3.9 26.6-8.1 39.6-.5-.8-.9-1.5-1.4-2.2 1.6 3.4 2.3 7 3.1 10.5 1.2 5 1.1 10.1.4 15.1-1.2 9.5-2.4 18.9-2.9 28.5-.1 2.4-.3 4.9-.4 7.3-.4 1.4-.3 2.8-.3 4.2 0 1.6-.1 3.2.1 4.9-.3 3.7-.4 7.5-1.1 11.2-.2 1.2-.9 2.2-1.7 3.1-.6.7-1.3 1-2.3 1h-34.3c-.6 0-1.2-.1-1.8-.2-1.2-.2-1.9-.9-2.1-2.1-.3-2-.3-4-.2-6 .1-2.7.5-5.3 1.7-7.8 1.1-2.3 2.8-3.9 5.4-4.4 1-.2 2 .2 3.3.5-1.1-1-2.1-.9-3.2-1-.1 0-.1 0-.1-.1 1.9-1.6 4.1-2.6 6.8-2.4-.7 4-1.8 7.8-1.1 11.9.3-2.2.5-4.3.9-6.5 1-5.4 2.1-10.8 3.1-16.2.7-4 .7-8 .9-12 0-.3.1-.5.1-.8.3-.1.3-.3.3-.6v-7.7c0-.2.1-.5-.3-.6-.4-3.9-.7-7.8-1.1-11.6-.3-2.4-.7-4.9-1-7.3 5.3.1 9.9-1.5 13.7-5.2 2.6-2.6 4-5.8 4.8-9.3 1.4-6.1 2.3-12.3 3.1-18.5.6-4.1 1-8.2 1.4-12.3.7-6.8 1.4-13.7 2.9-20.4.9-3.9 3-7 6.5-9.1.6-.3 1.1-.6 1.7-.8.5.2.5.6.6 1 .8 2.1 2 4 3.4 5.7 1.8 2.1 3.5 2.2 5.5.2 1.5-1.5 2.5-3.3 3.4-5.2.9-.7.9-1.5 1.5-1.9zm-65.5-33.4c2.8.2 5.4 1.1 8 2 3.2 1.1 6.5 2.2 9.4 4.1.2 3.9-.8 7.6-1.3 11.4-.9 5.9-3 11.5-5.1 17.1-.4 1.1-.8 2.3-1.2 3.5-1.4-1.4-2.8-2.5-4.9-2.7.1.2.1.3.2.3 3.3.9 4.9 3.4 5.6 6.3.8 3.1 2.3 5.6 4.5 7.9 1.8 1.9 2.9 4.1 2.8 6.8-.1 3.6-3.9 6.7-7.1 5.8-1.5-.4-2.3-1.6-3.1-2.8l-1.2-2.1c-.6.4-.4.9-.3 1.4.3 2.7 1 5.4 1.1 8.2.1 4.9-5.1 8.7-9.7 7.2-.5-.2-1-.4-1.5-.7-.7-.5-1.2-1-.5-1.9.4-.5.6-1.1.7-1.7.5.1.5.6.8.7h.1c.1.1.2.1.4.2.1.1.2.1.2.2.1.1.2.1.3.2 0 0 .1 0 .1.1 1.7.5 3.3.2 4.8-.8.1-.1.1-.2.2-.2.1-.1.1-.2.2-.2l.1-.1.2-.2.2-.2c.9-1.2 1-2.5.8-4s-.2-2.9-.8-4.3c-.1-.1-.1-.2-.2-.2-.1-.1-.1-.2-.2-.4 0-.1-.1-.1-.1-.2l-.3-.3v-.1c-.9-1.3-2.2-1-3.4-.7-1.4.4-2.4 1.3-2.6 2.8-.3 2-.6 3.9-.9 5.9-.9 4.7-4.7 6.9-9.2 5.1-2-.8-3.5-2.2-4.5-4.2 1-.4 1.8-.9 2.6-1.7.4.6.5 1.3 1.1 1.7h.1c.1 0 .2.1.3.1l.1.1c.1.1.2.1.2.2l.1.1c1.7 1.1 3.5 1.5 5.4.7.1-.1.2-.1.3-.2s.2-.1.2-.2l.1-.1.2-.2.2-.2c1.4-2.6 1.8-5.5 1.7-8.4 0-.4-.2-.8-.5-1.1l-.2-.2c-.1-.1-.2-.1-.2-.2l-.1-.1c-.1-.1-.2-.1-.2-.2l-.1-.1c-1.2-.9-2.5-.9-3.8-.3-.1.1-.2.1-.2.2l-.3.3s-.1 0-.1.1c-.7.3-.8 1.1-1.1 1.7-.8 1.7-1.6 3.5-2.7 5.1-.4.6-.9 1.2-1.5 1.6-1.4.9-2.7.9-4-.1-3.1-2.5-3.9-5.8-3-9.6.6-2.6 1.8-5 3.5-7 2.9-3.4 4.8-7.3 6.1-11.6.2-.5.4-1 .6-1.6.9-2.8 2.8-4 5.7-4 .4 0 .8-.1 1.2-.1-1.2-.7-3.1-.5-5.1.5-.1 0-.1-.1-.1-.2 3.9-8.3 6.2-17.2 8.7-26 .3-3 1.3-5.6 2.2-8.2zm99.8 6.1c4.9-2.8 10.2-4.5 15.6-5.8.6-.1 1.2-.2 1.8-.2 1.3 3.5 2.4 7 3.4 10.6 2.1 7.9 4.4 15.7 7.8 23.2 0 .1-.1.2-.2.2-1.6-.8-3.3-1-5-.5 1 .1 2 .2 3 .4 1.7.2 2.7 1.2 3.5 2.6 1.1 2.3 1.8 4.8 2.7 7.2.9 2.1 2.1 4 3.5 5.8 2 2.4 3.5 5 4.3 8.1.9 3.6.4 6.9-2.6 9.5-1.8 1.6-3.6 1.5-5.2-.4-1.3-1.5-2-3.3-2.9-5-.4-.8-.7-1.6-1.2-2.4-.9-1.5-1.8-1.8-3.5-1.5s-2.9 1.4-3.1 2.8c-.3 3.1.4 6 1.6 8.7.4.8 1.2 1.3 2.1 1.4 2.1.3 5.4-.3 6.6-3.4.8.5 1.5 1.2 2.7 1.4-1.2 2.4-2.9 3.9-5.4 4.6-1.9.5-3.6.2-5.4-.5-1.5-.6-2.2-1.8-2.6-3.3-.6-2.4-.9-4.8-1.2-7.2-.1-.8-.2-1.5-.9-2h-.2c-.1 0-.2-.1-.3-.2l-.1-.1c-1.4-1-2.8-1.2-4.3-.3-.1.1-.2.1-.3.2-.8.4-1 1.2-1.2 2-.3 1.6-.6 3.2-.6 4.9.1 2.4 1.8 4.3 4.3 4.5 1 .1 2.1.2 3-.5.1 0 .1 0 .2-.1.7 0 .6-.8 1.1-1 .3.9.7 1.8 1.3 2.6-1.6 1.9-3.6 2.3-5.9 1.9-1.7-.3-3.2-1.1-4.6-2.3s-1.9-2.8-1.9-4.6c.1-2.8.7-5.6 1.1-8.4.1-.5.2-1-.1-1.6-.8.6-.9 1.4-1.4 2-.9 1.3-1.7 2.6-3.3 3-3.1.8-6.8-2.3-7-5.7-.1-1.8.3-3.6 1.3-5.1.8-1.2 1.7-2.4 2.8-3.5 1.4-1.3 2.2-2.9 2.6-4.7.3-1.5 1-2.8 1.7-4.1 1-1.8 2.3-3.1 4.4-3.6.1 0 .2-.2.6-.4-2.3.1-3.7 1.2-5.2 2.7-.4-1.2-.7-2.2-1.1-3.3-1.7-4.7-3.6-9.2-4.5-14.1-.7-4.8-1.8-9.6-1.8-14.5z" fill="#44d262"/><path d="m83.7 20.8c-.2 0-.2.1-.2.3-.7 1.2-1.8 1.9-3.1 2.4-.5.2-1.1.4-1.4.9 3.2-1.4 6.5-1.7 9.9-.9 1.5.3 3 .7 4.6.5 0 2.4-2.2 1.3-3.2 2.1.9.2 1.7-.1 2.7-.1-.3.9-.4 2-.9 2.7-.6.8-1.7 0-2.6.4.6.4 1.5.2 2.3.6-1 2.9-1.5 6-2.9 8.8-.4.7-1.2 1-1.9 1.4.4.2.7-.2 1.2-.1-1.4 1.7-3.2 2.7-5 3.7-.5.3-.8 0-1.1-.2-1.4-1-3-1.8-4.2-3.1 0-.2.1-.2.2-.3.2 0 .3 0 .5.1-1.6-.6-1.9-2.1-2.3-3.5-1.2-3.4-2.3-6.8-3.5-10.2-.1-.4-.2-.8.2-1.1 2-1.2 3-3 3.7-5.2.4 1.1-.1 3.1-1.2 4.6.2.1.1.2 0 .3l-.3.3-.2.2h.1c0-.1.1-.1.1-.1l.2-.2c.1-.1.2-.2.3-.2 1.3-1.3 2.8-2.5 4.5-3.2 1.4-.4 2.6-1.1 3.8-1.9.1 0 .1 0 .1.1-.2.2-.3.6-.4.9z" fill="#76e9c8"/><path d="m10.2 212.9c-.9-1.7 0-3.1.8-4.6 1-1.7 1.7-3.5 2.3-5.3.2-.1.1-.3.2-.5 1.6-1 3.1-.6 4.6.2.1.1.1.2.2.2.1.1.1.2.2.2 1 1 .8 2.3.7 3.5-.2 2.4-.5 4.8-1.9 6.8-.1.1-.2.1-.2.2-.1.1-.2.1-.2.2-1.6.8-3.1.6-4.7 0-.5-.2-1.1-.5-1.6-.8-.1-.1-.1-.2-.2-.2 0 .2-.1.1-.2.1zm140.8 1.4c-2.1 0-2.8-.4-3.5-2.4-.7-2.1-1.2-4.3-1.1-6.5 0-1.5.9-2.7 2.4-3.1 1.9-.5 2.9-.2 3.7 1.4 1.1 2.2 2 4.5 3.2 6.7.6 1-.4 2.7-1.9 3.3-1 .4-1.9.7-2.8.6zm-129.7.3c-.6-2.4.1-4.6.4-7 0-.2.1-.3.1-.5.4-3.4 2.1-4.4 5.3-3.2h.2c.1.2.3.1.5.2.1.1.1.4.2.5.7 1.3.8 2.7.9 4.1.1 1 .4 2 .1 3-.3.7-.5 1.4-1 2-.1.1-.2.1-.2.2-.1.1-.2.1-.2.2-1.7 1.2-3.5 1.7-5.5 1-.1-.1-.1-.2-.2-.2-.3-.1-.4-.2-.6-.3zm122.2-10.2c.4 2.4.7 4.9 1.1 7.3.2 1.2-.3 2.1-.6 3.1-.9 1.1-2.1.8-3.1.7-2.4-.3-4.2-1.8-4.3-4.4-.1-1.7.3-3.4.6-5.1.2-.9.7-1.6 1.3-2.2 1.7-.8 3.3-.6 4.8.5 0 0 .1.1.2.1z" fill="#343434"/><path d="m44.8 42.5c.3.2.8 1.1.6 1.4-.8 1.6.4 2.1 1.4 2.7 2.8 1 6.4-1.3 6.6-4.2 0-.4.1-.7.4-.9.9.8.8 1.7.4 2.7-1.2 2.9-6 4.9-8.8 3.8-.9-.3-1.7-.9-1.9-2 .3-1.2.7-2.4 1.3-3.5z" fill="#ffd700"/><path d="m53.9 41.5c-.1.2-.2.5-.2.7-.3 3-3.2 5.4-6.2 5-.4 0-.7-.1-.7-.6 2.1.1 3.9-.4 5.4-2 .6-.7 1.1-1.4 1-2.4-.1-.4 0-.8.7-.7z" fill="#ffd700"/><path d="m152.2 220c-.2-.6-.4-1.1-.3-1.7.6-.1 1.3 0 1.9-.3-.2 1.2-.5 1.7-1.6 2zm-139 .2c-.8-.5-1.3-1.2-1.5-2.2.7.1 1.3.2 2 .2 0 .7-.1 1.3-.5 2z" fill="#fff"/><path d="m69.3 312.7c-.3-.2-.2-.6-.2-.9v-7.4c0-.3-.1-.7.4-.9-.1 3.1-.2 6.1-.2 9.2z"/><path d="m44.8 42.5c-.3 1.2-.4 2.4-1.2 3.5-.3-1.4.2-2.5 1.2-3.5z" fill="#ffd700"/><path d="m25.1 219.6h.3c.1-1.1.9-.9 1.6-.9-.2.5-.4 1.1-.7 1.7-.5 0-.5-.5-.8-.8-.1-.3-.2-.3-.4 0zm137.3-8.2c-.2.8-.5 1.5-1.2 2.1-1-1.5.8-1.4 1.2-2.1z" fill="#fff"/><path d="m122.6 150.7c.3-.1.7-.2 1-.3v2.2c-.6-.5-.7-1.2-1-1.9z" fill="#44d262"/><path d="m3.2 211.4c.4.7 2.2.5 1.3 2.1-.9-.5-1.1-1.3-1.3-2.1zm136 9.1c-.2-.7-.4-1.3-.6-2 .6.2 1.1.3 1.5.4 0 .6-.4 1-.9 1.6z" fill="#fff"/><path d="m41.9 150.4c.3.1.7.2 1 .4-.2.6-.4 1.2-1 1.8z" fill="#44d262"/><path d="m126 206.1c-.3.4-.6.6-.9 1-.2-.7-.4-1.2-.3-1.9.5.3.8.5 1.2.9zm-85.3-.9c0 .6.1 1.2-.3 1.7-.4-.1-.6-.5-.8-.8.4-.3.8-.6 1.1-.9z" fill="#fff"/><path d="m53.7 62.6c.1-.1.2-.1.3-.2l.3.3c-.1.2-.3.4-.5.3-.3 0-.2-.2-.1-.4z" fill="#76e9c8"/><path d="m77.1 22.9c-.1.1-.3.2-.4.1-.2-.2 0-.4.1-.6.1.2.2.3.3.5zm6.2-.2c-.2.1-.4.3-.6.1-.1-.2 0-.3.2-.3.1 0 .3.1.4.2z" fill="#fff"/><path d="m77.8 40.2c-.1-.1-.4-.1-.4-.4.2-.2.4.1.6.1 0 .1-.1.2-.2.3z" fill="#76e9c8"/><path d="m33.2 307h-.3l.1-.1c.1 0 .1.1.2.1zm-20.2-129c-.1.1-.2.1-.3 0 0 0 .1-.1.1-.2.1 0 .2.1.2.2zm139.7-.3c0 .1 0 .2.1.3-.1 0-.2-.1-.2-.1 0-.1 0-.1.1-.2z" fill="#44d262"/><path d="m121 70.4v.3h-.3c.2-.1.2-.2.3-.3zm-85.9 21.4c0-.1 0-.2-.1-.3.1 0 .2 0 .3.1-.1 0-.1.1-.2.2zm48.8-72.2c0-.1.1-.2.1-.2.1.1.1.2 0 .3z" fill="#76e9c8"/><path d="m89.7 177.3c-.9 2.7-2.2 5.2-4.3 7.3-1.9 1.9-3.4 1.9-5.3 0-2-2.1-3.4-4.5-4.2-7.3-.5-2.3-.5-4.6.7-6.7 1.6-2.8 3.9-4 7.1-3.6 2.8.3 5.1 2.3 6 5.2.5 1.6.3 3.4 0 5.1zm-6.8-58.4v40.4h-.2v-40.4zm-16.4 5c1.3-2.3 1.6-4.8 2-7.3.4-2.4.5-4.8.8-7.2.2 2.8-.2 5.5-.6 8.2-.3 1.7-.6 3.5-1.2 5.1-.2.5-.4 1.1-.8 1.4-.2 0-.2 0-.2-.2zm32.7.5c-1.4-1.5-1.6-3.5-2-5.4-.7-3.2-1.1-6.4-.9-10 .3 2.8.5 5.3.9 7.9.4 2.5.7 5.1 2.2 7.4-.1 0-.1.1-.2.1zm-19.8-14.1 2.4 1.5c.7.5 1.3.4 2 0 2.2-1.4 4.3-3.1 6.2-4.8.2 0 .2.1.2.2-2 1.9-4.1 3.6-6.5 5-.7.4-1.3.4-2 0-.8-.6-1.7-1.2-2.6-1.8.1 0 .2-.1.3-.1zm-1.9-26.3c3.5.1 7 0 10.5 0-3.4.6-6.9.6-10.5 0zm29.4 7.1c-.2 1.8-1.3 3.2-1.9 4.9-.4-.1-.3-.6-.6-.8-.7.9-1.1 2-2 2.7.7-1.2 1.5-2.4 1.9-3.7.5.1.2.7.6.9.8-1.3 1.2-2.8 2-4zm-46.4 4.8c-.7-1.5-1.3-3.1-2-4.6 1 1.1 1.5 2.4 2 3.7.5-.1.2-.6.6-.9.4.8.8 1.7 1.3 2.7-.7-.4-.8-1.1-1.2-1.5-.5-.1-.1.9-.7.6zm49.9-30.6c.3.5.5.8.5.8-1.2 1.9-1.4 4.1-3 5.9.9-2.4 2.1-4.3 2.5-6.7zm-55.7.8c.1-.2.3-.4.5-.7.5 2.4 1.6 4.5 2.5 6.6-1.1-1.4-1.8-3-2.3-4.7-.1-.3 0-.8-.5-1-.2 0-.2-.1-.2-.2zm16.6 39c.2.2.4.5.7.8.2-1.1.1-2 .1-3 .4.7.8 1.4 1.2 2-.3.3-.4-.3-.7-.2-.2.5.1 1.2-.3 1.8-.5-.4-.9-.9-1.2-1.3.1 0 .1 0 .2-.1zm-7.3-6c.3.4.7.8 1.1 1.3.4-1 .3-1.9.6-2.8.3 1.2-.1 2.4-.4 3.8-.6-.8-1-1.5-1.4-2.1-.1-.2 0-.3.1-.2zm28.4 5.6c.3-.6.6-1.1 1-1.7h.2c-.1.8-.1 1.5-.2 2.3 0 .3-.1.6.4.5.2-.1.2 0 .2.2-.2.3-.5.5-.8.9-.3-.6-.2-1.1-.2-1.7 0-.4-.1-.4-.4-.3-.2 0-.2 0-.2-.2zm9-5c-.3.5-.6 1-1 1.6-.5-1.3-.8-2.5-.5-3.8.2.9.2 1.9.5 2.8.5 0 .4-.6.8-.7.2-.1.2-.1.2.1zm-5.3 3.4c1-1.2 2-2.2 2.7-3.6-.3 1.7-1.4 2.8-2.5 3.9-.1-.1-.1-.2-.2-.3zm2.6-55.3c1.3.9 2.6 1.8 3.8 2.8-.1.1-.1.2-.2.2-1.3-1-2.5-1.9-3.8-2.9 0-.1.1-.1.2-.1z"/><path d="m54.9 66.2c-.2.4-.4.8-.9 1-.5-1.3-.2-2.3.5-3.4-.2.8-.4 1.7-.4 2.6.4.2.5-.3.7-.4 0 .1.1.2.1.2zm56.2-2.3c.7 1 .9 2.1.3 3.3.1-1.1.2-2.2-.3-3.3zm-18.5 41c-.6 1-1.5 1.7-2.4 2.4-.1-.1-.1-.2-.2-.2l2.4-2.4zm-22-.1c-.8-.8-1.5-1.7-2.3-2.5 0-.2 0-.2.2-.2.8.8 1.5 1.7 2.3 2.5 0 .1-.1.2-.2.2zm-4.1-56.7c.9-.6 1.6-1.5 2.8-1.8-.8.8-1.7 1.4-2.6 2-.1 0-.2-.1-.2-.2zm-3.7 78.3c.9-.5 1.7-1 2.6-1.4-.8.7-1.6 1.3-2.6 1.4zm5.1-24.5c-.6-.7-1.1-1.4-1.3-2.6.6 1 1 1.7 1.5 2.4.1.2 0 .2-.2.2zm22.7-18.3c-.7.5-1.3.4-2 .6.6-.6.6-.6 2-.6zm9.9 41.7c.7.3 1.5.7 2.2 1-.9-.1-1.7-.3-2.2-1zm-23.8-41.2c-.5-.1-1-.2-1.5-.2.6-.5 1.1-.2 1.6-.2 0 .2-.1.3-.1.4zm18.8 20.1-1.5 1.8-.2-.2c.5-.6 1-1.2 1.6-1.8 0 0 .1 0 .1.2zm-41.8-41.6v.4l.6-.3c0 .9-.9.5-1.4 1 .1-.7.3-1 .8-1.1zm10.2 36.6c-.4-.6-.8-1.1-1.2-1.7 0-.2 0-.2.2-.2.5.5.9 1.1 1.2 1.7zm39.9-47.6c.5.4 1 .8 1.4 1.2-.7-.1-1.2-.5-1.6-1 0-.1 0-.2.2-.2zm-2.6 47.9c.3-.6.6-1.1 1.3-1.6-.2.9-.7 1.3-1.1 1.8-.1-.1-.2-.1-.2-.2zm-25 8.5c-.4-.4-.9-.7-1.3-1.1 0-.1.1-.2.2-.2.4.4.9.7 1.3 1.1 0 .1-.1.2-.2.2zm15.1-24.3c.5-.6 1-.4 1.7-.7-.6.6-1.1.6-1.7.7zm-29-32.4c.4-.4.9-.7 1.3-1.1.2 0 .2 0 .2.2-.4.4-.9.7-1.3 1.1-.2 0-.3 0-.2-.2z"/><path d="m103.6 51.8c-.4-.2-.8-.5-.9-1 .4.3.7.6 1.1.8zm-25.7 57.6c-.4-.3-.7-.6-1.1-.9 0-.1.1-.2.2-.2.4.3.7.6 1.1.9 0 .2-.1.3-.2.2zm-15.4-57.9c-.3.3-.7.6-1 .9 0-.6.5-.8.9-1.1 0 .1 0 .1.1.2zm-5.5 36.2c.2.3.3.6.5 1-.4-.2-.6-.5-.7-.8.1-.1.1-.2.2-.2zm16.1-4.4c.3 0 .7-.1 1 .2-.4.2-.7-.1-1-.2zm-8.3-33.6c-.3.2-.6.5-1 .7l-.2-.2c.3-.2.6-.5 1-.7.1 0 .2 0 .2.2zm13.7 59.9c.3.2.6.5 1 .7l-.2.2c-.3-.2-.6-.5-1-.7-.1-.2 0-.2.2-.2zm-11.8-61.4c-.3.2-.6.5-.9.7 0-.6.5-.7.7-.9.1.1.1.2.2.2zm31.1-1.1c.3.2.6.5 1 .7l-.2.2c-.4-.2-.7-.4-1-.7 0-.2 0-.2.2-.2zm-31.1 77c-.2.3-.4.6-.7.7-.1 0-.1 0-.1-.1.2-.3.5-.5.7-.8 0 .1 0 .1.1.2z"/><path d="m64.6 49.5c.3-.2.5-.4 1-.7-.1.7-.5.7-.8.9-.1-.1-.1-.2-.2-.2zm-6.3 23.2c.3.2.4.4.5.7-.4-.1-.7-.3-.5-.7zm41.5 52c.3.1.6.2.7.5-.4.2-.6-.2-.8-.3 0-.1 0-.1.1-.2zm7.7-52c-.2-.4.1-.5.4-.9 0 .5-.2.7-.4.9zm-38.2-26.4c-.1-.4.2-.4.4-.4 0 .3-.2.4-.4.4zm37.6 27.1c.1.3-.1.3-.2.5-.2-.3 0-.4.2-.5zm-48 .5c.2-.2.2.1.2.3 0-.1-.1-.2-.2-.3zm37-27.9c-.2-.1-.3-.2-.7-.5.5.2.8.2.7.5zm-33.2 51.5c-.1-.2-.2-.4-.5-.7.5.1.6.3.7.5zm44.8-24.8c0 .2-.1.4-.4.5 0-.3 0-.6.4-.5zm-9.9-25.4c-.2-.1-.4-.2-.6-.4 0-.1 0-.2.1-.2.2.1.4.2.6.4 0 .1 0 .1-.1.2zm-39.3 25.4c-.5.2-.3-.3-.5-.4.4-.1.4.2.5.4zm37 31.2.3-.3c.1 0 .2.1.3.1l-.4.4c-.1 0-.1-.1-.2-.2zm-27.2-2.2.4.4-.2.2-.4-.4c.1-.1.2-.1.2-.2z"/><path d="m97 46.9c-.1-.1-.3-.2-.4-.4l.1-.1c.1.1.3.2.4.3 0 .1 0 .1-.1.2zm-38 27c-.2-.1-.3-.3-.2-.5.2.1.3.3.2.5-.1 0 0 0 0 0zm36.9-27.8c.3-.2.4 0 .5.2-.2 0-.4 0-.5-.2 0-.1 0 0 0 0zm-17.8 63.2c.1.1.2.2.4.3l-.2.2c-.1-.1-.2-.2-.4-.3.1-.1.1-.2.2-.2zm-3.4-2.6-.4-.4c0-.1.1-.2.1-.2l.4.4c0 .1 0 .2-.1.2zm-3.7-1.6-.4-.4.2-.2.4.4c-.1.2-.2.2-.2.2zm-.5-59.8s.1 0 0 0z"/><path d="m96.4 46.3c.1.1.2.1.3.2l-.1.1c-.1-.1-.2-.1-.2-.3zm-1.5-1c-.1-.1-.1-.2-.2-.3.1.2.2.3.2.3zm-24.4 0c0 .2-.1.2-.2.3.1-.1.1-.2.2-.3zm24.4.1c0-.1 0 0 0 0zm-24.6.2-.1.1v-.1zm3.4 59.8.3.3c0 .1-.1.1-.2.2l-.2-.2c0-.2 0-.3.1-.3z"/><path d="m74 105.7.2.2c0 .1-.1.1-.2.2l-.2-.2zm.3.6-.2-.2.2-.2c.1 0 .1.1.2.2zm.6.6-.2-.2c0-.1.1-.1.1-.2l.2.2c0 .1 0 .1-.1.2zm1.5.9c.1.1.2.2 0 .3 0 0-.2-.1-.2-.2.1.1.2 0 .2-.1zm.4.8c0-.1-.1-.2-.1-.3.2-.2.2 0 .3.1zm22.6 16.1-.2-.2c0-.1.1-.1.2-.2l.2.2c0 .1-.1.2-.2.2z"/><path d="m99.6 124.5.2.2-.1.1c-.1-.1-.2-.1-.3-.2.1 0 .1 0 .2-.1zm-33.6.3-.2.2c-.2-.1 0-.2.1-.3zm-3.2 1.6v.1zm-1.9-73.9c.1-.1.2-.3.3-.1 0 0-.1.2-.1.3zm44.5.9c-.1-.1-.3-.2-.2-.4.2-.2.2 0 .3.1.1.2 0 .3-.1.3z"/><path d="m105.6 53.6c-.1 0-.1-.1-.2-.2.1-.1.1-.2.2-.2l.2.2zm1.4 37.5.1-.1c0 .2 0 .2-.1.1-.1 0 0 0 0 0zm-11.1 12.3.2-.2c.1.1.1.2.2.3-.1.1-.2.2-.3.2 0-.1-.1-.2-.1-.3z"/><path d="m95.7 103.6.2-.2c0 .1.1.2.1.3s-.1.1-.1.1c-.1-.1-.2-.1-.2-.2zm-24.5 1.8-.2-.2c.1 0 .2-.1.2-.1.1 0 .1.1.2.2-.1-.1-.2 0-.2.1zm2.4.2c-.1-.1-.3-.2-.1-.3 0 0 .2.1.3.1-.1 0-.2.1-.2.2zm-5.3 135.1c.2.3.5.5.5 1-.3-.3-.4-.7-.5-1zm28.6.7c0-.2 0-.4.4-.6-.2.3-.3.4-.4.6zm.7-1.1c0-.1 0-.1 0 0 .1-.1 0 0 0 0zm-29.7-.3c.1.2.2.3.2.5-.1-.2-.2-.4-.2-.5zm.9 1.7h.2s0 .1-.1.1c0 0 0-.1-.1-.1 0-.1 0 0 0 0zm27.9 0c0-.1.1-.3.2-.2 0 0-.1.2-.2.2-.1-.1 0 0 0 0z"/><path d="m68.1 240.5c.1.1.2.2.3.2-.1-.1-.2-.2-.3-.2 0-.1 0 0 0 0zm-.5-.8.2.2zm-46.7-56c.4.1.8.3 1.3.4.5-.7.2-1.6.4-2.5.5.8 0 1.6.2 2.4 1.1.3 2.3-.1 3.4-.2 3.4-.3 5.1 1.2 5 4.6-.1 2.6-1 4.9-2.6 6.9l-.1-.1c-.2-.6.1-1 .4-1.4 1-1.9 1.7-3.9 1.6-6-.1-2.3-1.6-3.6-3.9-3.3-.9.1-1.7.2-2.6.3-.7.1-1 .4-1.1 1-.2.6-.2 1.4-.9 1.7-.5-.2-.5-.6-.4-.9.5-1.1.3-2-.7-2.7-.2-.1-.1-.2 0-.2zm-5.6 13.8c-3.3-2.5-4.1-5.9-3.5-9.8.2-1.4.6-2.8 1.5-4 .1 0 .2.1.3.2-.3 1.6-1 3.2-1.2 4.9-.3 2.7.3 5.1 2.2 7.2.3.4.8.7.9 1.3-.1 0-.1.2-.2.2zm11.2.1c-3.2 2.5-7.5 2.6-10.8.2 0-.1.1-.2.2-.3.5-.1.9.2 1.3.4 2.6 1.2 5.2 1.2 7.7-.2.4-.2.8-.6 1.3-.5.2.2.3.3.3.4zm-9 16c1-2.4 1.7-4.8 1.7-7.5 0-1 0-2-.5-2.9.7.2.8.8.9 1.4.3 3-.4 5.8-1.5 8.5-.1.2-.2.6-.6.5zm10.5.2c1.5-2.8.7-5.5.1-8.3 0-.3-.1-.5-.1-.8.6.1.5.6.6 1 .4 1.7.6 3.4.6 5.1.1 1.1 0 2.3-1.2 3zm-17.6-14.8c1 1 1.2 2.2.9 3.6-.4 1.6-.9 3-1.9 4.3-.1 0-.2-.1-.3-.2-.1-.3 0-.6.2-.9 1.1-2.1 1.8-4.3.8-6.6 0-.1.1-.2.3-.2zm-6.4 8.9c-1.8-2.3-1.8-4.8 0-7.3.1.1.2.2.2.3.1.4-.1.7-.2 1-.8 1.6-.8 3.2 0 4.8.1.3.3.6.2.9-.1.1-.1.2-.2.3zm28.7-6.2c-2-2.8-2.1-4.8-.4-6.9l.1.1c.2.4 0 .7-.1 1-.8 1.3-.6 2.6.1 3.9.3.6.7 1.1.6 1.8-.1.1-.2.2-.3.1zm-22 11.6c.3-.1.6 0 .9.2 1.7 1 3.5.9 5.4.5-.3.7-1 .7-1.5.7-1.8.2-3.4-.1-4.8-1.4z"/><path d="m14.5 182.6c1.2-.9 2.5-.9 3.8-.3.9.4 1.7 1 2.6 1.5l-.1.1c-.4.3-.7.1-1-.1-1.5-1.1-3.2-1.2-5-1-.1-.1-.2-.1-.3-.2zm24.5 13.3c1.5 2.2 1.6 4.5.2 6.5-.1 0-.2 0-.3-.2-.1-.3 0-.6.2-.9.6-1.4.5-2.8-.2-4.2-.2-.3-.3-.7-.2-1 0-.1.1-.2.3-.2zm-17 19.4c2 .5 3.8-.1 5.5-1-1.2 1.5-3.8 1.9-5.5 1zm-3.8-12.5c-1.5-.5-3-.9-4.6-.2 1.2-1.2 3.3-1.1 4.6.2zm-12.1-4.7c1.3-.8 2.4-.7 3.9.5 0 .1 0 .2-.2.3-1.1-.3-2.3-.7-3.5-.5-.2-.1-.2-.2-.2-.3zm32.1 5.3c-1.5 1.1-2.3 1.1-3.8.1l.1-.1c1.2 0 2.3 0 3.5-.3.2 0 .3.1.2.3zm-4.8-9.7c1.5-.9 2.5-.8 3.8.3 0 .1-.1.2-.2.3-1.1-.3-2.3-.3-3.4-.2-.1-.1-.2-.2-.2-.4zm-25.4 14.9c-1.2.9-2 .9-3.3-.1.1-.1.1-.2.3-.2.9.1 1.9.1 2.8 0 .1.1.2.2.2.3zm25.4-6c-.2-.3-.5-.6-.7-.9l.2-.2c.6 0 .8.4.8.9 0 .2-.1.3-.3.2z"/><path d="m4.7 208.6c-.3-.1-.6-.4-.7-.7l.1-.1c.6-.2.8.1.6.8zm4-.7c-.2.3-.4.6-.8.7l-.1-.1c-.1-.6.3-.7.7-.8.2 0 .3.1.2.2zm-4.6-7.7c.2-.2.3-.5.5-.7.1 0 .2 0 .3.2.1.4-.1.7-.6.8-.1 0-.2-.1-.2-.3zm34.1-5.2c.1.2.3.4.4.5-.1.1-.1.2-.2.2-.4 0-.5-.3-.4-.6 0-.1.1-.2.2-.1zm-9.7.4c-.1.2-.3.4-.4.6-.2 0-.2-.1-.3-.2.1-.5.3-.7.7-.4 0-.1 0 0 0 0z"/><path d="m28.2 195.9-.6.6-.1-.1c-.1-.4.1-.7.6-.6 0 0 0 .1.1.1zm-6.9 18.6c.3 0 .5.2.5.5-.4 0-.5-.2-.5-.5zm13.2-11c-.2-.1-.4-.3-.6-.4 0-.1.1-.2.2-.2.4 0 .6.2.4.6zm-25.4 3.9c-.1.2-.3.4-.4.6l-.2-.2c-.2-.4 0-.5.3-.6.2 0 .3.1.3.2zm29.6-4.5-.5.5c-.1 0-.1-.1-.2-.2 0-.4.2-.5.5-.6.3.1.3.2.2.3z"/><path d="m39.2 202.4c-.1.2-.3.3-.4.5l-.2-.2c0-.4.1-.5.5-.5 0 .1 0 .2.1.2zm-25.9-18.7c.2-.2.3-.4.5-.5.1-.1.2 0 .2.1 0 .3-.2.6-.6.5-.1 0-.1-.1-.1-.1z"/><path d="m13.7 183.2c.2-.1.3-.3.5-.4.1 0 .2 0 .2.2-.1.3-.2.5-.6.4 0-.1 0-.2-.1-.2zm-8.3 15.4c.1-.1.3-.2.4-.4.1 0 .2.1.2.2 0 .2-.2.3-.3.3-.1.1-.2 0-.3-.1zm-.8.9c.1-.1.2-.3.3-.4l.1.1c0 .2 0 .4-.3.4zm4.8 7.5c-.1.1-.2.3-.3.4l-.1-.1c-.2-.3-.1-.5.2-.5.1.1.2.1.2.2zm18.6-2.3c-.2-.1-.3-.3-.2-.5.2.1.4.2.2.5zm-.2-.5c-.2 0-.4 0-.5-.2.3-.2.4 0 .5.2zm-14.2-1.7c0 .2 0 .4-.2.5-.1-.3 0-.4.2-.5zm19.4-8.4c.1-.1.3-.2.4-.3 0 0 .1.1.1.2.1.3-.1.3-.3.3zm5.6 1.4c.1.1.2.3.3.4 0 0-.1.1-.2.1-.3 0-.3-.2-.1-.5zm-22.9 2.4c-.1-.1-.3-.2-.4-.3v-.1c.3-.2.5-.1.5.2 0 .1-.1.1-.1.2zm11.1-.6c-.1.1-.3.2-.4.3 0 0-.1-.1-.1-.2 0-.3.2-.3.4-.3.1.1.1.1.1.2zm.7 17 .2-.2c.2.2 0 .2-.2.2zm-5.7.7.2.2c-.2.1-.3 0-.2-.2zm6-.9.2-.2c.1.1 0 .2-.2.2zm-17.6-1.2.2.2c-.1 0-.1-.1-.2-.2zm.3.2.2.2c-.1 0-.2-.1-.2-.2zm6.7.7.2-.2c.1.2.1.3-.2.2zm-.2.3.2-.2c.1.2 0 .2-.2.2zm10.1-17.1-.2.2c0-.1 0-.2.1-.3 0 .1 0 .1.1.1z"/><path d="m27.3 196.8-.2.2c0-.1 0-.2.1-.3 0 .1.1.1.1.1zm.3-.2-.2.2c-.1-.2-.1-.3.2-.2zm10.4-1.9c.1.1.2.2.2.3l-.1.1c-.2.1-.3-.1-.3-.2s.1-.2.2-.2z"/><path d="m37.7 194.5c.1.1.2.2.2.3l-.1.1c-.2.1-.3-.1-.3-.2.1-.2.1-.2.2-.2zm-5.4.3c.1-.1.1-.2.2-.3l.1.1c0 .2-.1.3-.3.2z"/><path d="m37.5 194.2.2.2c0 .1-.1.1-.1.2-.2.1-.3-.1-.3-.2s.1-.2.2-.2zm-5 .3.2-.2.1.1c0 .2 0 .3-.3.1z"/><path d="m37.3 194c.1.1.2.1.2.2s-.1.1-.1.2c-.2 0-.3 0-.2-.2 0-.1 0-.2.1-.2zm-4.5.3.2-.2.1.1c0 .1-.1.2-.3.1zm-18.6-11.6c.1-.1.2-.1.3-.2.1.2 0 .3-.2.2 0 .1 0 .1-.1 0zm4.5 20.5-.2-.2c.2-.1.2 0 .2.2zm15.2-.1-.2-.2c0-.1.1-.2.2-.2.2 0 .3.1.2.3-.1 0-.2.1-.2.1zm-15.5-.1-.2-.2c.2-.1.3-.1.2.2z"/><path d="m33.7 202.9-.2-.2.1-.1c.2 0 .3.1.2.2-.1 0-.1 0-.1.1zm-29.7-2.4c.1-.1.1-.2.2-.3.1 0 .1.1.2.1-.1.3-.2.4-.4.2zm6.1-1.7c.1.1.2.2.2.3s-.1.1-.1.2c-.2 0-.3-.1-.3-.2.1-.3.1-.3.2-.3zm-5.2.3.2-.2c0 .1.1.1.1.2s-.1.1-.3 0c.1.1 0 0 0 0z"/><path d="m9.9 198.6.2.2c0 .1-.1.1-.1.2-.2 0-.3 0-.2-.2 0-.1.1-.2.1-.2zm-4.7.3.2-.2c.1.2 0 .3-.2.2zm.6-.6c.1-.1.2-.1.2-.2l.1.1c0 .2 0 .3-.2.2z"/><path d="m151.6 196.4-.6.6c-.2.1-.4.1-.6.3-2.6 2.3-7.2 3-10.4.8l-.6-.3c-.2-.3-.5-.5-.7-.7-2.2-2.1-3.5-4.8-4-7.8-.3-1.6.2-3 .9-4.3 0-.1 0-.1.1-.1.2-.1.4-.1.6-.3 1.4-1.1 3-.4 4.5-.4.2 0 .4.1.6.1 1.7.2 1.7.2 2.1 2-.4-1.7-.4-1.7 1.2-2.5.3-.2.7-.3.9-.5 1.6-1.1 3.4-1.7 5.3-.7 1.8 1.1 2.2 2.9 2.6 4.6.8 3.4.1 6.4-1.9 9.2zm-19.4 6.3-.4.4c-.1 0-.2 0-.2.1-1.2.8-2.4 1.3-3.8.5-1.6-1-2.4-2.5-2.2-4.4.1-1.4.6-2.5 1.5-3.6.2-.1.1-.3.2-.5l1.2-1.2c1.4-.7 2.8-.8 4 .4 1.3 1.3 2.3 2.7 1.6 4.7-.4 1.1-.9 2.2-1.7 3.1-.1 0-.1.3-.2.5z" fill="#343434"/><path d="m138.4 203.7c-1.4 1.9-1.4 4.2-1.7 6.5-.5 4.6 4.4 6 7.2 4.6 0 .8-.8.8-1.3.9-3.5.7-6.6-1.8-6.4-5.4.1-1.6.3-3.2.7-4.7.3-.9.6-1.6 1.5-1.9zm13.2-7.3c-.1-.5.2-.9.5-1.3 2.3-3.6 1.9-9-1-12.2-.1-.1-.1-.2-.2-.3.7 0 1.1.6 1.5 1.1 2.5 3.5 2.1 9.4-.8 12.7zm6 12.2c-2.2-2-3.4-4.5-3.4-7.4 0-2.8 3.3-4.5 5.4-3.1-.1.1-.1.2-.3.2-1.4-.1-2.7 0-3.7 1.2-.6.7-.9 1.6-.7 2.5.4 1.9 1.1 3.7 2.3 5.2.2.3.6.6.6 1-.1.2-.1.3-.2.4zm-12-25.3c-.2.5-.7.7-1.1.8-1.2.3-1.1 1-.8 1.9.1.4.5.8.1 1.3-.5-.8-.7-1.7-.9-2.7-2.2 0-4.4-1-6.6-.1.3-.9 1.1-.8 1.8-.7 1.5 0 3.1.2 4.7.3v-2.4h.2c.1.8.2 1.5.3 2.3.9.1 1.4-.8 2.3-.7zm-13.2 18.8 1.2-2.4c.8-1.6.5-3.1-.5-4.5-1.1-1.4-2.5-1.9-4.2-1.3h-.4c.8-.9 1.8-.9 2.8-.6 1.7.5 3.8 3.1 3 5.5-.4 1.2-.7 2.5-1.9 3.3zm3.1-17.2c0 1.1-.7 2-.7 3.1.1 3 1.2 5.6 3.1 7.9.3.4.8.6.8 1.1h-.2c-2.8-2.9-4.4-6.2-3.9-10.3.1-.7.4-1.3.9-1.8zm-8.4 10.6c-.3.8-.7 1.5-1 2.3-.6 1.8-.4 3.5 1 4.9 1.2 1.2 2.1 1.3 3.6.6.3-.2.6-.4 1-.3-2.4 2.2-5.6 1-6.3-2.3-.4-1.8 0-3.6 1.2-5.1.2-.1.3-.2.5-.1zm12.3 2.2c.9 0 1.5.7 2.4 1 2.8.9 5.3.5 7.8-1 .3-.2.5-.5.9-.5 0 .1 0 .2-.1.3-2.7 2.7-8.3 2.8-11 .2zm21.6 1.9c2.3 2.8 2.6 5.6.9 8-.2.3-.5.6-.8.9-.1 0-.2-.1-.2-.2 0-.4.2-.7.4-1 1.3-2 1.2-4 .1-6.1-.2-.4-.6-.8-.5-1.3-.1-.1 0-.2.1-.3zm-10.1-17c-1.9-.6-3.6-.1-5.3.7 1.4-1.6 3.9-1.9 5.3-.7z"/><path d="m143.2 204.2c-1.6-.7-3.2-.9-4.8-.5 1.4-1.1 3.6-.9 4.8.5zm17.9 4.3c-.9.9-2 1.1-3.1.4 0-.1 0-.3.2-.3.9-.1 1.9-.4 2.8-.3 0 0 .1.1.1.2zm-1.5-10.4c.6.4 1.1.8 1.4 1.5l-.1.1c-1 0-1.4-.4-1.3-1.6zm-31-4.2c-.1.7-.5 1.1-1.2 1.2.2-.6.6-1 1.2-1.2zm10 3.1c.5 0 .7.2.7.7-.3-.1-.7-.2-.7-.7zm-6.4 5.7c0-.2 0-.5.3-.6.1.3-.2.4-.3.6z"/><path d="m158 208.9c-.1-.1-.3-.2-.4-.3l.1-.1c.3-.2.5-.1.5.2zm-21.7-24.4c-.1.3-.4.3-.6.3.1-.2.2-.5.6-.3zm-8.9 10.6c0 .2 0 .4-.2.5-.3-.3 0-.4.2-.5zm23 2.2c.1-.3.3-.3.6-.3-.2.2-.3.4-.6.3zm-6.9 7.1-.2-.2c.1 0 .2.1.2.2zm-68.9-178.8c.1-.2.3-.4.4-.6h.1v.1c-.1.4-.3.5-.5.5zm4.3-1.1c-.1 0-.1.1-.2.1.1-.1.2-.1.2-.1zm-3.8.3c.1-.1.1-.2.2-.2.1.1.2.1.2.2l-.2.2c-.1 0-.1-.1-.2-.2z"/><path d="m75 25.1c.1-.1.1-.2.2-.3l.2.2-.2.2c-.2 0-.2-.1-.2-.1zm-.4.5-.1.1z"/><path d="m89.5 175.1c-.3 3.8-2.1 7-4.9 9.6-1.2 1.1-2.2 1.2-3.3.2-3.5-3.1-5.8-6.9-5-11.8.7-4.6 5.4-7.1 9.5-5.1 2.7 1.4 3.7 3.9 3.7 7.1z" fill="#4fc6a3"/><path d="m14.3 182.9.2-.2c2.3-.8 4.3.2 6.2 1.2.5.3.9.6 1.5.9-.2.8-.4 1.7-.6 2.5.6-.5.8-1.2.9-1.9.1-.5.2-.7.7-.8 1.3-.1 2.6-.3 3.9-.5 1.9-.2 3.4 1.4 3.5 3.4.2 2.5-.6 4.6-1.8 6.7-.2.3-.5.6-.4 1.1-.3 0-.5.2-.5.5-.3.2-.5.4-.5.7l-.2.2-.2.2-.2.2c-.2 0-.4 0-.5.2-1.8 1-3.6 1.9-5.8 1.7-1.7-.1-3.2-.8-4.7-1.5-.1-.2-.3-.2-.5-.2 0-.6-.5-.8-.8-1.1-2.1-2.2-2.8-4.7-2.4-7.7.2-1.7.8-3.2 1.3-4.8l.5-.5c.1 0 .3-.2.4-.3zm-8.4 15.6.2-.2c1.3-.4 2.5-.2 3.6.5l.2.2.2.2c1.2 2 .8 3.9-.1 5.8-.3.6-.6 1.2-.8 1.8-.2.1-.2.3-.2.5-.3 0-.4.2-.5.5-.3.2-.5.4-.7.7-1 .4-2.1.2-3.1 0 0-.4-.3-.7-.7-.7-.3-1.3-1.1-2.5-1-3.9.1-1.2.9-2.1 1-3.2l.2-.2c.3-.1.5-.4.5-.7.2-.1.2-.3.2-.5l.2-.2.2-.2c.4-.2.5-.3.6-.4zm27.9 4.3-.2-.2c-.1-.5-.4-.7-.7-1-.1-.3-.2-.7-.4-1-1-1.7-1.4-3.5-.1-5.2.1-.1 0-.3.1-.5l.2-.2.2-.2.2-.2c.2 0 .4 0 .5-.2 1.2-.4 2.4-.4 3.6.2l.2.2.2.2.2.2.2.2c0 .3.2.5.5.5 0 .2 0 .4.2.5.2.9.8 1.7 1 2.7.2 1.3-.2 2.4-.7 3.5l-.5.5-.5.5c-1.2.7-2.4.6-3.6.3 0-.3-.2-.5-.5-.5.1-.2 0-.3-.1-.3zm124.3 5.9c-.1-.2-.3-.2-.5-.2-.6-1.2-1.6-2.2-2.1-3.5s-1.1-2.6-.9-4c.4-2.2 2.3-3.2 4.9-2.8.2.7.7 1.2 1.4 1.4 0 .2 0 .5.2.7 1.8 2.7 1.8 5.3-.2 7.9-.8.7-1.8.6-2.8.5z" fill="#343434"/></svg>