<svg viewBox="0 0 165.6 330.3" xmlns="http://www.w3.org/2000/svg"><path d="M90.4 83.2c0 .3.1.7.1 1 .2.3.1.6.2.9.2.4.1.8.1 1.2.2.3.1.6.1.9.2.8.4 1.5.7 2.6-.7-.4-1.2-.8-1.8-1.1-.3.8.2 1.5.1 2.2-.1.9-.1 1.7-.5 2.5-.4.7 0 1.5.2 2.2 1 3.7.9 7.4.5 11.2-.9 8.1-3.5 15.8-5.6 23.6-1.8 6.6-2.6 13.2-2.2 20 .2 3 1.3 5.2 3.4 7.1 3.5 3.3 7.5 6 11.4 9.3-.7-4.9-.1-9.4 2.3-13.6-1.2 0-2.2 0-3.3-.4 2.7-2.4 4.8-5.3 7.6-7.4 3.1-2.3 6.5-3.7 10.4-3.5.5 0 .9.1 1.5.2-.5-1-1.4-1.7-1.6-2.8.1-.1.3-.2.3-.2 3.6 1.5 7.4 1.1 11.1 1.4 6.9.6 13.3 2.5 18.2 7.7 3.1 3.2 4.8 7.1 5.3 11.5.2 1.3.4 2.6.6 4.1 1-1 2-2.1 3.3-2.7.9 5.7 1.7 11.3-2.3 16.5 2.1-.4 3.9-.8 5.7-.1-4.1 4.7-7.1 10.1-10.8 14.9-3.7 4.9-8.7 7.8-14.4 9.6-4.2 1.3-8.5 2-12.8 1.9-1.3 0-2.6-.2-3.9-.4.2.7 1 .8 1.3 1.5-2.4.8-4.7.6-7-.2-.3.5.3.8 0 1.3-4-1.6-8.2-2.6-11.9-4.8-3.8-2.2-6.5-5.5-9.5-8.8-.9 2.3-1.7 4.3-2.5 6.4-.9-.8-1.2-1.7-1.5-2.6-1.2 1.5-2.8 5.2-3 7.2-.5 4.2-1.3 8.4-1.9 12.6-.6 4.7-1 9.4-1.4 14-.3 3.3-.4 6.5-.9 9.8-.3 1.7.1 3.3 1 4.8 4.3 6.8 6.5 14.3 7.1 22.3.3 4.7.8 9.3.6 14-.4 10.1-.5 20.3-1.1 30.4-.2 4.3-.3 8.5-1 12.7-.2 1.1-.5 2.1-1.1 3-.8 1.2-2 1.7-3.5 1.7H44.5c-1.4 0-2.8 0-4.2.1-1 0-2.1 0-3-.4-1.6-.6-3.2-.3-4.7-.5-3-.3-5.7-2-5.8-5.8 0-.1 0-.3-.1-.4-.8-.1-1.5.9-2.1.2-.5-.5-.3-1.3.1-2 .1-.1.2-.1.3 0 .3.3 0 .8.3 1.2.8.1 1.2-.3 1.3-1.1.1-1 .4-2 .7-3 .1-.3 0-.6.1-.9.4-.1.5-.5.6-.8 3.8-10.7 14-13.7 23.2-11.6.8.2 1.5.4 2.3.4 1.9 0 2.9-.9 3-2.8.1-4.5-.1-8.9-.6-13.4-1.1-9.7-3.8-19-6.6-28.2-1-3.3-2.9-6.2-5-8.9s-3.4-5.7-4.3-9c-2.3-8.4-2.4-16.9-1.8-25.5.3-3.9.5-7.9 1.1-11.8.2-1.4.5-2.8.9-4.2.2-.8.1-1.5-.3-2.2-2.4-4.5-3.2-9.4-3.7-14.5-.4-3.4-.6-6.8-.9-10.2-.6-7.7-1-15.3-.8-23 0-.1-.1-.2-.1-.4-2.3 2.1-4.5 4.2-7 6.4-.4-4 .2-7.6 1.5-11.4-1.2.5-2.2 1.3-3.6 1.5.5-1.1.8-2.2 1.3-3.2 1.3-2.9 1.6-6 2.2-9 .4-2.1.9-4.1 1.8-6.2-1.8.5-3.4 1.1-5.3.7 1.8-1.6 2.4-3.8 3.2-5.9.7-1.9 1.7-3.7 3.2-5.3-1-.3-2.2 0-3.3-.9 3.5-1 4.9-4.2 7.2-6.3-.3-.4-.6.1-.9-.3.3-1.1.8-2.1 1.4-3.2-2.5-.4-4.1-1.7-5.6-3.6.6-.4 1.2-.2 1.8-.4 1.5-.7 2.8-1.6 3.7-3 1.4-2.1 2.7-4.3 4.5-6.4-1.8.2-3.3.3-4.9-.2.9-1.4 2.4-2.3 3.6-3.6-1.2-.4-2.2-1-3.3-1.7 1.8-.5 3.4-.6 4.7-1.8 1.7-1.5 2.7-3.4 3.3-5.6.3-1.2-.7-2.2-2.3-2.2-2.6-.1-5.2.3-7.9.6-1.9.2-3.9.5-5.8.2-2.9-.4-5.2-1.9-7.1-4.1-1.1-1.3-2.7-2-3.7-3.3-1.9-2.6-4.2-4.9-6.2-7.4-1.3-1.5-1.9-3.4-2-5.4-.1-1.4.3-2.1 1.7-2.7 1.9-.8 3.9-.8 5.9-1 5.1-.7 10-1.8 14.9-3.4 2.1-.7 2.9-2.3 3.2-4.6-2.6 1.8-5.4 2.7-8 4.1-.1-.1-.1-.2-.1-.3.6-.9 1.7-1.3 2.6-1.7 2.4-1.1 4.8-2.4 6.5-4.5.9-1.1 2.1-2 2.8-3.3v-.3c.4-.7 1-.9 1.7-.8.1.1.2.1.2.2-.1 1.1-1.3 1.6-1.5 2.6 3.1-1.9 6.5-3.2 9.5-5.4s5.6-4.6 7.3-8c.6-1.3.6-1.4-.6-2-1.6-.7-3.2-1.2-4.7-2-2.3-1.2-3.6-2.6-4.4-5.1.2 1 .7 1.9.8 2.9 0 .1-.1.2-.2.3-.5.1-.8-.2-1.1-.5-1.9-1.7-4.4-2.3-6.5-3.5-.3-.2-.2.2-.3.3-.1.6-.2.6-.3.6-.1-.3-.2-.6-.4-.9-.2-.4-.2-.7.2-.9 1.3.8 2.7 1.6 4.1 2.1 1 .3 1.9.8 3 1.5-.1-1.5-.1-2.9.1-4.5 1.3 3.6 2.8 6.8 6.9 7.8.6-2.3 1.2-4.5 1.8-6.8.9-3.3 1.5-6.6 2.6-9.8.5-1.5 1.2-3 2.2-4.2 1.8-2.4 2.7-2.5 5.4-1.1.6-.7 1.1-1.4 1.7-2.1C67 .9 68 .7 69.4 1.4c2.8 1.3 4.4 3.6 5.8 6.2 3.9 7.3 5.8 15.2 6.7 23.4.1 1.3.3 2.7.4 4.2.6-.8 1-1.4 1.5-2 .4 2.2 0 4.2-.3 6.4.8-.4 1.4-1.1 2.3-1.3l-.6 2.1c-.2.9-.6 1.8.6 2.4.4.2.5 1 .8 1.6-.1.1-.2.1-.3.1-.7-.2-.6-1-1.2-1.2-.3.3-.2.6-.2.9s.1.6.1.9c-.3 1.3-.8 1.9-2.1 2-.8.1-1.6.1-2.3-.2-1.1-.3-2.1-.8-2.9-1.7-.9-.9-1.4-2-1.1-3.3-.1 0-.1-.1-.2 0l-.2.2c-.4.6-.7 1.2-.4 1.9 1.6 3.2 5 4.8 8.5 4.1.4-.1.8-.3 1.2-.1.1.2.1.3 0 .5 1.3 4.1 1.9 8.4 2.1 12.7.3 4.5.2 9 .7 13.4.3 2.5 1.7 4.4 3.1 6.3-.1.5-.4.3-.7.2-.4-.1-.7-.3-1.2-.4.2.7.3 1.4.5 2.1.4.1.4.3.4.4z"/><path d="M26.7 24.8c-.4-.5-.8-1-1.5-1.9 1.6.5 2.8 1.1 4.1 1 2.3-.1 4.5-.8 6.8-1 1-.1 1.9-.1 3.1.1-.3-.7-.5-1.2-.7-1.8.1-.1.2-.2.3-.2 1.2 1 2.4 2.2 3.8 2.8-.3.7-.7.7-1.1.5-3.3-1-6.5-.5-9.7.1-.9.2-1.8.3-2.7.3-.7 0-1.4-.1-2-.6-.1-.1-.2-.1-.2-.1-.1 0 0 0 .1.1 1.4 1.2 3.1 1.5 4.9 1.9-1.2 1.1-4.4.7-7.3-.8-.1 0-.2-.3-.4-.2.1 0 .2.1.3.1.7.6 1.1 1.5 1.7 2.1 1.3 1.3 2.8 2.2 4.7 2.4.3 0 .7 0 .8.4-.1.3-.3.4-.5.4-2.9.6-5.5 1.7-8.2 2.6-1.8.6-3.6.9-5.6.3 1 1.6 2.4 2.5 3.8 3.2 1.5.8 3.1.3 4.7 0-.4 1.1-1.3 1.6-2.2 2.1h-.2c0-.5-.3-.6-.7-.7-3.2-.9-5.7-2.6-6.9-5.9 4.5 1.9 8.3-.4 12.4-2-2.5-1.5-4-3.5-5.1-6.2 1.2.5 2.1 1 3.1 1.2.2 0 .3 0 .4-.2z"/><path d="M25.7 51c-1 .3-1.6 1.2-2.4 1.8-.6.4-1.2.8-2.1 1 2-2.9 1.4-6.3 2.3-9.6-1.6.7-3.1 1.1-4.9.9 2.3-1.4 2.9-3.8 4.2-5.8.2-.3.4-.7.9-.7.3.3.1.5 0 .8-1 1.5-1.7 3.3-2.8 4.8 1.5-.2 2.7-.8 3.7-2 .3-.4.5-1.1 1.3-1 .1.1.2.2.2.3 0 .3 0 .6-.2.8-1.8 1.9-1.8 4.4-2 6.8-.1 1.1-.1 2.2-.8 3.2-.1.1-.1.2-.2.3.1 0 .1 0 .1-.1 1.5-1.5 3.2-2.8 4.8-4.2.4 1.3-.3 2.2-1.1 3.1-.1 0-.2.1-.3.1s-.2-.1-.2-.1c0-.1 0-.2.1-.2-.1 0-.1 0-.2.1z"/><path d="M86.7 44.4h.3c.8 1.5.5 2.7-1.2 4.1v-.6c.6-1.1.9-2.3.9-3.5zm-60 7.2v.3c-.3.7-1 .8-1.6 1.2-.2-.9 1-1.3.6-2.1.1-.1.2-.1.3 0 .1.4.5.4.7.6zm.9 265c.1.2.7.2.3.7-.8.4-1 1.4-1.9 1.5-.1 0-.2-.1-.2-.2.3-1 1.1-1.5 1.8-2z" fill="#343434"/><path d="M25.2 320.4h-.3c.2-.7.2-1.4.9-1.8l.2.2c.1.6 0 1.3-.8 1.6zm13-301.2c-.1.3-.2.6-.2.9-.3-.5-.5-1-.4-1.6.3.1.4.4.6.7zM91 81.1c.2-.1.4-.1.7-.2.1.1.2.2.6.5-.7-.2-1-.2-1.3-.3zm-.4 4.1c-.3-.3-.1-.6-.2-.9.4.2.2.5.2.9zm.3 2.1c-.2-.3-.2-.6-.1-.9.1.3.2.6.1.9zm-.5-4.1c0-.2-.1-.3-.1-.5.1.2.1.4.1.5z" fill="#343434"/><path d="M38.4 21.2c-.1 0-.1-.1-.1-.2.1-.1.2-.2.2-.3.1.1.2.2.1.3 0 .1-.1.1-.2.2z"/><path d="M51.1 173.8c1-2.5 1.9-5.1 2.6-7.7.1-.5.4-1.1.1-1.6-.4-.5-.2-1-.1-1.5.9-4.1.7-8.2.5-12.3-.3-6.1-.6-12.1.2-18.2.1-.9.3-1.9.5-2.8.3-.2.1-.5.3-.8 1-2.7 2.4-5.1 3.3-7.8.7-2.2 1-4.4 1-6.9 1.1 1 1.9 2.2 3.4 2.8-.7-2.4-.5-4.8-.7-7.2.9.3 1.4 1.1 2.4 1.1.2-.9-.4-1.5-.6-2.3-.7-2.5-1-5.1-1.6-7.6-.1-.5-.2-1-.5-1.5-.8-.7-.7-1.7-.6-2.6 1.2-2.8 1.2-5.8.8-8.8-.3-.2-.4-.5-.4-.9 0-2.6-.2-5.3.2-7.9.2-.9.6-1.6 1.3-2.1.4-.3.9-.7 1.5-.2 1.6.7 3.2.1 4.8-.2 3.9-.7 7.7-1.5 11.7-1.3.9 0 1.2-.3 1-1.2s-.4-1.9-.6-2.8c0-.1.1-.2.2-.3.6.3 1.1.6 1.7.9.4-1 .3-1.7-1.1-4.8 1-.6 2.2-.8 3.2-1.7-1.6-.5-2.5-1.8-3.4-3s-1.8-2.5-2.7-3.7c.5-.6 1.4-.5 1.9-1.3-.9-.4-1.7-.7-2.7-1.1 2.7-2.1 3.8-5.3 6.3-7.8.4 1.8.9 3.4 1.2 5 .8 4.2 1.1 8.5 1.1 12.7 0 2.8.1 5.6.6 8.3.3 1.7 1.2 3.1 2.1 4.5 0 .1-.1.2-.2.2-.4-.3-.9-.6-1.3-.9-.2-.1-.1.1-.2.2 1.2 1.9 1.6 4 1.8 6.2l.3 2.7c0 .1-.1.2-.2.2-.8-.5-1.3-1.3-2-1.9-.2.2 0 .4.1.6.8 1.6.9 3.3.6 5.1-2.3-5.1-5.9-8.2-11.7-7.8-3.1.2-6.1.9-8.5 3.3 1.2-.6 2.5-1.2 3.8-1.6 3.1-.9 6.3-1.3 9.4-.1 3.6 1.4 5.1 4.4 6.1 7.8 1.7 6.1 1.1 12.2 0 18.4-1.3 7.1-3.8 13.9-5.4 20.9-1.3 5.8-1.9 11.7-1.6 17.6.1 3.4 1.7 5.9 4.3 8.1 2.7 2.3 5.5 4.3 8.2 6.5 2.1 1.7 3.9 3.5 5.2 5.8 1.6 2.8 3.9 5 6.8 6.4 1.5.7 2.7 1.8 4 2.8.6-.4.2-.8.2-1.2 0-.1.1-.2.2-.3 2.9 1.6 6 2.1 9.2 1.2 0-.6-.7-.7-.9-1.2 1.3-.3 2.4-.6 3.5-1.3 1.6-1 2.2-2.4 2.2-4.2 0-.4 0-1-.3-1.1-1.1-.6-.8-1.7-1-2.6-.2-1-.6-2-1.4-2.7-1.2-1.3-3-1.4-4.3-.2s-1.4 2.9-.2 4.2c1.3 1.4 2.9 1.8 4.8 1.6.5-.1 1.1-.4 1.4.3-.3.9-1.1 1.3-1.8 1.6-5 2.6-11.1 1.3-14.2-4.2-3.4-6-.6-12.4 4.3-15.7 6.7-4.7 15-4.2 21.5.7 4.6 3.5 7 8.4 7.8 14.1.6 4.5.4 8.9-1.7 13-2.2 4.3-5.6 7.2-9.8 9.4-5.4 2.8-11.2 4.1-17.3 3.5-6.4-.6-12.2-3.1-17.3-7.1-1.6-1.3-3.2-2.6-4.6-4.2-.1-.2-.2-.5-.5-.7-.1-.2-.1-.4-.3-.5-.9-1.8-1.3-3.9-2.1-5.7-.5-1.2-.9-2.4-1.8-3.3 1.9 3.7 2.1 8.1 4.8 11.6-1 0-1.6-.6-2.5-1 1.1 3 .8 6 .7 9-1.1-.9-1.4-2.2-2.2-3.2 1 3-.3 5.5-1.4 8.2-1.1-1.6-.9-3.4-1.3-5.2-.1 1.4-.3 2.8-1.1 4-2.1 3.3-2.7 7-3.2 10.8-.4 2.8-.9 5.5-1.4 8.3-1.1 5.1-2.2 10.2-2.9 15.4-.5 3.7-1.2 7.4-2.3 11-1.3 4-3.7 7.1-7.2 9.3-4.8 3-10.4 2.2-14.7-1.7-3.3-3-5.1-6.9-6.4-11.1-1.4-4.5-2-9.1-2-13.8 0-4.5-.2-9 .5-13.5.4-2.8.7-5.6 1.2-8.4 1.2-6.5 2.4-13 4.1-19.3 1.2-3.1 2.2-6.4 3.3-9.7z" fill="#76e9c8"/><g fill="#44d262"><path d="M51.1 173.8c.1.7-.1 1.3-.4 2-2.5 7.5-4.3 15.3-5.8 23.1-1 5.3-1.9 10.7-2.3 16.1-.5 7.3-.5 14.7 1.3 21.9 1.2 4.6 2.9 9 6.5 12.4 2.3 2.3 5 3.7 8.3 3.8 3.2.1 5.9-1.2 8.3-3.2 3.7-3.1 5.2-7.3 6.2-11.9.8-3.9 1.3-7.9 1.9-11.8.6-3.5 1.1-7 2.4-10.3 0 3-.5 5.9-.8 8.8-.5 5.9-1.1 11.9-1.6 17.8-.1 1.3-.3 2.5-.3 3.8 0 .4.1.7.3 1.1.1-1.1.2-2.2.4-3.5 1.3 1.5 2.1 3 2.9 4.5 2.9 6.1 4.9 12.5 5.2 19.3.2 3.7.5 7.3.5 11-.1 5-.1 9.9-.4 14.9-.2 4.6-.2 9.2-.5 13.8-.4 5.4-.4 10.9-1.1 16.3-.1.7-.3 1.4-.5 2.1-.6 1.6-1.7 2.5-3.4 2.7-.6.1-1.3.1-1.9.1H41c-1.1 0-2.1-.1-3.2-.2-1.2-.1-1.7-.8-1.8-2-.2-2.1.4-4 1.1-5.9 1.8-4.7 5.1-7.7 10.3-8.4 2-.3 4-.1 5.9.3-1.6-1.1-3.5-1-5.3-.9-5.1.4-8.7 3-11 7.6-.3.7-.7 1.2-1.4 1.6-1.4.7-1.9 2.1-2.4 3.5-.4 1.1-.1 1.4 1.1 1.2.3-.1.6-.1 1-.2 0 .8.1 1.6.1 2.4-4.5.8-7.9-1-7.8-5.3.2-7.7 5.4-16.8 15.5-17.7 3-.3 5.9 0 8.8.6.6.1 1.2.2 1.8.2 2.3 0 3.5-.9 3.6-3.2.3-4.5.1-8.9-.6-13.4-.9-6.9-2.2-13.7-4.1-20.4-1.3-4.6-2.4-9.3-4.8-13.5-.6-1.1-1.4-2.2-2.2-3.2-3.7-4.8-5.4-10.4-6.2-16.3-1-7.7-.8-15.4-.1-23.2 1-12.1 4.8-23.3 9.8-34.3.8-1.4 1.2-2.8 2-4.1zm13.8-96.5c-1.3.2-2.2 1.1-2.4 2.4-.5 2.9-.2 5.8-.2 8.7-.3 1-.3 2.1-.2 3.1.1 4.3-1.9 7.5-5.2 10.1-2.7 2.1-5.7 3.5-8.9 4.6-3.3 1.1-6.6 2.3-10 3.4-.6.2-1.2.3-2 .5.2-1.2.7-1.9 1.6-2.7-2.1-.7-4.1-1.2-5.5-3 2.4-.5 3.9-2.1 5.2-3.9 1.4-2 2.6-4.2 4.3-6 .5-.6 1.1-1.1 1.7-1.7.1-.2-.1-.1-.2-.2-1.8 1-3.8 1.2-6 1.1 1.2-1.3 2.4-2.4 3.9-3.4-.9-.6-2-.5-3-1.3 3.4-.8 5.2-3.1 6.3-6.1.2-.6.4-1.3.3-2 0-1.5-.6-2.2-2.1-2.4-2.9-.4-5.7.1-8.6.4-1.5.2-3 .4-4.5.4-3.1-.1-5.6-1.3-7.6-3.6 0-.1 0-.1.1-.1 1.7.5 3.4.7 5.2.7.5 0 1 .2 1.5.3h.1c.1 0 .1.1.2.1l.1.1c.1 0 .1.1.2.1l.1.1c.1 0 .1.1.2.1l.1.1c.3.8 1 .9 1.6.9.7.1.6-.7.5-1.1-.4-1 0-1.3 1-1.6 2.7-.8 5.3-1.9 7.3-3.9.2-.3.4-.2.6-.1.7.6 1.1.2 1.4-.5.1-.1.2-.1.3-.2.4-.1.7.2 1.1.1.8-1 .9-2.1.8-3.3-.2-1.6.5-2.1 2-1.6-1-.4-2-.6-2.9-.9.3 0 .7.1 1.1.5-.2 1.5-1.6 2.4-2.2 3.7-.1.1-.1.3-.2.4s-.3.2-.4.3l-.2.2-.2.2-.1.1-.2.2-.1.1-.2.2c-.1.1-.1.1-.2.1-.2 0-.3.2-.5.1-3 2.4-6.4 4-10.3 4.4-5 .5-9.5-.3-12.6-4.9-.5-.8-1.1-1.6-1.7-2.4.7-.6 1.6-.7 2.4-1 2.8-1.2 4.7-3.1 5.2-6.2.2-1 .1-2.1-1-2.7h-.1c-.1 0-.1-.1-.1-.2V58c-.5-1.2-1.8-1.2-2.8-1.8.3-.3.7-.3 1-.3 4-.8 8-1.6 11.8-3 2-.7 3.4-1.9 3.7-4 .2-1.7 1-3.1 2.2-4.2.2 0 .2 0 .2.2.1.3-.1.6.3 1 2.3-3.3 6.5-3.7 9.5-5.9.4-.3.8-.2 1.2.1 1.6 1.1 2.9 2.4 4 3.9.2.2.2.5.5.6.1 0 .1.1.2.1.2.1.3.2.4.4 1.7 3.9 2.8 7.9 1 12.2.7.1 1.3-.1 1.8-.2 3.4-.7 6.7-.3 9.7 1.4 7.4 4.2 7.3 12.9 1.1 17.3-1 .8-1.9.9-2.6 1.5zM90 183.8c.7-.1.9.5 1.3.9 3.8 3.6 8 6.5 12.9 8.3 7.5 2.7 14.9 2.5 22.3-.6 5.3-2.2 9.7-5.4 12.3-10.7 2-4 2.2-8.3 1.6-12.6-.7-4.9-2.8-9.1-6.3-12.5-2.9-3-6.6-4.5-10.8-5-5.2-.6-9.8.9-13.5 4.5-6.4 6.1-4.6 14.7 2.1 18.3 3.2 1.8 6.8 1.4 10-.7.4-.3.8-.6 1.3-.9.6 1.4.1 2.5-.9 3.4-1.2 1.2-2.6 1.8-4.3 1.9-.4 0-.8.1-1.5.2.7.5 1.2.9 1.8 1.3-2.4 1.1-6.2.2-9.8-2.2-.2.7.5 1.1.5 1.6l-.1.1c-1.5-1-2.9-1.9-4.4-2.9-7.1-4.8-8.8-13-5.8-20.1.6-1.4 1.2-2.7 2.1-3.8 0-.1 0-.1.1-.2l.1-.1-.1-.1v.1h-.2l-.1-.1c-1.1.6-2.2 1.1-3.6.7 3.2-3.2 6-6.7 10.1-8.6 2.7-1.3 5.6-1.6 8.5-1.2.6.1 1.2.2 1.8.2-.9-.9-2-1.6-2.5-2.9 5.4 1.7 11.1.7 16.5 2.1 7.8 2 13.6 6.3 16.1 14.3 1.1 3.6 1.7 7.3 1.1 11.1v.6s.1 0 .2.1c.6-2.3 1.2-4.7 3.5-5.9.9 6 1.8 9.4-3 16.6 1-.3 1.9-.7 2.8-.8s1.9-.3 3 0c-1 1.3-1.9 2.5-2.8 3.8-2.1 2.9-4.2 5.8-6.2 8.8-4 5.9-9.8 9.3-16.5 11.2-3.7 1.1-7.6 1.6-11.5 1.5-2.3-.1-4.5-.5-6.7-1.3.9 1.1 2.3 1.6 3.1 3-3.3.5-5.9-.3-8.3-2.4.4.7.9 1.5 1.3 2.2 0 .1-.1.2-.2.2-2.6-1.1-5.4-1.8-8-3-4.1-1.9-7.2-4.8-9.8-8.4-.4-.5-.5-1.1-.5-1.8 0-2.1.1-4.3-.4-6.6.8.2 1.5.4 2.1.1.2-.8-.7-1-.7-1.7z"/><path d="M61.4 97.1c.2.9.4 1.8.6 2.6.3 3.2.8 6.4 1.6 9.6 0 .1.1.3.1.6-.9-.1-1.2-1.1-2.1-1.4.2 2.5.3 4.8.5 7.1 0 .1-.1.1-.2.2-1.2-1-2-2.3-2.8-3.7-.4 1.2-.1 2.4-.1 3.5-.2 3.5-1.4 6.7-2.8 9.8-1.2 2.6-2.5 5.2-2.9 8.3-2.4-2.1-2.4-4.9-2.6-7.6-.5.1-.4.5-.4.7.5 4.4-1.6 7.8-3.9 11.1-1.5 2.1-3 4.3-4.3 6.8-.6-1.4-.4-2.7-.8-4.3-3.5 5.7-7.4 10.9-12.9 15.1-.4-4.5.8-8.5 2.6-12.5 0-.1.1-.1.1-.1-.1-.1-.1-.1-.2 0-1 1.2-2.1 2.3-3.6 2.9-.1-.1-.2-.1-.2-.2 1.6-3.4 2.2-7 2.7-10.6.4-2.9 1.3-5.6 2.8-8.2-.1 0-.1-.1-.1-.2h.1v-.1c0 .1-.1.1-.2.1-1.4 1.6-3.3 1.9-5.4 2.3 1.5-2.6 2.3-5.2 3.5-7.7.8-1.7 2.2-2.9 3.4-4.2.2-.2.5-.3.4-.6-1.2.5-2.4 1.4-4 .9 2.4-1.2 3.7-3.4 5.3-5.2 1.1-1.3 2.7-1.8 4.2-2.4 4-1.5 8.1-2.8 12-4.4 4.1-1.7 7.3-4.4 9.6-8.2z"/><path d="M54.9 129.8c.1 2.3-.4 4.6-.5 6.9-.2 3-.2 6.1-.1 9.1.3 6.3 1 12.5-.5 18.8-.7 2-1.3 3.9-2 5.9-1.4 3.7-3.4 7.2-5 10.9-2.2 5.1-4.3 10.3-5.5 15.8-.1.3-.1.7-.5 1-.6-.9-.9-1.9-1.3-2.9-1.6-4-2.2-8.2-2.6-12.4-.9-10.7-1.7-21.4-1.6-32.2 0-.8.2-1.4.7-2 1.6-2 3.2-4.1 4.6-6.5.2 1.4.4 2.7 1.1 4.1 2.3-5.5 6.9-9.5 8.8-15.2.9 1.4 1.5 2.7 2.8 3.5.8-1.6.7-3.4 1.6-4.8z"/></g><path d="M38.7 21.1c0-.1-.1-.2-.1-.3-.1-.3-.3-.6-.5-1.2 2.7 2.1 6.2 2.5 8.3 5.1l.1-.1h.2c-.1-.1-.1-.1-.1-.2-.6-1.2-1.1-2.5-1-4.1.2.2.3.3.3.4.9 3.4 3.4 5.2 6.5 6.3 1.4.5 2.9 1.1 4.3 2-1.2 2.7-2.8 5.2-5 7.2-2.8 2.4-5.8 4.5-9.2 6-1.5.6-2.9 1.3-4.2 2.7.1-1.8 1.3-2.7 2-3.9.1-.2-.1-.1-.2-.2-.6.3-1.1.6-1.7 1-.4.7-1.2.6-1.7 1.1-.3.3-.7.4-1 .7-.2.2-.6.3-.8.5-.4.2-.8.5-1.2.7l-.6.6c-.8-.1-.4-.7-.3-1 .5-1.8 1.2-3.6 2.3-5.2.2-.1.2-.4.3-.6.2-.3.4-.6.6-.7-1.4.4-2.8 1.2-4.4 1.4-.1-.8.4-1.2.7-1.8-.4.7-.9 1.1-.9 1.9 1.1 0 2-.6 3.1-.8.3-.1.7-.5 1 0l-.3.6C33.9 41 33.3 43 32.7 45c-.2.5.1.7.6.4.2-.2.4-.4.6-.5.4-.2.8-.5 1.2-.7.2-.2.5-.3.8-.5.3-.3.7-.4 1-.7.6-.3 1.2-.6 1.9-.9.2 0 .6-.1.2.3-2.7 3.2-5.4 6.3-9.5 7.8-1 .4-1.8 1-2.7 1.5-.8.6-.4-.5-.7-.5.8.2.6-.5.9-.9.4-.5.7-1.1.8-2-1.7 1.6-3.2 3.2-5 4.3l-.1-.1c.8-1.7.8-3.5.9-5.3s.6-3.4 1.7-4.9c.3-.3.4-.7.6-1 0-.1 0-.1-.1-.1-.5.3-.8.8-1.1 1.2-1.1 1.6-2.7 2.1-4.7 2.2 1.6-1.9 2.5-4.1 3.7-6.1.8-.6 1.5-1.3 2.4-1.8-4.3 1.8-6.9-.7-9.1-3.8 3.5.9 6.7-.3 9.8-1.6 1.5-.6 3.1-.9 4.9-1.3-3.6-.2-5.8-2.1-7.4-5.1 0-.1.1-.2.2-.2 2.3 1.1 4.7 1.6 7.2 1.6-1.8-.5-3.8-.6-5-2.4l.1-.1c2.1.7 4.1.3 6.2 0 1.6-.3 3.2-.6 4.8-.6s3.1.5 4.7.8c-1.6-.6-3-1.4-3.8-2.9zm26.1 56.2c.7-.9 1.8-1.1 2.6-1.7 5.9-4.5 5.3-12.8-1.3-16.4C62.6 57.3 59 57 55.2 58h-.7c-.1 0-.2 0-.4-.1 2.2-4.4 1-8.6-.8-12.7-.1-.1-.1-.3-.2-.4-.4-2.1-1.6-3.8-2.9-5.6-.1-.2-.3-.4-.5-.6 1.5-1.2 2.9-2.4 4.1-3.8.3-.4.7-.4 1.1-.3 1.5.2 2.9.6 4.2 1.3.2.1.4.5.7.2 0 .6.4.9 1 1l.1.1c.3.5.6 1.1 1.1 1.5.1.1.2.1.2.2l.2.2.1.1.2.2.1.1.2.2.2.2c.1.1.3.2.4.3l.1.1c0 .6.6.6 1 .7.9.3 1.6.9 2.2 1.6 1.3 1.7 2.4 3.6 2.9 5.7 1.2 5.2 4.8 7.8 9.4 9.8.2.1.4.2.7.3 0 0 0 .1.1.1-.5.4-1.2.3-2 .4 2.7 2.1 3.8 5.4 6.6 7.4-1.1.7-2.2.7-3.4 1.1 1 1.1 1.8 2.3 2 3.9-1.1-.7-1.9-1.6-3.3-2 1 1.9 1.6 3.7 1.7 5.9-1.2 0-2.4-.1-3.6 0-4.2.3-8.2 1.6-12.4 2.2-.3-.1-.5 0-.8 0z" fill="#76e9c8"/><path d="M71.1 7.9c-.2.2-.1.4 0 .5 3.6 5.7 5.4 12 6.2 18.7.6 4.5.5 8.9.2 13.4-2.5 1.2-2.8 2.5-1.5 5 .1.2.4.4.3.8-.8 2.2-1.5 4.5-3.3 6.2-.1.1-.3.2-.5.3-.7-.7-1.1-1.6-1.4-2.4-.7-2-1.3-4-2.4-5.7-.4-.7.1-1.1.2-1.6-.4-.2-.5.4-.8.3-.7-.8-1.3-1.6-2-2.4-.2-.3-.3-.5-.2-.9.4-3.9-.2-7.8-.3-11.7-.1-3.5-.1-7 .2-10.4.3-2.6.3-5.3.9-7.8.2-.9.5-1.8.9-2.7.3-.9.8-1.3 1.8-1.1h.1c.1 0 .2 0 .2.1.1 0 .2.1.2.1.1.1.2.1.3.2s.2.2.2.4c.1.3.2.5.4.7.2-.1.2-.1.3 0z" fill="#44d262"/><path d="M70.3 6.8c0-.1 0-.1-.1-.1-.2 0-.3-.1-.4-.3-.1-.1-.4-.1-.5-.2.1-.7-1.1-.2-1-.9 0-.1 0-.1.1-.2h-.1l-.1.1h-.1c-2 2.9-2.5 6.2-2.7 9.5-.3 4-.6 8-.5 12s.5 8 .4 12c0 1.9-.1 1.9-1.9 1.5-.2-.2-.5-.2-.7-.5l-.3-.3-.3-.3-.3-.3c-.6-.5-1-1.2-1.5-1.9-.5-5.3-.2-10.5.4-15.8.5-4.5 1.2-8.9 2.7-13.2.6-1.7 1.4-3.2 2.4-4.7 1.1-1.6 2.4-1.8 4-.7 2 1.3 3.2 3.2 4.4 5.2 3.1 5.2 4.6 10.9 5.8 16.7.6 2.9 1.1 5.8 1.4 8.7.1 1.3-.1 2.6-.1 4.2.8-1.1 1.4-1.9 2-2.8.2 1.9-.3 4.3-1.4 7 .9-.7 1.7-1.3 2.5-2 .1.1.2.1.2.2-.4 1.9-.5 3.9-1.3 5.7-.3.7-.6 1-1.4.8-.5-.1-1.1-.2-1.6-.3-2.4-.7-3.2-2.1-2.9-4.5 1-10.5.1-20.7-4.6-30.3-.6-1.2-1.2-2.4-2.2-3.4.1-.1-.1-.5-.3-.9zM64 4.9c-3.1 7.6-3.7 15.8-6.9 23.3-1.4-.6-2.7-1.2-4.1-1.8 1.9-5.6 2.8-11.4 4.8-17 .5-1.3 1.2-2.5 2-3.7 1.2-1.8 2.4-2 4.2-.8z" fill="#76e9c8"/><path d="M21.9 61.4c.1 2.1-1.3 3.3-2.7 4.4-1.1 1-2.6 1.4-4 1.9-.4.1-.7.1-1-.2-2.3-2.3-4.2-4.8-4.6-8.4 3 .9 6.1.1 9.1.8 1.2.4 2.2 1 3.2 1.5z" fill="#343434"/><path d="M84.4 49c-1.7 2-3 4.2-4.5 6.2-1 1.3-1.7 1.4-3.1.6-1.3-.8-2.6-1.5-3.8-2.6 2.1-1.7 2.8-4.3 3.8-6.7 1.4 1.1 2.9 2 4.6 2.3-.1.6-.7.7-.9 1.2 1.3-.2 2.4-1.2 3.9-1zM59.8 36c-1-1-2.4-1.2-3.6-1.7-.4-.2-.8-.3-1.4-.5 3-4.5 4.6-9.6 6-14.9.2.9-.1 1.6-.2 2.4 0 .8-.1 1.5-.2 2.3-.4 3.8-.4 7.7-.4 11.5.1.2.3.7-.2.9z" fill="#76e9c8"/><path d="M21.7 58.5l.6 1.8c.1.4.3 1-.4 1.1-.6-1.2-1.8-1.4-2.9-1.7-2.2-.6-4.5-.5-6.7-.5-.8 0-1.6-.1-2.4-.6.6-1 1.5-1.3 2.4-1.5 3-.9 5.9-.7 8.6.9.2.1.4.2.5.2 0 .2.1.3.3.3z" fill="#343434"/><path d="M86.7 44.4c.4 1.4.2 2.6-1 3.5-3 1.9-9.3-.7-9.8-4 .2-.7.3-1.5.7-2.1.2-.1.4-.2.5-.4.4 0 .2.3.2.5-.2 2.1.4 3.2 2.3 4.2.5.2.9.4 1.4.6 1.1.5 2.3.7 3.4.2.9-.4 1.2-1 .9-2-.1-.2-.3-.4-.3-.7.5-.4.1-1 .5-1.4.6.3.7 1 1.2 1.6z" fill="gold"/><path d="M25.2 320.4c.3-.5.5-1.1.8-1.6l1.6-1.6c.2-.2.3-.2.4.1-.2.9-.7 1.8-.7 2.8 0 1.5-.8 1.9-2 2-.5-.6 0-1.2-.1-1.7zm8.5 4.5c.5-1.6 1-3 2.5-3.9-.1 3-.5 3.6-2.5 3.9z" fill="#fff"/><path d="M85.2 44.9c1 .7.3 1.4-.2 1.9-.7.6-1.6.9-2.5.6-.5-.2-1.3.1-1.6-.7.8 0 1.6.4 2.5.2 1.1-.3 1.8-.8 1.8-2z" fill="gold"/><path d="M28.6 76.5c0-.2-.1-.4.3-.4.6 0 1.2-.1 2-.2.5.4.2 1.2.6 1.8-.9.2-1.4-.4-2-.5-.1-.1-.4-.1-.5-.3-.1-.1-.2-.1-.3-.2 0 0 0-.1-.1-.2z" fill="#fff"/><path d="M76.6 41.7c-.1.8.1 1.6-.7 2.1-.3-.8-.1-1.5.7-2.1zm8.9 1c-.1.5.4 1.2-.5 1.4.1-.5-.2-1.1.5-1.4z" fill="gold"/><path d="M89.5 183.1c.5 0 .6.3.5.7-.4-.1-.5-.4-.5-.7z" fill="#44d262"/><path d="M77 41.3c0 .3-.1.5-.5.4.1-.3.3-.3.5-.4z" fill="gold"/><path d="M55.2 129c0 .3.1.6-.3.8 0-.3.1-.6.3-.8z" fill="#44d262"/><path d="M109.9 179.1c-.1-.1-.2-.3-.1-.4.1-.2.2.1.4.1-.2.1-.3.2-.3.3z" fill="#76e9c8"/><path d="M89.2 182.6c.2.1.4.2.3.5-.2-.1-.3-.3-.3-.5zM37.3 45c.1-.1.2-.1.3-.2 0 .1-.1.3-.1.4 0-.1-.1-.2-.2-.2zM27.2 145.8h-.3c0-.1.1-.2.1-.3.1.1.2.2.2.3zm81.9 33.1c.1.1.1.2 0 .3l-.1-.1c0-.1 0-.2.1-.2zm-1.7 25.9v.3c-.1 0-.2-.1-.3-.1.2-.1.3-.1.3-.2z" fill="#44d262"/><path d="M81.8 71.8c-.1-.1-.2-.2 0-.4 0 0 .2.1.3.1-.2.2-.3.2-.3.3z" fill="#76e9c8"/><path d="M21.8 75.6l-.1-.1h.3c-.1 0-.1 0-.2.1z" fill="#44d262"/><path d="M90.1 79.8c.1.1.3.2.1.3 0 0-.2-.1-.3-.1.1 0 .1-.1.2-.2zm.5 8.4c0 .1.1.2.1.2h-.3zm-5.7-48.6h.3c0 .1-.1.2-.1.3-.1-.1-.2-.2-.2-.3z" fill="#76e9c8"/><path d="M62 115.6c0 .1.1.1.1.2-.1.1-.2.1-.3 0 .1-.1.1-.2.2-.2z" fill="#44d262"/><path d="M26.7 24.8c.1.1.4.2.3.4-.2.2-.4 0-.6-.1 0-.1.1-.2.3-.3z" fill="#fff"/><path d="M24.2 25c-.1-.1-.2-.2-.1-.2.1-.2.2-.1.3 0-.1 0-.1.1-.2.2zm2.4-1c-.1-.1-.2-.1-.2-.2.2-.1.2 0 .2.2.1-.1 0 0 0 0zm-4 28.5c0 .1-.1.1-.1.2-.1-.1-.1-.2 0-.3 0 .1.1.1.1.1z" fill="#76e9c8"/><path d="M26 51.1c-.1.1-.2.1-.3 0-.1-.2-.1-.3 0-.4.1.1.1.1.2 0 0 .1 0 .2.1.4z" fill="#fff"/><path d="M25.9 50.6l-.1.1-.1-.1h.1z" fill="#343434"/><path d="M83.3 99.7c-.3 4-2.1 7.3-5 10.1-1.6 1.5-3 1.5-4.5 0-2.9-2.8-4.9-6.2-4.9-10.4-.1-3 1.9-6 4.5-7.1 2.8-1.1 5.8-.5 7.8 1.6 1.4 1.4 2.2 3.7 2.1 5.8zm5.1-20.4V79c.1 0 .1.1.2.1 0 .1-.1.1-.2.2zm0 7.2h-.1c0 .1 0 0 .1 0zM39.8 53.1c0-2.4.4-4.8 1.6-6.9 1.6-3 4.1-3.7 6.8-1.5 2.8 2.2 4.3 5.2 4.7 8.7.1.8-.3 1.5-.7 2.1-2 2.5-4.5 4.1-7.7 4.7-1.7.3-3.4-.9-4.1-2.7-.2-.5-.4-1-.4-1.5-.2-1-.2-1.9-.2-2.9zm1.9 16.7c-.4-.5.2-.8.4-1.1.7-.9 1.5-1.9 2.1-2.9-.7-.5-1.5-.3-2.2-.5 1.1-.5 3.6.1 5.2 1.3-.6.1-1-.3-1.4-.4s-.7-.5-1.1-.1c-.3.4-.7.8-.5 1.4.2.7.2 1.3 0 2-.4 1.7-.6 1.8-2.3 1.5 0-.2.1-.3.2-.4 1.4-.7 1.4-.8 1.4-2.4-.6.6-.9 1.5-1.8 1.6z"/><path d="M41.7 69.8c.8-.7 1.4-1.5 2.1-2.4.3 1.4.1 2.5-.5 3.4-.5.2-1-.7-1.3.1-.2.4-.4.9-1 .8-.4-.1-.7-.3-.7-.8 0-.1.1-.2.2-.2 0-.1.1-.2.2-.2 0-.1.1-.2.2-.2.3-.3.5-.4.8-.5z" fill="#fff"/><path d="M40.4 71c.2.2.3.6.7.8.3-.3.6-.5.9-.8-.2 1.2-.7 1.4-1.6.7-.2-.2-.3-.2-.5-.1-.1-.1-.1-.2-.2-.3.2-.2.3-.6.7-.3zm1.3-1.2c-.2.2-.3.5-.6.5-.1-.5 0-.7.6-.5zm5.9-2.9c.2 0 .4.1.4.3-.2 0-.4 0-.4-.3-.1 0 0 0 0 0zm.7.5c.1 0 .2.1.4.1-.3.1-.4.1-.4-.1zM29.1 77c.3-.1.4 0 .5.3-.3 0-.5 0-.5-.3zm24-32.2c.3.1.2.3.2.4-.1-.1-.2-.2-.2-.4zM47.5 67c-.1 0-.3-.1-.2-.2s.2 0 .2.2c.1-.1 0-.1 0 0zm-25.9-8.5l-.2-.2c.2-.1.3 0 .2.2zm26.7 8.9c-.2 0-.3 0-.2-.2.1 0 .2 0 .2.2zm-7.2 2.9c0 .2 0 .3-.2.2v-.3c0-.1.1.1.2.1zm-.3.3c0 .2-.1.3-.2.2v-.3c.1 0 .2 0 .2.1z"/><path d="M40.6 70.8c0 .2 0 .3-.2.2 0-.1-.2-.2 0-.3 0 0 .1.1.2.1zm-12 5.7c.2 0 .3.1.3.3-.3 0-.3-.1-.3-.3z"/><path d="M28.8 76.7c.2 0 .3 0 .3.2-.2.1-.3 0-.3-.2zm14.3 15.8h.3c0 .1-.1.2-.1.2-.1-.1-.1-.2-.2-.2zm58.2 59.2c-.1.1-.1.2-.2.3-.1 0-.1-.1-.2-.2.1-.1.2-.1.4-.1zm0-.1c.1 0 .1-.1.2-.1-.1 0-.1.1-.2.1z"/><path d="M101.1 151.9c-.1.1-.1.2-.2.3-.1-.1-.1-.2-.2-.2.1-.1.2-.1.2-.2.1 0 .1.1.2.1zm-70.2-9l.2-.2c.1.2.1.3-.1.4 0-.1-.1-.2-.1-.2zm1.5-16.3c.1-.1.2-.1.3-.2l.1.1c0 .1-.1.2-.1.3-.2-.1-.3-.1-.3-.2z"/><path d="M32.6 126.4c0-.1.1-.1.1-.2.2.2.1.2-.1.2.1.1 0 0 0 0zm1.7-10c.1-.1.1-.1 0 0l.1-.1zm1.2-77.8c-.2-.6-.5-.2-.7-.1-1.2.4-2.4 1-4 1.2.7-1.2 1.3-2.3 2.3-3.1-.5.8-1 1.5-1.7 2.6 2.2-.7 4-1.3 5.8-2.2-.6.5-1 1-1.5 1.5-.1.3-.2.2-.2.1zm-.2.5c-1.1 1.8-1.8 3.8-2.4 5.9 0 .1-.1.2.1.3.1 0 .1 0 .2-.1.2 0 .2 0 .2.2-.2.3-.6.5-1.1.7.6-2.6 1.4-5 2.9-7.1.1-.1.2 0 .1.1zm-.1-4.5c1.6-1.1 3.3-1.7 5.2-1.7-1.8.5-3.5 1-5.1 1.9-.1 0-.2-.1-.1-.2zm3.5 7.4c-.5.5-1.2.7-1.8 1.1-.2 0-.2-.1-.2-.2.6-.4 1.2-.7 1.8-1.1zm-3.6 2.2c-.4.3-.7.5-1.1.8-.2 0-.2 0-.2-.2.4-.3.7-.6 1.1-.8.2-.1.3 0 .2.2z"/><path d="M36.9 43.1c-.4.2-.7.4-1.1.6-.2 0-.2 0-.2-.2.4-.2.7-.4 1.1-.6zm-1.6-8.3c-.3.2-.6.5-1.2.9.3-.7.7-.9 1-1.1.1.1.2.1.2.2z"/><path d="M35.8 43.7c-.2.2-.5.3-.7.5-.1-.1-.1-.2-.2-.2.2-.2.5-.3.7-.5.1.1.2.1.2.2zm-2.6 1.5c.2-.1.4-.3.6-.4l.2.2c-.2.1-.4.3-.6.4 0-.1-.1-.2-.2-.2zm.2-9c.1-.2.2-.4.5-.5.1 0 .2.1.2.2l-.5.5c-.2 0-.3-.1-.2-.2zm1.8 2.8l.4-.4c.1 0 .1.1.2.1-.1.1-.2.3-.3.4-.2 0-.3-.1-.3-.1zm11.4-14.6c.1.1.2.3.4.4 0 .2 0 .2-.2.2-.1-.1-.2-.2-.4-.3.1-.1.2-.2.2-.3z"/><path d="M47 24.8c.1.1.3.2.2.3s-.3 0-.3-.2c0 0 0-.1.1-.1zM33.5 36.4c-.1.1-.2.2-.3 0l.2-.2s0 .1.1.2zm.3-.7c.1-.1.2-.2.3-.1 0 0-.1.2-.1.3 0-.1-.1-.2-.2-.2zm-8.2 5.5l.2-.2c.2.1.1.2-.2.2.1.1.1 0 0 0zm14.6-.4c.1-.1.3-.2.4 0l-.2.2c-.1 0-.1-.1-.2-.2zm20.5-3.9c.7.5 1.1 1.2 1.5 1.9-.8-.3-1.3-1-1.5-1.9zm2.2 2.7c.3.1.6.1.7.5-.4.1-.7-.1-.7-.5zm-.7-.8c.2 0 .3.1.3.3-.4.1-.4 0-.3-.3z"/><path d="M62.7 39.3c.2 0 .3.1.3.3-.4.1-.5 0-.3-.3z"/><path d="M62.4 39.1c.2 0 .3.1.3.3-.3.1-.4 0-.3-.3zM71 28.4c-.3.4-.6.8-1 1.2-.1-.1-.2-.1-.3-.2.6-1.8.9-3.7 1-5.6 0-.1 0-.2-.1-.1l-1.2 1.8c.4-2.4.3-4.8.9-7.1.3 1.6-.2 3.2-.2 4.9.7-.2.6-1 1.3-1.4-.2 2-.5 3.8-.7 5.6 0 .3-.4.6.1.8.1 0 .2 0 .2.1zm-1.1 12.9c1.3-1.6 2.2-3.4 3.3-5.2-1.2 0-2.2.5-3.4.7.6-.8 1-1.5 1.6-2.2.2.6-.3.9-.3 1.4 1-.2 1.9-.4 3.3-.6-1.8 2.1-2.5 4.4-4.3 6.1-.1.1-.2 0-.2-.2zm2.9-14.8c.3-.2.5-.5 1.2-.6-1.6 2.8-.9 6-2.4 8.7.9-2.4.6-5 1.3-7.4v-.1c0-.1-.1-.2-.1-.2z"/><path d="M71 28l1.8-1.5.2.2c.1.2.1.3 0 .4-.8 0-1.1.9-1.8 1.2-.1-.1-.2-.2-.2-.3zm-.9 13.5c-.3.5-.6.9-1.4 1.4.3-.8.7-1.2 1.1-1.6.2.1.3.2.3.2zm.2-34.7c.3.3.7.6.7 1.1-.5-.1-.9-.4-.7-1.1zm-.9-.6c.3-.2.4 0 .5.2-.4.3-.5.1-.5-.2z"/><path d="M70.8 28.2l.2-.2c.1.1.1.2.2.2l-.2.2c-.1 0-.2-.1-.2-.2zm-.9-21.8c.1.1.2.2.4.3-.4.3-.5 0-.4-.3zm-1.6-1.3c.1-.1.2-.3.3-.4.2.3 0 .4-.2.6 0-.1-.1-.1-.1-.2z"/><path d="M82.8 99.7c-.3 3.9-2.1 7.1-5 9.8-1.2 1.1-2.3 1.1-3.5 0-3-2.8-5-6.1-4.9-10.4.1-5.2 5.2-8.5 9.7-6.2 2.7 1.4 3.6 3.8 3.7 6.8z" fill="#4fc6a3"/><path d="M45.6 57.8c.2.6 1 .7 1.4 1.1-3.5 1.9-6.3.3-6.6-3.7-.2-2.4.1-4.6 1-6.8 1.4-3.3 4.4-3.9 7-1.5.6.5 1.1 1.2 1.6 1.8-.3.4-.5-.1-.8 0H49c-.2 0-.3 0-.5-.1-.5-.1-.9-.1-1.4 0-.3.1-.7.3-1 .5-.1.1-.2.1-.2.2l-.2.2-.1.1-.2.2-.1.1c-.1.1-.1.3-.2.4 0 .1-.1.2-.2.3-1.3 2.1-1.1 4.2.1 6.2.1.1.1.2.2.3l.3.6c.1 0 .1.1.1.1z" fill="#fff"/><path d="M47.1 48.3c.5-.3 1.1-.3 1.6 0 0 .4.4.2.5.4.3.7 1.3.9 1.4 1.7-.8-.2-1.6 0-2.2.7-2 .8-2.5 3.8-.9 5.3.6.5 1.1.4 1.7-.1.4-.4.5-1 .8-1.5.5-.4.5-.8 0-1.3v-.6c.5-.8.5-1.7.7-2.6 2.1 3.1.8 7-2.7 8.1-.5.2-1 0-1.5-.2-.3-.1-.5-.7-1-.4-.1-.3-.3-.5-.5-.7-1.3-2.3-1.5-4.7 0-7 .2-.1.1-.3.3-.5.1-.1.2-.1.3-.3.1-.1.2-.1.3-.3.3-.2.9-.2 1.2-.7z" fill="#76e9c8"/><path d="M70.5 23.7c.1 0 .1-.1.2-.1v.3c-.1-.1-.1-.2-.2-.2zm2.5 3.4c-.2-.2 0-.3 0-.4.3.1.3.3 0 .4z" fill="#44d262"/><path d="M45.1 50.1c-1.2 2.3-1 4.7 0 7-1.6-1.6-1.6-5.4 0-7zm2-1.8c-.2.7-.7.8-1.3.8.3-.4.8-.6 1.3-.8zm-2 8.8c.3.1.6.3.5.7-.3-.1-.6-.3-.5-.7zm4.1-8.4c-.3.1-.5.1-.7-.1.1-.1.1-.2.2-.2.2.1.5 0 .5.3zm-3.8.9c.2.3 0 .4-.3.5-.1-.3.1-.4.3-.5z"/><path d="M45.6 49.4c.1.2.1.4-.3.3.1-.2.1-.3.3-.3zm.3-.3c.1.3 0 .3-.3.3 0-.2.1-.3.3-.3zm4.4 5.5v.1c-.4 1.6-1.1 2.4-2 2.3s-1.7-1.2-1.9-2.6c-.2-2 .6-3.5 2.2-3.7.3.9.5 1.9 1.6 2.1 0 .2.1.4.1.6z"/><path d="M50.2 52.9c-1.3.1-1.7-.4-1.6-2.1.6-.9 1.2-1.2 2.1-.4.3.9.3 1.8-.5 2.5zm.1 1.7c-.3-.4-.5-.8 0-1.2.8.5.8.8 0 1.2z" fill="#fff"/></svg>