<svg xmlns="http://www.w3.org/2000/svg" viewBox="0 0 165.6 330.3"><path d="M154 217.8c-.5.6-1 1.4-1.6.1-.1-.3-.4-.3-.7-.3-1.5-.1-2.9-.4-4.3-1-.4-.2-.7-.2-1 .2-1 .9-2.2 1.6-3.5 1.6-.8 0-1 .8-1.8 1-.3-1.1-1.2-1.2-2.1-1.5-.5-.2-1-.4-1.4-.6-3.5-1.9-4.7-4.1-4.1-8.4.2-1.7.5-3.5.7-5.2-.5-.1-.5.4-.7.6-1.5 2-3.3 2.6-5.7 1.9-.5-.2-.9-.2-1.4.2-.7.7-1.3.4-1.3-.4-.1-1.2-.8-1.9-1.3-2.8-1.8-2.9-1.4-5.8.3-8.6.7-1.2 1.6-2.3 2.5-3.3 1.5-1.5 2.4-3.2 2.9-5.3.1-.7.3-1.4.7-2 .9-1.4.6-2.7.1-4.2-1.8-5.1-3.9-10.2-5.1-15.5-.5-2.2-.9-4.4-1.2-6.6-.4-2.8-1.4-5.4-2.4-8-3.3-8.1-6.8-16.2-9.4-24.6-.1-.2 0-.4-.4-.5-.1 1.2-.3 2.4-.3 3.5-.2 6.9-.7 13.8-.8 20.7-.1 7.7.2 15.4 1.8 22.9 2 9.6 5 18.9 7.5 28.4 1.8 6.7 3.6 13.3 4.8 20.1 1.3 7.9 2.2 15.8 1.3 23.7-.6 5.3-1.6 10.5-2.4 15.7-.5 3.4-.8 6.7-.9 10.1-.3 6.8-.1 13.6.5 20.3.2 2.4.6 4.8 1.2 7.1.2.8.6 1.5 1.2 2.1 1.8 1.6 3.7 3 6.1 3.6 4.9 1.1 7.4 4.6 9 9 .9 2.6 1.3 5.3.3 7.8-1.1 2.7-2.8 5.2-5.1 7.1-1.7 1.4-3.7 1.7-5.7 1.7-1.4 0-2.8.2-4.2.8-3.1 1.3-6.4 1.2-9.6.2-3.3-1-6.6-1.9-10.2-2.2-4.4-.4-7.2-3.4-9.1-7.2-1.8-3.5-2.8-7-2.6-11 .2-4.9.1-9.9 0-14.9-.1-7.1-.6-14.2-1.8-21.2-1-6.3-1.5-12.7-.6-19.1.3-2 .7-4 1.3-6 .7-2.6.8-5 0-7.6-3.3-10.5-5.5-21.3-6.6-32.3-.2-1.6-.4-3.2-.7-4.9-2.1.7-4.2.8-6.3 0-.7 4.9-1.3 9.6-2 14.4-1.1 7.8-3.1 15.5-5.4 23-.8 2.5-.8 4.9-.1 7.3 1.8 6.2 2.1 12.5 1.4 18.8-.6 5.9-1.5 11.7-2.1 17.6-.3 3.3-.4 6.6-.4 9.9 0 6-.2 11.9-.1 17.9.1 3.4-1.7 6.4-3.3 9.3-2.5 4.5-6.4 6.3-11.4 6.3-1.2 0-2.2.2-3.4.6-3.4 1.3-6.9 2.4-10.6 1.8-1.4-.2-2.8-.6-4.1-1.2-.9-.5-1.8-.2-2.7-.2-2.4-.1-4.8-.5-6.6-2.3-7.4-6.9-6.1-15.8 1.1-21.9 1.2-1 2.7-1.3 4.2-1.7 2.5-.6 4.5-2.1 6.1-4 1-1.1.9-2.6 1.2-3.9 1.1-5.6 1.1-11.3 1.3-17 .2-8.1-.7-16.2-1.9-24.2-.7-4.5-1.9-8.9-1.8-13.5.1-5.6.3-11.2 1.1-16.7 1.4-9.4 4.1-18.5 6.5-27.6 2.1-8.1 4.7-16.1 6.3-24.4 1.5-7.7 1.9-15.5 1.7-23.3-.1-3.6-.1-7.2-.3-10.8-.2-4.2-.5-8.5-.7-12.7-.3-.1-.3.1-.4.3-1.7 6.1-4.5 11.8-6.6 17.7-1.2 3.5-2.9 6.7-4.1 10.2-1.1 3-1.2 6.1-1.9 9.1-1.2 5.3-2.8 10.5-4.8 15.6-1 2.5-1.4 4.9-.3 7.7 1.1 2.7 2.4 5.1 4.3 7.3 1.8 2 3 4.3 2.9 7.1 0 1.1-.4 2.1-.9 3.1-.6 1.1-1.5 1.9-1.4 3.3 0 .7-.7 1-1.3.5-.6-.5-1.1-.5-1.8-.3-2 .6-3.6 0-4.9-1.5-.3-.4-.6-.8-1.2-1.4.3 2.1.5 3.8.8 5.5.9 5.4-1.7 7.7-6 9.3-.1 0-.2.1-.2 0-.9-.4-.8 2-2 .8-.7-.8-1.7-.4-2.5-.8s-1.6-.7-2.2-1.4c-.3-.4-.6-.3-1-.1-1.1.5-2.3.8-3.6.9-.6.1-1.2 0-1.5.8-.1.4-.7.3-.9 0-1.1-1.4-2.8-1.8-4-3-.7-.7-1.4-1.3-1.8-2.2-.3-.7-.9-1.1-1.7-1.4-.6 1.2-1.4.7-1.7-.2-.9-2.3-2.4-4.3-2.7-6.8-.5-3.7.7-7.1 2.9-9.8 4.2-5.1 6.5-11.1 8.7-17.2 1.7-4.5 3.9-8.9 5.3-13.6 2.3-7.6 4.3-15.3 6.9-22.8 2.9-8.2 4.7-16.7 6.4-25.2.7-3.6 1-7.3 1.8-10.9 0-.2 0-.5.1-.7-.9.2-1.6.7-2.5.4.8-1.8 1.5-3.5 2.3-5.4-1.2-.5-2.5-.8-3.7-1.7 1.5-.7 2.8-1.4 3.8-2.6.9-1.2 2-2.3 3.2-3.3-.6-.8-1.2-1.5-1.6-2.6 3.5 1.5 6.6.1 9.7-.8 3.8-1 7.4-2.4 11.1-3.6.6-.2.9-.6 1.2-1.1 1.2-2.2 2.4-4.5 3.6-6.8-2.1-1.1-4.3-1.7-6.5-2.2-2.1-.5-4.2-.2-6.3-.3-1 0-1.4-.3-1.2-1.3.2-1 .4-2 .7-3.2-.8.4-1.4.8-2.3 1.3-.1-1.9.6-3.3 1.4-4.8-1-.6-2.2-.8-3.2-1.6 2.9-1.5 4.1-4.4 6.1-6.8-.7-.4-1.3-.7-2.1-1.1 1.5-.8 3.1-1.2 4.4-2.1-1.9-2.5-3.4-5.1-5.5-7.5.9-.6 1.7.1 2.7-.2-2.6-2.8-2.1-6.6-3.3-10 .9.1 1.5.8 2.3 1.3-.3-2.2-.7-4.3-.5-6.8.7.9 1.2 1.6 1.7 2.3.3-2.3.4-4.4.7-6.5 1.2-8.4 3.3-16.5 8-23.8C57.8 2.2 59 1 60.6.2c1.8-.8 3-.6 4.2.9 1.8 2.2 2.7 4.8 3.4 7.4 1.1 4.2 2.2 8.3 3.2 12.5.2.8.6 1.1 1.3 1.3 1.2.3 2.3.2 3.5.1 2.8-.4 5.5-1.4 8.6-.8-1-1.5-1.9-2.8-2-4.7 2 2.8 5.6 2.7 8 5-.3-1.8-.4-3.4 0-4.9.8 2.1 1.2 4.4 3.3 6 .5-1.9 1-3.7 1.5-5.4 1.1-4.1 1.9-8.3 3.4-12.3.6-1.6 1.4-3.1 2.6-4.4 1.2-1.4 2.3-1.6 3.9-.8s2.9 1.9 3.9 3.4c3.8 5.6 5.7 12 7.2 18.5.8 3.8 1.4 7.7 1.5 11.9.6-.9 1.1-1.5 1.8-2.4.3 2.4-.2 4.5-.5 6.7.8-.4 1.4-1.1 2.3-1.3-.2.6-.3 1-.4 1.5-.4 1.2-.5 2.1.5 3.2 1.5 1.6 1.3 3.4-.1 4.9-.3-.4-.2-.7 0-1.1.5-1.3.2-2.5-.6-3.5-.4.1-.4.1-.4.8 0 .3.1.6.2.9-.2 1.5-1.2 2.3-3 2.2-1.5-.3-2.9-.6-4-1.7-1.1-1-1.7-2.1-1.3-3.6v-.2h-.1c-.1 0-.1.1-.2.1l-.2.2c-.4.5-.5 1-.5 1.6.1.9.7 1.5 1.2 2.1.3.3.8.6.4 1.2-.5.1-.8.3-1 .9-.4 1.1-.8 2.2-1.4 3.2-.4.7-.2 1.3.4 1.8.9.7 1.8 1.3 2.7 1.9.7.5 1.3.4 1.8-.3 1.1-1.7 2.3-3.4 3.5-5-1.1 0-1.9.8-2.7.7-.5-.3-.1-.7-.3-1-.8-.3-1.8-.5-2.5-1.2-.3-.2-.9-.4-.4-1 .5-.2.9.1 1.3.3 1.9 1 3.9 1.4 6.1.6.3-.1.7-.2 1 .1-1.8 1.7-3.1 3.8-4.5 5.8-.5.7-.9 1.6-1.7 2.2 1.3 1 2.9 1.5 4.4 2.1-.6.6-1.4.7-2.1 1.2 1.9 2.4 3.1 5.3 6.1 6.8-.9.8-2 1.1-3.1 1.6.7 1.5 1.3 3 1.4 4.7-.9-.1-1.4-.8-2.3-1 .2 1.1.4 2.1.6 3.1.2.9-.1 1.3-1.1 1.3-4.1-.2-8 .2-11.8 1.9-.3.1-.7.2-1 .6 1.2 2.4 2.4 4.8 3.7 7.1.2.4.5.6.9.7 5.2 1.7 10.3 3.8 15.8 4.8 1.7.3 3.4.5 5.3-.5-.4 1.1-1 1.8-1.7 2.7 2.5 1.7 3.6 4.9 7 5.8-1.3 1-2.5 1.3-3.8 1.8.8 1.8 1.5 3.5 2.3 5.3-.9.3-1.6-.1-2.6-.4.6 2.5.8 5 1.2 7.4 1.3 7.7 2.8 15.3 5 22.7 1.7 5.6 3.6 11.2 5.3 16.8 1.6 5.2 3 10.6 4.7 15.8 1.3 3.8 3.1 7.3 4.5 11 .9 2.3 1.7 4.5 2.5 6.8 1.2 3.3 3.3 6.1 5.3 8.9 2.1 2.8 3.6 5.9 3.5 9.6 0 1.9-.5 3.8-1.6 5.4-.2.3-.3.6-.4 1-.1.6-.3 1.2-.6 1.7-.8 1-1 1.1-2.1-.2-1.9 2.9-4.1 5.2-6.8 6.8-.4-.5-.1-.9.1-1.3.3-.6.4-1.3.2-2-.1-.3-.2-.5-.5-.6-.3 0-.5.2-.7.4-.7 1-.2 2.9.9 3.5z"/><path fill="gold" d="M120.5 43.9c-.1-.3-.4-.5-.3-.8.4-.3.3-.9.7-1.2 1.5 1.7 1.6 2.6.5 4.6-.1.2-.1.4.1.5-.1-.2-.3-.2-.5-.1-2.4 1.4-4.7.6-6.9-.4-.4-.2-.6-.8-1.2-.4.4-.5-.2-.6-.4-.8-.7-.8-1.4-1.5-1.5-2.6.3-.6.5-1.3.9-1.9.1-.1.2-.1.2-.3.1 0 .2-.1.2-.2 0 .1.1.2.1.3-.2 2.8 1.1 4.5 3.9 5.1.4.1.8 0 1.1.3 0 .1-.1.2-.2.1s-.3 0-.1 0c1 .3 1.8 0 2.6-.6.8-.4 1.1-.9.8-1.6z"/><path fill="#44d262" d="M57.6 310.8c-2.7 2.9-3.6 6.4-3.9 10.2-.1 1.7-.1 3.4.2 5 .1.6 0 1.1-.6 1.4-4.3 1.8-8.8 2.8-13.4 1.4-1.7-.5-2-1-2.1-2.6-.2-4.9.5-9.6 3-14 .5-.8 1.1-1.6 1.6-2.3.1-.2.1-.4.2-.5.2-.1.4-.1.5-.3.2-.2.4-.3.6-.7-.2.3-.4.5-.6.7-.1.2-.4.2-.5.3-.2.1-.1.5-.4.3-2.9 3-4 6.7-4.7 10.7-.4 2.1-.3 4.3-.2 6.5 0 .4.1.7-.2 1.2-2.7.1-5.4-.1-7.6-1.9-2.1-1.7-2.8-4-2.5-6.6.4-3.7 1.5-7.2 4.2-10.2-1.5.6-2.3 2-3.9 5.8-2.1.4-3 2.5-1.5 4.2.7.8.7 1.6.6 2.6-.9-.7-1.1-1.5-1.4-2.4-2-6.9 3.6-15.3 9.4-16 2.6-.3 4.6-2.2 6.4-4 .5-.5.7-1.2.9-1.9 1.3-5.5 1.4-11.2 1.7-16.8.5-9.1-.5-18.2-1.8-27.2-.1-.4-.1-.9-.1-1.3.5-.4 1-.4 1.6-.4 7.7-.2 14.1-5.2 16.1-12.6 1.6-5.9 2.4-12 3.3-18 1.2-8 1.8-16.1 2.8-24.2.7-6.2 1.3-12.5 1.8-18.7.3-4.1.6-8.3.5-12.4 0-4.7-.1-9.4-.5-14.1-.3-4.1-.6-8.1-1-12.2-.1-.6-.1-1.2.3-1.7 2.3 3.4 5 6.6 6.8 10.6.8-1.4.8-2.8 1.1-4.3 2.4 4.2 5.6 7.5 8.3 11.5 2.7-3.9 5.9-7.3 8.3-11.5.4 1.5.3 2.9 1.1 4.3 1.8-3.9 4.5-7.2 6.8-10.6.5.5.4 1.1.3 1.7-.6 5-1 10-1.2 15-.2 3.4-.5 6.9-.4 10.3.2 7.2.6 14.4 1.3 21.5.7 6.6 1.4 13.1 2.1 19.7.8 8.5 1.9 16.9 3.4 25.3.5 3 1.1 6 2 8.9 2.2 6.4 6.8 10 13.2 11.4.9.2 1.9.3 2.9.3.5 0 1 0 1.4.3-.6 4.6-1.3 9.2-1.7 13.8-.5 5.1-.5 10.1-.3 15.2.2 5.2.4 10.3 1.4 15.4.4 1.9 1.3 3.3 2.8 4.4 1.7 1.2 3.5 2.2 5.6 2.8 4.1 1 6.4 4.1 7.9 7.7 1.2 2.8 1.5 5.8.3 8.8-.2.6-.5 1.2-1.2 1.7 0-1-.3-1.8.7-2.5.9-.7 1-2 .6-3.1-.3-.9-1-1.4-2-1-1.9-5.7-5.4-9.4-11.6-9.9 1.1.5 2.4.5 3.5 1 5.4 2.4 7.6 6.9 8.3 12.4.3 2.4.1 4.7-1.8 6.6-2.2 2.2-5 2.5-7.9 2.5-.8 0-.6-.7-.6-1.2.4-3.8-.1-7.6-1.3-11.2-1.1-3.2-2.8-6.1-5.9-7.9-.6-.3-1.2-.7-1.9-.7 7.1 3.7 8.5 10.3 8.7 17.3.1 4.1-.2 4.4-4.3 5-3.9.6-7.5-.3-11.1-1.8-1.1-.5-.7-1.4-.6-2.1.5-4 0-7.8-1.7-11.4-.3-.5-.5-1.1-.9-1.5-.2-.1-.4-.3-.6-.5-.4-.9-1.2-1.4-1.9-2.1-.5-.3-1-.5-1.5-.7.5.3 1 .5 1.4.7.7.7 1.5 1.3 2 2.2.1.2.4.3.4.6 2.4 4.1 2.9 8.5 2.4 13.1-.1.8-.4 1.1-1.2 1.3-4.3.7-8.8-1.3-11.1-5-2.5-3.9-3.8-8-3.7-12.7.2-8.1-.1-16.1-.4-24.2-.2-3.8-.7-7.5-1.3-11.2-1-6.5-1.7-12.9-.8-19.5.4-3.2 1.5-6.2 2.1-9.5.8 1.2.8 2.5 1.7 3.5-.8-2.4-1.5-4.9-2.3-7.3-3.3-10.4-5.3-21.1-6.7-32-.2-1.7-.5-3.3-.5-5 0-.9.2-1.4 1-1.9 3-1.8 4.9-4.5 6.6-7.5.1-.3.2-.5.3-.8l.1-.1s0 .1-.1.1c-.2.2-.1.6-.5.6-1 1.3-2.1 2.6-3.1 3.9-4.7 5.8-12 5.8-16.7 0-1.2-1.4-2.3-2.9-3.4-4.3-.1 0-.2 0-.1.1 1.7 3.1 3.7 6 6.8 7.9.7.4 1 1 1 1.9-.3 4.6-1.1 9-1.8 13.5-1.6 9.9-4 19.6-7.3 29.1-.2.4-.2.9-.3 1.4.7-.9.8-2.1 1.5-3.3 1.2 4.6 2.4 8.9 2.5 13.5.2 6.7-.9 13.2-1.8 19.8-.6 4.2-.8 8.3-.9 12.5-.2 7-.2 14.1-.3 21.1 0 3.7-1.7 6.8-3.6 9.9-2.2 3.6-6.8 5.6-11 5-1.1-.1-1.3-.6-1.4-1.5-.5-5.2.2-10.1 3.6-14.4 0-.2.2-.2.3-.4l.3-.3.5-.5-.5.5-.3.3c-.3.2-.4.4-.6.2z"/><path fill="#44d262" d="M108.6 75.5c-2.7 1-5.2 2.3-8 3.8 1.1 0 1.7-.6 2.4-.7.7.8 1.2 1.6 1.1 2.7 1.7 3.1 3.2 6.3 4.6 9.6-1.9.3-3.2-.7-4.7-1.8 3 3.2 1.9 7.5 3.2 11.2-1.8-.3-3.3-1-4.7-1.9-1.4-1-2.6-2.2-3.3-3.8.4 1.8.9 3.6.3 5.4-.4 1.4-.9 2.7-1.9 4.1-.4-1.6-.4-3-.9-4.4-.1 0-.2 0-.2.1-1.2 4.1-4.5 6.4-7.3 9.1-.8.8-1.8 1.5-2.4 2.5-.1.2-.1.3-.2.5s0-.1 0-.1c.1-.1.1-.4.3-.3 2.5-2.6 5.7-4.6 8-7.5.6-.7 1-1.5 1.6-2.5.2 1.4.5 2.7.7 3.9 1.9-2.2 3.1-4.7 3.3-7.7 2.3 1.9 4.7 3.3 7.9 3.3-.4-1.3-1.4-2.3-1-3.5 2.6 3.5 4 7.5 4.8 11.8.2 1 .6 2 .9 3v.1h-.1c-1.8-.5-3-1.7-4.1-3.2 2.4 4.1.9 8.4 1 12.9-2.2-1.2-3.3-3.3-4.8-5 1.6 4.1.8 8-.4 12.2-.9-1.5-1.2-2.9-1.5-4.5-1 8.7-6.4 15.1-10.8 22.1-.6-1.4-.3-3-.7-4.5-2.4 4.4-5.6 8.2-8.7 12.2-3.1-3.9-6.4-7.7-8.8-12.2-.3 1.5-.2 3-.6 4.6-3.8-6-8.2-11.5-10.1-18.3-.3-1.2-.5-2.5-.9-3.8-.3 1.5-.6 2.9-1.4 4.3-.8-1.9-1-3.8-1.2-5.7-.3-2 .1-3.9.7-6-1.7 1.6-2.6 3.6-4.7 4.7.1-4.3-1.4-8.6.9-12.7-.7.5-1.1 1.3-1.8 1.8s-1.4 1.1-2.3 1.3c-.1 0-.1-.1-.2-.1 1.1-2.7 1.2-5.7 2.3-8.4.9-2.2 1.9-4.3 3.2-6.3.2.9.2 1.1 0 1.7-.2.6-.7 1-.7 1.8 3.1 0 5.5-1.4 7.8-3.3.1 3 1.4 5.4 3 7.9.8-1.3.4-2.6 1-3.9 1.9 3.3 4.7 5.6 7.6 7.7-2.8-3.1-6.5-5.4-7.7-10-.7 1.6-.8 3.1-1 4.8-1.1-1.6-1.7-3.1-2-4.7-.4-1.6.1-3.2.5-4.9-.7 1.6-1.9 2.8-3.3 3.8s-3 1.7-4.8 2c.9-1.8.7-3.6 1-5.3.3-2.1.7-4.2 2.3-5.9-1.4 1.1-2.8 2.1-4.7 1.8 1.5-2.8 2.5-5.9 4.2-8.6.2-.3.4-.6.3-1 .1-1.1.7-1.9 1.3-2.7.7.1 1.2.7 2.3.7-2.7-1.5-5.3-2.7-7.9-3.8-3.1-1.9-4.6-4.9-4.3-8.3.4-4.6 3.5-7.2 7.9-8.3-.1-1-.7-1.7-.8-2.6-.1-.6-.3-1.1-.2-1.7.5-2.9 1.6-5.6 3.1-8.1.1-.1.2-.1.3-.2 1.4-1.8 2.8-3.6 4.7-4.8.6-.4 1.1-.7 1.9-.8-.3.9-1 1.2-1.6 1.9 2.1.1 3.9-.4 5.6-1.4.1 0 .1 0 .1.1-.2 1.6 0 3.1.5 4.6 0 .1 0 .1-.1.1-2.3-2-3.7-2.1-6.1-.1-2.7 2.2-4.1 5.1-4.5 8.6-.2 1.4 1.8 3.9 3.1 4.1l.1.1.1.1c.1 0 .1.1.2.1 0 .1-.1.2-.1.2 1.1 1.3 5 2.6 6.6 2 1-.3 1.8-1 2.2-2 .6-1.4.8-2.8.7-4.3-.1-1-.1-2 .7-2.8.5-.5.7-1.3 1.1-2.3.5 3.4 2.6 6 3.7 9.4 1-2.5 1.6-4.8 2.8-6.9.1 1.4.2 2.7.6 4.1 1.1-2.4 2.6-4.5 4.2-6.6.2 0 .2 0 .2.2-.4 2.5-.8 5-.3 7.5.4 1.8 1.1 3.6 3.3 3.8 2.5.3 4.6-.8 6.4-2.4 0 0-.1-.1-.1-.2.7.3.8-.4 1.2-.6 2.1-1.6 2.4-3.7 1.5-6.1-1-2.7-2.4-5.1-4.9-6.7-.4-.2-.7-.4-.6-.9.2-1.1.2-2.3.6-3.5 2.6 1.3 4.3 3.3 5.8 5.5.9.5 1.1 1.4 1.4 2.2 1 2.2 1.9 4.4 1.8 6.9 0 1.2-.6 2.2-1 3.4 3.9.8 6.6 3 7.8 6.7 1 3.3-.6 7.7-3.2 9.5-.2.1-.4.1-.5.2-.4-.3-.5-.2-.6-.1z"/><path fill="#76e9c8" d="M66.6 137.9c-.1 2.4.4 4.8.5 7.2.1 2.7.5 5.5.6 8.2.2 4.1.5 8.2.4 12.3-.1 4.9-.2 9.9-.8 14.8-.4 3-.5 6.1-.8 9.2-.4 3.9-.8 7.8-1.3 11.8-.4 3.2-.8 6.4-1.1 9.6-.3 3.6-.8 7.1-1.3 10.7-.7 5.4-1.6 10.8-2.8 16.1-1.7 7.4-6.2 12.2-13.6 14-1.6.4-3.2.4-4.9.4-.9-5-1.8-10-1.6-15.1.3-7.2.9-14.3 2.5-21.4 1.7-7.5 3.6-14.8 5.8-22.1 2-6.9 4.2-13.8 5.5-20.8 1.3-7 2.2-14.1 2-21.2-.1-6.2-.2-12.4-.8-18.6-.3-3.4-.3-6.8-.4-10.2 0-.6.2-1.2.3-2 .4.9.1 1.5.2 2.1 1.2-.2 2-.7 4.1-2.8-.6 3.7.5 6.9 1.4 10.2 1.1-.5 1.2-1.6 1.8-2.5 1 3.4 2.5 6.6 4 9.7.1.2.2.3.3.4zM124 252.1c-7.5.1-13.3-2.9-16.9-9.6-1.3-2.4-1.8-5-2.3-7.7-.6-3.4-1.3-6.8-1.8-10.2-.5-3.5-1-7-1.4-10.5-.5-3.9-.9-7.8-1.3-11.8-.5-5.1-1.2-10.2-1.6-15.3-.4-4.6-.9-9.2-1.1-13.8-.2-3.5-.3-6.9-.2-10.4.2-6.2.5-12.3 1.1-18.5.2-2.1.6-4.3.5-6.4 1.6-3.2 3.1-6.5 4.1-10 .6.9.7 2 1.8 2.6.9-3.4 2-6.6 1.4-10.3 1.3 1.2 2.5 2.4 4.1 2.9.2-.7-.2-1.3.2-2 .6 1.7.4 3.4.3 5-.3 5.3-.7 10.7-.9 16-.2 5-.4 10-.1 15 .5 10.4 2.6 20.4 5.6 30.3 3.2 10.6 6.3 21.2 8.3 32.1 1.5 8.3 2.4 16.8 1.4 25.3-.3 2.4-.8 4.8-1.2 7.3z"/><path fill="#44d262" d="M141.5 143.1c1.3 3.6 2.5 7.3 3.5 11.1 2.2 8.1 4.6 16 8.1 23.6 1.2 2.5 2 5.2 3 7.8 1 2.6 2.4 5 4.1 7.1 2.1 2.5 3.7 5.3 4.4 8.6.5 2.4.2 4.8-1 6.9-.4 0-.4-.3-.5-.4-.8-.8-1.7-.7-2.2.4-.3.7-.3 1.3-.1 2 .2.7-.2 1-.9 1.1.5-5.6-.9-10.6-4.4-15-.3-.2-.2.1-.2.2 2.3 3.4 3.8 7.1 4.2 11.2.3 3.6-1 6.4-4.2 8.1 0-1 .2-2-.7-2.7-.3-.2-.5-.3-.9-.3-1.1.1-1.6 1.2-1.7 3.8-1.5.2-2.9-.2-4.2-.8-.6-.3-.5-.9-.4-1.4.4-4.9-.3-9.7-1.8-14.4-.2-.6-.3-1.2-1.1-1.9 1.3 3.3 1.8 6.5 2.2 9.7.2 2.2.4 4.4.2 6.6-.2 1.6-1.9 3-3.9 3 0-.7.1-1.5 0-2.2-.1-.8-.5-1.5-1.4-1.6-.9-.1-1.3.7-1.5 1.4-.2.7-.1 1.4 0 2.1-3.6-.3-6.3-3.5-6-7.2.2-2.5.7-4.9 1-7.4.1-.6.3-1.2 0-1.8-.6-.1-.6.4-.8.7-.5 1-1 1.9-1.7 2.7-1.4 1.6-3.1 2-5.1 1 .6-1 .9-2.2-.4-2.9-1.1-.6-1.6.3-2.1 1.1-1.9-1.9-2.2-5.1-.7-7.8 1-1.9 2.5-3.5 4-5.1.6-.6 1.2-1.3 1.4-2.2.4-1.6.8-3.3 1.6-4.8.7-1.5 1.6-2.9 2.8-4.1-1 .3-1.7 1-2.4 1.9-.2-.8-.4-1.4-.7-2-1.3-3.6-2.6-7.2-3.8-10.9-1.2-3.6-1.9-7.3-2.4-11.1-.4-2.5-1-5-2.1-7.3.6-1.1 1.6-1.5 2.6-2 3.7-1.9 7.6-3.3 11.6-4.4 1.1-.3 2.1-.6 3.3-.8.4.2.9.1 1.3.4zM31.7 179.8c2.1 2.1 3.3 4.7 3.9 7.5.3 1.4 1 2.5 1.9 3.5 1.4 1.4 2.7 3 3.7 4.7 1.4 2.6 1.2 5.6-.5 7.8-.6-.8-1.2-1.7-2.2-1-1.1.7-.9 1.8-.3 2.8-1.6.9-3.3.8-4.6-.4-1.3-1.1-1.9-2.7-2.9-4.3-.4.9-.2 1.6-.1 2.2.3 2.4.8 4.7.9 7.1.2 4-1.7 6.5-5.8 7.5.1-.8.3-1.5.1-2.3-.2-.8-.6-1.5-1.5-1.4-.9.1-1.3.8-1.4 1.6-.1.7 0 1.4.2 2.1-1.9.4-4-1.3-4.1-3.3-.3-5.3.5-10.4 2.1-15.4 0-.1-.1-.2-.2-.2-1.1 1.8-1.5 3.9-1.9 5.9-.6 3.3-1 6.7-.6 10.1.1.8-.2 1.3-1 1.5-1.1.4-2.3.6-3.6.7 0-.7.1-1.3 0-1.9-.1-1.1-1-2.1-1.8-1.9-1.1.2-1.4 1.1-1.4 2.1v1c-2.3-1.4-4-3-4.2-5.6-.4-4 .6-7.7 2.5-11.2.5-.8 1-1.7 1.4-2.5-.1-.1.1-.2 0-.4-.1.1-.2.1-.3.2-3.4 4.3-4.7 9.2-4.2 14.7-.6 0-.9-.3-.8-.8v-1.1c0-.8-.2-1.4-1-1.7-.6-.3-.9-.1-1.9 1.1-1.6-2.6-1.7-5.4-.9-8.2.6-2.2 1.6-4.4 3.1-6.2 3.3-3.9 5.3-8.4 7-13.1 1.1-3.3 2.6-6.4 3.9-9.6 2.4-5.7 3.8-11.8 5.5-17.7 1-3.5 2.1-7 3.4-10.5.4-.3.8-.2 1.3-.2 5.9 1.3 11.6 3.2 16.8 6.3.3.2.7.3.7.7-1.9 3.8-2.2 8-2.9 12-.9 4.7-2.5 9.3-4.2 13.8-.7 1.8-1.2 3.6-1.9 5.5-.7-.6-1.2-1.4-2-1.7-.3-.1-.2.1-.2.2z"/><path fill="#76e9c8" d="M42.9 150c-3.6-2.2-7.4-3.8-11.4-5.1-2.4-.8-4.8-1.5-7.4-1.8.6-1.8 1.1-3.6 1.7-5.4 3-9.9 5.2-20 6.5-30.3.2-1.5.5-2.9 1.3-4.4-1.1.5-1.9 1.2-2.9 1.4.3-1.6 1.3-3.9 2.4-5.1-.7-.2-1.2-.3-1.8-.5-.6-.2-1.1-.4-1.9-.7 3.2-1.3 3.9-4.9 7.2-5.8-.6-.4-1.2-.7-1.4-1.3 6-.3 11.6-2.3 17.2-4.3 2.1-.7 4.2-1.3 6.3-1.9.1 0 .1.1.2.2-1 2.2-1.5 4.6-3.3 6.6 1.4.5 2.6-.2 3.9-.2-.4 1.2-.5 2.4-.7 3.5-.1.5-.2 1-.5 1.4-2.7 4-4.6 8.4-5.4 13.2-.2 1.3-.8 2.6-1.4 4 1.5-.1 2.6-1 3.9-1.5-.4 1.9-.3 3.7-.2 5.5.1 1.5-.5 3-1 4.4-3.1 8.4-6.3 16.8-9.4 25.2-.8.9-1.2 1.9-1.9 2.9zm98.6-6.9c-3.6.5-7 1.7-10.4 2.9-2.9 1.1-5.8 2.3-8.3 4.1-1.4-2.3-2.2-4.9-3.2-7.5-2.1-5.6-4.2-11.1-6.3-16.7-1-2.7-2.4-5.3-2.6-8.2-.1-1.9.2-3.9-.3-5.9 1.4.6 2.4 1.5 4 1.6-1.5-2.3-1.6-4.9-2.3-7.3-.9-3.3-2.3-6.4-4.2-9.2-.6-.9-1-1.8-1.1-2.9-.1-.9-.2-1.8-.6-2.7 1.3 0 2.6.6 4 .2-1.8-2-2.3-4.4-3.4-6.8 3.7 1 7.2 2.2 10.7 3.4 3.4 1.2 6.9 2.2 10.6 2.6.8.1 1.5.1 2.3 0 .1 0 .1.1.2.2-.2.6-.9.9-1.5 1.3 3.2.9 4 4.6 7 5.8-1.1.8-2.4.8-3.6 1.3 1.5 1.4 1.7 3.3 2.6 5.1-1.1-.1-1.8-.8-2.6-1.1-.2-.1-.1.1-.2.1 1.1 2.3 1.1 4.9 1.5 7.3 1.7 10.7 3.9 21.2 7.5 31.4.1.4.1.7.2 1zm-50-116c1.6 1.8 3.2 3.5 4.1 5.8.8 2.3 1 4.7.6 7.1-.2 1.2-.4 2.5-.6 3.9-1.3-2.2-1.3-4.5-1.8-6.8-.1.8-.3 1.7-.3 2.5 0 2.5-.9 4.6-2.2 6.6-1.3 1.9-2.7 3.8-4.1 5.6-.6.9-1.2 1.8-1.7 3.1-.4-2.6 0-4.9.3-7.3-1.2 3.2-3 6.1-3.8 9.4-2.3-4.1-4.5-8.2-3.2-13.1-1.1 2.5-.7 5.4-2.4 8-.3-3.1-1.7-5.6-2.1-8.4-.3-1.9.2-3.7 1.2-5.4-.1-.1 0-.2.1-.3v-.1c0 .1-.1.1-.2.2-.2.3-.5.6-.7.9-1 2-2.8 2.8-5.2 3 2.2-2.5 2.8-6 5.7-7.7 0-.1 0-.2-.1-.1-3.2 1.5-6.8-.2-8.7-4 4.3 1.5 7.8-1.2 11.7-1.8-.5 0-1-.1-1.5 0-2.3.4-4.1-.4-5.6-2-.1-.1-.2-.2-.4 0-.1-.8-.5-1.3-1.2-1.7.3-.4-.3-.6-.1-1 2.5 1.2 5.1 1.8 7.9 1.8-1.9-.5-4.1-.5-5.5-2.5 2.2.8 4.3.5 6.4 0 3.4-.8 6.7-.7 10 .6 0 .1.1.1.2.1h.1l-.1-.1c-.1 0-.1 0-.2-.1-.3-.6-.8-.6-1.3-.8-1.7-.7-2.8-2-3.4-3.9 2.8 1.9 6.1 2.4 8.2 4.9.1-.1.2-.1.2 0h.1c-.1-.1-.1-.2-.1-.3-.5-1.3-1-2.5-.9-4.3.9 1.9 1.4 3.7 3 4.8-.5 1.2-.9 2.3-1.3 3.4-.6.3-.7-.1-1.1 0v-.2.1h.1c-.1 0-.1 0-.1.1z"/><path fill="#44d262" d="M60.8 5.2c.9-.3 1.4.2 1.7 1 .8 1.9 1.1 3.9 1.4 5.9.5 4.7.9 9.5.7 14.2-.1 3.5-.3 6.9-.4 10.4 0 .2 0 .5-.2.7-1 1.3-1.8 2.7-2.5 4.3-.5-.5-.9-.9-1.3-1.4-.3.1-.3-.3-.4-.4-1.3-1.4-2-3.1-3-4.7 1-.6 1.9.2 2.7.1-.1-.4-.3-.7-.5-1-.8-1.4-1.3-2.9-1.3-4.5 0-1-.4-2-.6-3-.1-.4-.4-.7-.1-1.1.2-.2.3 0 .5.1.7.4 1.2 1.2 2.1 1.5l.3.3c-.1-1.6-.7-3.1-.3-4.7.1-.1.2-.1.3-.1.4.2.6.5.7.9-.1-1.9-.5-3.7-.4-5.4-.3 1.3.5 2.7.2 4.1-.1.1-.1.2-.2.2-.4-.1-.5-.5-.8-.7.3 1.2 0 2.5.4 3.7.1.4.1.8-.1 1.2-.4.3-.7.1-1-.2-.3-.3-.6-.5-.9-.7-.1-.1-.3-.2-.4-.3-.2-.1-.5 0-.4.2 1 2.3.6 4.9 1.5 7.3.2.5.4 1 .8 1.4.3.9-.4.7-.8.7-.5-.1-1-.3-1.9-.2 1.3 1.7 1.9 3.6 3.3 5 .2.2.2.4.3.6 1.5 1.2 1.1 2.6.4 4.1-1 2.2-2.3 4.2-4.2 5.9-1.4-2.3-2.3-4.6-2.9-7.2-1.4-6.2-1.2-12.5-.4-18.8.7-5.5 2.4-10.7 5-15.6.1-.2.4-.4.1-.7 0 0 0-.1.1-.1.1-.2.2-.3.3-.5 0-.1.1-.2.2-.2 0-.2.1-.4.2-.5 0-.1.1-.2.2-.2l.3-.3.2-.2c.1-.1.2-.3.3-.4 0-.1.1-.1.1-.2l.2-.2c.1-.1.1-.1.2-.1s.2-.1.2-.1c0-.1.1-.1.1-.1zm46.1 2.3c-.2.4.1.6.2.8 3.6 6.3 5.2 13.1 5.8 20.3.3 3.6.2 7.2-.1 10.7-2.4.9-3 2.7-1.7 4.9.4.7.4 1.2.1 1.9-.6 1.5-1.2 2.9-2.1 4.4-2.5-2.3-4.1-5-5-8.2 0-.2.1-.4.2-.6 0-.6.5-.7.8-1.1.2-.2.1-.4.3-.6 1.5-1.5 2.2-3.4 3.4-5.1-.9-.6-1.7.6-2.5-.1.3-1.4 1.3-2.6 1.4-4.1.1-1.8.5-3.5 1-5.3-.9.2-1.3.8-1.9 1.3-.2.2-.4.2-.6.3-.5.1-.6-.2-.5-.5.3-1.5.4-3.1.5-4.8-.3.1-.4.4-.7.5-.1 0-.2 0-.3-.1-.4-1.4.4-2.7.2-3.8-.1 1.5-.3 3.4-.5 5.2.2-.3.4-.7.9-.8.7 1.7-.3 3.3-.3 4.9.3-.1.4-.4.7-.4.2-.2.4-.2.6-.3.5-.3.7-1 1.4-1 .1.1.2.2.2.3-.3 1.5-.7 2.9-.7 4.5 0 1.5-.9 2.9-1.5 4.3-.1.2-.2.3-.3.5.9.1 1.7-.7 2.7-.1-1 1.7-1.8 3.5-3.1 4.9-.2.1-.2.4-.3.5-.3.3-.6.7-1 1-.2 0-.3-.1-.4-.3-.2-.5-.3-1-.7-1.4-2-2.2-1.8-4.9-1.9-7.6-.2-3.7-.4-7.5-.2-11.2.2-4.1.4-8.2 1.2-12.2.2-.9.5-1.8.8-2.6.3-.8.8-1.3 1.8-1.1h.1c.1.1.2.1.3.2l.2.2.2.2.1.1.2.2c.1.1.1.2.2.2.3.4.6.7.8 1.1v-.1z"/><path fill="#76e9c8" d="M46.5 33.5c.6.8 1.2 1.7 1.9 2.5-.1-2.6.1-5.2.5-7.7 1.3-7.5 2.9-15 6.8-21.7 1-1.8 2.1-3.6 3.9-4.8 2.1-1.6 3.5-1.3 4.9.9 2.5 3.9 3.4 8.4 4.1 12.9.4 2.4.6 4.9.9 7.2-.5.4-.7-.2-1.1 0 .2.7.4 1.3 1 1.8.6 1.7.4 3.4.5 5.2-1.5.2-2.9.2-4.2-.7.3 1.6 1.2 2.9 3.3 4.8-1.5.5-2.8 1.4-4 2.5-.2-2.2.1-4.2.2-6.2.3-6.7.2-13.3-.7-19.9-.3-1.9-.8-3.7-1.7-5.3-.2-.3-.2-.8-.7-.8 0 .2 0 .5-.3.5s-.7 0-.7.5c-.1.2-.4.1-.5.2l-.3.3c-.2.2-.3.5-.5.7-.1.2-.3.3-.5.5s-.2.6-.5.7c-.2.2-.2.5-.5.7-1.6 2.1-2.5 4.6-3.4 7.1-1.9 5.1-2.7 10.6-2.8 16.1-.2 4.8 0 9.6 1.6 14.3.6 1.8 1.4 3.5 2.3 5.2-1.5 1.5-3.2 2.6-5.1 3.7-1.8-2.1-3.1-4.7-5.1-6.9 1.5 0 2.6.8 4 1-3.4-2.6-3.9-6.5-4.5-10.4.9.6 1.7 1.2 2.6 1.8l.1.1-.1-.1c-1.1-2.2-1.5-4.4-1.4-6.7zm57.3-29.6c-2.1 2.9-2.6 6.2-2.8 9.6-.3 4-.6 8-.5 12 .1 3.6.3 7.2.5 11-1.4-1.2-2.8-2-4.3-2.7-.7-.3-.9-1.6-.8-2.6.1-5.8.6-11.6 1.6-17.4.7-3.9 1.6-7.7 3.8-11.1 1.4-2.2 2.8-2.5 4.9-.9 2.5 1.9 4 4.7 5.3 7.4 3.4 7.4 5.1 15.3 5.8 23.4.1 1.1 0 2.2 0 3.5.6-.9 1.2-1.8 2-2.9-.2 2.6-.3 4.8-1.4 6.9 0 .1 0 .2.1.1.8-.6 1.7-1.2 2.6-1.9-.5 2.1-.7 4.1-1.4 6.1-.3.8-.8 1.1-1.6.9-1.1-.2-2.2-.4-3.1-1.1-.9-.7-1.6-1.4-1.4-2.9 1.2-10.3.4-20.3-3.9-29.9-.6-1.4-1.2-2.8-2.2-3.9L105.8 6l-.3-.3-.3-.3c-.1-.2-.3-.4-.5-.5 0-.4-1.3 0-.9-1z"/><path fill="#76e9c8" d="M63 46.3c-1 2-1.9 4-2.6 6.2-.7 2-.5 3.8.4 5.7.2.3.3.6.5 1-.6.4-1.3.3-2 .5-5.9 1.7-8 8.2-4.5 13.6.6.9 1.4 1.6 2.2 2.3-3.5-1.2-7.2-1.7-11.1-1.5.1-2.2.7-4 1.8-6-1.3.5-2.2 1.3-3.3 2.1.1-1.7 1-2.8 2-3.9-1.1-.5-2.3-.4-3.3-1.1 2.7-1.9 3.8-5.2 6.5-7.3-.6-.3-1.4-.1-2-.6 4-1.4 7.1-3.9 9.9-6.8 1.8-1.8 3.1-3.9 3.9-6.4.7-2.2 1.8-4.3 3.1-6.2.8-1.1 1.8-2 2.9-2.6 1.1-.6 2.1-1 3.4-.4.6.3 1.3.3 2 .5-.6 1-1.1 2.1-2.6 2.2-1.6.2-3 1.2-4 2.4-1.4 1.9-2.6 3.9-3.2 6.3zM109.4 75c.9-1.2 1.8-2.4 2.5-3.8 2.6-5.2-1.5-11.1-6.1-11.9-.5-.1-.9-.2-1.5-.3.5-1.3 1.2-2.4 1.3-3.8.1-2.2-.8-4.2-1.6-6.2-.4-1-.9-1.9-1.4-2.8-.7-3.1-2.3-5.7-4.8-7.6-.7-.5-1.1-1-.9-1.8.1-.7 0-1.4-.3-2.3 1.9.5 3.2 1.6 4.3 3 1.2 1.6 2.2 3.3 2.9 5.2 2.6 6.9 7.3 11.7 14.2 14.4-.6.5-1.3.3-2.1.5 2.7 2.1 3.8 5.4 6.6 7.4-1 .7-2.2.6-3.3 1.1.9 1.1 1.8 2.3 2 3.9-1.1-.6-1.9-1.5-3.2-1.9 1 1.9 1.6 3.7 1.7 5.8-2 0-4 0-5.9.2-1.5.3-2.9.9-4.4.9z"/><path fill="#fff" d="M69.8 60.1c-1.2 0-1.9-.9-2.9-1.3-.1-.1-.4-.1-.5-.3.1 0 .1 0 .1-.1-.2-.3-.4-.6-.7-.8-1.7-1.5-1.9-3.3-1-5.3.8-2 1.9-3.9 3.9-5.1 2.4-1.5 4.3-1 5.8 1.4.8 1.3 1.1 2.7 1.4 4.2 0 .3-.2.2-.3.2 0 0-.1 0-.1-.1l-.2-.2c0-.1-.1-.1-.1-.2s-.1-.1-.1-.2-.1-.1-.1-.2l-.2-.2-.2-.2-.1-.1-.2-.2-.2-.2c-.1-.1-.3-.2-.5-.3-.1 0-.2-.1-.3-.1-.8-.3-1.6-.3-2.4.1-.1.1-.2.1-.2.2-.1.1-.2.1-.2.2l-.2.2-.3.3c-.1.1-.1.2-.2.2-.1.1-.1.2-.2.2l-.1.1c-1.2 2.2-1.2 4.3 0 6.5.1.1.1.2.2.3.1.5.2.7.1 1zM99 58.6c-1 .5-1.9 1.3-3.2 1.6.6-1 1.3-1.8 1.3-2.9 0-.2.1-.4.1-.6.1-1.5.2-2.9-.9-4.1 0 0-.1 0-.1-.1-.1-.1-.2-.3-.3-.4l-.2-.2-.2-.2-.1-.1-.2-.2-.2-.2c-1.1-.7-2.2-.7-3.3 0l-.2.2-.2.2-.1.1c-.1.1-.2.1-.2.1h-.1c-.5.1-.5.7-.8.9-.1-1.9 1-4.4 2.4-5.5 1.1-.9 2.4-1 3.6-.4 3.1 1.6 4.7 4.3 5.2 7.6.2 1.1-.4 2-1.1 2.8-.4.6-1 .9-1.2 1.4 0 .1 0 0 0 0z"/><path fill="#76e9c8" d="M112.9 45.9c1 1.2 2.5 1.4 3.8 1.9 0 .5-.6.5-.8 1.1 1.3-.3 2.3-1.1 3.8-1-1.9 2.1-3.2 4.6-5 6.7-1.9-1-3.6-2.2-5.1-3.6.9-1.8 1.7-3.5 2.3-5.4.5-.1.7.5 1 .3.1.1 0 0 0 0zm-37.4 7.2c.4 1.6.6 3.3 0 4.9-.9 2.6-2.9 3.5-5.3 2.1-.3-.2-.5-.5-.7-.7-1.5-2.4-1.4-4.8 0-7.2.1-.1.2-.1.2-.2l.5-.5c.1 0 .2-.1.2-.2 1-.6 2.1-.8 3.2-.2.2.2.5.3.7.5.1.1.1.2.2.2.1.1.1.2.1.3 0 .1-.1.2-.2.3-.8 0-1.5.2-2.1.8-1.6 1.1-2.2 3.1-1.3 4.7.3.6.7 1.1 1.4 1.1.7-.1 1-.6 1.3-1.1l.3-.9c.3-.5.3-.9 0-1.4-.1-.2-.1-.3-.1-.5.5-.9.2-1.9.5-2.8.2-.1.3-.1.5 0 .1.2.1.4.3.5.2 0 .1.2.3.3zm20.9-.5c.2.8.4 1.5.5 2.3.3 1.6-.1 3.1-1 4.4-1.4 2.1-3.9 2.1-5.2 0-1.2-1.9-1.4-4-.5-6.1.2-.4.6-.7.6-1.3.1-.1.2-.1.3-.3.1-.1.2-.1.3-.3 1.7-1.1 2.5-1.1 4.1 0 .1.1.1.2.3.3.1.1.1.2.3.3 0 .2.1.6.3.7zm-33.8 26c-.2 1-.8 1.8-1.3 2.7-1 1.8-2.5 2.9-4.8 3 1.1-2.2 2.3-4.4 3.4-6.7 1 .3 1.9.6 2.7 1zm41.5 2.6c-.2-.9-1-1.7-1.1-2.7.8-.3 1.6-.7 2.6-1.1 1.2 2.2 2.3 4.3 3.3 6.6 0 .1-.1.2-.2.2-2.1-.1-3.4-1.4-4.6-3zM95.4 31c-.8-1-1.5-1.9-2.2-2.7-.3-.3-.3-.6-.1-1 1.3-3.1 2.4-6.2 3.2-9.5-.6 4.4-.8 8.7-.9 13.2z"/><path fill="#fff" d="M154 217.8c-.4-.5-.6.4-1 .1-.4-1-.6-2.2-.3-3.3.1-.6.4-1.2 1.2-1.1.7.1.9.7.9 1.3 0 .8-.1 1.6-.6 2.3-.2.2-.6.4-.2.7zm-141.3.3c-1.3-.9-1.8-2-1.7-3.4 0-.6.2-1.2.9-1.2.7-.1 1.1.5 1.2 1.1.2 1.1 0 2.3-.4 3.5zm11.8.8c-1.1-1.2-1.5-2.4-1.1-3.9.1-.4.4-.8.9-.8s.7.4.9.9c.3 1.2-.3 2.4-.7 3.8zm116.7 0c-.3-1.2-.8-2.2-.7-3.3.1-.6.2-1.4 1-1.4s.9.8.9 1.4c.1 1.2-.2 2.2-1.2 3.3zM3.9 211.8c-1.1-.7-1.6-2.4-1-3.4.2-.3.4-.5.7-.5.5 0 .7.4.8.8.2 1.1 0 2.1-.5 3.1z"/><path fill="#76e9c8" d="M70.5 26.3c.5 1.3 1.8 1.6 2.8 2.6-.9.7-2 .7-3 1-.1-1.2-.1-2.4-.2-3.6.1-.1.2 0 .4 0z"/><path fill="#fff" d="M161.9 212c-.4-1-.7-1.9-.6-2.9.1-.5.2-1.2.9-1.2s.9.7.9 1.2c.1 1.1-.3 2-1.2 2.9zm-36.1-5.6c-.5-1-.3-2-.1-2.9.1-.6.5-1 1.1-.8.7.2.9.8.7 1.4-.4.9-.8 1.7-1.7 2.3zm-85.8 0c-.9-.7-1.3-1.4-1.7-2.2-.3-.6-.1-1.3.5-1.5.7-.3 1.1.2 1.2.9.3.9.3 1.8 0 2.8z"/><path fill="#44d262" d="M92.9 44.7c.3-1 .9-1.9 1.1-3 .5.9.7 1.8 1.3 2.8-.8 0-1.5.1-2.2.4l-.2-.2z"/><path fill="#76e9c8" d="M70.8 23.8c-.8-.2-1.1-.6-1.1-1.4-.1-1.5-.3-3-.4-4.5.5 1.9 1.1 3.8 1.6 5.7.1.1 0 .2-.1.2z"/><path fill="#fff" d="M27.2 315.7c-.2 1.2-.4 2.3-.6 3.4-1.2-1.7-.9-3 .6-3.4zm111.3 0c1.5.4 1.7 1.9.6 3.4-.1-1.1-.3-2.2-.6-3.4z"/><path fill="gold" d="M120.5 43.9c.9.8.3 1.4-.3 1.8-.9.7-2 1-3.1.4.1-.3.4-.1.6-.2 1.7-.1 2.5-.6 2.8-2zm-8.6-3.3c.2.7-.5 1.3-.5 2 0 .1-.3 0-.4 0-.1-.9.2-1.5.9-2zm9 1.2c-.1.5.2 1.2-.7 1.2.1-.4.1-.9.2-1.3.1-.3.3-.1.5.1z"/><path fill="#343434" d="M69.5 59.4c.4 0 .5.4.7.7h-.3c-.1.1-.2.1-.2 0 0-.2-.4-.3-.2-.7z"/><path fill="#76e9c8" d="M108.9 75.3c.1-.2.3-.3.5-.2-.1.3-.3.3-.5.2z"/><path fill="#44d262" d="M89.5 49.7c.1-.1.1-.3.3-.2 0 0-.1.3-.1.4 0-.1-.1-.1-.2-.2z"/><path fill="#343434" d="M97.3 56.8c0 .2 0 .4-.1.6-.1-.3-.1-.5.1-.6z"/><path fill="#76e9c8" d="M71 23.6c0 .1.1.1.1.2-.1.1-.2.1-.3 0l.2-.2zm-24.5 9.9c-.1.1-.1.1-.2 0v-.1c.1 0 .1 0 .2.1z"/><path fill="#44d262" d="M74.2 45.9c0 .1 0 .2.1.3-.1 0-.1-.1-.2-.1 0-.1 0-.2.1-.2zm33.2 51.4c-.1 0-.1 0-.2-.1v-.1l.2.2z"/><path fill="#76e9c8" d="M130.3 90.7h.3c0 .1-.1.1-.1.2l-.2-.2zm-71.7-6c.1-.1.2-.1.3 0 0 0-.1.1-.1.2-.1-.1-.2-.1-.2-.2zm50.3-.6c0 .1.1.1.1.2h-.3c.1-.1.1-.2.2-.2zm-.3-8.6c.1-.1.2-.2.3-.2 0 .2-.2.1-.3.2z"/><path fill="gold" d="M112.4 40.2c-.1.1-.2.1-.2.2-.1-.2.1-.2.2-.2z"/><path fill="#44d262" d="M66.6 137.9c-.1-.1-.1-.2-.2-.3.1.1.2.2.2.3z"/><path fill="#fff" d="M69.7 60.1h.2c0 .2-.1.2-.2.1v-.1z"/><path fill="#44d262" d="M113 112.1v.2l-.1-.1s.1 0 .1-.1zm-60.3.1c-.1 0-.1.1-.2.1v-.3l.2.2z"/><path fill="gold" d="M112.2 40.4c0 .2-.1.3-.2.3-.2-.3 0-.3.2-.3z"/><path fill="#44d262" d="M73.5 41.1l.1-.1v.2l-.1-.1zm19.6 3.7c-.1 0-.1.1-.2.1v-.3c0 .1.1.1.2.2z"/><path d="M123.6 322.6c0 1-.2 2.3-1.3 2.5-1.1.2-1.3-1.2-1.6-2-.3-.5-.3-1.1-.2-1.7.1-.8.6-1.3 1.4-1.4.7-.1 1.2.4 1.5 1 .1.4.2 1 .2 1.6zm-81.5.2c0-.9.1-1.5.4-2 .3-.5.7-.9 1.4-.8.7.1 1.2.6 1.3 1.2.3 1.5-.3 2.7-1.2 3.9-.3.4-.7.2-1-.1-.6-.8-.9-1.5-.9-2.2zm-11.5-2.3c0-.6.1-1.2.4-1.7.3-.6.8-1 1.5-.9.7.2 1.1.6 1.2 1.3.2 1.4-.3 2.6-1.2 3.6-.4.5-.9.3-1.2-.1-.5-.6-.7-1.4-.7-2.2zm104.5 0c-.1 1.2-.2 2.4-1.3 2.5-.9.1-1.2-1.1-1.5-1.9-.2-.5-.3-1-.3-1.5 0-.9.4-1.6 1.3-1.7 1-.2 1.4.5 1.7 1.3 0 .5 0 .9.1 1.3zm-29 .6c0-1.1.4-1.8 1.2-1.9.8-.1 1.2.5 1.5 1.2.4 1.1.2 2.1-.5 3-.2.3-.5.5-.8.3-.9-.7-1.3-1.7-1.4-2.6zm-49.4.3c0-.9.3-1.6 1.1-2.1.4-.3.8-.1 1.2.2.7.6.7 1.4.5 2.2 0 .2-.1.4-.2.6-.4.6-.5 1.6-1.3 1.5-.9-.1-1.1-1.1-1.2-1.9-.1-.2-.1-.4-.1-.5zm-25.3-12.5c1.3-2.1 4.5-3.5 7.6-3.4-2.8.3-5.4 1.5-7.6 3.4zm77.2 3c-.7-.7-1.3-1.4-2-2.1 0-.1 0-.2.2-.2.9.5 1.5 1.3 2 2.1 0 .2-.1.3-.2.2z"/><path d="M106.6 309.9c-.6-.3-1.2-.6-1.9-1 .9 0 1.5.4 2 .8 0 0-.1.1-.1.2zm-60.1-2.8c-.5.3-1.1.5-1.6.8.3-.7.9-.9 1.6-.8zm11.6 3.2c.4-.5.9-.9 1.6-.9-.5.4-1 .7-1.4 1.1-.1 0-.2-.1-.2-.2zm-15.2-1.4c.4-.5.9-.8 1.7-.9-.5.4-1 .7-1.4 1.1-.2 0-.3-.1-.3-.2zm16.9.2c.3-.3.6-.3.9-.2-.2.2-.5.4-.9.2zm34.5-114.5c.2-.3.3-.6.6-.8.1.4-.1.7-.4 1l-.2-.2zM109 312.5c-.1-.2-.2-.4-.4-.6l.2-.2c.1.2.2.4.4.6-.1.1-.2.1-.2.2zm-66.8-2.9c.1-.1.2-.2.3-.4.1 0 .2.1.2.2l-.4.4c.1-.1 0-.2-.1-.2z"/><path d="M43.1 309.1l-.3.3-.2-.2c.1-.1.2-.2.4-.3 0 0 .1.1.1.2zm14.5 1.7l.2-.2c.1 0 .2.1.2.2l-.2.2c-.1-.1-.1-.2-.2-.2zm.3-.3l.2-.2.2.2-.2.2c-.1 0-.2-.1-.2-.2zm12.9-116.1c0-.1-.1-.3-.1-.3.1-.1.2.1.2.1 0 .1 0 .1-.1.2zm24.1-.6c.1 0 .1 0 0 0 .1-.1 0 0 0 0zm9.4-126.9c-.6-.2-1-.9-1.7-.4s-.5 1.2-.4 1.9c.1 1.6.3 3.2-.8 4.7-.1 0-.2 0-.3-.1-.1-.9.5-1.6.5-2.4 0-.5 0-1-.2-1.7-.5 1.9-1.5 3.4-1.8 5.2v.3c-1.1.4-1.5 1.5-2.1 2.3-.6.8-1.2 1.6-2.1 2.1-1.1.7-2 1.6-2.5 2.7-.1 0-.2 0-.3-.1-.1-.3 0-.5.1-.7.1 0 .1-.1 0-.1h-.1c-.6.2-1.3.2-2 .5-.1.7 0 1.3.8 1.5.1 0 .2.1.2.2-1 .9-1.1.8-1.5-.3-.2-.6-.2-1.2-.9-1.8 0 2.2.6 4.2.3 6.4 2-.5 3.2-1.9 4.6-3.1-.9 1.6-2.2 2.7-3.8 3.4-.6.3-1.1.7-1.5 1.3-1.7 2.4-4.3 2.9-7 2.7-2.2-.2-4.2-1.1-5.4-3.1-.3-.5-.7-.6-1.1-.8-2.4-1-3.8-3-5.2-5 1.9 1.6 3.2 3.9 6 4.7-.4-2.1.2-4.1.3-6.5-.7.8-.8 1.5-1 2.2-.3.7-.7.9-1.2.4-.7-.7-1.8-1.2-1.7-2.5.6 0 .8.6 1.2.9.3.3.5.7 1 .8.3-.6.3-1 .3-1.5-.8-.2-1.6-.5-2.5-.4-2.7-1.7-4.4-4.5-6.7-6.6 0-.1 0-.2.1-.3.2-.2.1-.4.1-.6-.7-1.4-1.1-2.8-1.8-4.2-.1.8-.2 1.6.1 2.4.2.5.3 1 1 1 .6 0 .7.5.6 1-.1.1-.1.2-.3.1 0-.1-.1-.2-.1-.2-1.5-.5-1.9-1-2-2.9 0-.8.1-1.6.1-2.4.1-1.5-.5-2-1.9-1.3-.1 0-.2 0-.2-.2 1.7-1.3 3.6-1.6 5.6-1.3-1 .3-2.1.1-3.2.6 1.4 3.9 2.4 7.9 5.1 11.2 2.9 3.5 6.7 3.8 10.8 2.8 1-.3 2-1.1 2.9-1.2.9 0 1.9.9 3 1.2 5.7 1.6 10.1-.4 12.7-5.7 1.3-2.7 2.2-5.5 3.2-8.3-1.1-.5-2.1-.4-3.2-.5 2.2-.4 4.2 0 5.9 1.5.1.1.1.1 0 .2z"/><path d="M90.7 65.5c.9.9 1.2 2 .9 3.3-1.1 5-6.8 7.2-10 6.6-3.7-.7-6.5-2.4-7.7-6.3-.4-1.2-.2-2.4.6-3.4.1-.1.2 0 .3.1.2.5-.4 1.1 0 1.6-.3 1.2 0 2.2.6 3.2 1.8 2.6 4.4 4.1 7.5 4 3.2-.2 5.9-1.6 7.4-4.7.3-.7.6-1.4.5-2.2.2-.8-.5-1.3-.4-2.1.1-.1.2-.1.3-.1z"/><path d="M75.4 65c3.3-2.1 7-2.4 10.8-1.6 1.6.3 3.2.7 4.4 1.9 0 .2-.1.2-.2.3-.8 0-1.3-.5-2-.8-3.8-1.4-7.6-1.3-11.4.2-.4.2-.9.5-1.4.4-.2-.1-.3-.2-.2-.4zm25.9 8c-.3.6-.7.1-.9.1-.3.4-.5.8-.8 1.1l-.2-.2c-.2-.5.2-.9.4-1.3.5-.7.9-.3 1.3.1.1.1.2.1.2.2zm-5.9 9.4c-.4.8-.4.8-1.2 1.3.2-.7.6-1 1.2-1.3zm-8.8 29.4c-.1.2-.3.4-.4.7-.1 0-.1-.1-.2-.1.2-.2.3-.5.5-.7 0-.1.1-.1.1.1z"/><path fill="#343434" d="M92.3 82.1c0 .2-.2.3-.4.4-.1.1-.2.1-.4 0-.1-.6.2-.9.8-.7.1.1.1.2 0 .3z"/><path d="M92.3 82.1v-.4c-.1-.3.1-.5.4-.5.1.1.2.1.2.2-.1.3-.3.5-.6.7zm-13 29.9c-.3 0-.4-.2-.5-.5 0-.1.1-.2.2-.2.1.3.2.5.3.7zm-1.3-1.3c-.2-.1-.4-.2-.4-.5.4-.2.5.1.6.3 0 .1-.1.1-.2.2zM61 67.2c-.1.1-.1.4-.3.2-.1-.1 0-.3.2-.3 0 0 .1 0 .1.1zM79.3 112c.2 0 .2.2.2.4-.2-.1-.2-.3-.2-.4zM65.8 73.9c-.1-.2-.2-.3-.2-.5l.2-.2c.2.1.3.3.2.5l-.2.2zm20.6 37.7c.1-.1.2-.3.3-.4.1 0 .1.1.2.2-.1.1-.2.3-.3.4l-.2-.2z"/><path d="M78.7 111c.1.1.2.3.3.4l-.2.2c-.1-.1-.2-.3-.4-.4.1-.2.2-.2.3-.2zm-4.1-45.3c.1-.1.2-.2.4-.3l.1.1c0 .2 0 .4-.3.4 0-.1-.1-.1-.2-.2zm-8.2-7.1c.3-.2.4 0 .5.3-.4.2-.5.1-.5-.3zm8.6 6.8c.1-.1.2-.2.4-.3l.2.2c-.1.2-.3.3-.6.1zm-13.4 1.2c-.1.1-.3.2-.4.3-.1 0-.1 0-.1-.1l.4-.4c0 .1.1.2.1.2zm42.9.5l-.2-.2.1-.1.2.2v.1h-.1zm.2-.1c.1.1.2.2.2.3l-.1.1-.2-.2c0-.1 0-.2.1-.2zm-43.5-.1c-.1.1-.2.2-.2.3l-.1-.1.2-.2h.1zm29.3-1.6l.2.2c0 .1-.1.1-.1.2-.2 0-.3-.1-.2-.2 0-.1.1-.2.1-.2zm-12.2 45.6l-.2-.2.2-.2.2.2c-.1.1-.1.2-.2.2zm13.3-28.5h.4l-.3.3-.2-.2.1-.1zm3.8 0c0-.1.1-.1.1-.2.2.2 0 .2-.1.2z"/><path d="M104.9 67.2c0 .1.1.2.1.3-.1 0-.1-.1-.2-.1 0-.1 0-.1.1-.2zm-44.4 49.9s.1 0 0 0c.1.1 0 .1 0 .2 0-.1-.1-.1 0-.2-.1 0 0 0 0 0zm18-6l-.2-.2.2-.2c.1.1.2.2.2.3-.1 0-.2.1-.2.1zm76.8 85.5c-.2-.2-.5-.4-.4-.8.4 0 .5.3.7.6-.2.1-.3.1-.3.2zm-145.4 0c.2-.3.4-.7.9-.9-.1.5-.4.8-.7 1.1l-.2-.2zm21.8-16.8c-.1-.1-.3-.2-.2-.3.1-.1.3 0 .3.1s-.1.1-.1.2zm-11 18.8c0-.1.1-.2.2-.1v.3c-.1-.1-.1-.2-.2-.2zm111.5-95.2v-.3c.1 0 .2.1.3.1-.2.1-.2.2-.3.2zM78.9 40.2c-.4.5-.9.9-1.3 1.5.3-2.6 1.1-5 2.5-7.2.1 0 .2 0 .1.1-.9 1.8-1.8 3.7-2.3 6 .4-.3.6-.5.8-.6l.2.2zm2-1.1c-.4 1.6-.9 3.2-.8 4.9 0 .4 0 .6.5.3.1 0 .2.1.2.1-.2.4-.4.8-.7 1.5-.6-2.6-.5-4.8.8-6.8-.1-.1-.1 0 0 0zm-.6-.4c.2-.4.5-.6.9-.8.1.5-.2.8-.4 1.1l-.1-.1c0-.2-.2-.1-.4-.2z"/><path d="M80.7 43.9c.1-.2.3-.4.5-.8.1.5-.1.7-.4.9-.1 0-.1 0-.1-.1zm2.9-4.2c.2-.2.3-.5.5-.7.1.4-.1.6-.3.9-.1 0-.2-.1-.2-.2zm-1.3 1.8c.2-.2.3-.5.5-.7.1 0 .2 0 .2.1-.1.3-.2.6-.5.7-.2.1-.2 0-.2-.1zm-.5 1.1c0 .2-.1.4-.4.5-.2-.3.1-.4.2-.6.1 0 .2 0 .2.1z"/><path d="M81.9 42.1c.1-.2.3-.4.4-.6l.2.2c-.1.2-.2.4-.4.6-.1 0-.2-.1-.2-.2zM75.2 38c.1-.2.2-.6.6-.4-.1.2-.3.4-.4.6l-.2-.2zm4.5 1.1c.2-.1.4-.2.6-.4l.1.1c-.1.3-.3.4-.5.5-.1 0-.2-.1-.2-.2zm8.8-15.4c.1 0 .1 0 .2.1-.1-.1-.2-.1-.2-.1zm-8.3 10.9c.1-.1.2-.3.3-.4l.1.1c-.1.1-.2.3-.3.4l-.1-.1zm11.6-10.7c-.1-.1-.3-.2-.4-.3.1-.1.1-.2.2-.2.1.1.2.3.3.4l-.1.1zm-3.8-.5c.2-.1.4 0 .5.2-.2 0-.4 0-.5-.2zM75.8 37.6c0-.1 0-.1 0 0 0-.2 0-.1 0 0zm8 2.2c-.1.1-.2.3-.3.4-.1 0-.2-.1-.2-.2.1-.1.2-.3.3-.4.1.1.1.2.2.2zm-.5.8c-.1.1-.2.3-.3.4-.1 0-.1-.1-.2-.1.1-.1.2-.3.3-.4.1-.1.2 0 .2.1z"/><path d="M82.1 42.2l-.4.4c-.1 0-.1-.1-.2-.1.1-.1.2-.3.3-.4.2 0 .3.1.3.1zm-3-2.2c-.1.1-.2.2-.2.3l-.2-.2.2-.2c.2-.1.2 0 .2.1zm2.3-2.2v-.1zm2.7 1.2c.1 0 .1-.1 0 0 .1-.1 0 0 0 0zm-4.7.4l.2-.2c.1 0 .1.1.2.1l-.2.2c-.1 0-.1 0-.2-.1z"/><path d="M79.6 39.5l-.2.2c-.1 0-.2-.1-.2-.2l.2-.2.2.2z"/><path d="M79.4 39.8l-.2.2-.2-.2.2-.2c.1 0 .1.1.2.2zm12.5-16c0 .1 0 .2.1.3-.1 0-.1-.1-.2-.1 0-.1.1-.2.1-.2zm-.5 2.9c-.1 0-.1 0-.2.1.1 0 .1-.1.2-.1zm.1.4c-.1-.1-.3-.2-.1-.4.1.1.1.2.1.4.1-.1 0 0 0 0zm-8.9 5v.1h-.1zm-.6.4c0-.1.1-.2.2-.2 0 .1-.1.2-.1.3-.1 0-.1 0-.1-.1zm.1.1l-.3.3c-.1 0-.1-.1-.1-.1.1-.1.2-.1.3-.2h.1z"/><path d="M81.9 32.9l-.2.2c-.1 0-.1-.1-.1-.1l.2-.2.1.1zm-.3.2c-.1.1-.2.2-.2.3-.1 0-.1-.1-.1-.2l.2-.2.1.1z"/><path d="M81.4 33.4c-.1.1-.2.3-.3.1l.2-.2.1.1zm-.7.5l.2-.2c.2.2 0 .2-.1.3l-.1-.1zm-5.8.2c.1-.1.2-.2.4 0l-.2.2-.2-.2zm5.9-.1c-.1.1-.1.2-.2.3l-.1-.1c.1-.1.1-.2.2-.3l.1.1zm2.7 6.2c-.1.1-.1.2-.2.3l-.2-.2c.1-.1.1-.2.2-.3 0 .1.1.2.2.2zm-2.7 3.9c0 .1-.1.2-.1.3-.1 0-.1-.1-.2-.1 0-.1.1-.2.1-.3.1 0 .1 0 .2.1zM59.5 22.8c.1 1.9.3 3.7 1 5.6-.7-.3-.9-.7-1.3-1 0-.1 0-.2.1-.3 0-.1.1-.2.1-.2v-.1c.1-2-.5-3.9-.5-6.1.5.7.9 1.3 1.2 1.8.2-1.7-.4-3.4-.1-5.3.6 2.5.4 4.9.9 7.3l-1.2-1.8c-.1-.1-.2 0-.2.1zm-.3 11.6c.3.4.7.8 1.2 1.4-1.2-.3-2.3-.5-3.6-.9 1.2 1.8 2.2 3.4 3.1 4.9 0 .2 0 .2-.2.2-1.6-1.6-2.2-3.8-3.9-5.6 1.1-.1 1.9.2 2.7.4.3.1.7.3.5-.4 0 0 .1-.1.2 0z"/><path d="M59 34.6c-.8-1.1-1.3-2.2-1.4-3.5-.2-2.1-.5-4.2-1.4-6.1.6-.1.9.3 1.2.5 0 .1-.1.2-.2.2-.3.2-.1.4-.1.6.4 1.1.7 2.1.7 3.3.1 1.8.6 3.4 1.4 4.9 0 0-.1 0-.2.1z"/><path d="M59.2 27.4c-.6-.5-1.2-1-1.8-1.6 0-.1.1-.2.2-.2.7.2.9 1.2 1.8 1.1.1.1.1.3 0 .4 0 .2-.1.2-.2.3zm-1-19.1c0-.3.1-.6.5-.7.1.3 0 .7-.5.7zm.5-.7c0-.4.2-.6.5-.7.1.4-.1.6-.5.7zm.9-1.2c-.2-.5.3-.5.5-.7.2.4-.2.5-.5.7z"/><path d="M59.2 6.8c.1-.3.1-.6.5-.5-.1.3-.1.6-.5.5zm1.2-1.4c.1-.2.2-.5.5-.2-.1.2-.2.4-.5.2zm-.3 35.1c-.1-.1-.2-.3-.3-.4l.2-.2c.1.1.2.3.3.4l-.2.2zm-2.6-14.7c-.1-.1-.2-.2-.3-.2l.2-.2.2.2c0 .1-.1.2-.1.2z"/><path d="M60.1 5.6c0-.2.1-.2.3-.3.1.3 0 .4-.3.3zm46.5 21.6c-.4.5-.8 1-1.2 1.4-.1-.1-.2-.1-.3-.2.6-1.8 1-3.7.9-5.7-.7.5-.8 1.3-1.6 2 .7-2.6.6-5 1.1-7.4.2 1.6-.1 3.2-.2 4.8 0 .1 0 .3.2.2.3-.5.6-1 .9-1.4.1 0 .1 0 .2.1-.2 1.8-.5 3.6-.7 5.5 0 .2-.4.8.4.6.3-.2.4-.1.3.1zm-.5 7.6c1-1.7 1.6-3.4 1.7-5.4 0-1.2.4-2.3.7-3.5 0-.1 0-.1-.1-.1-.5.3-.9.7-1.4 1-.2 0-.2 0-.2-.2.7-.7 1.4-1.4 2.7-1.9-1.7 3.4-.9 7.2-3 10.2l-.1.1h-.1c-.2 0-.3-.1-.2-.2z"/><path d="M105.4 40.2c1.2-1.5 2.1-3.3 3.2-5-1.2-.1-2.2.5-3.3.6.1-.5.5-.7.7-1l.2.2c.1.1.2 0 .2 0 1 .2 2-.5 3.2-.4-1.6 1.9-2.3 4.1-4 5.8-.1 0-.2-.1-.2-.2zm.3-34.1c.7.2.9.9 1.2 1.5-.7-.3-.9-.9-1.2-1.5zm-1.4 35.5c.2-.5.5-.8.8-1.1.2 0 .2.1.2.2-.3.4-.6.7-.8 1.1-.1-.1-.2-.1-.2-.2zm.5-36.5c.4 0 .6.1.5.5-.3 0-.5-.1-.5-.5zm1.6 21.9c.1-.1.2-.2.4-.3l.2.2c-.1.1-.2.2-.4.3 0-.1-.1-.2-.2-.2z"/><path d="M105.1 40.5c.1-.1.2-.2.3-.4l.2.2c-.1.1-.2.2-.3.4-.1 0-.1-.1-.2-.2zm.2-34.9c.3-.1.3 0 .3.3-.3 0-.3-.1-.3-.3z"/><path d="M105.5 5.9c.3-.1.3 0 .3.3-.2-.1-.3-.2-.3-.3zM61.8 4.2c-.2 0-.2-.2-.2-.4.2.2.3.3.2.4zm-14.1 36c.1 0 .1.1.2.1-.2.2-.2 0-.2-.1-.1 0 0 0 0 0zm56.1-36.3c.1 0 .1 0 .2-.1 0 0 0 .1-.1.1 0 .1-.1 0-.1 0zM118 40.2c0 .1-.1.2-.1.2-.1-.1-.1-.2 0-.3l.1.1z"/><path fill="#343434" d="M69.5 52.2c0 .1.1.3 0 .3-1.4 2.3-1 4.6 0 6.9-1.7-1.6-1.7-5.5 0-7.2zm4.1-1.2c-1.1-.3-2.1-.1-3.2.2 1-.9 2.2-1 3.2-.2zm.7.5c-.4.1-.6-.1-.7-.5.4-.1.6.1.7.5zm-4.1 0c0 .3-.2.5-.5.5-.1-.5.1-.6.5-.5z"/><path d="M74.5 52.2l.1-.1V52c.1-.1.2-.1.3 0 .1.1.1.2.2.3-.2.1-.4-.2-.6-.1zm1 1c-.4 0-.3-.3-.3-.5.4 0 .3.2.3.5z"/><path d="M75.3 52.7c-.3 0-.5-.2-.3-.5.3.1.3.3.3.5z"/><path fill="#343434" d="M70.4 51.2c.1.3-.1.3-.2.2-.1-.2 0-.2.2-.2zm4.2.5c-.2.1-.3 0-.2-.2.1-.1.2 0 .2.2z"/><path fill="#343434" d="M74.9 51.9h-.3c0-.1-.1-.1-.1-.2v-.1c.3 0 .3.2.4.3zm-5.2 0c0 .2 0 .3-.2.2-.1-.1-.1-.3.2-.2z"/><path d="M95.4 51.5c-1.4-.8-2.8-.8-4.1 0 1-1.4 3.1-1.4 4.1 0zm1 1.2c-.4-.1-.5-.4-.5-.7.4 0 .6.3.5.7zm-5.1-1.2c.1.2-.1.3-.3.3 0-.4.1-.4.3-.3zm4.4.2c-.2 0-.3 0-.3-.3.3 0 .4 0 .3.3z"/><path d="M91.1 51.7c0 .2 0 .3-.3.3 0-.3 0-.4.3-.3zm4.8.3c-.2.1-.3 0-.3-.3.3-.1.4 0 .3.3zm-21.6 4.8c-.3 1.6-1.1 2.6-2 2.6-.9-.1-1.8-1.3-1.9-2.7-.2-1.9.5-3.2 1.9-3.6.4.9.6 1.9 1.9 1.9 0 .2 0 .5.1.7-.1.3-.1.7 0 1.1z"/><path fill="#fff" d="M74.2 54.9c-1.4.4-1.9-.1-1.9-1.9.4-1.1 1.3-1 2.2-.8 0 .9.5 1.9-.3 2.7zm.1 1.9c-.7-.4-.7-.8 0-1.2.6.4.6.8 0 1.2z"/><path d="M95.1 55c0 .2.1.4.1.6.1.4 0 .8 0 1.2-.1.3-.1.6-.2.9-.3.9-.8 1.7-1.8 1.6-1 0-1.4-.8-1.7-1.6-.4-1.4-.4-2.8.5-4 .3-.4.8-1.2 1.5-.4.2.8.7 1.5 1.6 1.7z"/><path fill="#fff" d="M95.1 55c-1.3.1-1.7-.3-1.6-1.8.2-.7.4-1.4 1.3-1.2.8.2 1 .9.9 1.7 0 .6-.3.9-.6 1.3zm.1 1.7c-.4-.4-.4-.8 0-1.2.7.5.6.9 0 1.2zm27 268c-.9-.9-1.2-1.9-1.3-3.1 0-.6.2-1 .8-1.1.7-.1.9.4 1.1.9.4 1.1.4 2.3-.6 3.3zm-78.7 0c-1-1.1-1-2.3-.6-3.5.1-.5.5-.9 1-.8.5.1.8.5.8 1 .1 1.3-.3 2.3-1.2 3.3zM32 322.6c-.9-1-1-2.2-.7-3.3.1-.5.4-1 1.1-.9.6.1.9.5.9 1.1-.1 1.2-.4 2.2-1.3 3.1zm101.7 0c-.9-.9-1.2-1.9-1.3-3 0-.6.2-1.1.9-1.2.6-.1.9.4 1 1 .4 1.1.4 2.2-.6 3.2zm-26 .8c-.6-.9-1.1-1.6-1-2.5 0-.5.2-1 .8-1.1.5-.1.8.4.9.8.3.9 0 1.8-.7 2.8zm-49.7-.1c-.7-.9-1-1.8-.6-2.8.2-.5.4-.9 1-.8.6.1.7.7.7 1.1-.1 1-.5 1.7-1.1 2.5z"/><path fill="#fcd3f1" d="M82.6 79.3v6.3h.4v-6.3c1.4.4 2.6.9 3.9 1.2 1.9.3 1.9.4 2.1 2.4.1.6.2 1.2.2 1.8.1 3.6-1.4 5.4-5 6.1-3 .6-6-.7-7.2-3-.7-1.2-.5-2.6-.4-3.9 0-.9 0-2 .4-2.8.5-.9 1.7-.4 2.6-.7.8-.5 1.8-.8 3-1.1z"/><path fill="#fff" d="M66 73.7c-.1-.2-.1-.3-.2-.5-.1-.3-.1-.6-.4-.9-.3 0-.4.5-.8.4-.9-1.4-.9-3-.5-5 1.1 2.1 1.5 4.3 2.6 6.1-.5.4-.5 0-.7-.1zm35.1-.9c-.4.1-.6-.3-.9-.5-.3.6-.5 1.1-.8 1.7-.2 0-.5.1-.4-.2 1-1.8 1.4-3.9 2.5-5.9.6 1.9.3 3.4-.4 4.9zm-28.7 7.7c0-.2-.2-.5.3-.4.9.3 1.8.4 2.8.5-.2.8-.5 1.5-.7 2.3-1.2-.5-1.6-1.6-2.4-2.4zm19.2 1.9c-.1 0-.1 0-.1.1-.2.1-.4.2-.7.4-.2-.8-.5-1.5-.7-2.3 1.1-.1 2-.2 3-.3l-.3.9c-.1.2-.3.4-.4.5-.3.3-.6.5-.8.7zm1.4-2.1v-.2h.1c0 .1 0 .1-.1.2z"/><path fill="#343434" d="M91.1 67.6c.5 1.5-.4 2.7-1.2 3.8-1.9 2.6-4.7 3.9-7.8 3.5-3.5-.4-6.3-2.1-7.6-5.7-.3-.8 0-1.3.3-1.9v-.1c0-.1.1-.1.2-.2s.2-.1.3-.2c.1-.1.3-.2.4-.2.1 0 .2-.1.3-.1 4.6-1.4 9.1-1.4 13.6 0 .1 0 .2.1.3.1.2.1.4.3.6.4.1 0 .2.1.2.1l.2.2c.2.2.2.2.2.3z"/><path fill="#343434" d="M90.4 65.4l.2.2c.1.7 1 1.1.5 1.9l-.2-.2c-.2-.2-.5-.2-.7-.5-4.9-1.7-9.8-1.8-14.6 0-.1.1-.4.1-.5.2l-.2.2c-1-.5.2-.9 0-1.4.2-.1.2-.3.2-.5.2 0 .4 0 .5-.2 2.2-.9 4.4-1.7 6.7-1.7 2.9 0 5.5.6 8.1 2z"/><path fill="#44d262" d="M59.4 27.2c0-.1-.3-.3 0-.4.1 0 .2.1.2.1.1.2 0 .3-.2.3zm.7-4.7h.2v.1c-.1-.1-.1-.1-.2-.1 0-.1 0 0 0 0zm-.6.3c0-.1-.1-.3 0-.3.1-.1.1.1.2.1-.1.1-.1.2-.2.2zm46.1-.5c-.1.1-.1.2-.2.4-.2-.2-.1-.4 0-.5 0 0 .1 0 .2.1zm.9 12.6v.2c-.1 0-.1-.1-.2-.1 0-.1.1-.1.2-.1zm1.9-9.1c0-.1.1-.1.1-.2.1.1.1.2 0 .3-.1 0-.1-.1-.1-.1z"/><path d="M75.5 66.8c.7-.8 1.7-.9 2.6-1 3.4-.6 6.9-.6 10.3.2.6.1 1.3.3 1.8.9-1.1 0-2-.7-3.1-.7-3.7-.3-7.4-.7-10.9.7-.3 0-.5-.1-.7-.1z"/><path d="M90.1 66.8c.3 0 .6.2.7.5-.3 0-.6 0-.7-.5zm-15.1.3c.1-.2.3-.2.5-.2-.1.2-.3.2-.5.2zm-.2.2l.2-.2-.2.2zm16.1 0l.2.2c-.1 0-.2-.1-.2-.2z"/></svg>