<?xml version="1.0" encoding="utf-8"?>
<!-- Generator: Adobe Illustrator 21.1.0, SVG Export Plug-In . SVG Version: 6.00 Build 0)  -->
<svg version="1.1" id="Layer_1" xmlns="http://www.w3.org/2000/svg" xmlns:xlink="http://www.w3.org/1999/xlink" x="0px" y="0px"
	 viewBox="0 0 165.6 330.3" style="enable-background:new 0 0 165.6 330.3;" xml:space="preserve">
<style type="text/css">
	.st0{fill:#000000;}
	.st1{fill:#ffd700;}
	.st2{fill:#44d262;}
	.st3{fill:#76e9c8;}
	.st4{fill:#ffffff;}
	.st5{fill:#ffd700;}
	.st6{fill:#343434;}
	.st7{fill:#fcd3f1;}
</style>
<g id="jvmyRA.tif">
	<g>
		<path class="st0" d="M154,217.8c-0.5,0.6-1,1.4-1.6,0.1c-0.1-0.3-0.4-0.3-0.7-0.3c-1.5-0.1-2.9-0.4-4.3-1c-0.4-0.2-0.7-0.2-1,0.2
			c-1,0.9-2.2,1.6-3.5,1.6c-0.8,0-1,0.8-1.8,1c-0.3-1.1-1.2-1.2-2.1-1.5c-0.5-0.2-1-0.4-1.4-0.6c-3.5-1.9-4.7-4.1-4.1-8.4
			c0.2-1.7,0.5-3.5,0.7-5.2c-0.5-0.1-0.5,0.4-0.7,0.6c-1.5,2-3.3,2.6-5.7,1.9c-0.5-0.2-0.9-0.2-1.4,0.2c-0.7,0.7-1.3,0.4-1.3-0.4
			c-0.1-1.2-0.8-1.9-1.3-2.8c-1.8-2.9-1.4-5.8,0.3-8.6c0.7-1.2,1.6-2.3,2.5-3.3c1.5-1.5,2.4-3.2,2.9-5.3c0.1-0.7,0.3-1.4,0.7-2
			c0.9-1.4,0.6-2.7,0.1-4.2c-1.8-5.1-3.9-10.2-5.1-15.5c-0.5-2.2-0.9-4.4-1.2-6.6c-0.4-2.8-1.4-5.4-2.4-8
			c-3.3-8.1-6.8-16.2-9.4-24.6c-0.1-0.2,0-0.4-0.4-0.5c-0.1,1.2-0.3,2.4-0.3,3.5c-0.2,6.9-0.7,13.8-0.8,20.7
			c-0.1,7.7,0.2,15.4,1.8,22.9c2,9.6,5,18.9,7.5,28.4c1.8,6.7,3.6,13.3,4.8,20.1c1.3,7.9,2.2,15.8,1.3,23.7
			c-0.6,5.3-1.6,10.5-2.4,15.7c-0.5,3.4-0.8,6.7-0.9,10.1c-0.3,6.8-0.1,13.6,0.5,20.3c0.2,2.4,0.6,4.8,1.2,7.1
			c0.2,0.8,0.6,1.5,1.2,2.1c1.8,1.6,3.7,3,6.1,3.6c4.9,1.1,7.4,4.6,9,9c0.9,2.6,1.3,5.3,0.3,7.8c-1.1,2.7-2.8,5.2-5.1,7.1
			c-1.7,1.4-3.7,1.7-5.7,1.7c-1.4,0-2.8,0.2-4.2,0.8c-3.1,1.3-6.4,1.2-9.6,0.2c-3.3-1-6.6-1.9-10.2-2.2c-4.4-0.4-7.2-3.4-9.1-7.2
			c-1.8-3.5-2.8-7-2.6-11c0.2-4.9,0.1-9.9,0-14.9c-0.1-7.1-0.6-14.2-1.8-21.2c-1-6.3-1.5-12.7-0.6-19.1c0.3-2,0.7-4,1.3-6
			c0.7-2.6,0.8-5,0-7.6c-3.3-10.5-5.5-21.3-6.6-32.3c-0.2-1.6-0.4-3.2-0.7-4.9c-2.1,0.7-4.2,0.8-6.3,0c-0.7,4.9-1.3,9.6-2,14.4
			c-1.1,7.8-3.1,15.5-5.4,23c-0.8,2.5-0.8,4.9-0.1,7.3c1.8,6.2,2.1,12.5,1.4,18.8c-0.6,5.9-1.5,11.7-2.1,17.6
			c-0.3,3.3-0.4,6.6-0.4,9.9c0,6-0.2,11.9-0.1,17.9c0.1,3.4-1.7,6.4-3.3,9.3c-2.5,4.5-6.4,6.3-11.4,6.3c-1.2,0-2.2,0.2-3.4,0.6
			c-3.4,1.3-6.9,2.4-10.6,1.8c-1.4-0.2-2.8-0.6-4.1-1.2c-0.9-0.5-1.8-0.2-2.7-0.2c-2.4-0.1-4.8-0.5-6.6-2.3
			c-7.4-6.9-6.1-15.8,1.1-21.9c1.2-1,2.7-1.3,4.2-1.7c2.5-0.6,4.5-2.1,6.1-4c1-1.1,0.9-2.6,1.2-3.9c1.1-5.6,1.1-11.3,1.3-17
			c0.2-8.1-0.7-16.2-1.9-24.2c-0.7-4.5-1.9-8.9-1.8-13.5c0.1-5.6,0.3-11.2,1.1-16.7c1.4-9.4,4.1-18.5,6.5-27.6
			c2.1-8.1,4.7-16.1,6.3-24.4c1.5-7.7,1.9-15.5,1.7-23.3c-0.1-3.6-0.1-7.2-0.3-10.8c-0.2-4.2-0.5-8.5-0.7-12.7
			c-0.3-0.1-0.3,0.1-0.4,0.3c-1.7,6.1-4.5,11.8-6.6,17.7c-1.2,3.5-2.9,6.7-4.1,10.2c-1.1,3-1.2,6.1-1.9,9.1
			c-1.2,5.3-2.8,10.5-4.8,15.6c-1,2.5-1.4,4.9-0.3,7.7c1.1,2.7,2.4,5.1,4.3,7.3c1.8,2,3,4.3,2.9,7.1c0,1.1-0.4,2.1-0.9,3.1
			c-0.6,1.1-1.5,1.9-1.4,3.3c0,0.7-0.7,1-1.3,0.5c-0.6-0.5-1.1-0.5-1.8-0.3c-2,0.6-3.6,0-4.9-1.5c-0.3-0.4-0.6-0.8-1.2-1.4
			c0.3,2.1,0.5,3.8,0.8,5.5c0.9,5.4-1.7,7.7-6,9.3c-0.1,0-0.2,0.1-0.2,0c-0.9-0.4-0.8,2-2,0.8c-0.7-0.8-1.7-0.4-2.5-0.8
			c-0.8-0.4-1.6-0.7-2.2-1.4c-0.3-0.4-0.6-0.3-1-0.1c-1.1,0.5-2.3,0.8-3.6,0.9c-0.6,0.1-1.2,0-1.5,0.8c-0.1,0.4-0.7,0.3-0.9,0
			c-1.1-1.4-2.8-1.8-4-3c-0.7-0.7-1.4-1.3-1.8-2.2c-0.3-0.7-0.9-1.1-1.7-1.4c-0.6,1.2-1.4,0.7-1.7-0.2c-0.9-2.3-2.4-4.3-2.7-6.8
			c-0.5-3.7,0.7-7.1,2.9-9.8c4.2-5.1,6.5-11.1,8.7-17.2c1.7-4.5,3.9-8.9,5.3-13.6c2.3-7.6,4.3-15.3,6.9-22.8
			c2.9-8.2,4.7-16.7,6.4-25.2c0.7-3.6,1-7.3,1.8-10.9c0-0.2,0-0.5,0.1-0.7c-0.9,0.2-1.6,0.7-2.5,0.4c0.8-1.8,1.5-3.5,2.3-5.4
			c-1.2-0.5-2.5-0.8-3.7-1.7c1.5-0.7,2.8-1.4,3.8-2.6c0.9-1.2,2-2.3,3.2-3.3c-0.6-0.8-1.2-1.5-1.6-2.6c3.5,1.5,6.6,0.1,9.7-0.8
			c3.8-1,7.4-2.4,11.1-3.6c0.6-0.2,0.9-0.6,1.2-1.1c1.2-2.2,2.4-4.5,3.6-6.8c-2.1-1.1-4.3-1.7-6.5-2.2c-2.1-0.5-4.2-0.2-6.3-0.3
			c-1,0-1.4-0.3-1.2-1.3c0.2-1,0.4-2,0.7-3.2c-0.8,0.4-1.4,0.8-2.3,1.3c-0.1-1.9,0.6-3.3,1.4-4.8c-1-0.6-2.2-0.8-3.2-1.6
			c2.9-1.5,4.1-4.4,6.1-6.8c-0.7-0.4-1.3-0.7-2.1-1.1c1.5-0.8,3.1-1.2,4.4-2.1c-1.9-2.5-3.4-5.1-5.5-7.5c0.9-0.6,1.7,0.1,2.7-0.2
			c-2.6-2.8-2.1-6.6-3.3-10c0.9,0.1,1.5,0.8,2.3,1.3c-0.3-2.2-0.7-4.3-0.5-6.8c0.7,0.9,1.2,1.6,1.7,2.3c0.3-2.3,0.4-4.4,0.7-6.5
			c1.2-8.4,3.3-16.5,8-23.8c1-1.4,2.2-2.6,3.8-3.4c1.8-0.8,3-0.6,4.2,0.9c1.8,2.2,2.7,4.8,3.4,7.4c1.1,4.2,2.2,8.3,3.2,12.5
			c0.2,0.8,0.6,1.1,1.3,1.3c1.2,0.3,2.3,0.2,3.5,0.1c2.8-0.4,5.5-1.4,8.6-0.8c-1-1.5-1.9-2.8-2-4.7c2,2.8,5.6,2.7,8,5
			c-0.3-1.8-0.4-3.4,0-4.9c0.8,2.1,1.2,4.4,3.3,6c0.5-1.9,1-3.7,1.5-5.4c1.1-4.1,1.9-8.3,3.4-12.3c0.6-1.6,1.4-3.1,2.6-4.4
			c1.2-1.4,2.3-1.6,3.9-0.8c1.6,0.8,2.9,1.9,3.9,3.4c3.8,5.6,5.7,12,7.2,18.5c0.8,3.8,1.4,7.7,1.5,11.9c0.6-0.9,1.1-1.5,1.8-2.4
			c0.3,2.4-0.2,4.5-0.5,6.7c0.8-0.4,1.4-1.1,2.3-1.3c-0.2,0.6-0.3,1-0.4,1.5c-0.4,1.2-0.5,2.1,0.5,3.2c1.5,1.6,1.3,3.4-0.1,4.9
			c-0.3-0.4-0.2-0.7,0-1.1c0.5-1.3,0.2-2.5-0.6-3.5c-0.4,0.1-0.4,0.1-0.4,0.8c0,0.3,0.1,0.6,0.2,0.9c-0.2,1.5-1.2,2.3-3,2.2
			c-1.5-0.3-2.9-0.6-4-1.7c-1.1-1-1.7-2.1-1.3-3.6c0-0.1,0-0.1,0-0.2c0,0-0.1,0-0.1,0c-0.1,0-0.1,0.1-0.2,0.1
			c-0.1,0.1-0.1,0.1-0.2,0.2c-0.4,0.5-0.5,1-0.5,1.6c0.1,0.9,0.7,1.5,1.2,2.1c0.3,0.3,0.8,0.6,0.4,1.2c-0.5,0.1-0.8,0.3-1,0.9
			c-0.4,1.1-0.8,2.2-1.4,3.2c-0.4,0.7-0.2,1.3,0.4,1.8c0.9,0.7,1.8,1.3,2.7,1.9c0.7,0.5,1.3,0.4,1.8-0.3c1.1-1.7,2.3-3.4,3.5-5
			c-1.1,0-1.9,0.8-2.7,0.7c-0.5-0.3-0.1-0.7-0.3-1c-0.8-0.3-1.8-0.5-2.5-1.2c-0.3-0.2-0.9-0.4-0.4-1c0.5-0.2,0.9,0.1,1.3,0.3
			c1.9,1,3.9,1.4,6.1,0.6c0.3-0.1,0.7-0.2,1,0.1c-1.8,1.7-3.1,3.8-4.5,5.8c-0.5,0.7-0.9,1.6-1.7,2.2c1.3,1,2.9,1.5,4.4,2.1
			c-0.6,0.6-1.4,0.7-2.1,1.2c1.9,2.4,3.1,5.3,6.1,6.8c-0.9,0.8-2,1.1-3.1,1.6c0.7,1.5,1.3,3,1.4,4.7c-0.9-0.1-1.4-0.8-2.3-1
			c0.2,1.1,0.4,2.1,0.6,3.1c0.2,0.9-0.1,1.3-1.1,1.3c-4.1-0.2-8,0.2-11.8,1.9c-0.3,0.1-0.7,0.2-1,0.6c1.2,2.4,2.4,4.8,3.7,7.1
			c0.2,0.4,0.5,0.6,0.9,0.7c5.2,1.7,10.3,3.8,15.8,4.8c1.7,0.3,3.4,0.5,5.3-0.5c-0.4,1.1-1,1.8-1.7,2.7c2.5,1.7,3.6,4.9,7,5.8
			c-1.3,1-2.5,1.3-3.8,1.8c0.8,1.8,1.5,3.5,2.3,5.3c-0.9,0.3-1.6-0.1-2.6-0.4c0.6,2.5,0.8,5,1.2,7.4c1.3,7.7,2.8,15.3,5,22.7
			c1.7,5.6,3.6,11.2,5.3,16.8c1.6,5.2,3,10.6,4.7,15.8c1.3,3.8,3.1,7.3,4.5,11c0.9,2.3,1.7,4.5,2.5,6.8c1.2,3.3,3.3,6.1,5.3,8.9
			c2.1,2.8,3.6,5.9,3.5,9.6c0,1.9-0.5,3.8-1.6,5.4c-0.2,0.3-0.3,0.6-0.4,1c-0.1,0.6-0.3,1.2-0.6,1.7c-0.8,1-1,1.1-2.1-0.2
			C158.9,213.9,156.7,216.2,154,217.8c-0.4-0.5-0.1-0.9,0.1-1.3c0.3-0.6,0.4-1.3,0.2-2c-0.1-0.3-0.2-0.5-0.5-0.6
			c-0.3,0-0.5,0.2-0.7,0.4C152.4,215.3,152.9,217.2,154,217.8z"/>
		<path class="st1" d="M120.5,43.9c-0.1-0.3-0.4-0.5-0.3-0.8c0.4-0.3,0.3-0.9,0.7-1.2c1.5,1.7,1.6,2.6,0.5,4.6
			c-0.1,0.2-0.1,0.4,0.1,0.5c0,0,0,0,0,0c-0.1-0.2-0.3-0.2-0.5-0.1c-2.4,1.4-4.7,0.6-6.9-0.4c-0.4-0.2-0.6-0.8-1.2-0.4l0,0
			c0.4-0.5-0.2-0.6-0.4-0.8c-0.7-0.8-1.4-1.5-1.5-2.6c0.3-0.6,0.5-1.3,0.9-1.9l0,0c0.1-0.1,0.2-0.1,0.2-0.3l0,0
			c0.1,0,0.2-0.1,0.2-0.2c0,0.1,0.1,0.2,0.1,0.3c-0.2,2.8,1.1,4.5,3.9,5.1c0.4,0.1,0.8,0,1.1,0.3c0,0.1-0.1,0.2-0.2,0.1
			c-0.1-0.1-0.3,0-0.1,0c1,0.3,1.8,0,2.6-0.6C120.5,45.1,120.8,44.6,120.5,43.9z"/>
		<path class="st2" d="M57.6,310.8c-2.7,2.9-3.6,6.4-3.9,10.2c-0.1,1.7-0.1,3.4,0.2,5c0.1,0.6,0,1.1-0.6,1.4
			c-4.3,1.8-8.8,2.8-13.4,1.4c-1.7-0.5-2-1-2.1-2.6c-0.2-4.9,0.5-9.6,3-14c0.5-0.8,1.1-1.6,1.6-2.3c0.1-0.2,0.1-0.4,0.2-0.5
			c0.2-0.1,0.4-0.1,0.5-0.3c0.2-0.2,0.4-0.3,0.6-0.7c-0.2,0.3-0.4,0.5-0.6,0.7c-0.1,0.2-0.4,0.2-0.5,0.3c-0.2,0.1-0.1,0.5-0.4,0.3
			c-2.9,3-4,6.7-4.7,10.7c-0.4,2.1-0.3,4.3-0.2,6.5c0,0.4,0.1,0.7-0.2,1.2c-2.7,0.1-5.4-0.1-7.6-1.9c-2.1-1.7-2.8-4-2.5-6.6
			c0.4-3.7,1.5-7.2,4.2-10.2c-1.5,0.6-2.3,2-3.9,5.8c-2.1,0.4-3,2.5-1.5,4.2c0.7,0.8,0.7,1.6,0.6,2.6c-0.9-0.7-1.1-1.5-1.4-2.4
			c-2-6.9,3.6-15.3,9.4-16c2.6-0.3,4.6-2.2,6.4-4c0.5-0.5,0.7-1.2,0.9-1.9c1.3-5.5,1.4-11.2,1.7-16.8c0.5-9.1-0.5-18.2-1.8-27.2
			c-0.1-0.4-0.1-0.9-0.1-1.3c0.5-0.4,1-0.4,1.6-0.4c7.7-0.2,14.1-5.2,16.1-12.6c1.6-5.9,2.4-12,3.3-18c1.2-8,1.8-16.1,2.8-24.2
			c0.7-6.2,1.3-12.5,1.8-18.7c0.3-4.1,0.6-8.3,0.5-12.4c0-4.7-0.1-9.4-0.5-14.1c-0.3-4.1-0.6-8.1-1-12.2c-0.1-0.6-0.1-1.2,0.3-1.7
			c2.3,3.4,5,6.6,6.8,10.6c0.8-1.4,0.8-2.8,1.1-4.3c2.4,4.2,5.6,7.5,8.3,11.5c2.7-3.9,5.9-7.3,8.3-11.5c0.4,1.5,0.3,2.9,1.1,4.3
			c1.8-3.9,4.5-7.2,6.8-10.6c0.5,0.5,0.4,1.1,0.3,1.7c-0.6,5-1,10-1.2,15c-0.2,3.4-0.5,6.9-0.4,10.3c0.2,7.2,0.6,14.4,1.3,21.5
			c0.7,6.6,1.4,13.1,2.1,19.7c0.8,8.5,1.9,16.9,3.4,25.3c0.5,3,1.1,6,2,8.9c2.2,6.4,6.8,10,13.2,11.4c0.9,0.2,1.9,0.3,2.9,0.3
			c0.5,0,1,0,1.4,0.3c-0.6,4.6-1.3,9.2-1.7,13.8c-0.5,5.1-0.5,10.1-0.3,15.2c0.2,5.2,0.4,10.3,1.4,15.4c0.4,1.9,1.3,3.3,2.8,4.4
			c1.7,1.2,3.5,2.2,5.6,2.8c4.1,1,6.4,4.1,7.9,7.7c1.2,2.8,1.5,5.8,0.3,8.8c-0.2,0.6-0.5,1.2-1.2,1.7c0-1-0.3-1.8,0.7-2.5
			c0.9-0.7,1-2,0.6-3.1c-0.3-0.9-1-1.4-2-1c-1.9-5.7-5.4-9.4-11.6-9.9c1.1,0.5,2.4,0.5,3.5,1c5.4,2.4,7.6,6.9,8.3,12.4
			c0.3,2.4,0.1,4.7-1.8,6.6c-2.2,2.2-5,2.5-7.9,2.5c-0.8,0-0.6-0.7-0.6-1.2c0.4-3.8-0.1-7.6-1.3-11.2c-1.1-3.2-2.8-6.1-5.9-7.9
			c-0.6-0.3-1.2-0.7-1.9-0.7c7.1,3.7,8.5,10.3,8.7,17.3c0.1,4.1-0.2,4.4-4.3,5c-3.9,0.6-7.5-0.3-11.1-1.8c-1.1-0.5-0.7-1.4-0.6-2.1
			c0.5-4,0-7.8-1.7-11.4c-0.3-0.5-0.5-1.1-0.9-1.5c-0.2-0.1-0.4-0.3-0.6-0.5c-0.4-0.9-1.2-1.4-1.9-2.1c-0.5-0.3-1-0.5-1.5-0.7
			c0.5,0.3,1,0.5,1.4,0.7c0.7,0.7,1.5,1.3,2,2.2c0.1,0.2,0.4,0.3,0.4,0.6c2.4,4.1,2.9,8.5,2.4,13.1c-0.1,0.8-0.4,1.1-1.2,1.3
			c-4.3,0.7-8.8-1.3-11.1-5c-2.5-3.9-3.8-8-3.7-12.7c0.2-8.1-0.1-16.1-0.4-24.2c-0.2-3.8-0.7-7.5-1.3-11.2c-1-6.5-1.7-12.9-0.8-19.5
			c0.4-3.2,1.5-6.2,2.1-9.5c0.8,1.2,0.8,2.5,1.7,3.5c-0.8-2.4-1.5-4.9-2.3-7.3c-3.3-10.4-5.3-21.1-6.7-32c-0.2-1.7-0.5-3.3-0.5-5
			c0-0.9,0.2-1.4,1-1.9c3-1.8,4.9-4.5,6.6-7.5c0.1-0.3,0.2-0.5,0.3-0.8c0.1-0.1,0,0,0.1-0.1c0,0,0,0.1-0.1,0.1
			c-0.2,0.2-0.1,0.6-0.5,0.6c-1,1.3-2.1,2.6-3.1,3.9c-4.7,5.8-12,5.8-16.7,0c-1.2-1.4-2.3-2.9-3.4-4.3c-0.1,0-0.2,0-0.1,0.1
			c1.7,3.1,3.7,6,6.8,7.9c0.7,0.4,1,1,1,1.9c-0.3,4.6-1.1,9-1.8,13.5c-1.6,9.9-4,19.6-7.3,29.1c-0.2,0.4-0.2,0.9-0.3,1.4
			c0.7-0.9,0.8-2.1,1.5-3.3c1.2,4.6,2.4,8.9,2.5,13.5c0.2,6.7-0.9,13.2-1.8,19.8c-0.6,4.2-0.8,8.3-0.9,12.5
			c-0.2,7-0.2,14.1-0.3,21.1c0,3.7-1.7,6.8-3.6,9.9c-2.2,3.6-6.8,5.6-11,5c-1.1-0.1-1.3-0.6-1.4-1.5c-0.5-5.2,0.2-10.1,3.6-14.4
			c0-0.2,0.2-0.2,0.3-0.4c0.1-0.1,0.2-0.2,0.3-0.3c0.1-0.1,0.3-0.3,0.5-0.5c-0.2,0.2-0.4,0.4-0.5,0.5c-0.1,0.1-0.2,0.2-0.3,0.3
			C57.9,310.8,57.8,311,57.6,310.8z"/>
		<path class="st2" d="M108.6,75.5c-2.7,1-5.2,2.3-8,3.8c1.1,0,1.7-0.6,2.4-0.7c0.7,0.8,1.2,1.6,1.1,2.7c1.7,3.1,3.2,6.3,4.6,9.6
			c-1.9,0.3-3.2-0.7-4.7-1.8c3,3.2,1.9,7.5,3.2,11.2c-1.8-0.3-3.3-1-4.7-1.9c-1.4-1-2.6-2.2-3.3-3.8c0.4,1.8,0.9,3.6,0.3,5.4
			c-0.4,1.4-0.9,2.7-1.9,4.1c-0.4-1.6-0.4-3-0.9-4.4c-0.1,0-0.2,0-0.2,0.1c-1.2,4.1-4.5,6.4-7.3,9.1c-0.8,0.8-1.8,1.5-2.4,2.5
			c-0.1,0.2-0.1,0.3-0.2,0.5c0,0,0,0,0,0s0-0.1,0-0.1c0.1-0.1,0.1-0.4,0.3-0.3c2.5-2.6,5.7-4.6,8-7.5c0.6-0.7,1-1.5,1.6-2.5
			c0.2,1.4,0.5,2.7,0.7,3.9c1.9-2.2,3.1-4.7,3.3-7.7c2.3,1.9,4.7,3.3,7.9,3.3c-0.4-1.3-1.4-2.3-1-3.5l0,0c2.6,3.5,4,7.5,4.8,11.8
			c0.2,1,0.6,2,0.9,3l0,0.1l-0.1,0c-1.8-0.5-3-1.7-4.1-3.2c2.4,4.1,0.9,8.4,1,12.9c-2.2-1.2-3.3-3.3-4.8-5c1.6,4.1,0.8,8-0.4,12.2
			c-0.9-1.5-1.2-2.9-1.5-4.5c-1,8.7-6.4,15.1-10.8,22.1c-0.6-1.4-0.3-3-0.7-4.5c-2.4,4.4-5.6,8.2-8.7,12.2
			c-3.1-3.9-6.4-7.7-8.8-12.2c-0.3,1.5-0.2,3-0.6,4.6c-3.8-6-8.2-11.5-10.1-18.3c-0.3-1.2-0.5-2.5-0.9-3.8c-0.3,1.5-0.6,2.9-1.4,4.3
			c-0.8-1.9-1-3.8-1.2-5.7c-0.3-2,0.1-3.9,0.7-6c-1.7,1.6-2.6,3.6-4.7,4.7c0.1-4.3-1.4-8.6,0.9-12.7c-0.7,0.5-1.1,1.3-1.8,1.8
			c-0.7,0.5-1.4,1.1-2.3,1.3c-0.1,0-0.1-0.1-0.2-0.1c1.1-2.7,1.2-5.7,2.3-8.4c0.9-2.2,1.9-4.3,3.2-6.3c0.2,0.9,0.2,1.1,0,1.7
			c-0.2,0.6-0.7,1-0.7,1.8c3.1,0,5.5-1.4,7.8-3.3c0.1,3,1.4,5.4,3,7.9c0.8-1.3,0.4-2.6,1-3.9c1.9,3.3,4.7,5.6,7.6,7.7
			c-2.8-3.1-6.5-5.4-7.7-10c-0.7,1.6-0.8,3.1-1,4.8c-1.1-1.6-1.7-3.1-2-4.7c-0.4-1.6,0.1-3.2,0.5-4.9c-0.7,1.6-1.9,2.8-3.3,3.8
			c-1.4,1-3,1.7-4.8,2c0.9-1.8,0.7-3.6,1-5.3c0.3-2.1,0.7-4.2,2.3-5.9c-1.4,1.1-2.8,2.1-4.7,1.8c1.5-2.8,2.5-5.9,4.2-8.6
			c0.2-0.3,0.4-0.6,0.3-1c0.1-1.1,0.7-1.9,1.3-2.7c0.7,0.1,1.2,0.7,2.3,0.7c-2.7-1.5-5.3-2.7-7.9-3.8c-3.1-1.9-4.6-4.9-4.3-8.3
			c0.4-4.6,3.5-7.2,7.9-8.3c-0.1-1-0.7-1.7-0.8-2.6c-0.1-0.6-0.3-1.1-0.2-1.7c0.5-2.9,1.6-5.6,3.1-8.1c0.1-0.1,0.2-0.1,0.3-0.2
			c1.4-1.8,2.8-3.6,4.7-4.8c0.6-0.4,1.1-0.7,1.9-0.8c-0.3,0.9-1,1.2-1.6,1.9c2.1,0.1,3.9-0.4,5.6-1.4c0.1,0,0.1,0,0.1,0.1
			c-0.2,1.6,0,3.1,0.5,4.6c0,0.1,0,0.1-0.1,0.1c-2.3-2-3.7-2.1-6.1-0.1c-2.7,2.2-4.1,5.1-4.5,8.6c-0.2,1.4,1.8,3.9,3.1,4.1
			c0,0,0.1,0.1,0.1,0.1c0,0,0.1,0.1,0.1,0.1c0.1,0,0.1,0.1,0.2,0.1c0,0.1-0.1,0.2-0.1,0.2c1.1,1.3,5,2.6,6.6,2c1-0.3,1.8-1,2.2-2
			c0.6-1.4,0.8-2.8,0.7-4.3c-0.1-1-0.1-2,0.7-2.8c0.5-0.5,0.7-1.3,1.1-2.3c0.5,3.4,2.6,6,3.7,9.4c1-2.5,1.6-4.8,2.8-6.9
			c0.1,1.4,0.2,2.7,0.6,4.1c1.1-2.4,2.6-4.5,4.2-6.6c0.2,0,0.2,0,0.2,0.2c-0.4,2.5-0.8,5-0.3,7.5c0.4,1.8,1.1,3.6,3.3,3.8
			c2.5,0.3,4.6-0.8,6.4-2.4c0,0-0.1-0.1-0.1-0.2l0,0c0.7,0.3,0.8-0.4,1.2-0.6c2.1-1.6,2.4-3.7,1.5-6.1c-1-2.7-2.4-5.1-4.9-6.7
			c-0.4-0.2-0.7-0.4-0.6-0.9c0.2-1.1,0.2-2.3,0.6-3.5c2.6,1.3,4.3,3.3,5.8,5.5c0.9,0.5,1.1,1.4,1.4,2.2c1,2.2,1.9,4.4,1.8,6.9
			c0,1.2-0.6,2.2-1,3.4c3.9,0.8,6.6,3,7.8,6.7c1,3.3-0.6,7.7-3.2,9.5l0,0c-0.2,0.1-0.4,0.1-0.5,0.2l0,0
			C108.8,75.3,108.7,75.4,108.6,75.5z"/>
		<path class="st3" d="M66.6,137.9c-0.1,2.4,0.4,4.8,0.5,7.2c0.1,2.7,0.5,5.5,0.6,8.2c0.2,4.1,0.5,8.2,0.4,12.3
			c-0.1,4.9-0.2,9.9-0.8,14.8c-0.4,3-0.5,6.1-0.8,9.2c-0.4,3.9-0.8,7.8-1.3,11.8c-0.4,3.2-0.8,6.4-1.1,9.6
			c-0.3,3.6-0.8,7.1-1.3,10.7c-0.7,5.4-1.6,10.8-2.8,16.1c-1.7,7.4-6.2,12.2-13.6,14c-1.6,0.4-3.2,0.4-4.9,0.4
			c-0.9-5-1.8-10-1.6-15.1c0.3-7.2,0.9-14.3,2.5-21.4c1.7-7.5,3.6-14.8,5.8-22.1c2-6.9,4.2-13.8,5.5-20.8c1.3-7,2.2-14.1,2-21.2
			c-0.1-6.2-0.2-12.4-0.8-18.6c-0.3-3.4-0.3-6.8-0.4-10.2c0-0.6,0.2-1.2,0.3-2c0.4,0.9,0.1,1.5,0.2,2.1c1.2-0.2,2-0.7,4.1-2.8
			c-0.6,3.7,0.5,6.9,1.4,10.2c1.1-0.5,1.2-1.6,1.8-2.5c1,3.4,2.5,6.6,4,9.7C66.4,137.7,66.5,137.8,66.6,137.9L66.6,137.9z"/>
		<path class="st3" d="M124,252.1c-7.5,0.1-13.3-2.9-16.9-9.6c-1.3-2.4-1.8-5-2.3-7.7c-0.6-3.4-1.3-6.8-1.8-10.2
			c-0.5-3.5-1-7-1.4-10.5c-0.5-3.9-0.9-7.8-1.3-11.8c-0.5-5.1-1.2-10.2-1.6-15.3c-0.4-4.6-0.9-9.2-1.1-13.8
			c-0.2-3.5-0.3-6.9-0.2-10.4c0.2-6.2,0.5-12.3,1.1-18.5c0.2-2.1,0.6-4.3,0.5-6.4c1.6-3.2,3.1-6.5,4.1-10c0.6,0.9,0.7,2,1.8,2.6
			c0.9-3.4,2-6.6,1.4-10.3c1.3,1.2,2.5,2.4,4.1,2.9c0.2-0.7-0.2-1.3,0.2-2c0.6,1.7,0.4,3.4,0.3,5c-0.3,5.3-0.7,10.7-0.9,16
			c-0.2,5-0.4,10-0.1,15c0.5,10.4,2.6,20.4,5.6,30.3c3.2,10.6,6.3,21.2,8.3,32.1c1.5,8.3,2.4,16.8,1.4,25.3
			C124.9,247.2,124.4,249.6,124,252.1z"/>
		<path class="st2" d="M141.5,143.1c1.3,3.6,2.5,7.3,3.5,11.1c2.2,8.1,4.6,16,8.1,23.6c1.2,2.5,2,5.2,3,7.8c1,2.6,2.4,5,4.1,7.1
			c2.1,2.5,3.7,5.3,4.4,8.6c0.5,2.4,0.2,4.8-1,6.9c-0.4,0-0.4-0.3-0.5-0.4c-0.8-0.8-1.7-0.7-2.2,0.4c-0.3,0.7-0.3,1.3-0.1,2
			c0.2,0.7-0.2,1-0.9,1.1c0.5-5.6-0.9-10.6-4.4-15c-0.3-0.2-0.2,0.1-0.2,0.2c2.3,3.4,3.8,7.1,4.2,11.2c0.3,3.6-1,6.4-4.2,8.1
			c0-1,0.2-2-0.7-2.7c-0.3-0.2-0.5-0.3-0.9-0.3c-1.1,0.1-1.6,1.2-1.7,3.8c-1.5,0.2-2.9-0.2-4.2-0.8c-0.6-0.3-0.5-0.9-0.4-1.4
			c0.4-4.9-0.3-9.7-1.8-14.4c-0.2-0.6-0.3-1.2-1.1-1.9c1.3,3.3,1.8,6.5,2.2,9.7c0.2,2.2,0.4,4.4,0.2,6.6c-0.2,1.6-1.9,3-3.9,3
			c0-0.7,0.1-1.5,0-2.2c-0.1-0.8-0.5-1.5-1.4-1.6c-0.9-0.1-1.3,0.7-1.5,1.4c-0.2,0.7-0.1,1.4,0,2.1c-3.6-0.3-6.3-3.5-6-7.2
			c0.2-2.5,0.7-4.9,1-7.4c0.1-0.6,0.3-1.2,0-1.8c-0.6-0.1-0.6,0.4-0.8,0.7c-0.5,1-1,1.9-1.7,2.7c-1.4,1.6-3.1,2-5.1,1
			c0.6-1,0.9-2.2-0.4-2.9c-1.1-0.6-1.6,0.3-2.1,1.1c-1.9-1.9-2.2-5.1-0.7-7.8c1-1.9,2.5-3.5,4-5.1c0.6-0.6,1.2-1.3,1.4-2.2
			c0.4-1.6,0.8-3.3,1.6-4.8c0.7-1.5,1.6-2.9,2.8-4.1c-1,0.3-1.7,1-2.4,1.9c-0.2-0.8-0.4-1.4-0.7-2c-1.3-3.6-2.6-7.2-3.8-10.9
			c-1.2-3.6-1.9-7.3-2.4-11.1c-0.4-2.5-1-5-2.1-7.3c0.6-1.1,1.6-1.5,2.6-2c3.7-1.9,7.6-3.3,11.6-4.4c1.1-0.3,2.1-0.6,3.3-0.8
			C140.6,142.9,141.1,142.8,141.5,143.1z"/>
		<path class="st2" d="M31.7,179.8c2.1,2.1,3.3,4.7,3.9,7.5c0.3,1.4,1,2.5,1.9,3.5c1.4,1.4,2.7,3,3.7,4.7c1.4,2.6,1.2,5.6-0.5,7.8
			c-0.6-0.8-1.2-1.7-2.2-1c-1.1,0.7-0.9,1.8-0.3,2.8c-1.6,0.9-3.3,0.8-4.6-0.4c-1.3-1.1-1.9-2.7-2.9-4.3c-0.4,0.9-0.2,1.6-0.1,2.2
			c0.3,2.4,0.8,4.7,0.9,7.1c0.2,4-1.7,6.5-5.8,7.5c0.1-0.8,0.3-1.5,0.1-2.3c-0.2-0.8-0.6-1.5-1.5-1.4c-0.9,0.1-1.3,0.8-1.4,1.6
			c-0.1,0.7,0,1.4,0.2,2.1c-1.9,0.4-4-1.3-4.1-3.3c-0.3-5.3,0.5-10.4,2.1-15.4c0-0.1-0.1-0.2-0.2-0.2c-1.1,1.8-1.5,3.9-1.9,5.9
			c-0.6,3.3-1,6.7-0.6,10.1c0.1,0.8-0.2,1.3-1,1.5c-1.1,0.4-2.3,0.6-3.6,0.7c0-0.7,0.1-1.3,0-1.9c-0.1-1.1-1-2.1-1.8-1.9
			c-1.1,0.2-1.4,1.1-1.4,2.1c0,0.3,0,0.5,0,1c-2.3-1.4-4-3-4.2-5.6c-0.4-4,0.6-7.7,2.5-11.2c0.5-0.8,1-1.7,1.4-2.5
			c-0.1-0.1,0.1-0.2,0-0.4c-0.1,0.1-0.2,0.1-0.3,0.2c-3.4,4.3-4.7,9.2-4.2,14.7c-0.6,0-0.9-0.3-0.8-0.8C5,210,5,209.6,5,209.1
			c0-0.8-0.2-1.4-1-1.7c-0.6-0.3-0.9-0.1-1.9,1.1c-1.6-2.6-1.7-5.4-0.9-8.2c0.6-2.2,1.6-4.4,3.1-6.2c3.3-3.9,5.3-8.4,7-13.1
			c1.1-3.3,2.6-6.4,3.9-9.6c2.4-5.7,3.8-11.8,5.5-17.7c1-3.5,2.1-7,3.4-10.5c0.4-0.3,0.8-0.2,1.3-0.2c5.9,1.3,11.6,3.2,16.8,6.3
			c0.3,0.2,0.7,0.3,0.7,0.7c-1.9,3.8-2.2,8-2.9,12c-0.9,4.7-2.5,9.3-4.2,13.8c-0.7,1.8-1.2,3.6-1.9,5.5c-0.7-0.6-1.2-1.4-2-1.7
			C31.6,179.5,31.7,179.7,31.7,179.8z"/>
		<path class="st3" d="M42.9,150c-3.6-2.2-7.4-3.8-11.4-5.1c-2.4-0.8-4.8-1.5-7.4-1.8c0.6-1.8,1.1-3.6,1.7-5.4
			c3-9.9,5.2-20,6.5-30.3c0.2-1.5,0.5-2.9,1.3-4.4c-1.1,0.5-1.9,1.2-2.9,1.4c0.3-1.6,1.3-3.9,2.4-5.1c-0.7-0.2-1.2-0.3-1.8-0.5
			c-0.6-0.2-1.1-0.4-1.9-0.7c3.2-1.3,3.9-4.9,7.2-5.8c-0.6-0.4-1.2-0.7-1.4-1.3c6-0.3,11.6-2.3,17.2-4.3c2.1-0.7,4.2-1.3,6.3-1.9
			c0.1,0,0.1,0.1,0.2,0.2c-1,2.2-1.5,4.6-3.3,6.6c1.4,0.5,2.6-0.2,3.9-0.2c-0.4,1.2-0.5,2.4-0.7,3.5c-0.1,0.5-0.2,1-0.5,1.4
			c-2.7,4-4.6,8.4-5.4,13.2c-0.2,1.3-0.8,2.6-1.4,4c1.5-0.1,2.6-1,3.9-1.5c-0.4,1.9-0.3,3.7-0.2,5.5c0.1,1.5-0.5,3-1,4.4
			c-3.1,8.4-6.3,16.8-9.4,25.2C44,148,43.6,149,42.9,150z"/>
		<path class="st3" d="M141.5,143.1c-3.6,0.5-7,1.7-10.4,2.9c-2.9,1.1-5.8,2.3-8.3,4.1c-1.4-2.3-2.2-4.9-3.2-7.5
			c-2.1-5.6-4.2-11.1-6.3-16.7c-1-2.7-2.4-5.3-2.6-8.2c-0.1-1.9,0.2-3.9-0.3-5.9c1.4,0.6,2.4,1.5,4,1.6c-1.5-2.3-1.6-4.9-2.3-7.3
			c-0.9-3.3-2.3-6.4-4.2-9.2c-0.6-0.9-1-1.8-1.1-2.9c-0.1-0.9-0.2-1.8-0.6-2.7c1.3,0,2.6,0.6,4,0.2c-1.8-2-2.3-4.4-3.4-6.8
			c3.7,1,7.2,2.2,10.7,3.4c3.4,1.2,6.9,2.2,10.6,2.6c0.8,0.1,1.5,0.1,2.3,0c0.1,0,0.1,0.1,0.2,0.2c-0.2,0.6-0.9,0.9-1.5,1.3
			c3.2,0.9,4,4.6,7,5.8c-1.1,0.8-2.4,0.8-3.6,1.3c1.5,1.4,1.7,3.3,2.6,5.1c-1.1-0.1-1.8-0.8-2.6-1.1c-0.2-0.1-0.1,0.1-0.2,0.1
			c1.1,2.3,1.1,4.9,1.5,7.3c1.7,10.7,3.9,21.2,7.5,31.4C141.4,142.5,141.4,142.8,141.5,143.1z"/>
		<path class="st3" d="M91.5,27.1c1.6,1.8,3.2,3.5,4.1,5.8c0.8,2.3,1,4.7,0.6,7.1c-0.2,1.2-0.4,2.5-0.6,3.9
			c-1.3-2.2-1.3-4.5-1.8-6.8c-0.1,0.8-0.3,1.7-0.3,2.5c0,2.5-0.9,4.6-2.2,6.6c-1.3,1.9-2.7,3.8-4.1,5.6c-0.6,0.9-1.2,1.8-1.7,3.1
			c-0.4-2.6,0-4.9,0.3-7.3c-1.2,3.2-3,6.1-3.8,9.4c-2.3-4.1-4.5-8.2-3.2-13.1c-1.1,2.5-0.7,5.4-2.4,8c-0.3-3.1-1.7-5.6-2.1-8.4
			c-0.3-1.9,0.2-3.7,1.2-5.4c-0.1-0.1,0-0.2,0.1-0.3c0,0,0-0.1,0-0.1c0,0.1-0.1,0.1-0.2,0.2c-0.2,0.3-0.5,0.6-0.7,0.9
			c-1,2-2.8,2.8-5.2,3c2.2-2.5,2.8-6,5.7-7.7c0-0.1,0-0.2-0.1-0.1c-3.2,1.5-6.8-0.2-8.7-4c4.3,1.5,7.8-1.2,11.7-1.8
			c-0.5,0-1-0.1-1.5,0c-2.3,0.4-4.1-0.4-5.6-2c-0.1-0.1-0.2-0.2-0.4,0l0,0c-0.1-0.8-0.5-1.3-1.2-1.7l0,0c0.3-0.4-0.3-0.6-0.1-1
			c2.5,1.2,5.1,1.8,7.9,1.8c-1.9-0.5-4.1-0.5-5.5-2.5c2.2,0.8,4.3,0.5,6.4,0c3.4-0.8,6.7-0.7,10,0.6c0,0.1,0.1,0.1,0.2,0.1
			c0,0,0.1,0,0.1,0s-0.1-0.1-0.1-0.1c-0.1,0-0.1,0-0.2-0.1c-0.3-0.6-0.8-0.6-1.3-0.8c-1.7-0.7-2.8-2-3.4-3.9
			c2.8,1.9,6.1,2.4,8.2,4.9c0.1-0.1,0.2-0.1,0.2,0c0,0,0.1,0,0.1,0c-0.1-0.1-0.1-0.2-0.1-0.3c-0.5-1.3-1-2.5-0.9-4.3
			c0.9,1.9,1.4,3.7,3,4.8c-0.5,1.2-0.9,2.3-1.3,3.4C92,27.4,91.9,27,91.5,27.1c0-0.1,0-0.2,0-0.2c0,0,0,0.1,0,0.1s0.1,0,0.1,0
			C91.5,27,91.5,27,91.5,27.1z"/>
		<path class="st2" d="M60.8,5.2c0.9-0.3,1.4,0.2,1.7,1c0.8,1.9,1.1,3.9,1.4,5.9c0.5,4.7,0.9,9.5,0.7,14.2
			c-0.1,3.5-0.3,6.9-0.4,10.4c0,0.2,0,0.5-0.2,0.7c-1,1.3-1.8,2.7-2.5,4.3c-0.5-0.5-0.9-0.9-1.3-1.4c-0.3,0.1-0.3-0.3-0.4-0.4
			c-1.3-1.4-2-3.1-3-4.7c1-0.6,1.9,0.2,2.7,0.1c-0.1-0.4-0.3-0.7-0.5-1c-0.8-1.4-1.3-2.9-1.3-4.5c0-1-0.4-2-0.6-3
			c-0.1-0.4-0.4-0.7-0.1-1.1c0.2-0.2,0.3,0,0.5,0.1c0.7,0.4,1.2,1.2,2.1,1.5c0.1,0.1,0.2,0.2,0.3,0.3c-0.1-1.6-0.7-3.1-0.3-4.7
			c0.1-0.1,0.2-0.1,0.3-0.1c0.4,0.2,0.6,0.5,0.7,0.9c-0.1-1.9-0.5-3.7-0.4-5.4c-0.3,1.3,0.5,2.7,0.2,4.1c-0.1,0.1-0.1,0.2-0.2,0.2
			c-0.4-0.1-0.5-0.5-0.8-0.7c0.3,1.2,0,2.5,0.4,3.7c0.1,0.4,0.1,0.8-0.1,1.2c-0.4,0.3-0.7,0.1-1-0.2c-0.3-0.3-0.6-0.5-0.9-0.7
			c-0.1-0.1-0.3-0.2-0.4-0.3c-0.2-0.1-0.5,0-0.4,0.2c1,2.3,0.6,4.9,1.5,7.3c0.2,0.5,0.4,1,0.8,1.4c0.3,0.9-0.4,0.7-0.8,0.7
			c-0.5-0.1-1-0.3-1.9-0.2c1.3,1.7,1.9,3.6,3.3,5c0.2,0.2,0.2,0.4,0.3,0.6c1.5,1.2,1.1,2.6,0.4,4.1c-1,2.2-2.3,4.2-4.2,5.9
			c-1.4-2.3-2.3-4.6-2.9-7.2c-1.4-6.2-1.2-12.5-0.4-18.8c0.7-5.5,2.4-10.7,5-15.6c0.1-0.2,0.4-0.4,0.1-0.7c0,0,0-0.1,0.1-0.1
			c0.1-0.2,0.2-0.3,0.3-0.5c0-0.1,0.1-0.2,0.2-0.2C58.8,7.3,58.9,7.1,59,7c0-0.1,0.1-0.2,0.2-0.2c0.1-0.1,0.2-0.2,0.3-0.3
			c0.1-0.1,0.1-0.1,0.2-0.2c0.1-0.1,0.2-0.3,0.3-0.4c0-0.1,0.1-0.1,0.1-0.2c0.1-0.1,0.1-0.1,0.2-0.2c0.1-0.1,0.1-0.1,0.2-0.1
			c0.1,0,0.2-0.1,0.2-0.1C60.7,5.2,60.8,5.2,60.8,5.2z"/>
		<path class="st2" d="M106.9,7.5c-0.2,0.4,0.1,0.6,0.2,0.8c3.6,6.3,5.2,13.1,5.8,20.3c0.3,3.6,0.2,7.2-0.1,10.7
			c-2.4,0.9-3,2.7-1.7,4.9c0.4,0.7,0.4,1.2,0.1,1.9c-0.6,1.5-1.2,2.9-2.1,4.4c-2.5-2.3-4.1-5-5-8.2c0-0.2,0.1-0.4,0.2-0.6
			c0-0.6,0.5-0.7,0.8-1.1c0.2-0.2,0.1-0.4,0.3-0.6c1.5-1.5,2.2-3.4,3.4-5.1c-0.9-0.6-1.7,0.6-2.5-0.1c0.3-1.4,1.3-2.6,1.4-4.1
			c0.1-1.8,0.5-3.5,1-5.3c-0.9,0.2-1.3,0.8-1.9,1.3c-0.2,0.2-0.4,0.2-0.6,0.3c-0.5,0.1-0.6-0.2-0.5-0.5c0.3-1.5,0.4-3.1,0.5-4.8
			c-0.3,0.1-0.4,0.4-0.7,0.5c-0.1,0-0.2,0-0.3-0.1c-0.4-1.4,0.4-2.7,0.2-3.8c-0.1,1.5-0.3,3.4-0.5,5.2c0.2-0.3,0.4-0.7,0.9-0.8
			c0.7,1.7-0.3,3.3-0.3,4.9c0.3-0.1,0.4-0.4,0.7-0.4c0.2-0.2,0.4-0.2,0.6-0.3c0.5-0.3,0.7-1,1.4-1c0.1,0.1,0.2,0.2,0.2,0.3
			c-0.3,1.5-0.7,2.9-0.7,4.5c0,1.5-0.9,2.9-1.5,4.3c-0.1,0.2-0.2,0.3-0.3,0.5c0.9,0.1,1.7-0.7,2.7-0.1c-1,1.7-1.8,3.5-3.1,4.9
			c-0.2,0.1-0.2,0.4-0.3,0.5c-0.3,0.3-0.6,0.7-1,1c-0.2,0-0.3-0.1-0.4-0.3c-0.2-0.5-0.3-1-0.7-1.4c-2-2.2-1.8-4.9-1.9-7.6
			c-0.2-3.7-0.4-7.5-0.2-11.2c0.2-4.1,0.4-8.2,1.2-12.2c0.2-0.9,0.5-1.8,0.8-2.6c0.3-0.8,0.8-1.3,1.8-1.1c0,0,0.1,0,0.1,0
			c0.1,0.1,0.2,0.1,0.3,0.2c0.1,0.1,0.1,0.1,0.2,0.2c0.1,0.1,0.1,0.1,0.2,0.2c0,0,0.1,0.1,0.1,0.1c0.1,0.1,0.1,0.1,0.2,0.2
			c0.1,0.1,0.1,0.2,0.2,0.2c0.3,0.4,0.6,0.7,0.8,1.1C106.9,7.4,106.9,7.5,106.9,7.5z"/>
		<path class="st3" d="M46.5,33.5c0.6,0.8,1.2,1.7,1.9,2.5c-0.1-2.6,0.1-5.2,0.5-7.7c1.3-7.5,2.9-15,6.8-21.7c1-1.8,2.1-3.6,3.9-4.8
			c2.1-1.6,3.5-1.3,4.9,0.9c2.5,3.9,3.4,8.4,4.1,12.9c0.4,2.4,0.6,4.9,0.9,7.2c-0.5,0.4-0.7-0.2-1.1,0c0.2,0.7,0.4,1.3,1,1.8
			c0,0,0,0,0,0c0.6,1.7,0.4,3.4,0.5,5.2c-1.5,0.2-2.9,0.2-4.2-0.7c0.3,1.6,1.2,2.9,3.3,4.8c-1.5,0.5-2.8,1.4-4,2.5
			c-0.2-2.2,0.1-4.2,0.2-6.2c0.3-6.7,0.2-13.3-0.7-19.9c-0.3-1.9-0.8-3.7-1.7-5.3c-0.2-0.3-0.2-0.8-0.7-0.8l0,0c0,0.2,0,0.5-0.3,0.5
			c-0.3,0-0.7,0-0.7,0.5c0,0,0,0,0,0c-0.1,0.2-0.4,0.1-0.5,0.2l0,0c-0.1,0.1-0.2,0.2-0.3,0.3l0,0c-0.2,0.2-0.3,0.5-0.5,0.7l0,0
			c-0.1,0.2-0.3,0.3-0.5,0.5l0,0c-0.2,0.2-0.2,0.6-0.5,0.7l0,0c-0.2,0.2-0.2,0.5-0.5,0.7c0,0,0,0,0,0c-1.6,2.1-2.5,4.6-3.4,7.1
			C53,20.5,52.2,26,52.1,31.5c-0.2,4.8,0,9.6,1.6,14.3c0.6,1.8,1.4,3.5,2.3,5.2c-1.5,1.5-3.2,2.6-5.1,3.7c-1.8-2.1-3.1-4.7-5.1-6.9
			c1.5,0,2.6,0.8,4,1c-3.4-2.6-3.9-6.5-4.5-10.4c0.9,0.6,1.7,1.2,2.6,1.8l0.1,0.1l-0.1-0.1C46.8,38,46.4,35.8,46.5,33.5L46.5,33.5z"
			/>
		<path class="st3" d="M103.8,3.9c-2.1,2.9-2.6,6.2-2.8,9.6c-0.3,4-0.6,8-0.5,12c0.1,3.6,0.3,7.2,0.5,11c-1.4-1.2-2.8-2-4.3-2.7
			c-0.7-0.3-0.9-1.6-0.8-2.6c0.1-5.8,0.6-11.6,1.6-17.4c0.7-3.9,1.6-7.7,3.8-11.1c1.4-2.2,2.8-2.5,4.9-0.9c2.5,1.9,4,4.7,5.3,7.4
			c3.4,7.4,5.1,15.3,5.8,23.4c0.1,1.1,0,2.2,0,3.5c0.6-0.9,1.2-1.8,2-2.9c-0.2,2.6-0.3,4.8-1.4,6.9c0,0.1,0,0.2,0.1,0.1
			c0.8-0.6,1.7-1.2,2.6-1.9c-0.5,2.1-0.7,4.1-1.4,6.1c-0.3,0.8-0.8,1.1-1.6,0.9c-1.1-0.2-2.2-0.4-3.1-1.1c-0.9-0.7-1.6-1.4-1.4-2.9
			c1.2-10.3,0.4-20.3-3.9-29.9c-0.6-1.4-1.2-2.8-2.2-3.9c0,0,0,0,0,0c-0.4-0.5-0.8-1-1.2-1.5l0,0c-0.1-0.1-0.2-0.2-0.3-0.3l0,0
			c-0.1-0.1-0.2-0.2-0.3-0.3l0,0c-0.1-0.2-0.3-0.4-0.5-0.5c0,0,0,0,0,0C104.7,4.5,103.4,4.9,103.8,3.9L103.8,3.9z"/>
		<path class="st3" d="M63,46.3c-1,2-1.9,4-2.6,6.2c-0.7,2-0.5,3.8,0.4,5.7c0.2,0.3,0.3,0.6,0.5,1c-0.6,0.4-1.3,0.3-2,0.5
			c-5.9,1.7-8,8.2-4.5,13.6c0.6,0.9,1.4,1.6,2.2,2.3c-3.5-1.2-7.2-1.7-11.1-1.5c0.1-2.2,0.7-4,1.8-6c-1.3,0.5-2.2,1.3-3.3,2.1
			c0.1-1.7,1-2.8,2-3.9c-1.1-0.5-2.3-0.4-3.3-1.1c2.7-1.9,3.8-5.2,6.5-7.3c-0.6-0.3-1.4-0.1-2-0.6c4-1.4,7.1-3.9,9.9-6.8
			c1.8-1.8,3.1-3.9,3.9-6.4c0.7-2.2,1.8-4.3,3.1-6.2c0.8-1.1,1.8-2,2.9-2.6c1.1-0.6,2.1-1,3.4-0.4c0.6,0.3,1.3,0.3,2,0.5
			c-0.6,1-1.1,2.1-2.6,2.2c-1.6,0.2-3,1.2-4,2.4C64.8,41.9,63.6,43.9,63,46.3z"/>
		<path class="st3" d="M109.4,75c0.9-1.2,1.8-2.4,2.5-3.8c2.6-5.2-1.5-11.1-6.1-11.9c-0.5-0.1-0.9-0.2-1.5-0.3
			c0.5-1.3,1.2-2.4,1.3-3.8c0.1-2.2-0.8-4.2-1.6-6.2c-0.4-1-0.9-1.9-1.4-2.8c-0.7-3.1-2.3-5.7-4.8-7.6c-0.7-0.5-1.1-1-0.9-1.8
			c0.1-0.7,0-1.4-0.3-2.3c1.9,0.5,3.2,1.6,4.3,3c1.2,1.6,2.2,3.3,2.9,5.2c2.6,6.9,7.3,11.7,14.2,14.4c-0.6,0.5-1.3,0.3-2.1,0.5
			c2.7,2.1,3.8,5.4,6.6,7.4c-1,0.7-2.2,0.6-3.3,1.1c0.9,1.1,1.8,2.3,2,3.9c-1.1-0.6-1.9-1.5-3.2-1.9c1,1.9,1.6,3.7,1.7,5.8
			c-2,0-4,0-5.9,0.2C112.3,74.4,110.9,75,109.4,75z"/>
		<path class="st4" d="M69.8,60.1c-1.2,0-1.9-0.9-2.9-1.3c0,0,0,0,0,0c-0.1-0.1-0.4-0.1-0.5-0.3c0.1,0,0.1,0,0.1-0.1
			c-0.2-0.3-0.4-0.6-0.7-0.8c-1.7-1.5-1.9-3.3-1-5.3c0.8-2,1.9-3.9,3.9-5.1c2.4-1.5,4.3-1,5.8,1.4c0.8,1.3,1.1,2.7,1.4,4.2
			c0,0.3-0.2,0.2-0.3,0.2c0,0-0.1,0-0.1-0.1c-0.1-0.1-0.1-0.1-0.2-0.2c0-0.1-0.1-0.1-0.1-0.2c0-0.1-0.1-0.1-0.1-0.2
			c0-0.1-0.1-0.1-0.1-0.2c-0.1-0.1-0.1-0.1-0.2-0.2c-0.1-0.1-0.1-0.1-0.2-0.2c0,0-0.1-0.1-0.1-0.1c-0.1-0.1-0.1-0.1-0.2-0.2
			c-0.1-0.1-0.1-0.1-0.2-0.2c-0.1-0.1-0.3-0.2-0.5-0.3c-0.1,0-0.2-0.1-0.3-0.1c-0.8-0.3-1.6-0.3-2.4,0.1c-0.1,0.1-0.2,0.1-0.2,0.2
			c-0.1,0.1-0.2,0.1-0.2,0.2c-0.1,0.1-0.1,0.1-0.2,0.2c-0.1,0.1-0.2,0.2-0.3,0.3c-0.1,0.1-0.1,0.2-0.2,0.2c-0.1,0.1-0.1,0.2-0.2,0.2
			c0,0-0.1,0.1-0.1,0.1c-1.2,2.2-1.2,4.3,0,6.5c0.1,0.1,0.1,0.2,0.2,0.3C69.8,59.6,69.9,59.8,69.8,60.1z"/>
		<path class="st4" d="M99,58.6c-1,0.5-1.9,1.3-3.2,1.6c0.6-1,1.3-1.8,1.3-2.9c0-0.2,0.1-0.4,0.1-0.6c0.1-1.5,0.2-2.9-0.9-4.1
			c0,0-0.1,0-0.1-0.1c-0.1-0.1-0.2-0.3-0.3-0.4c-0.1-0.1-0.1-0.1-0.2-0.2c-0.1-0.1-0.1-0.1-0.2-0.2c0,0-0.1-0.1-0.1-0.1
			c-0.1-0.1-0.1-0.1-0.2-0.2c-0.1-0.1-0.1-0.1-0.2-0.2c-1.1-0.7-2.2-0.7-3.3,0c-0.1,0.1-0.1,0.1-0.2,0.2c-0.1,0.1-0.1,0.1-0.2,0.2
			c0,0-0.1,0.1-0.1,0.1c-0.1,0.1-0.2,0.1-0.2,0.1c0,0-0.1,0-0.1,0c-0.5,0.1-0.5,0.7-0.8,0.9c-0.1-1.9,1-4.4,2.4-5.5
			c1.1-0.9,2.4-1,3.6-0.4c3.1,1.6,4.7,4.3,5.2,7.6c0.2,1.1-0.4,2-1.1,2.8C99.8,57.8,99.2,58.1,99,58.6C99,58.7,99,58.6,99,58.6z"/>
		<path class="st3" d="M112.9,45.9c1,1.2,2.5,1.4,3.8,1.9c0,0.5-0.6,0.5-0.8,1.1c1.3-0.3,2.3-1.1,3.8-1c-1.9,2.1-3.2,4.6-5,6.7
			c-1.9-1-3.6-2.2-5.1-3.6c0.9-1.8,1.7-3.5,2.3-5.4C112.4,45.5,112.6,46.1,112.9,45.9C113,46,112.9,45.9,112.9,45.9z"/>
		<path class="st3" d="M75.5,53.1c0.4,1.6,0.6,3.3,0,4.9c-0.9,2.6-2.9,3.5-5.3,2.1c-0.3-0.2-0.5-0.5-0.7-0.7l0,0
			c-1.5-2.4-1.4-4.8,0-7.2l0,0c0.1-0.1,0.2-0.1,0.2-0.2l0,0c0.2-0.2,0.3-0.3,0.5-0.5l0,0c0.1,0,0.2-0.1,0.2-0.2l0,0
			c1-0.6,2.1-0.8,3.2-0.2l0,0c0.2,0.2,0.5,0.3,0.7,0.5l0,0c0.1,0.1,0.1,0.2,0.2,0.2l0,0c0.1,0.1,0.1,0.2,0.1,0.3
			c0,0.1-0.1,0.2-0.2,0.3c-0.8,0-1.5,0.2-2.1,0.8c-1.6,1.1-2.2,3.1-1.3,4.7c0.3,0.6,0.7,1.1,1.4,1.1c0.7-0.1,1-0.6,1.3-1.1
			c0.1-0.3,0.2-0.6,0.3-0.9c0.3-0.5,0.3-0.9,0-1.4c-0.1-0.2-0.1-0.3-0.1-0.5c0.5-0.9,0.2-1.9,0.5-2.8c0.2-0.1,0.3-0.1,0.5,0l0,0
			c0.1,0.2,0.1,0.4,0.3,0.5l0,0C75.4,52.8,75.3,53,75.5,53.1L75.5,53.1z"/>
		<path class="st3" d="M96.4,52.6c0.2,0.8,0.4,1.5,0.5,2.3c0.3,1.6-0.1,3.1-1,4.4c-1.4,2.1-3.9,2.1-5.2,0c-1.2-1.9-1.4-4-0.5-6.1
			c0.2-0.4,0.6-0.7,0.6-1.3c0,0,0,0,0,0c0.1-0.1,0.2-0.1,0.3-0.3l0,0c0.1-0.1,0.2-0.1,0.3-0.3l0,0c1.7-1.1,2.5-1.1,4.1,0l0,0
			c0.1,0.1,0.1,0.2,0.3,0.3l0,0c0.1,0.1,0.1,0.2,0.3,0.3l0,0C96.1,52.1,96.2,52.5,96.4,52.6L96.4,52.6z"/>
		<path class="st3" d="M62.6,78.6c-0.2,1-0.8,1.8-1.3,2.7c-1,1.8-2.5,2.9-4.8,3c1.1-2.2,2.3-4.4,3.4-6.7
			C60.9,77.9,61.8,78.2,62.6,78.6z"/>
		<path class="st3" d="M104.1,81.2c-0.2-0.9-1-1.7-1.1-2.7c0.8-0.3,1.6-0.7,2.6-1.1c1.2,2.2,2.3,4.3,3.3,6.6c0,0.1-0.1,0.2-0.2,0.2
			C106.6,84.1,105.3,82.8,104.1,81.2z"/>
		<path class="st3" d="M95.4,31c-0.8-1-1.5-1.9-2.2-2.7c-0.3-0.3-0.3-0.6-0.1-1c1.3-3.1,2.4-6.2,3.2-9.5
			C95.7,22.2,95.5,26.5,95.4,31z"/>
		<path class="st4" d="M154,217.8c-0.4-0.5-0.6,0.4-1,0.1c-0.4-1-0.6-2.2-0.3-3.3c0.1-0.6,0.4-1.2,1.2-1.1c0.7,0.1,0.9,0.7,0.9,1.3
			c0,0.8-0.1,1.6-0.6,2.3C154,217.3,153.6,217.5,154,217.8C154,217.8,154,217.8,154,217.8z"/>
		<path class="st4" d="M12.7,218.1c-1.3-0.9-1.8-2-1.7-3.4c0-0.6,0.2-1.2,0.9-1.2c0.7-0.1,1.1,0.5,1.2,1.1
			C13.3,215.7,13.1,216.9,12.7,218.1z"/>
		<path class="st4" d="M24.5,218.9c-1.1-1.2-1.5-2.4-1.1-3.9c0.1-0.4,0.4-0.8,0.9-0.8c0.5,0,0.7,0.4,0.9,0.9
			C25.5,216.3,24.9,217.5,24.5,218.9z"/>
		<path class="st4" d="M141.2,218.9c-0.3-1.2-0.8-2.2-0.7-3.3c0.1-0.6,0.2-1.4,1-1.4c0.8,0,0.9,0.8,0.9,1.4
			C142.5,216.8,142.2,217.8,141.2,218.9z"/>
		<path class="st4" d="M3.9,211.8c-1.1-0.7-1.6-2.4-1-3.4c0.2-0.3,0.4-0.5,0.7-0.5c0.5,0,0.7,0.4,0.8,0.8
			C4.6,209.8,4.4,210.8,3.9,211.8z"/>
		<path class="st3" d="M70.5,26.3c0.5,1.3,1.8,1.6,2.8,2.6c-0.9,0.7-2,0.7-3,1c-0.1-1.2-0.1-2.4-0.2-3.6
			C70.2,26.2,70.3,26.3,70.5,26.3C70.5,26.3,70.5,26.3,70.5,26.3z"/>
		<path class="st4" d="M161.9,212c-0.4-1-0.7-1.9-0.6-2.9c0.1-0.5,0.2-1.2,0.9-1.2c0.7,0,0.9,0.7,0.9,1.2
			C163.2,210.2,162.8,211.1,161.9,212z"/>
		<path class="st4" d="M125.8,206.4c-0.5-1-0.3-2-0.1-2.9c0.1-0.6,0.5-1,1.1-0.8c0.7,0.2,0.9,0.8,0.7,1.4
			C127.1,205,126.7,205.8,125.8,206.4z"/>
		<path class="st4" d="M40,206.4c-0.9-0.7-1.3-1.4-1.7-2.2c-0.3-0.6-0.1-1.3,0.5-1.5c0.7-0.3,1.1,0.2,1.2,0.9
			C40.3,204.5,40.3,205.4,40,206.4z"/>
		<path class="st2" d="M92.9,44.7c0.3-1,0.9-1.9,1.1-3c0.5,0.9,0.7,1.8,1.3,2.8c-0.8,0-1.5,0.1-2.2,0.4C93,44.8,92.9,44.7,92.9,44.7
			z"/>
		<path class="st3" d="M70.8,23.8c-0.8-0.2-1.1-0.6-1.1-1.4c-0.1-1.5-0.3-3-0.4-4.5c0.5,1.9,1.1,3.8,1.6,5.7
			C71,23.7,70.9,23.8,70.8,23.8z"/>
		<path class="st4" d="M27.2,315.7c-0.2,1.2-0.4,2.3-0.6,3.4C25.4,317.4,25.7,316.1,27.2,315.7z"/>
		<path class="st4" d="M138.5,315.7c1.5,0.4,1.7,1.9,0.6,3.4C139,318,138.8,316.9,138.5,315.7z"/>
		<path class="st5" d="M120.5,43.9c0.9,0.8,0.3,1.4-0.3,1.8c-0.9,0.7-2,1-3.1,0.4c0.1-0.3,0.4-0.1,0.6-0.2
			C119.4,45.8,120.2,45.3,120.5,43.9z"/>
		<path class="st5" d="M111.9,40.6c0.2,0.7-0.5,1.3-0.5,2c0,0.1-0.3,0-0.4,0C110.9,41.7,111.2,41.1,111.9,40.6z"/>
		<path class="st5" d="M120.9,41.8c-0.1,0.5,0.2,1.2-0.7,1.2c0.1-0.4,0.1-0.9,0.2-1.3C120.5,41.4,120.7,41.6,120.9,41.8z"/>
		<path class="st6" d="M69.5,59.4c0.4,0,0.5,0.4,0.7,0.7c-0.1,0-0.2,0-0.3,0c-0.1,0.1-0.2,0.1-0.2,0c0,0,0,0,0,0
			C69.7,59.9,69.3,59.8,69.5,59.4z"/>
		<path class="st3" d="M108.9,75.3c0.1-0.2,0.3-0.3,0.5-0.2C109.3,75.4,109.1,75.4,108.9,75.3z"/>
		<path class="st2" d="M89.5,49.7c0.1-0.1,0.1-0.3,0.3-0.2c0,0-0.1,0.3-0.1,0.4C89.7,49.8,89.6,49.8,89.5,49.7z"/>
		<path class="st6" d="M97.3,56.8c0,0.2,0,0.4-0.1,0.6C97.1,57.1,97.1,56.9,97.3,56.8z"/>
		<path class="st3" d="M71,23.6c0,0.1,0.1,0.1,0.1,0.2c-0.1,0.1-0.2,0.1-0.3,0C70.9,23.7,70.9,23.7,71,23.6z"/>
		<path class="st3" d="M46.5,33.5c-0.1,0.1-0.1,0.1-0.2,0c0,0,0-0.1,0-0.1C46.4,33.4,46.4,33.4,46.5,33.5
			C46.5,33.5,46.5,33.5,46.5,33.5z"/>
		<path class="st2" d="M74.2,45.9c0,0.1,0,0.2,0.1,0.3c-0.1,0-0.1-0.1-0.2-0.1C74.1,46,74.1,45.9,74.2,45.9z"/>
		<path class="st2" d="M107.4,97.3c-0.1,0-0.1,0-0.2-0.1c0,0,0-0.1,0-0.1C107.3,97.2,107.4,97.3,107.4,97.3
			C107.4,97.3,107.4,97.3,107.4,97.3z"/>
		<path class="st3" d="M130.3,90.7c0.1,0,0.2,0,0.3,0c0,0.1-0.1,0.1-0.1,0.2C130.4,90.8,130.4,90.8,130.3,90.7z"/>
		<path class="st3" d="M58.6,84.7c0.1-0.1,0.2-0.1,0.3,0c0,0-0.1,0.1-0.1,0.2C58.7,84.8,58.6,84.8,58.6,84.7z"/>
		<path class="st3" d="M108.9,84.1c0,0.1,0.1,0.1,0.1,0.2c-0.1,0-0.2,0-0.3,0C108.8,84.2,108.8,84.1,108.9,84.1z"/>
		<path class="st3" d="M108.6,75.5c0.1-0.1,0.2-0.2,0.3-0.2C108.9,75.5,108.7,75.4,108.6,75.5z"/>
		<path class="st5" d="M112.4,40.2c-0.1,0.1-0.2,0.1-0.2,0.2C112.1,40.2,112.3,40.2,112.4,40.2z"/>
		<path class="st2" d="M66.6,137.9c-0.1-0.1-0.1-0.2-0.2-0.3C66.5,137.7,66.6,137.8,66.6,137.9z"/>
		<path class="st4" d="M69.7,60.1c0.1,0,0.2,0,0.2,0c0,0.2-0.1,0.2-0.2,0.1C69.7,60.3,69.7,60.2,69.7,60.1z"/>
		<path class="st2" d="M113,112.1c0,0.1,0,0.2,0,0.2c0,0-0.1-0.1-0.1-0.1C112.9,112.2,113,112.2,113,112.1z"/>
		<path class="st2" d="M52.7,112.2c-0.1,0-0.1,0.1-0.2,0.1c0-0.1,0-0.2,0-0.3C52.6,112.1,52.7,112.2,52.7,112.2z"/>
		<path class="st5" d="M112.2,40.4c0,0.2-0.1,0.3-0.2,0.3C111.8,40.4,112,40.4,112.2,40.4z"/>
		<path class="st2" d="M73.5,41.1c0,0,0.1-0.1,0.1-0.1c0,0.1,0,0.2,0,0.2C73.6,41.2,73.6,41.2,73.5,41.1z"/>
		<path class="st2" d="M93.1,44.8c-0.1,0-0.1,0.1-0.2,0.1c0-0.1,0-0.2,0-0.3C92.9,44.7,93,44.7,93.1,44.8z"/>
		<path class="st0" d="M123.6,322.6c0,1-0.2,2.3-1.3,2.5c-1.1,0.2-1.3-1.2-1.6-2c-0.3-0.5-0.3-1.1-0.2-1.7c0.1-0.8,0.6-1.3,1.4-1.4
			c0.7-0.1,1.2,0.4,1.5,1C123.5,321.4,123.6,322,123.6,322.6z"/>
		<path class="st0" d="M42.1,322.8c0-0.9,0.1-1.5,0.4-2c0.3-0.5,0.7-0.9,1.4-0.8c0.7,0.1,1.2,0.6,1.3,1.2c0.3,1.5-0.3,2.7-1.2,3.9
			c-0.3,0.4-0.7,0.2-1-0.1C42.4,324.2,42.1,323.5,42.1,322.8z"/>
		<path class="st0" d="M30.6,320.5c0-0.6,0.1-1.2,0.4-1.7c0.3-0.6,0.8-1,1.5-0.9c0.7,0.2,1.1,0.6,1.2,1.3c0.2,1.4-0.3,2.6-1.2,3.6
			c-0.4,0.5-0.9,0.3-1.2-0.1C30.8,322.1,30.6,321.3,30.6,320.5z"/>
		<path class="st0" d="M135.1,320.5c-0.1,1.2-0.2,2.4-1.3,2.5c-0.9,0.1-1.2-1.1-1.5-1.9c-0.2-0.5-0.3-1-0.3-1.5
			c0-0.9,0.4-1.6,1.3-1.7c1-0.2,1.4,0.5,1.7,1.3C135,319.7,135,320.1,135.1,320.5z"/>
		<path class="st0" d="M106.1,321.1c0-1.1,0.4-1.8,1.2-1.9c0.8-0.1,1.2,0.5,1.5,1.2c0.4,1.1,0.2,2.1-0.5,3c-0.2,0.3-0.5,0.5-0.8,0.3
			C106.6,323,106.2,322,106.1,321.1z"/>
		<path class="st0" d="M56.7,321.4c0-0.9,0.3-1.6,1.1-2.1c0.4-0.3,0.8-0.1,1.2,0.2c0.7,0.6,0.7,1.4,0.5,2.2c0,0.2-0.1,0.4-0.2,0.6
			c-0.4,0.6-0.5,1.6-1.3,1.5c-0.9-0.1-1.1-1.1-1.2-1.9C56.7,321.7,56.7,321.5,56.7,321.4z"/>
		<path class="st0" d="M31.4,308.9c1.3-2.1,4.5-3.5,7.6-3.4C36.2,305.8,33.6,307,31.4,308.9z"/>
		<path class="st0" d="M108.6,311.9c-0.7-0.7-1.3-1.4-2-2.1c0-0.1,0-0.2,0.2-0.2c0.9,0.5,1.5,1.3,2,2.1
			C108.8,311.9,108.7,312,108.6,311.9z"/>
		<path class="st0" d="M106.6,309.9c-0.6-0.3-1.2-0.6-1.9-1c0.9,0,1.5,0.4,2,0.8C106.7,309.7,106.6,309.8,106.6,309.9z"/>
		<path class="st0" d="M46.5,307.1c-0.5,0.3-1.1,0.5-1.6,0.8C45.2,307.2,45.8,307,46.5,307.1z"/>
		<path class="st0" d="M58.1,310.3c0.4-0.5,0.9-0.9,1.6-0.9c-0.5,0.4-1,0.7-1.4,1.1C58.2,310.5,58.1,310.4,58.1,310.3z"/>
		<path class="st0" d="M42.9,308.9c0.4-0.5,0.9-0.8,1.7-0.9c-0.5,0.4-1,0.7-1.4,1.1C43,309.1,42.9,309,42.9,308.9z"/>
		<path class="st0" d="M59.8,309.1c0.3-0.3,0.6-0.3,0.9-0.2C60.5,309.1,60.2,309.3,59.8,309.1z"/>
		<path class="st0" d="M94.3,194.6c0.2-0.3,0.3-0.6,0.6-0.8l0,0c0.1,0.4-0.1,0.7-0.4,1C94.4,194.7,94.4,194.7,94.3,194.6z"/>
		<path class="st0" d="M109,312.5c-0.1-0.2-0.2-0.4-0.4-0.6c0.1-0.1,0.1-0.1,0.2-0.2c0.1,0.2,0.2,0.4,0.4,0.6
			C109.1,312.4,109,312.4,109,312.5z"/>
		<path class="st0" d="M42.2,309.6c0.1-0.1,0.2-0.2,0.3-0.4c0.1,0,0.2,0.1,0.2,0.2c-0.1,0.1-0.2,0.2-0.4,0.4
			C42.4,309.7,42.3,309.6,42.2,309.6z"/>
		<path class="st0" d="M43.1,309.1c-0.1,0.1-0.2,0.2-0.3,0.3c-0.1-0.1-0.1-0.1-0.2-0.2c0.1-0.1,0.2-0.2,0.4-0.3
			C43,308.9,43.1,309,43.1,309.1z"/>
		<path class="st0" d="M57.6,310.8c0.1-0.1,0.2-0.2,0.2-0.2c0.1,0,0.2,0.1,0.2,0.2c-0.1,0.1-0.2,0.2-0.2,0.2
			C57.7,310.9,57.7,310.8,57.6,310.8z"/>
		<path class="st0" d="M57.9,310.5c0.1-0.1,0.1-0.1,0.2-0.2c0.1,0.1,0.1,0.1,0.2,0.2c-0.1,0.1-0.2,0.2-0.2,0.2
			C58,310.7,57.9,310.6,57.9,310.5z"/>
		<path class="st0" d="M70.8,194.4c0-0.1-0.1-0.3-0.1-0.3c0.1-0.1,0.2,0.1,0.2,0.1C70.9,194.3,70.9,194.3,70.8,194.4z"/>
		<path class="st0" d="M94.9,193.8C95,193.8,95,193.8,94.9,193.8C95,193.7,94.9,193.8,94.9,193.8C94.9,193.8,94.9,193.8,94.9,193.8z
			"/>
		<path class="st0" d="M104.3,66.9c-0.6-0.2-1-0.9-1.7-0.4c-0.7,0.5-0.5,1.2-0.4,1.9c0.1,1.6,0.3,3.2-0.8,4.7c-0.1,0-0.2,0-0.3-0.1
			c-0.1-0.9,0.5-1.6,0.5-2.4c0-0.5,0-1-0.2-1.7c-0.5,1.9-1.5,3.4-1.8,5.2c0,0.1,0,0.2,0,0.3c-1.1,0.4-1.5,1.5-2.1,2.3
			c-0.6,0.8-1.2,1.6-2.1,2.1c-1.1,0.7-2,1.6-2.5,2.7c-0.1,0-0.2,0-0.3-0.1c-0.1-0.3,0-0.5,0.1-0.7c0.1,0,0.1-0.1,0-0.1
			c-0.2,0,0.1,0-0.1,0c-0.6,0.2-1.3,0.2-2,0.5c-0.1,0.7,0,1.3,0.8,1.5c0.1,0,0.2,0.1,0.2,0.2c-1,0.9-1.1,0.8-1.5-0.3
			c-0.2-0.6-0.2-1.2-0.9-1.8c0,2.2,0.6,4.2,0.3,6.4c2-0.5,3.2-1.9,4.6-3.1c-0.9,1.6-2.2,2.7-3.8,3.4c-0.6,0.3-1.1,0.7-1.5,1.3
			c-1.7,2.4-4.3,2.9-7,2.7c-2.2-0.2-4.2-1.1-5.4-3.1c-0.3-0.5-0.7-0.6-1.1-0.8c-2.4-1-3.8-3-5.2-5c1.9,1.6,3.2,3.9,6,4.7
			c-0.4-2.1,0.2-4.1,0.3-6.5c-0.7,0.8-0.8,1.5-1,2.2c-0.3,0.7-0.7,0.9-1.2,0.4c-0.7-0.7-1.8-1.2-1.7-2.5c0.6,0,0.8,0.6,1.2,0.9
			c0.3,0.3,0.5,0.7,1,0.8C75,81.9,75,81.5,75,81c-0.8-0.2-1.6-0.5-2.5-0.4c-2.7-1.7-4.4-4.5-6.7-6.6c0-0.1,0-0.2,0.1-0.3
			c0.2-0.2,0.1-0.4,0.1-0.6c-0.7-1.4-1.1-2.8-1.8-4.2c-0.1,0.8-0.2,1.6,0.1,2.4c0.2,0.5,0.3,1,1,1c0.6,0,0.7,0.5,0.6,1
			c-0.1,0.1-0.1,0.2-0.3,0.1c0-0.1-0.1-0.2-0.1-0.2c-1.5-0.5-1.9-1-2-2.9c0-0.8,0.1-1.6,0.1-2.4c0.1-1.5-0.5-2-1.9-1.3
			c-0.1,0-0.2,0-0.2-0.2c1.7-1.3,3.6-1.6,5.6-1.3c-1,0.3-2.1,0.1-3.2,0.6c1.4,3.9,2.4,7.9,5.1,11.2c2.9,3.5,6.7,3.8,10.8,2.8
			c1-0.3,2-1.1,2.9-1.2c0.9,0,1.9,0.9,3,1.2c5.7,1.6,10.1-0.4,12.7-5.7c1.3-2.7,2.2-5.5,3.2-8.3c-1.1-0.5-2.1-0.4-3.2-0.5
			c2.2-0.4,4.2,0,5.9,1.5C104.4,66.8,104.4,66.8,104.3,66.9z"/>
		<path class="st0" d="M90.7,65.5c0.9,0.9,1.2,2,0.9,3.3c-1.1,5-6.8,7.2-10,6.6c-3.7-0.7-6.5-2.4-7.7-6.3c-0.4-1.2-0.2-2.4,0.6-3.4
			c0.1-0.1,0.2,0,0.3,0.1c0.2,0.5-0.4,1.1,0,1.6c-0.3,1.2,0,2.2,0.6,3.2c1.8,2.6,4.4,4.1,7.5,4c3.2-0.2,5.9-1.6,7.4-4.7
			c0.3-0.7,0.6-1.4,0.5-2.2c0.2-0.8-0.5-1.3-0.4-2.1C90.5,65.5,90.6,65.5,90.7,65.5z"/>
		<path class="st0" d="M75.4,65c3.3-2.1,7-2.4,10.8-1.6c1.6,0.3,3.2,0.7,4.4,1.9c0,0.2-0.1,0.2-0.2,0.3c-0.8,0-1.3-0.5-2-0.8
			c-3.8-1.4-7.6-1.3-11.4,0.2c-0.4,0.2-0.9,0.5-1.4,0.4C75.4,65.3,75.3,65.2,75.4,65z"/>
		<path class="st0" d="M101.3,73c-0.3,0.6-0.7,0.1-0.9,0.1c-0.3,0.4-0.5,0.8-0.8,1.1c-0.1-0.1-0.1-0.1-0.2-0.2
			c-0.2-0.5,0.2-0.9,0.4-1.3c0.5-0.7,0.9-0.3,1.3,0.1C101.2,72.9,101.3,72.9,101.3,73z"/>
		<path class="st0" d="M95.4,82.4c-0.4,0.8-0.4,0.8-1.2,1.3C94.4,83,94.8,82.7,95.4,82.4L95.4,82.4z"/>
		<path class="st0" d="M86.6,111.8c-0.1,0.2-0.3,0.4-0.4,0.7c-0.1,0-0.1-0.1-0.2-0.1c0.2-0.2,0.3-0.5,0.5-0.7
			C86.5,111.6,86.6,111.6,86.6,111.8z"/>
		<path class="st6" d="M92.3,82.1c0,0.2-0.2,0.3-0.4,0.4c-0.1,0.1-0.2,0.1-0.4,0c-0.1-0.6,0.2-0.9,0.8-0.7
			C92.4,81.9,92.4,82,92.3,82.1z"/>
		<path class="st0" d="M92.3,82.1c0-0.1,0-0.3,0-0.4c-0.1-0.3,0.1-0.5,0.4-0.5c0.1,0.1,0.2,0.1,0.2,0.2
			C92.8,81.7,92.6,81.9,92.3,82.1z"/>
		<path class="st0" d="M79.3,112c-0.3,0-0.4-0.2-0.5-0.5c0-0.1,0.1-0.2,0.2-0.2C79.1,111.6,79.2,111.8,79.3,112L79.3,112z"/>
		<path class="st0" d="M78,110.7c-0.2-0.1-0.4-0.2-0.4-0.5c0.4-0.2,0.5,0.1,0.6,0.3C78.2,110.6,78.1,110.6,78,110.7z"/>
		<path class="st0" d="M61,67.2c-0.1,0.1-0.1,0.4-0.3,0.2c-0.1-0.1,0-0.3,0.2-0.3C60.9,67.1,61,67.1,61,67.2z"/>
		<path class="st0" d="M79.3,112c0.2,0,0.2,0.2,0.2,0.4C79.3,112.3,79.3,112.1,79.3,112C79.3,112,79.3,112,79.3,112z"/>
		<path class="st0" d="M65.8,73.9c-0.1-0.2-0.2-0.3-0.2-0.5c0.1-0.1,0.1-0.1,0.2-0.2c0.2,0.1,0.3,0.3,0.2,0.5
			C65.9,73.8,65.8,73.9,65.8,73.9z"/>
		<path class="st0" d="M86.4,111.6c0.1-0.1,0.2-0.3,0.3-0.4c0.1,0,0.1,0.1,0.2,0.2c-0.1,0.1-0.2,0.3-0.3,0.4
			C86.5,111.7,86.5,111.7,86.4,111.6z"/>
		<path class="st0" d="M78.7,111c0.1,0.1,0.2,0.3,0.3,0.4c-0.1,0.1-0.1,0.1-0.2,0.2c-0.1-0.1-0.2-0.3-0.4-0.4
			C78.5,111,78.6,111,78.7,111z"/>
		<path class="st0" d="M74.6,65.7c0.1-0.1,0.2-0.2,0.4-0.3c0,0,0.1,0.1,0.1,0.1c0,0.2,0,0.4-0.3,0.4C74.8,65.8,74.7,65.8,74.6,65.7z
			"/>
		<path class="st0" d="M66.4,58.6c0.3-0.2,0.4,0,0.5,0.3C66.5,59.1,66.4,59,66.4,58.6z"/>
		<path class="st0" d="M75,65.4c0.1-0.1,0.2-0.2,0.4-0.3c0.1,0.1,0.1,0.1,0.2,0.2C75.5,65.5,75.3,65.6,75,65.4L75,65.4z"/>
		<path class="st0" d="M61.6,66.6c-0.1,0.1-0.3,0.2-0.4,0.3c-0.1,0-0.1,0-0.1-0.1c0.1-0.1,0.2-0.2,0.4-0.4
			C61.5,66.5,61.6,66.6,61.6,66.6z"/>
		<path class="st0" d="M104.5,67.1c-0.1-0.1-0.2-0.2-0.2-0.2c0,0,0.1-0.1,0.1-0.1c0.1,0.1,0.2,0.2,0.2,0.2l0,0.1L104.5,67.1z"/>
		<path class="st0" d="M104.7,67c0.1,0.1,0.2,0.2,0.2,0.3c0,0-0.1,0.1-0.1,0.1c-0.1-0.1-0.2-0.2-0.2-0.2
			C104.6,67.1,104.6,67,104.7,67z"/>
		<path class="st0" d="M61.2,66.9C61.1,67,61,67.1,61,67.2c0,0-0.1-0.1-0.1-0.1c0.1-0.1,0.2-0.2,0.2-0.2
			C61.1,66.9,61.2,66.9,61.2,66.9z"/>
		<path class="st0" d="M90.5,65.3c0.1,0.1,0.1,0.1,0.2,0.2c0,0.1-0.1,0.1-0.1,0.2c-0.2,0-0.3-0.1-0.2-0.2
			C90.4,65.4,90.5,65.3,90.5,65.3z"/>
		<path class="st0" d="M78.3,110.9c-0.1-0.1-0.2-0.2-0.2-0.2c0.1-0.1,0.1-0.1,0.2-0.2c0.1,0.1,0.2,0.2,0.2,0.2
			C78.4,110.8,78.4,110.9,78.3,110.9z"/>
		<path class="st0" d="M91.6,82.4c0.1,0,0.2,0,0.4,0c-0.1,0.1-0.2,0.2-0.3,0.3c-0.1-0.1-0.1-0.1-0.2-0.2
			C91.5,82.5,91.5,82.5,91.6,82.4z"/>
		<path class="st0" d="M95.4,82.4c0-0.1,0.1-0.1,0.1-0.2C95.7,82.4,95.5,82.4,95.4,82.4C95.4,82.4,95.4,82.4,95.4,82.4z"/>
		<path class="st0" d="M104.9,67.2c0,0.1,0.1,0.2,0.1,0.3c-0.1,0-0.1-0.1-0.2-0.1C104.8,67.3,104.8,67.3,104.9,67.2z"/>
		<path class="st0" d="M60.5,117.1C60.5,117.1,60.6,117.1,60.5,117.1c0.1,0.1,0,0.1,0,0.2C60.5,117.2,60.4,117.2,60.5,117.1
			C60.4,117.1,60.5,117.1,60.5,117.1z"/>
		<path class="st0" d="M78.5,111.1c-0.1-0.1-0.1-0.1-0.2-0.2c0.1-0.1,0.1-0.1,0.2-0.2c0.1,0.1,0.2,0.2,0.2,0.3
			C78.6,111,78.5,111.1,78.5,111.1z"/>
		<path class="st0" d="M155.3,196.6c-0.2-0.2-0.5-0.4-0.4-0.8c0.4,0,0.5,0.3,0.7,0.6C155.4,196.5,155.3,196.5,155.3,196.6z"/>
		<path class="st0" d="M9.9,196.6c0.2-0.3,0.4-0.7,0.9-0.9c-0.1,0.5-0.4,0.8-0.7,1.1C10.1,196.8,10,196.7,9.9,196.6z"/>
		<path class="st0" d="M31.7,179.8c-0.1-0.1-0.3-0.2-0.2-0.3c0.1-0.1,0.3,0,0.3,0.1C31.8,179.7,31.7,179.7,31.7,179.8z"/>
		<path class="st0" d="M20.7,198.6c0-0.1,0.1-0.2,0.2-0.1c0,0,0,0.2,0,0.3C20.8,198.7,20.8,198.6,20.7,198.6z"/>
		<path class="st0" d="M132.2,103.4c0-0.1,0-0.2,0-0.3c0.1,0,0.2,0.1,0.3,0.1C132.3,103.3,132.3,103.4,132.2,103.4z"/>
		<path class="st0" d="M78.9,40.2c-0.4,0.5-0.9,0.9-1.3,1.5c0.3-2.6,1.1-5,2.5-7.2c0.1,0,0.2,0,0.1,0.1c-0.9,1.8-1.8,3.7-2.3,6
			c0.4-0.3,0.6-0.5,0.8-0.6C78.8,40.1,78.9,40.2,78.9,40.2z"/>
		<path class="st0" d="M80.9,39.1c-0.4,1.6-0.9,3.2-0.8,4.9c0,0.4,0,0.6,0.5,0.3c0.1,0,0.2,0.1,0.2,0.1c-0.2,0.4-0.4,0.8-0.7,1.5
			C79.5,43.3,79.6,41.1,80.9,39.1C80.8,39,80.8,39.1,80.9,39.1z"/>
		<path class="st0" d="M80.3,38.7c0.2-0.4,0.5-0.6,0.9-0.8c0.1,0.5-0.2,0.8-0.4,1.1c0,0-0.1-0.1-0.1-0.1
			C80.7,38.7,80.5,38.8,80.3,38.7L80.3,38.7z"/>
		<path class="st0" d="M80.7,43.9c0.1-0.2,0.3-0.4,0.5-0.8c0.1,0.5-0.1,0.7-0.4,0.9C80.7,44,80.7,44,80.7,43.9z"/>
		<path class="st0" d="M83.6,39.7c0.2-0.2,0.3-0.5,0.5-0.7l0,0c0.1,0.4-0.1,0.6-0.3,0.9C83.7,39.9,83.6,39.8,83.6,39.7z"/>
		<path class="st0" d="M82.3,41.5c0.2-0.2,0.3-0.5,0.5-0.7c0.1,0,0.2,0,0.2,0.1c-0.1,0.3-0.2,0.6-0.5,0.7
			C82.3,41.7,82.3,41.6,82.3,41.5z"/>
		<path class="st0" d="M81.8,42.6c0,0.2-0.1,0.4-0.4,0.5c-0.2-0.3,0.1-0.4,0.2-0.6C81.7,42.5,81.8,42.5,81.8,42.6z"/>
		<path class="st0" d="M81.9,42.1c0.1-0.2,0.3-0.4,0.4-0.6c0.1,0.1,0.1,0.1,0.2,0.2c-0.1,0.2-0.2,0.4-0.4,0.6
			C82,42.3,81.9,42.2,81.9,42.1z"/>
		<path class="st0" d="M75.2,38c0.1-0.2,0.2-0.6,0.6-0.4l0,0c-0.1,0.2-0.3,0.4-0.4,0.6C75.3,38.1,75.3,38.1,75.2,38z"/>
		<path class="st0" d="M79.7,39.1c0.2-0.1,0.4-0.2,0.6-0.4c0,0,0.1,0.1,0.1,0.1c-0.1,0.3-0.3,0.4-0.5,0.5
			C79.8,39.3,79.7,39.2,79.7,39.1z"/>
		<path class="st0" d="M88.5,23.7c0.1,0,0.1,0,0.2,0.1C88.6,23.7,88.5,23.7,88.5,23.7L88.5,23.7z"/>
		<path class="st0" d="M80.2,34.6c0.1-0.1,0.2-0.3,0.3-0.4c0,0,0.1,0.1,0.1,0.1c-0.1,0.1-0.2,0.3-0.3,0.4
			C80.3,34.7,80.2,34.6,80.2,34.6z"/>
		<path class="st0" d="M91.8,23.9c-0.1-0.1-0.3-0.2-0.4-0.3c0.1-0.1,0.1-0.2,0.2-0.2c0.1,0.1,0.2,0.3,0.3,0.4
			C91.9,23.8,91.8,23.9,91.8,23.9z"/>
		<path class="st0" d="M88,23.4c0.2-0.1,0.4,0,0.5,0.2c0,0,0,0,0,0C88.3,23.6,88.1,23.6,88,23.4C88,23.4,88,23.4,88,23.4z"/>
		<path class="st0" d="M75.8,37.6C75.8,37.5,75.8,37.5,75.8,37.6C75.8,37.4,75.8,37.5,75.8,37.6C75.8,37.6,75.8,37.6,75.8,37.6z"/>
		<path class="st0" d="M83.8,39.8c-0.1,0.1-0.2,0.3-0.3,0.4c-0.1,0-0.2-0.1-0.2-0.2c0.1-0.1,0.2-0.3,0.3-0.4
			C83.7,39.7,83.7,39.8,83.8,39.8z"/>
		<path class="st0" d="M83.3,40.6c-0.1,0.1-0.2,0.3-0.3,0.4c-0.1,0-0.1-0.1-0.2-0.1c0.1-0.1,0.2-0.3,0.3-0.4
			C83.2,40.4,83.3,40.5,83.3,40.6z"/>
		<path class="st0" d="M82.1,42.2c-0.1,0.1-0.2,0.2-0.4,0.4c-0.1,0-0.1-0.1-0.2-0.1c0.1-0.1,0.2-0.3,0.3-0.4
			C82,42.1,82.1,42.2,82.1,42.2z"/>
		<path class="st0" d="M79.1,40c-0.1,0.1-0.2,0.2-0.2,0.3c-0.1-0.1-0.1-0.1-0.2-0.2c0.1-0.1,0.2-0.2,0.2-0.2
			C79.1,39.8,79.1,39.9,79.1,40z"/>
		<polygon class="st0" points="81.4,37.8 81.4,37.7 81.4,37.7 		"/>
		<path class="st0" d="M84.1,39C84.2,39,84.2,38.9,84.1,39C84.2,38.9,84.1,39,84.1,39C84.1,39,84.1,39,84.1,39z"/>
		<path class="st0" d="M79.4,39.4c0.1-0.1,0.2-0.2,0.2-0.2c0.1,0,0.1,0.1,0.2,0.1c-0.1,0.1-0.2,0.2-0.2,0.2
			C79.5,39.5,79.5,39.5,79.4,39.4z"/>
		<path class="st0" d="M79.6,39.5c-0.1,0.1-0.2,0.2-0.2,0.2c-0.1,0-0.2-0.1-0.2-0.2c0.1-0.1,0.2-0.2,0.2-0.2
			C79.5,39.4,79.6,39.5,79.6,39.5z"/>
		<path class="st0" d="M79.4,39.8c-0.1,0.1-0.2,0.2-0.2,0.2c-0.1-0.1-0.1-0.1-0.2-0.2c0.1-0.1,0.2-0.2,0.2-0.2
			C79.3,39.6,79.3,39.7,79.4,39.8z"/>
		<path class="st0" d="M91.9,23.8c0,0.1,0,0.2,0.1,0.3c-0.1,0-0.1-0.1-0.2-0.1C91.8,23.9,91.9,23.8,91.9,23.8z"/>
		<path class="st0" d="M91.4,26.7c-0.1,0-0.1,0-0.2,0.1C91.3,26.8,91.3,26.7,91.4,26.7C91.4,26.7,91.4,26.7,91.4,26.7z"/>
		<path class="st0" d="M91.5,27.1c-0.1-0.1-0.3-0.2-0.1-0.4c0,0,0,0,0,0C91.5,26.8,91.5,26.9,91.5,27.1C91.6,27,91.5,27.1,91.5,27.1
			z"/>
		<polygon class="st0" points="82.6,32.1 82.6,32.2 82.5,32.2 		"/>
		<path class="st0" d="M82,32.5c0-0.1,0.1-0.2,0.2-0.2c0,0.1-0.1,0.2-0.1,0.3C82,32.6,82,32.6,82,32.5z"/>
		<path class="st0" d="M82.1,32.6c-0.1,0.1-0.2,0.2-0.3,0.3c-0.1,0-0.1-0.1-0.1-0.1c0.1-0.1,0.2-0.1,0.3-0.2
			C82,32.6,82.1,32.6,82.1,32.6z"/>
		<path class="st0" d="M81.9,32.9c-0.1,0.1-0.2,0.2-0.2,0.2c-0.1,0-0.1-0.1-0.1-0.1c0.1-0.1,0.2-0.2,0.2-0.2
			C81.8,32.8,81.8,32.8,81.9,32.9z"/>
		<path class="st0" d="M81.6,33.1c-0.1,0.1-0.2,0.2-0.2,0.3c-0.1,0-0.1-0.1-0.1-0.2c0.1-0.1,0.2-0.2,0.2-0.2
			C81.5,33,81.6,33.1,81.6,33.1z"/>
		<path class="st0" d="M81.4,33.4c-0.1,0.1-0.2,0.3-0.3,0.1c0,0,0.1-0.1,0.2-0.2C81.3,33.3,81.3,33.3,81.4,33.4z"/>
		<path class="st0" d="M80.7,33.9c0.1-0.1,0.2-0.2,0.2-0.2c0.2,0.2,0,0.2-0.1,0.3C80.8,34,80.7,33.9,80.7,33.9z"/>
		<path class="st0" d="M74.9,34.1c0.1-0.1,0.2-0.2,0.4,0c-0.1,0.1-0.1,0.1-0.2,0.2C75,34.2,75,34.2,74.9,34.1z"/>
		<path class="st0" d="M80.8,34c-0.1,0.1-0.1,0.2-0.2,0.3c0,0-0.1-0.1-0.1-0.1c0.1-0.1,0.1-0.2,0.2-0.3C80.7,33.9,80.8,34,80.8,34z"
			/>
		<path class="st0" d="M83.5,40.2c-0.1,0.1-0.1,0.2-0.2,0.3c-0.1-0.1-0.1-0.1-0.2-0.2c0.1-0.1,0.1-0.2,0.2-0.3
			C83.3,40.1,83.4,40.2,83.5,40.2z"/>
		<path class="st0" d="M80.8,44.1c0,0.1-0.1,0.2-0.1,0.3c-0.1,0-0.1-0.1-0.2-0.1c0-0.1,0.1-0.2,0.1-0.3C80.7,44,80.7,44,80.8,44.1z"
			/>
		<path class="st0" d="M59.5,22.8c0.1,1.9,0.3,3.7,1,5.6c-0.7-0.3-0.9-0.7-1.3-1c0-0.1,0-0.2,0.1-0.3c0-0.1,0.1-0.2,0.1-0.2
			c0,0,0-0.1,0-0.1c0.1-2-0.5-3.9-0.5-6.1c0.5,0.7,0.9,1.3,1.2,1.8l0,0c0.2-1.7-0.4-3.4-0.1-5.3c0.6,2.5,0.4,4.9,0.9,7.3
			c-0.4-0.6-0.8-1.2-1.2-1.8C59.6,22.6,59.5,22.7,59.5,22.8z"/>
		<path class="st0" d="M59.2,34.4c0.3,0.4,0.7,0.8,1.2,1.4c-1.2-0.3-2.3-0.5-3.6-0.9c1.2,1.8,2.2,3.4,3.1,4.9c0,0.2,0,0.2-0.2,0.2
			c-1.6-1.6-2.2-3.8-3.9-5.6c1.1-0.1,1.9,0.2,2.7,0.4c0.3,0.1,0.7,0.3,0.5-0.4C59,34.4,59.1,34.3,59.2,34.4z"/>
		<path class="st0" d="M59,34.6c-0.8-1.1-1.3-2.2-1.4-3.5c-0.2-2.1-0.5-4.2-1.4-6.1c0.6-0.1,0.9,0.3,1.2,0.5c0,0.1-0.1,0.2-0.2,0.2
			c-0.3,0.2-0.1,0.4-0.1,0.6c0.4,1.1,0.7,2.1,0.7,3.3c0.1,1.8,0.6,3.4,1.4,4.9C59.2,34.5,59.1,34.5,59,34.6z"/>
		<path class="st0" d="M59.2,27.4c-0.6-0.5-1.2-1-1.8-1.6c0-0.1,0.1-0.2,0.2-0.2c0.7,0.2,0.9,1.2,1.8,1.1c0,0,0,0,0,0
			c0.1,0.1,0.1,0.3,0,0.4C59.4,27.3,59.3,27.3,59.2,27.4z"/>
		<path class="st0" d="M58.2,8.3c0-0.3,0.1-0.6,0.5-0.7C58.8,7.9,58.7,8.3,58.2,8.3z"/>
		<path class="st0" d="M58.7,7.6c0-0.4,0.2-0.6,0.5-0.7C59.3,7.3,59.1,7.5,58.7,7.6z"/>
		<path class="st0" d="M59.6,6.4c-0.2-0.5,0.3-0.5,0.5-0.7C60.3,6.1,59.9,6.2,59.6,6.4z"/>
		<path class="st0" d="M59.2,6.8c0.1-0.3,0.1-0.6,0.5-0.5C59.6,6.6,59.6,6.9,59.2,6.8z"/>
		<path class="st0" d="M60.4,5.4c0.1-0.2,0.2-0.5,0.5-0.2C60.8,5.4,60.7,5.6,60.4,5.4z"/>
		<path class="st0" d="M60.1,40.5c-0.1-0.1-0.2-0.3-0.3-0.4c0.1-0.1,0.1-0.1,0.2-0.2c0.1,0.1,0.2,0.3,0.3,0.4
			C60.2,40.4,60.2,40.4,60.1,40.5z"/>
		<path class="st0" d="M57.5,25.8c-0.1-0.1-0.2-0.2-0.3-0.2c0.1-0.1,0.1-0.1,0.2-0.2c0.1,0.1,0.1,0.1,0.2,0.2
			C57.6,25.7,57.5,25.8,57.5,25.8z"/>
		<path class="st0" d="M60.1,5.6c0-0.2,0.1-0.2,0.3-0.3C60.5,5.6,60.4,5.7,60.1,5.6z"/>
		<path class="st0" d="M106.6,27.2c-0.4,0.5-0.8,1-1.2,1.4c-0.1-0.1-0.2-0.1-0.3-0.2c0.6-1.8,1-3.7,0.9-5.7c-0.7,0.5-0.8,1.3-1.6,2
			c0.7-2.6,0.6-5,1.1-7.4c0.2,1.6-0.1,3.2-0.2,4.8c0,0.1,0,0.3,0.2,0.2c0.3-0.5,0.6-1,0.9-1.4c0.1,0,0.1,0,0.2,0.1
			c-0.2,1.8-0.5,3.6-0.7,5.5c0,0.2-0.4,0.8,0.4,0.6C106.6,26.9,106.7,27,106.6,27.2z"/>
		<path class="st0" d="M106.1,34.8c1-1.7,1.6-3.4,1.7-5.4c0-1.2,0.4-2.3,0.7-3.5c0-0.1,0-0.1-0.1-0.1c-0.5,0.3-0.9,0.7-1.4,1
			c-0.2,0-0.2,0-0.2-0.2c0.7-0.7,1.4-1.4,2.7-1.9c-1.7,3.4-0.9,7.2-3,10.2c0,0-0.1,0.1-0.1,0.1c0,0-0.1,0-0.1,0
			C106.1,35,106,34.9,106.1,34.8z"/>
		<path class="st0" d="M105.4,40.2c1.2-1.5,2.1-3.3,3.2-5c-1.2-0.1-2.2,0.5-3.3,0.6c0.1-0.5,0.5-0.7,0.7-1c0.1,0.1,0.1,0.1,0.2,0.2
			c0.1,0.1,0.2,0,0.2,0c0,0,0,0,0,0c1,0.2,2-0.5,3.2-0.4c-1.6,1.9-2.3,4.1-4,5.8C105.5,40.4,105.4,40.3,105.4,40.2z"/>
		<path class="st0" d="M105.7,6.1c0.7,0.2,0.9,0.9,1.2,1.5C106.2,7.3,106,6.7,105.7,6.1z"/>
		<path class="st0" d="M104.3,41.6c0.2-0.5,0.5-0.8,0.8-1.1c0.2,0,0.2,0.1,0.2,0.2c-0.3,0.4-0.6,0.7-0.8,1.1
			C104.4,41.7,104.3,41.7,104.3,41.6z"/>
		<path class="st0" d="M104.8,5.1c0.4,0,0.6,0.1,0.5,0.5C105,5.6,104.8,5.5,104.8,5.1z"/>
		<path class="st0" d="M106.4,27c0.1-0.1,0.2-0.2,0.4-0.3c0.1,0.1,0.1,0.1,0.2,0.2c-0.1,0.1-0.2,0.2-0.4,0.3
			C106.6,27.1,106.5,27,106.4,27z"/>
		<path class="st0" d="M105.1,40.5c0.1-0.1,0.2-0.2,0.3-0.4c0.1,0.1,0.1,0.1,0.2,0.2c-0.1,0.1-0.2,0.2-0.3,0.4
			C105.2,40.7,105.2,40.6,105.1,40.5z"/>
		<path class="st0" d="M105.3,5.6c0.3-0.1,0.3,0,0.3,0.3C105.3,5.9,105.3,5.8,105.3,5.6z"/>
		<path class="st0" d="M105.5,5.9c0.3-0.1,0.3,0,0.3,0.3C105.6,6.1,105.5,6,105.5,5.9z"/>
		<path class="st0" d="M61.8,4.2c-0.2,0-0.2-0.2-0.2-0.4C61.8,4,61.9,4.1,61.8,4.2C61.8,4.2,61.8,4.2,61.8,4.2z"/>
		<path class="st0" d="M47.7,40.2c0.1,0,0.1,0.1,0.2,0.1C47.7,40.5,47.7,40.3,47.7,40.2C47.6,40.2,47.7,40.2,47.7,40.2z"/>
		<path class="st0" d="M103.8,3.9c0.1,0,0.1,0,0.2-0.1c0,0,0,0.1-0.1,0.1C103.9,4,103.8,3.9,103.8,3.9
			C103.8,3.9,103.8,3.9,103.8,3.9z"/>
		<path class="st0" d="M118,40.2c0,0.1-0.1,0.2-0.1,0.2c-0.1-0.1-0.1-0.2,0-0.3C117.9,40.1,118,40.2,118,40.2z"/>
		<path class="st6" d="M69.5,52.2c0,0.1,0.1,0.3,0,0.3c-1.4,2.3-1,4.6,0,6.9C67.8,57.8,67.8,53.9,69.5,52.2z"/>
		<path class="st6" d="M73.6,51c-1.1-0.3-2.1-0.1-3.2,0.2C71.4,50.3,72.6,50.2,73.6,51z"/>
		<path class="st6" d="M74.3,51.5c-0.4,0.1-0.6-0.1-0.7-0.5C74,50.9,74.2,51.1,74.3,51.5z"/>
		<path class="st6" d="M70.2,51.5c0,0.3-0.2,0.5-0.5,0.5C69.6,51.5,69.8,51.4,70.2,51.5z"/>
		<path class="st0" d="M74.5,52.2c0,0,0.1-0.1,0.1-0.1c0,0,0-0.1,0-0.1c0.1-0.1,0.2-0.1,0.3,0c0.1,0.1,0.1,0.2,0.2,0.3
			C74.9,52.4,74.7,52.1,74.5,52.2L74.5,52.2z"/>
		<path class="st0" d="M75.5,53.2c-0.4,0-0.3-0.3-0.3-0.5C75.6,52.7,75.5,52.9,75.5,53.2z"/>
		<path class="st0" d="M75.3,52.7c-0.3,0-0.5-0.2-0.3-0.5C75.3,52.3,75.3,52.5,75.3,52.7z"/>
		<path class="st6" d="M70.4,51.2c0.1,0.3-0.1,0.3-0.2,0.2C70.1,51.2,70.2,51.2,70.4,51.2z"/>
		<path class="st6" d="M74.6,51.7c-0.2,0.1-0.3,0-0.2-0.2C74.5,51.4,74.6,51.5,74.6,51.7z"/>
		<path class="st6" d="M74.9,51.9c-0.1,0-0.2,0-0.3,0c0-0.1-0.1-0.1-0.1-0.2c0,0,0-0.1,0-0.1C74.8,51.6,74.8,51.8,74.9,51.9z"/>
		<path class="st6" d="M69.7,51.9c0,0.2,0,0.3-0.2,0.2C69.4,52,69.4,51.8,69.7,51.9z"/>
		<path class="st0" d="M95.4,51.5c-1.4-0.8-2.8-0.8-4.1,0C92.3,50.1,94.4,50.1,95.4,51.5z"/>
		<path class="st0" d="M96.4,52.7c-0.4-0.1-0.5-0.4-0.5-0.7C96.3,52,96.5,52.3,96.4,52.7z"/>
		<path class="st0" d="M91.3,51.5c0.1,0.2-0.1,0.3-0.3,0.3C91,51.4,91.1,51.4,91.3,51.5z"/>
		<path class="st0" d="M95.7,51.7c-0.2,0-0.3,0-0.3-0.3C95.7,51.4,95.8,51.4,95.7,51.7z"/>
		<path class="st0" d="M91.1,51.7c0,0.2,0,0.3-0.3,0.3C90.8,51.7,90.8,51.6,91.1,51.7z"/>
		<path class="st0" d="M95.9,52c-0.2,0.1-0.3,0-0.3-0.3C95.9,51.6,96,51.7,95.9,52z"/>
		<path class="st0" d="M74.3,56.8c-0.3,1.6-1.1,2.6-2,2.6c-0.9-0.1-1.8-1.3-1.9-2.7c-0.2-1.9,0.5-3.2,1.9-3.6
			c0.4,0.9,0.6,1.9,1.9,1.9c0,0.2,0,0.5,0.1,0.7C74.2,56,74.2,56.4,74.3,56.8z"/>
		<path class="st4" d="M74.2,54.9c-1.4,0.4-1.9-0.1-1.9-1.9c0.4-1.1,1.3-1,2.2-0.8c0,0,0,0,0,0C74.5,53.1,75,54.1,74.2,54.9z"/>
		<path class="st4" d="M74.3,56.8c-0.7-0.4-0.7-0.8,0-1.2C74.9,56,74.9,56.4,74.3,56.8z"/>
		<path class="st0" d="M95.1,55c0,0.2,0.1,0.4,0.1,0.6c0.1,0.4,0,0.8,0,1.2c-0.1,0.3-0.1,0.6-0.2,0.9c-0.3,0.9-0.8,1.7-1.8,1.6
			c-1,0-1.4-0.8-1.7-1.6c-0.4-1.4-0.4-2.8,0.5-4c0.3-0.4,0.8-1.2,1.5-0.4C93.7,54.1,94.2,54.8,95.1,55z"/>
		<path class="st4" d="M95.1,55c-1.3,0.1-1.7-0.3-1.6-1.8c0.2-0.7,0.4-1.4,1.3-1.2c0.8,0.2,1,0.9,0.9,1.7
			C95.7,54.3,95.4,54.6,95.1,55z"/>
		<path class="st4" d="M95.2,56.7c-0.4-0.4-0.4-0.8,0-1.2C95.9,56,95.8,56.4,95.2,56.7z"/>
		<path class="st4" d="M122.2,324.7c-0.9-0.9-1.2-1.9-1.3-3.1c0-0.6,0.2-1,0.8-1.1c0.7-0.1,0.9,0.4,1.1,0.9
			C123.2,322.5,123.2,323.7,122.2,324.7z"/>
		<path class="st4" d="M43.5,324.7c-1-1.1-1-2.3-0.6-3.5c0.1-0.5,0.5-0.9,1-0.8c0.5,0.1,0.8,0.5,0.8,1
			C44.8,322.7,44.4,323.7,43.5,324.7z"/>
		<path class="st4" d="M32,322.6c-0.9-1-1-2.2-0.7-3.3c0.1-0.5,0.4-1,1.1-0.9c0.6,0.1,0.9,0.5,0.9,1.1
			C33.2,320.7,32.9,321.7,32,322.6z"/>
		<path class="st4" d="M133.7,322.6c-0.9-0.9-1.2-1.9-1.3-3c0-0.6,0.2-1.1,0.9-1.2c0.6-0.1,0.9,0.4,1,1
			C134.7,320.5,134.7,321.6,133.7,322.6z"/>
		<path class="st4" d="M107.7,323.4c-0.6-0.9-1.1-1.6-1-2.5c0-0.5,0.2-1,0.8-1.1c0.5-0.1,0.8,0.4,0.9,0.8
			C108.7,321.5,108.4,322.4,107.7,323.4z"/>
		<path class="st4" d="M58,323.3c-0.7-0.9-1-1.8-0.6-2.8c0.2-0.5,0.4-0.9,1-0.8c0.6,0.1,0.7,0.7,0.7,1.1
			C59,321.8,58.6,322.5,58,323.3z"/>
		<path class="st7" d="M82.6,79.3c0,2.2,0,4.2,0,6.3c0.1,0,0.2,0,0.4,0c0-2,0-4.1,0-6.3c1.4,0.4,2.6,0.9,3.9,1.2
			c1.9,0.3,1.9,0.4,2.1,2.4c0.1,0.6,0.2,1.2,0.2,1.8c0.1,3.6-1.4,5.4-5,6.1c-3,0.6-6-0.7-7.2-3c-0.7-1.2-0.5-2.6-0.4-3.9
			c0-0.9,0-2,0.4-2.8c0.5-0.9,1.7-0.4,2.6-0.7C80.4,79.9,81.4,79.6,82.6,79.3z"/>
		<path class="st4" d="M66,73.7c-0.1-0.2-0.1-0.3-0.2-0.5c-0.1-0.3-0.1-0.6-0.4-0.9c-0.3,0-0.4,0.5-0.8,0.4c-0.9-1.4-0.9-3-0.5-5
			c1.1,2.1,1.5,4.3,2.6,6.1C66.2,74.2,66.2,73.8,66,73.7z"/>
		<path class="st4" d="M101.1,72.8c-0.4,0.1-0.6-0.3-0.9-0.5c-0.3,0.6-0.5,1.1-0.8,1.7c-0.2,0-0.5,0.1-0.4-0.2
			c1-1.8,1.4-3.9,2.5-5.9C102.1,69.8,101.8,71.3,101.1,72.8z"/>
		<path class="st4" d="M72.4,80.5c0-0.2-0.2-0.5,0.3-0.4c0.9,0.3,1.8,0.4,2.8,0.5c-0.2,0.8-0.5,1.5-0.7,2.3
			C73.6,82.4,73.2,81.3,72.4,80.5C72.4,80.5,72.4,80.5,72.4,80.5z"/>
		<path class="st4" d="M91.6,82.4c-0.1,0-0.1,0-0.1,0.1c-0.2,0.1-0.4,0.2-0.7,0.4c-0.2-0.8-0.5-1.5-0.7-2.3c1.1-0.1,2-0.2,3-0.3l0,0
			c-0.1,0.3-0.2,0.6-0.3,0.9c-0.1,0.2-0.3,0.4-0.4,0.5C92.1,82,91.8,82.2,91.6,82.4z"/>
		<path class="st4" d="M93,80.3c0-0.1,0-0.1,0-0.2c0,0,0.1,0,0.1,0C93.1,80.2,93.1,80.2,93,80.3C93,80.3,93,80.3,93,80.3z"/>
		<path class="st6" d="M91.1,67.6c0.5,1.5-0.4,2.7-1.2,3.8c-1.9,2.6-4.7,3.9-7.8,3.5c-3.5-0.4-6.3-2.1-7.6-5.7
			c-0.3-0.8,0-1.3,0.3-1.9c0,0,0-0.1,0-0.1c0-0.1,0.1-0.1,0.2-0.2c0.1-0.1,0.2-0.1,0.3-0.2c0.1-0.1,0.3-0.2,0.4-0.2
			c0.1,0,0.2-0.1,0.3-0.1c4.6-1.4,9.1-1.4,13.6,0c0.1,0,0.2,0.1,0.3,0.1c0.2,0.1,0.4,0.3,0.6,0.4c0.1,0,0.2,0.1,0.2,0.1
			c0.1,0.1,0.1,0.1,0.2,0.2C91.1,67.5,91.1,67.5,91.1,67.6z"/>
		<path class="st6" d="M90.4,65.4c0.1,0.1,0.2,0.2,0.2,0.2c0.1,0.7,1,1.1,0.5,1.9c0,0,0,0,0,0c-0.1-0.1-0.2-0.2-0.2-0.2l0,0
			c-0.2-0.2-0.5-0.2-0.7-0.5l0,0c-4.9-1.7-9.8-1.8-14.6,0l0,0c-0.1,0.1-0.4,0.1-0.5,0.2l0,0c-0.1,0.1-0.2,0.2-0.2,0.2c0,0,0,0,0,0
			c-1-0.5,0.2-0.9,0-1.4c0.2-0.1,0.2-0.3,0.2-0.5c0.2,0,0.4,0,0.5-0.2c2.2-0.9,4.4-1.7,6.7-1.7C85.2,63.4,87.8,64,90.4,65.4z"/>
		<path class="st2" d="M59.4,27.2c0-0.1-0.3-0.3,0-0.4c0.1,0,0.2,0.1,0.2,0.1C59.7,27.1,59.6,27.2,59.4,27.2z"/>
		<path class="st2" d="M60.1,22.5c0.1,0,0.1,0,0.2,0c0,0,0,0.1,0,0.1C60.2,22.5,60.2,22.5,60.1,22.5C60.1,22.4,60.1,22.5,60.1,22.5z
			"/>
		<path class="st2" d="M59.5,22.8c0-0.1-0.1-0.3,0-0.3c0.1-0.1,0.1,0.1,0.2,0.1C59.6,22.7,59.6,22.8,59.5,22.8z"/>
		<path class="st2" d="M105.6,22.3c-0.1,0.1-0.1,0.2-0.2,0.4c-0.2-0.2-0.1-0.4,0-0.5C105.4,22.2,105.5,22.2,105.6,22.3z"/>
		<path class="st2" d="M106.5,34.9c0,0.1,0,0.1,0,0.2c-0.1,0-0.1-0.1-0.2-0.1C106.3,34.9,106.4,34.9,106.5,34.9z"/>
		<path class="st2" d="M108.4,25.8c0-0.1,0.1-0.1,0.1-0.2c0.1,0.1,0.1,0.2,0,0.3C108.4,25.9,108.4,25.8,108.4,25.8z"/>
		<path class="st0" d="M75.5,66.8c0.7-0.8,1.7-0.9,2.6-1c3.4-0.6,6.9-0.6,10.3,0.2c0.6,0.1,1.3,0.3,1.8,0.9c-1.1,0-2-0.7-3.1-0.7
			c-3.7-0.3-7.4-0.7-10.9,0.7C75.9,66.9,75.7,66.8,75.5,66.8z"/>
		<path class="st0" d="M90.1,66.8c0.3,0,0.6,0.2,0.7,0.5C90.5,67.3,90.2,67.3,90.1,66.8z"/>
		<path class="st0" d="M75,67.1c0.1-0.2,0.3-0.2,0.5-0.2C75.4,67.1,75.2,67.1,75,67.1z"/>
		<path class="st0" d="M74.8,67.3c0.1-0.1,0.2-0.2,0.2-0.2C74.9,67.2,74.9,67.2,74.8,67.3z"/>
		<path class="st0" d="M90.9,67.3c0.1,0.1,0.2,0.2,0.2,0.2C91,67.5,90.9,67.4,90.9,67.3z"/>
	</g>
</g>
</svg>
