<?xml version="1.0" encoding="utf-8"?>
<!-- Generator: Adobe Illustrator 21.1.0, SVG Export Plug-In . SVG Version: 6.00 Build 0)  -->
<svg version="1.1" id="Layer_1" xmlns="http://www.w3.org/2000/svg" xmlns:xlink="http://www.w3.org/1999/xlink" x="0px" y="0px"
	 viewBox="0 0 165.6 330.3" style="enable-background:new 0 0 165.6 330.3;" xml:space="preserve">
<style type="text/css">
	.st0{fill:#000000;}
	.st1{fill:#343434;}
	.st2{fill:#76e9c8;}
	.st3{fill:#44d262;}
	.st4{fill:#ffd700;}
	.st5{fill:#ffffff;}
	.st6{fill:#ffd700;}
	.st7{fill:#4FC6A3;}
</style>
<g id="rhOrmj.tif">
	<g>
		<path class="st0" d="M90.4,83.2c0,0.3,0.1,0.7,0.1,1c0.2,0.3,0.1,0.6,0.2,0.9c0.2,0.4,0.1,0.8,0.1,1.2c0.2,0.3,0.1,0.6,0.1,0.9
			c0.2,0.8,0.4,1.5,0.7,2.6c-0.7-0.4-1.2-0.8-1.8-1.1c-0.3,0.8,0.2,1.5,0.1,2.2c-0.1,0.9-0.1,1.7-0.5,2.5c-0.4,0.7,0,1.5,0.2,2.2
			c1,3.7,0.9,7.4,0.5,11.2c-0.9,8.1-3.5,15.8-5.6,23.6c-1.8,6.6-2.6,13.2-2.2,20c0.2,3,1.3,5.2,3.4,7.1c3.5,3.3,7.5,6,11.4,9.3
			c-0.7-4.9-0.1-9.4,2.3-13.6c-1.2,0-2.2,0-3.3-0.4c2.7-2.4,4.8-5.3,7.6-7.4c3.1-2.3,6.5-3.7,10.4-3.5c0.5,0,0.9,0.1,1.5,0.2
			c-0.5-1-1.4-1.7-1.6-2.8c0.1-0.1,0.3-0.2,0.3-0.2c3.6,1.5,7.4,1.1,11.1,1.4c6.9,0.6,13.3,2.5,18.2,7.7c3.1,3.2,4.8,7.1,5.3,11.5
			c0.2,1.3,0.4,2.6,0.6,4.1c1-1,2-2.1,3.3-2.7c0.9,5.7,1.7,11.3-2.3,16.5c2.1-0.4,3.9-0.8,5.7-0.1c-4.1,4.7-7.1,10.1-10.8,14.9
			c-3.7,4.9-8.7,7.8-14.4,9.6c-4.2,1.3-8.5,2-12.8,1.9c-1.3,0-2.6-0.2-3.9-0.4c0.2,0.7,1,0.8,1.3,1.5c-2.4,0.8-4.7,0.6-7-0.2
			c-0.3,0.5,0.3,0.8,0,1.3c-4-1.6-8.2-2.6-11.9-4.8c-3.8-2.2-6.5-5.5-9.5-8.8c-0.9,2.3-1.7,4.3-2.5,6.4c-0.9-0.8-1.2-1.7-1.5-2.6
			c-1.2,1.5-2.8,5.2-3,7.2c-0.5,4.2-1.3,8.4-1.9,12.6c-0.6,4.7-1,9.4-1.4,14c-0.3,3.3-0.4,6.5-0.9,9.8c-0.3,1.7,0.1,3.3,1,4.8
			c4.3,6.8,6.5,14.3,7.1,22.3c0.3,4.7,0.8,9.3,0.6,14c-0.4,10.1-0.5,20.3-1.1,30.4c-0.2,4.3-0.3,8.5-1,12.7c-0.2,1.1-0.5,2.1-1.1,3
			c-0.8,1.2-2,1.7-3.5,1.7c-11.2,0-22.3,0-33.5,0c-1.4,0-2.8,0-4.2,0.1c-1,0-2.1,0-3-0.4c-1.6-0.6-3.2-0.3-4.7-0.5
			c-3-0.3-5.7-2-5.8-5.8c0-0.1,0-0.3-0.1-0.4c-0.8-0.1-1.5,0.9-2.1,0.2c-0.5-0.5-0.3-1.3,0.1-2c0.1-0.1,0.2-0.1,0.3,0
			c0.3,0.3,0,0.8,0.3,1.2c0.8,0.1,1.2-0.3,1.3-1.1c0.1-1,0.4-2,0.7-3c0.1-0.3,0-0.6,0.1-0.9c0.4-0.1,0.5-0.5,0.6-0.8
			c3.8-10.7,14-13.7,23.2-11.6c0.8,0.2,1.5,0.4,2.3,0.4c1.9,0,2.9-0.9,3-2.8c0.1-4.5-0.1-8.9-0.6-13.4c-1.1-9.7-3.8-19-6.6-28.2
			c-1-3.3-2.9-6.2-5-8.9c-2.1-2.7-3.4-5.7-4.3-9c-2.3-8.4-2.4-16.9-1.8-25.5c0.3-3.9,0.5-7.9,1.1-11.8c0.2-1.4,0.5-2.8,0.9-4.2
			c0.2-0.8,0.1-1.5-0.3-2.2c-2.4-4.5-3.2-9.4-3.7-14.5c-0.4-3.4-0.6-6.8-0.9-10.2c-0.6-7.7-1-15.3-0.8-23c0-0.1-0.1-0.2-0.1-0.4
			c-2.3,2.1-4.5,4.2-7,6.4c-0.4-4,0.2-7.6,1.5-11.4c-1.2,0.5-2.2,1.3-3.6,1.5c0.5-1.1,0.8-2.2,1.3-3.2c1.3-2.9,1.6-6,2.2-9
			c0.4-2.1,0.9-4.1,1.8-6.2c-1.8,0.5-3.4,1.1-5.3,0.7c1.8-1.6,2.4-3.8,3.2-5.9c0.7-1.9,1.7-3.7,3.2-5.3c-1-0.3-2.2,0-3.3-0.9
			c3.5-1,4.9-4.2,7.2-6.3c-0.3-0.4-0.6,0.1-0.9-0.3c0.3-1.1,0.8-2.1,1.4-3.2c-2.5-0.4-4.1-1.7-5.6-3.6c0.6-0.4,1.2-0.2,1.8-0.4
			c1.5-0.7,2.8-1.6,3.7-3c1.4-2.1,2.7-4.3,4.5-6.4c-1.8,0.2-3.3,0.3-4.9-0.2c0.9-1.4,2.4-2.3,3.6-3.6c-1.2-0.4-2.2-1-3.3-1.7
			c1.8-0.5,3.4-0.6,4.7-1.8c1.7-1.5,2.7-3.4,3.3-5.6c0.3-1.2-0.7-2.2-2.3-2.2c-2.6-0.1-5.2,0.3-7.9,0.6c-1.9,0.2-3.9,0.5-5.8,0.2
			c-2.9-0.4-5.2-1.9-7.1-4.1c-1.1-1.3-2.7-2-3.7-3.3c-1.9-2.6-4.2-4.9-6.2-7.4c-1.3-1.5-1.9-3.4-2-5.4c-0.1-1.4,0.3-2.1,1.7-2.7
			c1.9-0.8,3.9-0.8,5.9-1c5.1-0.7,10-1.8,14.9-3.4c2.1-0.7,2.9-2.3,3.2-4.6c-2.6,1.8-5.4,2.7-8,4.1c-0.1-0.1-0.1-0.2-0.1-0.3
			c0.6-0.9,1.7-1.3,2.6-1.7c2.4-1.1,4.8-2.4,6.5-4.5c0.9-1.1,2.1-2,2.8-3.3c0-0.1,0-0.2,0-0.3c0.4-0.7,1-0.9,1.7-0.8
			c0.1,0.1,0.2,0.1,0.2,0.2c-0.1,1.1-1.3,1.6-1.5,2.6c3.1-1.9,6.5-3.2,9.5-5.4c3-2.2,5.6-4.6,7.3-8c0.6-1.3,0.6-1.4-0.6-2
			c-1.6-0.7-3.2-1.2-4.7-2c-2.3-1.2-3.6-2.6-4.4-5.1c0.2,1,0.7,1.9,0.8,2.9c0,0.1-0.1,0.2-0.2,0.3c-0.5,0.1-0.8-0.2-1.1-0.5
			c-1.9-1.7-4.4-2.3-6.5-3.5c-0.3-0.2-0.2,0.2-0.3,0.3C38.5,21,38.4,21,38.3,21c-0.1-0.3-0.2-0.6-0.4-0.9c-0.2-0.4-0.2-0.7,0.2-0.9
			c1.3,0.8,2.7,1.6,4.1,2.1c1,0.3,1.9,0.8,3,1.5c-0.1-1.5-0.1-2.9,0.1-4.5c1.3,3.6,2.8,6.8,6.9,7.8c0.6-2.3,1.2-4.5,1.8-6.8
			c0.9-3.3,1.5-6.6,2.6-9.8c0.5-1.5,1.2-3,2.2-4.2c1.8-2.4,2.7-2.5,5.4-1.1c0.6-0.7,1.1-1.4,1.7-2.1c1.1-1.2,2.1-1.4,3.5-0.7
			c2.8,1.3,4.4,3.6,5.8,6.2c3.9,7.3,5.8,15.2,6.7,23.4c0.1,1.3,0.3,2.7,0.4,4.2c0.6-0.8,1-1.4,1.5-2c0.4,2.2,0,4.2-0.3,6.4
			c0.8-0.4,1.4-1.1,2.3-1.3c-0.2,0.7-0.4,1.4-0.6,2.1c-0.2,0.9-0.6,1.8,0.6,2.4c0.4,0.2,0.5,1,0.8,1.6c-0.1,0.1-0.2,0.1-0.3,0.1
			c-0.7-0.2-0.6-1-1.2-1.2c-0.3,0.3-0.2,0.6-0.2,0.9c0,0.3,0.1,0.6,0.1,0.9c-0.3,1.3-0.8,1.9-2.1,2c-0.8,0.1-1.6,0.1-2.3-0.2
			c-1.1-0.3-2.1-0.8-2.9-1.7c-0.9-0.9-1.4-2-1.1-3.3c-0.1,0-0.1-0.1-0.2,0c-0.1,0.1-0.1,0.1-0.2,0.2c-0.4,0.6-0.7,1.2-0.4,1.9
			c1.6,3.2,5,4.8,8.5,4.1c0.4-0.1,0.8-0.3,1.2-0.1c0.1,0.2,0.1,0.3,0,0.5c1.3,4.1,1.9,8.4,2.1,12.7c0.3,4.5,0.2,9,0.7,13.4
			c0.3,2.5,1.7,4.4,3.1,6.3c-0.1,0.5-0.4,0.3-0.7,0.2c-0.4-0.1-0.7-0.3-1.2-0.4c0.2,0.7,0.3,1.4,0.5,2.1
			C90.4,82.9,90.4,83.1,90.4,83.2z"/>
		<path class="st0" d="M26.7,24.8c-0.4-0.5-0.8-1-1.5-1.9c1.6,0.5,2.8,1.1,4.1,1c2.3-0.1,4.5-0.8,6.8-1c1-0.1,1.9-0.1,3.1,0.1
			c-0.3-0.7-0.5-1.2-0.7-1.8c0.1-0.1,0.2-0.2,0.3-0.2c1.2,1,2.4,2.2,3.8,2.8c-0.3,0.7-0.7,0.7-1.1,0.5c-3.3-1-6.5-0.5-9.7,0.1
			c-0.9,0.2-1.8,0.3-2.7,0.3c-0.7,0-1.4-0.1-2-0.6c-0.1-0.1-0.2-0.1-0.2-0.1c-0.1,0,0,0,0.1,0.1c1.4,1.2,3.1,1.5,4.9,1.9
			c-1.2,1.1-4.4,0.7-7.3-0.8c-0.1,0-0.2-0.3-0.4-0.2c0.1,0,0.2,0.1,0.3,0.1c0.7,0.6,1.1,1.5,1.7,2.1c1.3,1.3,2.8,2.2,4.7,2.4
			c0.3,0,0.7,0,0.8,0.4c-0.1,0.3-0.3,0.4-0.5,0.4C28.3,31,25.7,32.1,23,33c-1.8,0.6-3.6,0.9-5.6,0.3c1,1.6,2.4,2.5,3.8,3.2
			c1.5,0.8,3.1,0.3,4.7,0c-0.4,1.1-1.3,1.6-2.2,2.1c-0.1,0-0.1,0-0.2,0c0-0.5-0.3-0.6-0.7-0.7c-3.2-0.9-5.7-2.6-6.9-5.9
			c4.5,1.9,8.3-0.4,12.4-2c-2.5-1.5-4-3.5-5.1-6.2c1.2,0.5,2.1,1,3.1,1.2C26.5,25,26.6,25,26.7,24.8z"/>
		<path class="st0" d="M25.7,51c-1,0.3-1.6,1.2-2.4,1.8c-0.6,0.4-1.2,0.8-2.1,1c2-2.9,1.4-6.3,2.3-9.6c-1.6,0.7-3.1,1.1-4.9,0.9
			c2.3-1.4,2.9-3.8,4.2-5.8c0.2-0.3,0.4-0.7,0.9-0.7c0,0,0,0,0,0c0.3,0.3,0.1,0.5,0,0.8c-1,1.5-1.7,3.3-2.8,4.8
			c1.5-0.2,2.7-0.8,3.7-2c0.3-0.4,0.5-1.1,1.3-1c0.1,0.1,0.2,0.2,0.2,0.3c0,0.3,0,0.6-0.2,0.8c-1.8,1.9-1.8,4.4-2,6.8
			c-0.1,1.1-0.1,2.2-0.8,3.2c-0.1,0.1-0.1,0.2-0.2,0.3c0.1,0,0.1,0,0.1-0.1c1.5-1.5,3.2-2.8,4.8-4.2c0.4,1.3-0.3,2.2-1.1,3.1
			c-0.1,0-0.2,0.1-0.3,0.1c-0.1,0-0.2-0.1-0.2-0.1c0-0.1,0-0.2,0.1-0.2c-0.1,0-0.1,0-0.2,0.1C25.7,51,25.7,51,25.7,51z"/>
		<path class="st1" d="M86.7,44.4c0.1,0,0.2,0,0.3,0c0.8,1.5,0.5,2.7-1.2,4.1c0-0.2,0-0.4,0-0.6C86.4,46.8,86.7,45.6,86.7,44.4z"/>
		<path class="st1" d="M26.7,51.6c0,0.1,0,0.2,0,0.3c-0.3,0.7-1,0.8-1.6,1.2c-0.2-0.9,1-1.3,0.6-2.1c0,0,0,0,0,0
			c0.1-0.1,0.2-0.1,0.3,0l0,0C26.1,51.4,26.5,51.4,26.7,51.6z"/>
		<path class="st1" d="M27.6,316.6c0.1,0.2,0.7,0.2,0.3,0.7c-0.8,0.4-1,1.4-1.9,1.5c-0.1,0-0.2-0.1-0.2-0.2
			C26.1,317.6,26.9,317.1,27.6,316.6z"/>
		<path class="st1" d="M25.2,320.4c-0.1,0-0.2,0-0.3,0c0.2-0.7,0.2-1.4,0.9-1.8c0.1,0.1,0.1,0.1,0.2,0.2
			C26.1,319.4,26,320.1,25.2,320.4z"/>
		<path class="st1" d="M38.2,19.2c-0.1,0.3-0.2,0.6-0.2,0.9c-0.3-0.5-0.5-1-0.4-1.6C37.9,18.6,38,18.9,38.2,19.2z"/>
		<path class="st1" d="M91,81.1c0.2-0.1,0.4-0.1,0.7-0.2c0.1,0.1,0.2,0.2,0.6,0.5C91.6,81.2,91.3,81.2,91,81.1z"/>
		<path class="st1" d="M90.6,85.2c-0.3-0.3-0.1-0.6-0.2-0.9C90.8,84.5,90.6,84.8,90.6,85.2z"/>
		<path class="st1" d="M90.9,87.3c-0.2-0.3-0.2-0.6-0.1-0.9C90.9,86.7,91,87,90.9,87.3z"/>
		<path class="st1" d="M90.4,83.2c0-0.2-0.1-0.3-0.1-0.5C90.4,82.9,90.4,83.1,90.4,83.2z"/>
		<path class="st0" d="M38.4,21.2c-0.1,0-0.1-0.1-0.1-0.2c0.1-0.1,0.2-0.2,0.2-0.3c0.1,0.1,0.2,0.2,0.1,0.3
			C38.6,21.1,38.5,21.1,38.4,21.2z"/>
		<path class="st2" d="M51.1,173.8c1-2.5,1.9-5.1,2.6-7.7c0.1-0.5,0.4-1.1,0.1-1.6c-0.4-0.5-0.2-1-0.1-1.5c0.9-4.1,0.7-8.2,0.5-12.3
			c-0.3-6.1-0.6-12.1,0.2-18.2c0.1-0.9,0.3-1.9,0.5-2.8l0,0c0.3-0.2,0.1-0.5,0.3-0.8c1-2.7,2.4-5.1,3.3-7.8c0.7-2.2,1-4.4,1-6.9
			c1.1,1,1.9,2.2,3.4,2.8c-0.7-2.4-0.5-4.8-0.7-7.2c0.9,0.3,1.4,1.1,2.4,1.1c0.2-0.9-0.4-1.5-0.6-2.3c-0.7-2.5-1-5.1-1.6-7.6
			c-0.1-0.5-0.2-1-0.5-1.5c-0.8-0.7-0.7-1.7-0.6-2.6c1.2-2.8,1.2-5.8,0.8-8.8c-0.3-0.2-0.4-0.5-0.4-0.9c0-2.6-0.2-5.3,0.2-7.9
			c0.2-0.9,0.6-1.6,1.3-2.1c0.4-0.3,0.9-0.7,1.5-0.2c1.6,0.7,3.2,0.1,4.8-0.2c3.9-0.7,7.7-1.5,11.7-1.3c0.9,0,1.2-0.3,1-1.2
			c-0.2-0.9-0.4-1.9-0.6-2.8c0-0.1,0.1-0.2,0.2-0.3c0.6,0.3,1.1,0.6,1.7,0.9c0.4-1,0.3-1.7-1.1-4.8c1-0.6,2.2-0.8,3.2-1.7
			c-1.6-0.5-2.5-1.8-3.4-3c-0.9-1.2-1.8-2.5-2.7-3.7c0.5-0.6,1.4-0.5,1.9-1.3c-0.9-0.4-1.7-0.7-2.7-1.1c2.7-2.1,3.8-5.3,6.3-7.8
			c0.4,1.8,0.9,3.4,1.2,5c0.8,4.2,1.1,8.5,1.1,12.7c0,2.8,0.1,5.6,0.6,8.3c0.3,1.7,1.2,3.1,2.1,4.5c0,0.1-0.1,0.2-0.2,0.2
			c-0.4-0.3-0.9-0.6-1.3-0.9c-0.2-0.1-0.1,0.1-0.2,0.2c1.2,1.9,1.6,4,1.8,6.2c0.1,0.9,0.2,1.8,0.3,2.7c0,0.1-0.1,0.2-0.2,0.2
			c-0.8-0.5-1.3-1.3-2-1.9l0,0c-0.2,0.2,0,0.4,0.1,0.6c0.8,1.6,0.9,3.3,0.6,5.1c-2.3-5.1-5.9-8.2-11.7-7.8c-3.1,0.2-6.1,0.9-8.5,3.3
			c1.2-0.6,2.5-1.2,3.8-1.6c3.1-0.9,6.3-1.3,9.4-0.1c3.6,1.4,5.1,4.4,6.1,7.8c1.7,6.1,1.1,12.2,0,18.4c-1.3,7.1-3.8,13.9-5.4,20.9
			c-1.3,5.8-1.9,11.7-1.6,17.6c0.1,3.4,1.7,5.9,4.3,8.1c2.7,2.3,5.5,4.3,8.2,6.5c2.1,1.7,3.9,3.5,5.2,5.8c1.6,2.8,3.9,5,6.8,6.4
			c1.5,0.7,2.7,1.8,4,2.8c0.6-0.4,0.2-0.8,0.2-1.2c0-0.1,0.1-0.2,0.2-0.3c2.9,1.6,6,2.1,9.2,1.2c0-0.6-0.7-0.7-0.9-1.2
			c1.3-0.3,2.4-0.6,3.5-1.3c1.6-1,2.2-2.4,2.2-4.2c0-0.4,0-1-0.3-1.1c-1.1-0.6-0.8-1.7-1-2.6c-0.2-1-0.6-2-1.4-2.7
			c-1.2-1.3-3-1.4-4.3-0.2c-1.3,1.2-1.4,2.9-0.2,4.2c1.3,1.4,2.9,1.8,4.8,1.6c0.5-0.1,1.1-0.4,1.4,0.3c-0.3,0.9-1.1,1.3-1.8,1.6
			c-5,2.6-11.1,1.3-14.2-4.2c-3.4-6-0.6-12.4,4.3-15.7c6.7-4.7,15-4.2,21.5,0.7c4.6,3.5,7,8.4,7.8,14.1c0.6,4.5,0.4,8.9-1.7,13
			c-2.2,4.3-5.6,7.2-9.8,9.4c-5.4,2.8-11.2,4.1-17.3,3.5c-6.4-0.6-12.2-3.1-17.3-7.1c-1.6-1.3-3.2-2.6-4.6-4.2l0,0
			c-0.1-0.2-0.2-0.5-0.5-0.7l0,0c-0.1-0.2-0.1-0.4-0.3-0.5c-0.9-1.8-1.3-3.9-2.1-5.7c-0.5-1.2-0.9-2.4-1.8-3.3
			c1.9,3.7,2.1,8.1,4.8,11.6c-1,0-1.6-0.6-2.5-1c1.1,3,0.8,6,0.7,9c-1.1-0.9-1.4-2.2-2.2-3.2c1,3-0.3,5.5-1.4,8.2
			c-1.1-1.6-0.9-3.4-1.3-5.2c-0.1,1.4-0.3,2.8-1.1,4c-2.1,3.3-2.7,7-3.2,10.8c-0.4,2.8-0.9,5.5-1.4,8.3c-1.1,5.1-2.2,10.2-2.9,15.4
			c-0.5,3.7-1.2,7.4-2.3,11c-1.3,4-3.7,7.1-7.2,9.3c-4.8,3-10.4,2.2-14.7-1.7c-3.3-3-5.1-6.9-6.4-11.1c-1.4-4.5-2-9.1-2-13.8
			c0-4.5-0.2-9,0.5-13.5c0.4-2.8,0.7-5.6,1.2-8.4c1.2-6.5,2.4-13,4.1-19.3C49,180.4,50,177.1,51.1,173.8z"/>
		<path class="st3" d="M51.1,173.8c0.1,0.7-0.1,1.3-0.4,2c-2.5,7.5-4.3,15.3-5.8,23.1c-1,5.3-1.9,10.7-2.3,16.1
			c-0.5,7.3-0.5,14.7,1.3,21.9c1.2,4.6,2.9,9,6.5,12.4c2.3,2.3,5,3.7,8.3,3.8c3.2,0.1,5.9-1.2,8.3-3.2c3.7-3.1,5.2-7.3,6.2-11.9
			c0.8-3.9,1.3-7.9,1.9-11.8c0.6-3.5,1.1-7,2.4-10.3c0,3-0.5,5.9-0.8,8.8c-0.5,5.9-1.1,11.9-1.6,17.8c-0.1,1.3-0.3,2.5-0.3,3.8
			c0,0.4,0.1,0.7,0.3,1.1c0.1-1.1,0.2-2.2,0.4-3.5c1.3,1.5,2.1,3,2.9,4.5c2.9,6.1,4.9,12.5,5.2,19.3c0.2,3.7,0.5,7.3,0.5,11
			c-0.1,5-0.1,9.9-0.4,14.9c-0.2,4.6-0.2,9.2-0.5,13.8c-0.4,5.4-0.4,10.9-1.1,16.3c-0.1,0.7-0.3,1.4-0.5,2.1
			c-0.6,1.6-1.7,2.5-3.4,2.7c-0.6,0.1-1.3,0.1-1.9,0.1c-11.8,0-23.5,0-35.3,0c-1.1,0-2.1-0.1-3.2-0.2c-1.2-0.1-1.7-0.8-1.8-2
			c-0.2-2.1,0.4-4,1.1-5.9c1.8-4.7,5.1-7.7,10.3-8.4c2-0.3,4-0.1,5.9,0.3c-1.6-1.1-3.5-1-5.3-0.9c-5.1,0.4-8.7,3-11,7.6
			c-0.3,0.7-0.7,1.2-1.4,1.6c-1.4,0.7-1.9,2.1-2.4,3.5c-0.4,1.1-0.1,1.4,1.1,1.2c0.3-0.1,0.6-0.1,1-0.2c0,0.8,0.1,1.6,0.1,2.4
			c-4.5,0.8-7.9-1-7.8-5.3c0.2-7.7,5.4-16.8,15.5-17.7c3-0.3,5.9,0,8.8,0.6c0.6,0.1,1.2,0.2,1.8,0.2c2.3,0,3.5-0.9,3.6-3.2
			c0.3-4.5,0.1-8.9-0.6-13.4c-0.9-6.9-2.2-13.7-4.1-20.4c-1.3-4.6-2.4-9.3-4.8-13.5c-0.6-1.1-1.4-2.2-2.2-3.2
			c-3.7-4.8-5.4-10.4-6.2-16.3c-1-7.7-0.8-15.4-0.1-23.2c1-12.1,4.8-23.3,9.8-34.3C49.9,176.5,50.3,175.1,51.1,173.8z"/>
		<path class="st3" d="M64.9,77.3c-1.3,0.2-2.2,1.1-2.4,2.4c-0.5,2.9-0.2,5.8-0.2,8.7c-0.3,1-0.3,2.1-0.2,3.1
			c0.1,4.3-1.9,7.5-5.2,10.1c-2.7,2.1-5.7,3.5-8.9,4.6c-3.3,1.1-6.6,2.3-10,3.4c-0.6,0.2-1.2,0.3-2,0.5c0.2-1.2,0.7-1.9,1.6-2.7
			c-2.1-0.7-4.1-1.2-5.5-3c2.4-0.5,3.9-2.1,5.2-3.9c1.4-2,2.6-4.2,4.3-6c0.5-0.6,1.1-1.1,1.7-1.7c0.1-0.2-0.1-0.1-0.2-0.2
			c-1.8,1-3.8,1.2-6,1.1c1.2-1.3,2.4-2.4,3.9-3.4c-0.9-0.6-2-0.5-3-1.3c3.4-0.8,5.2-3.1,6.3-6.1c0.2-0.6,0.4-1.3,0.3-2
			c0-1.5-0.6-2.2-2.1-2.4c-2.9-0.4-5.7,0.1-8.6,0.4c-1.5,0.2-3,0.4-4.5,0.4c-3.1-0.1-5.6-1.3-7.6-3.6c0-0.1,0-0.1,0.1-0.1
			c1.7,0.5,3.4,0.7,5.2,0.7c0.5,0,1,0.2,1.5,0.3c0,0,0.1,0,0.1,0c0.1,0,0.1,0.1,0.2,0.1c0,0,0.1,0.1,0.1,0.1c0.1,0,0.1,0.1,0.2,0.1
			c0,0,0.1,0.1,0.1,0.1c0.1,0,0.1,0.1,0.2,0.1c0,0,0.1,0.1,0.1,0.1c0.3,0.8,1,0.9,1.6,0.9c0.7,0.1,0.6-0.7,0.5-1.1
			c-0.4-1,0-1.3,1-1.6c2.7-0.8,5.3-1.9,7.3-3.9c0.2-0.3,0.4-0.2,0.6-0.1c0.7,0.6,1.1,0.2,1.4-0.5c0.1-0.1,0.2-0.1,0.3-0.2
			c0.4-0.1,0.7,0.2,1.1,0.1c0.8-1,0.9-2.1,0.8-3.3c-0.2-1.6,0.5-2.1,2-1.6c-1-0.4-2-0.6-2.9-0.9c0.3,0,0.7,0.1,1.1,0.5
			c-0.2,1.5-1.6,2.4-2.2,3.7c-0.1,0.1-0.1,0.3-0.2,0.4c-0.1,0.1-0.3,0.2-0.4,0.3c-0.1,0.1-0.1,0.1-0.2,0.2c-0.1,0.1-0.1,0.1-0.2,0.2
			c0,0-0.1,0.1-0.1,0.1c-0.1,0.1-0.1,0.1-0.2,0.2c0,0-0.1,0.1-0.1,0.1c-0.1,0.1-0.1,0.1-0.2,0.2c-0.1,0.1-0.1,0.1-0.2,0.1
			c-0.2,0-0.3,0.2-0.5,0.1c-3,2.4-6.4,4-10.3,4.4c-5,0.5-9.5-0.3-12.6-4.9c-0.5-0.8-1.1-1.6-1.7-2.4c0.7-0.6,1.6-0.7,2.4-1
			c2.8-1.2,4.7-3.1,5.2-6.2c0.2-1,0.1-2.1-1-2.7c0,0-0.1,0-0.1,0c-0.1,0-0.1-0.1-0.1-0.2c0,0,0-0.1,0-0.1c-0.5-1.2-1.8-1.2-2.8-1.8
			c0.3-0.3,0.7-0.3,1-0.3c4-0.8,8-1.6,11.8-3c2-0.7,3.4-1.9,3.7-4c0.2-1.7,1-3.1,2.2-4.2c0.2,0,0.2,0,0.2,0.2c0.1,0.3-0.1,0.6,0.3,1
			c2.3-3.3,6.5-3.7,9.5-5.9c0.4-0.3,0.8-0.2,1.2,0.1c1.6,1.1,2.9,2.4,4,3.9c0.2,0.2,0.2,0.5,0.5,0.6c0.1,0,0.1,0.1,0.2,0.1
			c0.2,0.1,0.3,0.2,0.4,0.4c1.7,3.9,2.8,7.9,1,12.2c0.7,0.1,1.3-0.1,1.8-0.2c3.4-0.7,6.7-0.3,9.7,1.4c7.4,4.2,7.3,12.9,1.1,17.3
			C66.5,76.6,65.6,76.7,64.9,77.3L64.9,77.3z"/>
		<path class="st3" d="M90,183.8c0.7-0.1,0.9,0.5,1.3,0.9c3.8,3.6,8,6.5,12.9,8.3c7.5,2.7,14.9,2.5,22.3-0.6
			c5.3-2.2,9.7-5.4,12.3-10.7c2-4,2.2-8.3,1.6-12.6c-0.7-4.9-2.8-9.1-6.3-12.5c-2.9-3-6.6-4.5-10.8-5c-5.2-0.6-9.8,0.9-13.5,4.5
			c-6.4,6.1-4.6,14.7,2.1,18.3c3.2,1.8,6.8,1.4,10-0.7c0.4-0.3,0.8-0.6,1.3-0.9c0.6,1.4,0.1,2.5-0.9,3.4c-1.2,1.2-2.6,1.8-4.3,1.9
			c-0.4,0-0.8,0.1-1.5,0.2c0.7,0.5,1.2,0.9,1.8,1.3c-2.4,1.1-6.2,0.2-9.8-2.2c-0.2,0.7,0.5,1.1,0.5,1.6c0,0-0.1,0.1-0.1,0.1
			c-1.5-1-2.9-1.9-4.4-2.9c-7.1-4.8-8.8-13-5.8-20.1c0.6-1.4,1.2-2.7,2.1-3.8c0-0.1,0-0.1,0.1-0.2c0,0,0.1-0.1,0.1-0.1
			s-0.1-0.1-0.1-0.1c0,0,0,0.1,0,0.1s-0.1,0-0.1,0c0,0-0.1,0-0.1,0l-0.1-0.1c-1.1,0.6-2.2,1.1-3.6,0.7c3.2-3.2,6-6.7,10.1-8.6
			c2.7-1.3,5.6-1.6,8.5-1.2c0.6,0.1,1.2,0.2,1.8,0.2c-0.9-0.9-2-1.6-2.5-2.9c5.4,1.7,11.1,0.7,16.5,2.1c7.8,2,13.6,6.3,16.1,14.3
			c1.1,3.6,1.7,7.3,1.1,11.1c0,0.2,0,0.4,0,0.6c0,0,0.1,0,0.2,0.1c0.6-2.3,1.2-4.7,3.5-5.9c0.9,6,1.8,9.4-3,16.6
			c1-0.3,1.9-0.7,2.8-0.8c0.9-0.1,1.9-0.3,3,0c-1,1.3-1.9,2.5-2.8,3.8c-2.1,2.9-4.2,5.8-6.2,8.8c-4,5.9-9.8,9.3-16.5,11.2
			c-3.7,1.1-7.6,1.6-11.5,1.5c-2.3-0.1-4.5-0.5-6.7-1.3c0.9,1.1,2.3,1.6,3.1,3c-3.3,0.5-5.9-0.3-8.3-2.4c0.4,0.7,0.9,1.5,1.3,2.2
			c0,0.1-0.1,0.2-0.2,0.2c-2.6-1.1-5.4-1.8-8-3c-4.1-1.9-7.2-4.8-9.8-8.4c-0.4-0.5-0.5-1.1-0.5-1.8c0-2.1,0.1-4.3-0.4-6.6
			c0.8,0.2,1.5,0.4,2.1,0.1C90.9,184.7,90,184.5,90,183.8z"/>
		<path class="st3" d="M61.4,97.1c0.2,0.9,0.4,1.8,0.6,2.6c0.3,3.2,0.8,6.4,1.6,9.6c0,0.1,0.1,0.3,0.1,0.6c-0.9-0.1-1.2-1.1-2.1-1.4
			c0.2,2.5,0.3,4.8,0.5,7.1c0,0.1-0.1,0.1-0.2,0.2c-1.2-1-2-2.3-2.8-3.7c-0.4,1.2-0.1,2.4-0.1,3.5c-0.2,3.5-1.4,6.7-2.8,9.8
			c-1.2,2.6-2.5,5.2-2.9,8.3c-2.4-2.1-2.4-4.9-2.6-7.6c-0.5,0.1-0.4,0.5-0.4,0.7c0.5,4.4-1.6,7.8-3.9,11.1c-1.5,2.1-3,4.3-4.3,6.8
			c-0.6-1.4-0.4-2.7-0.8-4.3c-3.5,5.7-7.4,10.9-12.9,15.1C28,151,29.2,147,31,143c0-0.1,0.1-0.1,0.1-0.1c-0.1-0.1-0.1-0.1-0.2,0
			c-1,1.2-2.1,2.3-3.6,2.9c-0.1-0.1-0.2-0.1-0.2-0.2c1.6-3.4,2.2-7,2.7-10.6c0.4-2.9,1.3-5.6,2.8-8.2c-0.1,0-0.1-0.1-0.1-0.2
			c0,0,0.1,0,0.1,0s0-0.1,0-0.1c0,0.1-0.1,0.1-0.2,0.1c-1.4,1.6-3.3,1.9-5.4,2.3c1.5-2.6,2.3-5.2,3.5-7.7c0.8-1.7,2.2-2.9,3.4-4.2
			c0.2-0.2,0.5-0.3,0.4-0.6l0,0c-1.2,0.5-2.4,1.4-4,0.9c2.4-1.2,3.7-3.4,5.3-5.2c1.1-1.3,2.7-1.8,4.2-2.4c4-1.5,8.1-2.8,12-4.4
			C55.9,103.6,59.1,100.9,61.4,97.1z"/>
		<path class="st3" d="M54.9,129.8c0.1,2.3-0.4,4.6-0.5,6.9c-0.2,3-0.2,6.1-0.1,9.1c0.3,6.3,1,12.5-0.5,18.8c-0.7,2-1.3,3.9-2,5.9
			c-1.4,3.7-3.4,7.2-5,10.9c-2.2,5.1-4.3,10.3-5.5,15.8c-0.1,0.3-0.1,0.7-0.5,1c-0.6-0.9-0.9-1.9-1.3-2.9c-1.6-4-2.2-8.2-2.6-12.4
			c-0.9-10.7-1.7-21.4-1.6-32.2c0-0.8,0.2-1.4,0.7-2c1.6-2,3.2-4.1,4.6-6.5c0.2,1.4,0.4,2.7,1.1,4.1c2.3-5.5,6.9-9.5,8.8-15.2
			c0.9,1.4,1.5,2.7,2.8,3.5C54.1,133,54,131.2,54.9,129.8z"/>
		<path class="st2" d="M38.7,21.1c0-0.1-0.1-0.2-0.1-0.3c-0.1-0.3-0.3-0.6-0.5-1.2c2.7,2.1,6.2,2.5,8.3,5.1l0.1-0.1c0,0,0.1,0,0.1,0
			c0,0,0.1,0,0.1,0c-0.1-0.1-0.1-0.1-0.1-0.2c-0.6-1.2-1.1-2.5-1-4.1c0.2,0.2,0.3,0.3,0.3,0.4c0.9,3.4,3.4,5.2,6.5,6.3
			c1.4,0.5,2.9,1.1,4.3,2c-1.2,2.7-2.8,5.2-5,7.2c-2.8,2.4-5.8,4.5-9.2,6c-1.5,0.6-2.9,1.3-4.2,2.7c0.1-1.8,1.3-2.7,2-3.9
			c0.1-0.2-0.1-0.1-0.2-0.2c-0.6,0.3-1.1,0.6-1.7,1c-0.4,0.7-1.2,0.6-1.7,1.1c-0.3,0.3-0.7,0.4-1,0.7c-0.2,0.2-0.6,0.3-0.8,0.5
			c-0.4,0.2-0.8,0.5-1.2,0.7c-0.2,0.2-0.4,0.4-0.6,0.6c-0.8-0.1-0.4-0.7-0.3-1c0.5-1.8,1.2-3.6,2.3-5.2c0.2-0.1,0.2-0.4,0.3-0.6
			c0.2-0.3,0.4-0.6,0.6-0.7c-1.4,0.4-2.8,1.2-4.4,1.4c-0.1-0.8,0.4-1.2,0.7-1.8c-0.4,0.7-0.9,1.1-0.9,1.9c1.1,0,2-0.6,3.1-0.8
			c0.3-0.1,0.7-0.5,1,0c-0.1,0.2-0.2,0.4-0.3,0.6c-1.3,1.8-1.9,3.8-2.5,5.8c-0.2,0.5,0.1,0.7,0.6,0.4c0.2-0.2,0.4-0.4,0.6-0.5
			c0.4-0.2,0.8-0.5,1.2-0.7c0.2-0.2,0.5-0.3,0.8-0.5c0.3-0.3,0.7-0.4,1-0.7c0.6-0.3,1.2-0.6,1.9-0.9c0.2,0,0.6-0.1,0.2,0.3
			c-2.7,3.2-5.4,6.3-9.5,7.8c-1,0.4-1.8,1-2.7,1.5c-0.8,0.6-0.4-0.5-0.7-0.5c0.8,0.2,0.6-0.5,0.9-0.9c0.4-0.5,0.7-1.1,0.8-2
			c-1.7,1.6-3.2,3.2-5,4.3c0,0-0.1-0.1-0.1-0.1c0.8-1.7,0.8-3.5,0.9-5.3c0.1-1.8,0.6-3.4,1.7-4.9c0.3-0.3,0.4-0.7,0.6-1
			c0-0.1,0-0.1-0.1-0.1c-0.5,0.3-0.8,0.8-1.1,1.2c-1.1,1.6-2.7,2.1-4.7,2.2c1.6-1.9,2.5-4.1,3.7-6.1c0.8-0.6,1.5-1.3,2.4-1.8
			c-4.3,1.8-6.9-0.7-9.1-3.8c3.5,0.9,6.7-0.3,9.8-1.6c1.5-0.6,3.1-0.9,4.9-1.3c-3.6-0.2-5.8-2.1-7.4-5.1c0-0.1,0.1-0.2,0.2-0.2
			c2.3,1.1,4.7,1.6,7.2,1.6c-1.8-0.5-3.8-0.6-5-2.4l0.1-0.1c2.1,0.7,4.1,0.3,6.2,0c1.6-0.3,3.2-0.6,4.8-0.6c1.6,0,3.1,0.5,4.7,0.8
			C40.9,23.4,39.5,22.6,38.7,21.1z"/>
		<path class="st2" d="M64.8,77.3c0.7-0.9,1.8-1.1,2.6-1.7c5.9-4.5,5.3-12.8-1.3-16.4c-3.5-1.9-7.1-2.2-10.9-1.2
			C55,58,54.8,58,54.5,58c-0.1,0-0.2,0-0.4-0.1c2.2-4.4,1-8.6-0.8-12.7c-0.1-0.1-0.1-0.3-0.2-0.4c0,0,0,0,0,0
			c-0.4-2.1-1.6-3.8-2.9-5.6c-0.1-0.2-0.3-0.4-0.5-0.6c1.5-1.2,2.9-2.4,4.1-3.8c0.3-0.4,0.7-0.4,1.1-0.3c1.5,0.2,2.9,0.6,4.2,1.3
			c0.2,0.1,0.4,0.5,0.7,0.2l0,0c0,0.6,0.4,0.9,1,1c0,0,0.1,0.1,0.1,0.1c0.3,0.5,0.6,1.1,1.1,1.5c0.1,0.1,0.2,0.1,0.2,0.2
			c0.1,0.1,0.1,0.1,0.2,0.2c0,0,0.1,0.1,0.1,0.1c0.1,0.1,0.1,0.1,0.2,0.2c0,0,0.1,0.1,0.1,0.1c0.1,0.1,0.1,0.1,0.2,0.2
			c0.1,0.1,0.1,0.1,0.2,0.2c0.1,0.1,0.3,0.2,0.4,0.3c0,0,0.1,0.1,0.1,0.1c0,0.6,0.6,0.6,1,0.7c0.9,0.3,1.6,0.9,2.2,1.6
			c1.3,1.7,2.4,3.6,2.9,5.7c1.2,5.2,4.8,7.8,9.4,9.8c0.2,0.1,0.4,0.2,0.7,0.3c0,0,0,0.1,0.1,0.1c-0.5,0.4-1.2,0.3-2,0.4
			c2.7,2.1,3.8,5.4,6.6,7.4c-1.1,0.7-2.2,0.7-3.4,1.1c1,1.1,1.8,2.3,2,3.9c-1.1-0.7-1.9-1.6-3.3-2c1,1.9,1.6,3.7,1.7,5.9
			c-1.2,0-2.4-0.1-3.6,0c-4.2,0.3-8.2,1.6-12.4,2.2C65.3,77.2,65.1,77.3,64.8,77.3z"/>
		<path class="st3" d="M71.1,7.9c-0.2,0.2-0.1,0.4,0,0.5c3.6,5.7,5.4,12,6.2,18.7c0.6,4.5,0.5,8.9,0.2,13.4C75,41.7,74.7,43,76,45.5
			c0.1,0.2,0.4,0.4,0.3,0.8c-0.8,2.2-1.5,4.5-3.3,6.2c-0.1,0.1-0.3,0.2-0.5,0.3c-0.7-0.7-1.1-1.6-1.4-2.4c-0.7-2-1.3-4-2.4-5.7
			c-0.4-0.7,0.1-1.1,0.2-1.6c-0.4-0.2-0.5,0.4-0.8,0.3c-0.7-0.8-1.3-1.6-2-2.4c-0.2-0.3-0.3-0.5-0.2-0.9c0.4-3.9-0.2-7.8-0.3-11.7
			c-0.1-3.5-0.1-7,0.2-10.4c0.3-2.6,0.3-5.3,0.9-7.8c0.2-0.9,0.5-1.8,0.9-2.7c0.3-0.9,0.8-1.3,1.8-1.1c0,0,0.1,0,0.1,0
			c0.1,0,0.2,0,0.2,0.1c0.1,0,0.2,0.1,0.2,0.1c0.1,0.1,0.2,0.1,0.3,0.2c0.1,0.1,0.2,0.2,0.2,0.4c0.1,0.3,0.2,0.5,0.4,0.7
			C71,7.8,71,7.8,71.1,7.9z"/>
		<path class="st2" d="M70.3,6.8c0-0.1,0-0.1-0.1-0.1c-0.2,0-0.3-0.1-0.4-0.3l0,0c-0.1-0.1-0.4-0.1-0.5-0.2c0,0,0,0,0,0
			c0.1-0.7-1.1-0.2-1-0.9c0-0.1,0-0.1,0.1-0.2c0,0-0.1,0-0.1,0c0,0-0.1,0.1-0.1,0.1l-0.1,0c-2,2.9-2.5,6.2-2.7,9.5
			c-0.3,4-0.6,8-0.5,12c0.1,4,0.5,8,0.4,12c0,1.9-0.1,1.9-1.9,1.5c0,0,0,0,0,0c-0.2-0.2-0.5-0.2-0.7-0.5l0,0
			c-0.1-0.1-0.2-0.2-0.3-0.3l0,0c-0.1-0.1-0.2-0.2-0.3-0.3l0,0c-0.1-0.1-0.2-0.2-0.3-0.3l0,0c-0.6-0.5-1-1.2-1.5-1.9c0,0,0,0,0,0
			c-0.5-5.3-0.2-10.5,0.4-15.8c0.5-4.5,1.2-8.9,2.7-13.2c0.6-1.7,1.4-3.2,2.4-4.7c1.1-1.6,2.4-1.8,4-0.7c2,1.3,3.2,3.2,4.4,5.2
			c3.1,5.2,4.6,10.9,5.8,16.7c0.6,2.9,1.1,5.8,1.4,8.7c0.1,1.3-0.1,2.6-0.1,4.2c0.8-1.1,1.4-1.9,2-2.8c0.2,1.9-0.3,4.3-1.4,7
			c0.9-0.7,1.7-1.3,2.5-2c0.1,0.1,0.2,0.1,0.2,0.2c-0.4,1.9-0.5,3.9-1.3,5.7c-0.3,0.7-0.6,1-1.4,0.8c-0.5-0.1-1.1-0.2-1.6-0.3
			c-2.4-0.7-3.2-2.1-2.9-4.5c1-10.5,0.1-20.7-4.6-30.3c-0.6-1.2-1.2-2.4-2.2-3.4c0,0,0,0,0,0C70.7,7.6,70.5,7.2,70.3,6.8z"/>
		<path class="st2" d="M64,4.9c-3.1,7.6-3.7,15.8-6.9,23.3c-1.4-0.6-2.7-1.2-4.1-1.8c1.9-5.6,2.8-11.4,4.8-17c0.5-1.3,1.2-2.5,2-3.7
			C61,3.9,62.2,3.7,64,4.9z"/>
		<path class="st1" d="M21.9,61.4c0.1,2.1-1.3,3.3-2.7,4.4c-1.1,1-2.6,1.4-4,1.9c-0.4,0.1-0.7,0.1-1-0.2c-2.3-2.3-4.2-4.8-4.6-8.4
			c3,0.9,6.1,0.1,9.1,0.8C19.9,60.3,20.9,60.9,21.9,61.4L21.9,61.4z"/>
		<path class="st2" d="M84.4,49c-1.7,2-3,4.2-4.5,6.2c-1,1.3-1.7,1.4-3.1,0.6c-1.3-0.8-2.6-1.5-3.8-2.6c2.1-1.7,2.8-4.3,3.8-6.7
			c1.4,1.1,2.9,2,4.6,2.3c-0.1,0.6-0.7,0.7-0.9,1.2C81.8,49.8,82.9,48.8,84.4,49z"/>
		<path class="st2" d="M59.8,36c-1-1-2.4-1.2-3.6-1.7c-0.4-0.2-0.8-0.3-1.4-0.5c3-4.5,4.6-9.6,6-14.9c0.2,0.9-0.1,1.6-0.2,2.4
			c0,0.8-0.1,1.5-0.2,2.3c-0.4,3.8-0.4,7.7-0.4,11.5C60.1,35.3,60.3,35.8,59.8,36C59.8,36,59.8,36,59.8,36z"/>
		<path class="st1" d="M21.7,58.5c0.2,0.6,0.4,1.2,0.6,1.8c0.1,0.4,0.3,1-0.4,1.1c0,0,0,0,0,0c-0.6-1.2-1.8-1.4-2.9-1.7
			c-2.2-0.6-4.5-0.5-6.7-0.5c-0.8,0-1.6-0.1-2.4-0.6c0.6-1,1.5-1.3,2.4-1.5c3-0.9,5.9-0.7,8.6,0.9c0.2,0.1,0.4,0.2,0.5,0.2
			c0,0,0,0,0,0C21.4,58.4,21.5,58.5,21.7,58.5L21.7,58.5z"/>
		<path class="st4" d="M86.7,44.4c0.4,1.4,0.2,2.6-1,3.5c-3,1.9-9.3-0.7-9.8-4c0.2-0.7,0.3-1.5,0.7-2.1l0,0c0.2-0.1,0.4-0.2,0.5-0.4
			c0.4,0,0.2,0.3,0.2,0.5c-0.2,2.1,0.4,3.2,2.3,4.2c0.5,0.2,0.9,0.4,1.4,0.6c1.1,0.5,2.3,0.7,3.4,0.2c0.9-0.4,1.2-1,0.9-2
			c-0.1-0.2-0.3-0.4-0.3-0.7c0.5-0.4,0.1-1,0.5-1.4C86.1,43.1,86.2,43.8,86.7,44.4z"/>
		<path class="st5" d="M25.2,320.4c0.3-0.5,0.5-1.1,0.8-1.6c0.5-0.5,1-1,1.6-1.6c0.2-0.2,0.3-0.2,0.4,0.1c-0.2,0.9-0.7,1.8-0.7,2.8
			c0,1.5-0.8,1.9-2,2C24.8,321.5,25.3,320.9,25.2,320.4z"/>
		<path class="st5" d="M33.7,324.9c0.5-1.6,1-3,2.5-3.9C36.1,324,35.7,324.6,33.7,324.9z"/>
		<path class="st6" d="M85.2,44.9c1,0.7,0.3,1.4-0.2,1.9c-0.7,0.6-1.6,0.9-2.5,0.6c-0.5-0.2-1.3,0.1-1.6-0.7c0.8,0,1.6,0.4,2.5,0.2
			C84.5,46.6,85.2,46.1,85.2,44.9z"/>
		<path class="st5" d="M28.6,76.5c0-0.2-0.1-0.4,0.3-0.4c0.6,0,1.2-0.1,2-0.2c0.5,0.4,0.2,1.2,0.6,1.8c-0.9,0.2-1.4-0.4-2-0.5
			c0,0,0,0,0,0c-0.1-0.1-0.4-0.1-0.5-0.3l0,0c-0.1-0.1-0.2-0.1-0.3-0.2l0,0C28.7,76.7,28.7,76.6,28.6,76.5L28.6,76.5z"/>
		<path class="st6" d="M76.6,41.7c-0.1,0.8,0.1,1.6-0.7,2.1C75.6,43,75.8,42.3,76.6,41.7z"/>
		<path class="st6" d="M85.5,42.7c-0.1,0.5,0.4,1.2-0.5,1.4C85.1,43.6,84.8,43,85.5,42.7z"/>
		<path class="st3" d="M89.5,183.1c0.5,0,0.6,0.3,0.5,0.7C89.6,183.7,89.5,183.4,89.5,183.1z"/>
		<path class="st6" d="M77,41.3c0,0.3-0.1,0.5-0.5,0.4C76.6,41.4,76.8,41.4,77,41.3z"/>
		<path class="st3" d="M55.2,129c0,0.3,0.1,0.6-0.3,0.8C54.9,129.5,55,129.2,55.2,129z"/>
		<path class="st2" d="M109.9,179.1c-0.1-0.1-0.2-0.3-0.1-0.4c0.1-0.2,0.2,0.1,0.4,0.1C110,178.9,109.9,179,109.9,179.1z"/>
		<path class="st3" d="M89.2,182.6c0.2,0.1,0.4,0.2,0.3,0.5C89.3,183,89.2,182.8,89.2,182.6z"/>
		<path class="st3" d="M37.3,45c0.1-0.1,0.2-0.1,0.3-0.2c0,0.1-0.1,0.3-0.1,0.4C37.5,45.1,37.4,45,37.3,45z"/>
		<path class="st3" d="M27.2,145.8c-0.1,0-0.2,0-0.3,0c0-0.1,0.1-0.2,0.1-0.3C27.1,145.6,27.2,145.7,27.2,145.8z"/>
		<path class="st3" d="M109.1,178.9c0.1,0.1,0.1,0.2,0,0.3c0,0-0.1-0.1-0.1-0.1C109,179,109,178.9,109.1,178.9z"/>
		<path class="st3" d="M107.4,204.8c0,0.1,0,0.2,0,0.3c-0.1,0-0.2-0.1-0.3-0.1C107.3,204.9,107.4,204.9,107.4,204.8z"/>
		<path class="st2" d="M81.8,71.8c-0.1-0.1-0.2-0.2,0-0.4c0,0,0.2,0.1,0.3,0.1C81.9,71.7,81.8,71.7,81.8,71.8z"/>
		<path class="st3" d="M21.8,75.6c0,0-0.1-0.1-0.1-0.1c0.1,0,0.2,0,0.3,0C21.9,75.5,21.9,75.5,21.8,75.6z"/>
		<path class="st2" d="M90.1,79.8c0.1,0.1,0.3,0.2,0.1,0.3c0,0-0.2-0.1-0.3-0.1C90,80,90,79.9,90.1,79.8z"/>
		<path class="st2" d="M90.6,88.2c0,0.1,0.1,0.2,0.1,0.2c-0.1,0-0.2,0-0.3,0C90.4,88.4,90.5,88.3,90.6,88.2z"/>
		<path class="st2" d="M84.9,39.6c0.1,0,0.2,0,0.3,0c0,0.1-0.1,0.2-0.1,0.3C85,39.8,84.9,39.7,84.9,39.6z"/>
		<path class="st3" d="M62,115.6c0,0.1,0.1,0.1,0.1,0.2c-0.1,0.1-0.2,0.1-0.3,0C61.9,115.7,61.9,115.6,62,115.6z"/>
		<path class="st5" d="M26.7,24.8c0.1,0.1,0.4,0.2,0.3,0.4c-0.2,0.2-0.4,0-0.6-0.1C26.4,25,26.5,24.9,26.7,24.8z"/>
		<path class="st2" d="M24.2,25c-0.1-0.1-0.2-0.2-0.1-0.2c0.1-0.2,0.2-0.1,0.3,0C24.3,24.8,24.3,24.9,24.2,25z"/>
		<path class="st2" d="M26.6,24c-0.1-0.1-0.2-0.1-0.2-0.2C26.6,23.7,26.6,23.8,26.6,24C26.7,23.9,26.6,24,26.6,24z"/>
		<path class="st2" d="M22.6,52.5c0,0.1-0.1,0.1-0.1,0.2c-0.1-0.1-0.1-0.2,0-0.3C22.5,52.5,22.6,52.5,22.6,52.5z"/>
		<path class="st5" d="M26,51.1c-0.1,0.1-0.2,0.1-0.3,0c-0.1-0.2-0.1-0.3,0-0.4c0.1,0.1,0.1,0.1,0.2,0C25.9,50.8,25.9,50.9,26,51.1z
			"/>
		<polygon class="st1" points="25.9,50.6 25.8,50.7 25.7,50.6 25.8,50.6 		"/>
		<path class="st0" d="M83.3,99.7c-0.3,4-2.1,7.3-5,10.1c-1.6,1.5-3,1.5-4.5,0c-2.9-2.8-4.9-6.2-4.9-10.4c-0.1-3,1.9-6,4.5-7.1
			c2.8-1.1,5.8-0.5,7.8,1.6C82.6,95.3,83.4,97.6,83.3,99.7z"/>
		<path class="st0" d="M88.4,79.3c0-0.1,0-0.2,0-0.3c0.1,0,0.1,0.1,0.2,0.1C88.6,79.2,88.5,79.2,88.4,79.3z"/>
		<path class="st0" d="M88.4,86.5c0,0-0.1,0-0.1,0C88.3,86.6,88.3,86.5,88.4,86.5C88.4,86.5,88.4,86.5,88.4,86.5z"/>
		<path class="st0" d="M39.8,53.1c0-2.4,0.4-4.8,1.6-6.9c1.6-3,4.1-3.7,6.8-1.5c2.8,2.2,4.3,5.2,4.7,8.7c0.1,0.8-0.3,1.5-0.7,2.1
			c-2,2.5-4.5,4.1-7.7,4.7c-1.7,0.3-3.4-0.9-4.1-2.7c-0.2-0.5-0.4-1-0.4-1.5C39.8,55,39.8,54.1,39.8,53.1z"/>
		<path class="st0" d="M41.7,69.8c-0.4-0.5,0.2-0.8,0.4-1.1c0.7-0.9,1.5-1.9,2.1-2.9c-0.7-0.5-1.5-0.3-2.2-0.5
			c1.1-0.5,3.6,0.1,5.2,1.3c-0.6,0.1-1-0.3-1.4-0.4c-0.4-0.1-0.7-0.5-1.1-0.1c-0.3,0.4-0.7,0.8-0.5,1.4c0.2,0.7,0.2,1.3,0,2
			c-0.4,1.7-0.6,1.8-2.3,1.5c0-0.2,0.1-0.3,0.2-0.4c1.4-0.7,1.4-0.8,1.4-2.4C42.9,68.8,42.6,69.7,41.7,69.8z"/>
		<path class="st5" d="M41.7,69.8c0.8-0.7,1.4-1.5,2.1-2.4c0.3,1.4,0.1,2.5-0.5,3.4c-0.5,0.2-1-0.7-1.3,0.1c0,0,0,0,0,0
			c-0.2,0.4-0.4,0.9-1,0.8c-0.4-0.1-0.7-0.3-0.7-0.8l0,0c0-0.1,0.1-0.2,0.2-0.2l0,0c0-0.1,0.1-0.2,0.2-0.2l0,0
			c0-0.1,0.1-0.2,0.2-0.2l0,0C41.2,70,41.4,69.9,41.7,69.8L41.7,69.8z"/>
		<path class="st0" d="M40.4,71c0.2,0.2,0.3,0.6,0.7,0.8c0.3-0.3,0.6-0.5,0.9-0.8c-0.2,1.2-0.7,1.4-1.6,0.7
			c-0.2-0.2-0.3-0.2-0.5-0.1c-0.1-0.1-0.1-0.2-0.2-0.3C39.9,71.1,40,70.7,40.4,71z"/>
		<path class="st0" d="M41.7,69.8c-0.2,0.2-0.3,0.5-0.6,0.5C41,69.8,41.1,69.6,41.7,69.8z"/>
		<path class="st0" d="M47.6,66.9c0.2,0,0.4,0.1,0.4,0.3l0,0C47.8,67.2,47.6,67.2,47.6,66.9C47.5,66.9,47.6,66.9,47.6,66.9z"/>
		<path class="st0" d="M48.3,67.4c0.1,0,0.2,0.1,0.4,0.1C48.4,67.6,48.3,67.6,48.3,67.4L48.3,67.4z"/>
		<path class="st0" d="M29.1,77c0.3-0.1,0.4,0,0.5,0.3C29.3,77.3,29.1,77.3,29.1,77z"/>
		<path class="st0" d="M53.1,44.8c0.3,0.1,0.2,0.3,0.2,0.4C53.2,45.1,53.1,45,53.1,44.8z"/>
		<path class="st0" d="M47.5,67c-0.1,0-0.3-0.1-0.2-0.2C47.4,66.7,47.5,66.8,47.5,67C47.6,66.9,47.5,66.9,47.5,67z"/>
		<path class="st0" d="M21.6,58.5c-0.1-0.1-0.2-0.2-0.2-0.2C21.6,58.2,21.7,58.3,21.6,58.5z"/>
		<path class="st0" d="M48.3,67.4c-0.2,0-0.3,0-0.2-0.2c0,0,0,0,0,0C48.2,67.2,48.3,67.2,48.3,67.4C48.3,67.4,48.3,67.4,48.3,67.4z"
			/>
		<path class="st0" d="M41.1,70.3c0,0.2,0,0.3-0.2,0.2c0-0.1,0-0.2,0-0.3C40.9,70.1,41,70.3,41.1,70.3z"/>
		<path class="st0" d="M40.8,70.6c0,0.2-0.1,0.3-0.2,0.2c0-0.1,0-0.2,0-0.3C40.7,70.5,40.8,70.5,40.8,70.6z"/>
		<path class="st0" d="M40.6,70.8c0,0.2,0,0.3-0.2,0.2c0-0.1-0.2-0.2,0-0.3C40.4,70.7,40.5,70.8,40.6,70.8z"/>
		<path class="st0" d="M28.6,76.5c0.2,0,0.3,0.1,0.3,0.3C28.6,76.8,28.6,76.7,28.6,76.5z"/>
		<path class="st0" d="M28.8,76.7c0.2,0,0.3,0,0.3,0.2C28.9,77,28.8,76.9,28.8,76.7z"/>
		<path class="st0" d="M43.1,92.5c0.1,0,0.2,0,0.3,0c0,0.1-0.1,0.2-0.1,0.2C43.2,92.6,43.2,92.5,43.1,92.5z"/>
		<path class="st0" d="M101.3,151.7c-0.1,0.1-0.1,0.2-0.2,0.3c-0.1,0-0.1-0.1-0.2-0.2C101,151.7,101.1,151.7,101.3,151.7
			L101.3,151.7z"/>
		<path class="st0" d="M101.3,151.6c0.1,0,0.1-0.1,0.2-0.1C101.4,151.5,101.4,151.6,101.3,151.6
			C101.3,151.7,101.3,151.6,101.3,151.6z"/>
		<path class="st0" d="M101.1,151.9c-0.1,0.1-0.1,0.2-0.2,0.3c-0.1-0.1-0.1-0.2-0.2-0.2c0.1-0.1,0.2-0.1,0.2-0.2
			C101,151.8,101,151.9,101.1,151.9z"/>
		<path class="st0" d="M30.9,142.9c0.1-0.1,0.2-0.2,0.2-0.2c0.1,0.2,0.1,0.3-0.1,0.4C31,143,30.9,142.9,30.9,142.9z"/>
		<path class="st0" d="M32.4,126.6c0.1-0.1,0.2-0.1,0.3-0.2c0,0,0.1,0.1,0.1,0.1c0,0.1-0.1,0.2-0.1,0.3
			C32.5,126.7,32.4,126.7,32.4,126.6z"/>
		<path class="st0" d="M32.6,126.4c0-0.1,0.1-0.1,0.1-0.2C32.9,126.4,32.8,126.4,32.6,126.4C32.7,126.5,32.6,126.4,32.6,126.4z"/>
		<path class="st0" d="M34.3,116.4C34.4,116.3,34.4,116.3,34.3,116.4c0.1-0.1,0.1-0.1,0.1-0.1C34.4,116.3,34.4,116.3,34.3,116.4
			C34.3,116.4,34.3,116.4,34.3,116.4z"/>
		<path class="st0" d="M35.5,38.6c-0.2-0.6-0.5-0.2-0.7-0.1c-1.2,0.4-2.4,1-4,1.2c0.7-1.2,1.3-2.3,2.3-3.1c-0.5,0.8-1,1.5-1.7,2.6
			c2.2-0.7,4-1.3,5.8-2.2c-0.6,0.5-1,1-1.5,1.5C35.6,38.8,35.5,38.7,35.5,38.6z"/>
		<path class="st0" d="M35.3,39.1c-1.1,1.8-1.8,3.8-2.4,5.9c0,0.1-0.1,0.2,0.1,0.3c0.1,0,0.1,0,0.2-0.1c0.2,0,0.2,0,0.2,0.2
			c-0.2,0.3-0.6,0.5-1.1,0.7c0.6-2.6,1.4-5,2.9-7.1C35.3,38.9,35.4,39,35.3,39.1z"/>
		<path class="st0" d="M35.2,34.6c1.6-1.1,3.3-1.7,5.2-1.7c-1.8,0.5-3.5,1-5.1,1.9C35.2,34.8,35.1,34.7,35.2,34.6z"/>
		<path class="st0" d="M38.7,42c-0.5,0.5-1.2,0.7-1.8,1.1c-0.2,0-0.2-0.1-0.2-0.2c0.6-0.4,1.2-0.7,1.8-1.1
			C38.6,41.9,38.6,41.9,38.7,42z"/>
		<path class="st0" d="M35.1,44.2c-0.4,0.3-0.7,0.5-1.1,0.8c-0.2,0-0.2,0-0.2-0.2c0.4-0.3,0.7-0.6,1.1-0.8
			C35.1,43.9,35.2,44,35.1,44.2z"/>
		<path class="st0" d="M36.9,43.1c-0.4,0.2-0.7,0.4-1.1,0.6c-0.2,0-0.2,0-0.2-0.2c0.4-0.2,0.7-0.4,1.1-0.6
			C36.8,43,36.8,43,36.9,43.1z"/>
		<path class="st0" d="M35.3,34.8c-0.3,0.2-0.6,0.5-1.2,0.9c0.3-0.7,0.7-0.9,1-1.1C35.2,34.7,35.3,34.7,35.3,34.8z"/>
		<path class="st0" d="M35.8,43.7c-0.2,0.2-0.5,0.3-0.7,0.5C35,44.1,35,44,34.9,44c0.2-0.2,0.5-0.3,0.7-0.5
			C35.7,43.6,35.8,43.6,35.8,43.7z"/>
		<path class="st0" d="M33.2,45.2c0.2-0.1,0.4-0.3,0.6-0.4c0.1,0.1,0.1,0.1,0.2,0.2c-0.2,0.1-0.4,0.3-0.6,0.4
			C33.4,45.3,33.3,45.2,33.2,45.2z"/>
		<path class="st0" d="M33.4,36.2c0.1-0.2,0.2-0.4,0.5-0.5c0.1,0,0.2,0.1,0.2,0.2c-0.2,0.2-0.4,0.4-0.5,0.5
			C33.4,36.4,33.3,36.3,33.4,36.2z"/>
		<path class="st0" d="M35.2,39c0.1-0.1,0.2-0.2,0.4-0.4c0.1,0,0.1,0.1,0.2,0.1c-0.1,0.1-0.2,0.3-0.3,0.4C35.3,39.1,35.2,39,35.2,39
			z"/>
		<path class="st0" d="M46.6,24.4c0.1,0.1,0.2,0.3,0.4,0.4c0,0.2,0,0.2-0.2,0.2c-0.1-0.1-0.2-0.2-0.4-0.3
			C46.5,24.6,46.6,24.5,46.6,24.4z"/>
		<path class="st0" d="M47,24.8c0.1,0.1,0.3,0.2,0.2,0.3c-0.1,0.1-0.3,0-0.3-0.2C46.9,24.9,46.9,24.8,47,24.8z"/>
		<path class="st0" d="M33.5,36.4c-0.1,0.1-0.2,0.2-0.3,0c0,0,0.1-0.1,0.2-0.2C33.4,36.2,33.4,36.3,33.5,36.4z"/>
		<path class="st0" d="M33.8,35.7c0.1-0.1,0.2-0.2,0.3-0.1c0,0-0.1,0.2-0.1,0.3C34,35.8,33.9,35.7,33.8,35.7z"/>
		<path class="st0" d="M25.6,41.2c0.1-0.1,0.1-0.1,0.2-0.2C26,41.1,25.9,41.2,25.6,41.2C25.7,41.3,25.7,41.2,25.6,41.2z"/>
		<path class="st0" d="M40.2,40.8c0.1-0.1,0.3-0.2,0.4,0c0,0-0.1,0.1-0.2,0.2C40.3,41,40.3,40.9,40.2,40.8z"/>
		<path class="st0" d="M60.7,36.9c0.7,0.5,1.1,1.2,1.5,1.9C61.4,38.5,60.9,37.8,60.7,36.9z"/>
		<path class="st0" d="M62.9,39.6c0.3,0.1,0.6,0.1,0.7,0.5C63.2,40.2,62.9,40,62.9,39.6z"/>
		<path class="st0" d="M62.2,38.8c0.2,0,0.3,0.1,0.3,0.3C62.1,39.2,62.1,39.1,62.2,38.8z"/>
		<path class="st0" d="M62.7,39.3c0.2,0,0.3,0.1,0.3,0.3C62.6,39.7,62.5,39.6,62.7,39.3z"/>
		<path class="st0" d="M62.4,39.1c0.2,0,0.3,0.1,0.3,0.3C62.4,39.5,62.3,39.4,62.4,39.1z"/>
		<path class="st0" d="M71,28.4c-0.3,0.4-0.6,0.8-1,1.2c-0.1-0.1-0.2-0.1-0.3-0.2c0.6-1.8,0.9-3.7,1-5.6c0-0.1,0-0.2-0.1-0.1
			c-0.4,0.6-0.8,1.2-1.2,1.8c0.4-2.4,0.3-4.8,0.9-7.1c0.3,1.6-0.2,3.2-0.2,4.9c0.7-0.2,0.6-1,1.3-1.4c-0.2,2-0.5,3.8-0.7,5.6
			c0,0.3-0.4,0.6,0.1,0.8C70.9,28.3,71,28.3,71,28.4z"/>
		<path class="st0" d="M69.9,41.3c1.3-1.6,2.2-3.4,3.3-5.2c-1.2,0-2.2,0.5-3.4,0.7c0.6-0.8,1-1.5,1.6-2.2c0.2,0.6-0.3,0.9-0.3,1.4
			c1-0.2,1.9-0.4,3.3-0.6c-1.8,2.1-2.5,4.4-4.3,6.1C70,41.6,69.9,41.5,69.9,41.3z"/>
		<path class="st0" d="M72.8,26.5c0.3-0.2,0.5-0.5,1.2-0.6c-1.6,2.8-0.9,6-2.4,8.7c0.9-2.4,0.6-5,1.3-7.4c0,0,0-0.1,0-0.1
			c0-0.1-0.1-0.2-0.1-0.2C72.8,26.6,72.8,26.5,72.8,26.5z"/>
		<path class="st0" d="M71,28c0.6-0.5,1.2-1,1.8-1.5c0.1,0.1,0.1,0.1,0.2,0.2c0.1,0.2,0.1,0.3,0,0.4c0,0,0,0,0,0
			c-0.8,0-1.1,0.9-1.8,1.2C71.1,28.2,71,28.1,71,28z"/>
		<path class="st0" d="M70.1,41.5c-0.3,0.5-0.6,0.9-1.4,1.4c0.3-0.8,0.7-1.2,1.1-1.6C70,41.4,70.1,41.5,70.1,41.5z"/>
		<path class="st0" d="M70.3,6.8c0.3,0.3,0.7,0.6,0.7,1.1C70.5,7.8,70.1,7.5,70.3,6.8z"/>
		<path class="st0" d="M69.4,6.2c0.3-0.2,0.4,0,0.5,0.2C69.5,6.7,69.4,6.5,69.4,6.2z"/>
		<path class="st0" d="M70.8,28.2c0.1-0.1,0.2-0.2,0.2-0.2c0.1,0.1,0.1,0.2,0.2,0.2c-0.1,0.1-0.1,0.1-0.2,0.2
			C70.9,28.4,70.8,28.3,70.8,28.2z"/>
		<path class="st0" d="M69.9,6.4c0.1,0.1,0.2,0.2,0.4,0.3C69.9,7,69.8,6.7,69.9,6.4z"/>
		<path class="st0" d="M68.3,5.1c0.1-0.1,0.2-0.3,0.3-0.4l0,0c0.2,0.3,0,0.4-0.2,0.6C68.4,5.2,68.3,5.2,68.3,5.1z"/>
		<path class="st0" d="M68.6,4.7c0,0,0.1,0,0.1,0c0,0,0,0,0,0C68.7,4.7,68.7,4.7,68.6,4.7C68.6,4.7,68.6,4.7,68.6,4.7z"/>
		<path class="st7" d="M82.8,99.7c-0.3,3.9-2.1,7.1-5,9.8c-1.2,1.1-2.3,1.1-3.5,0c-3-2.8-5-6.1-4.9-10.4c0.1-5.2,5.2-8.5,9.7-6.2
			C81.8,94.3,82.7,96.7,82.8,99.7z"/>
		<path class="st5" d="M45.6,57.8c0.2,0.6,1,0.7,1.4,1.1c-3.5,1.9-6.3,0.3-6.6-3.7c-0.2-2.4,0.1-4.6,1-6.8c1.4-3.3,4.4-3.9,7-1.5
			c0.6,0.5,1.1,1.2,1.6,1.8c-0.3,0.4-0.5-0.1-0.8,0c-0.1,0-0.1,0-0.2,0c-0.2,0-0.3,0-0.5-0.1c-0.5-0.1-0.9-0.1-1.4,0
			c-0.3,0.1-0.7,0.3-1,0.5c-0.1,0.1-0.2,0.1-0.2,0.2c-0.1,0.1-0.1,0.1-0.2,0.2c0,0-0.1,0.1-0.1,0.1c-0.1,0.1-0.1,0.1-0.2,0.2
			c0,0-0.1,0.1-0.1,0.1c-0.1,0.1-0.1,0.3-0.2,0.4c0,0.1-0.1,0.2-0.2,0.3c-1.3,2.1-1.1,4.2,0.1,6.2c0.1,0.1,0.1,0.2,0.2,0.3
			c0.1,0.2,0.2,0.4,0.3,0.6C45.6,57.7,45.6,57.8,45.6,57.8z"/>
		<path class="st2" d="M47.1,48.3c0.5-0.3,1.1-0.3,1.6,0c0,0.4,0.4,0.2,0.5,0.4c0,0,0,0,0,0c0.3,0.7,1.3,0.9,1.4,1.7
			c-0.8-0.2-1.6,0-2.2,0.7c-2,0.8-2.5,3.8-0.9,5.3c0.6,0.5,1.1,0.4,1.7-0.1c0.4-0.4,0.5-1,0.8-1.5c0.5-0.4,0.5-0.8,0-1.3
			C50,53.3,50,53.1,50,52.9c0.5-0.8,0.5-1.7,0.7-2.6c2.1,3.1,0.8,7-2.7,8.1c-0.5,0.2-1,0-1.5-0.2c-0.3-0.1-0.5-0.7-1-0.4
			c0,0,0,0,0,0c-0.1-0.3-0.3-0.5-0.5-0.7l0,0c-1.3-2.3-1.5-4.7,0-7l0,0c0.2-0.1,0.1-0.3,0.3-0.5l0,0c0.1-0.1,0.2-0.1,0.3-0.3l0,0
			c0.1-0.1,0.2-0.1,0.3-0.3l0,0C46.2,48.8,46.8,48.8,47.1,48.3z"/>
		<path class="st3" d="M70.5,23.7c0.1,0,0.1-0.1,0.2-0.1c0,0.1,0,0.2,0,0.3C70.6,23.8,70.6,23.7,70.5,23.7z"/>
		<path class="st3" d="M73,27.1c-0.2-0.2,0-0.3,0-0.4C73.3,26.8,73.3,27,73,27.1z"/>
		<path class="st0" d="M45.1,50.1c-1.2,2.3-1,4.7,0,7C43.5,55.5,43.5,51.7,45.1,50.1z"/>
		<path class="st0" d="M47.1,48.3c-0.2,0.7-0.7,0.8-1.3,0.8C46.1,48.7,46.6,48.5,47.1,48.3z"/>
		<path class="st0" d="M45.1,57.1c0.3,0.1,0.6,0.3,0.5,0.7C45.3,57.7,45,57.5,45.1,57.1z"/>
		<path class="st0" d="M49.2,48.7c-0.3,0.1-0.5,0.1-0.7-0.1c0.1-0.1,0.1-0.2,0.2-0.2C48.9,48.5,49.2,48.4,49.2,48.7z"/>
		<path class="st0" d="M45.4,49.6c0.2,0.3,0,0.4-0.3,0.5C45,49.8,45.2,49.7,45.4,49.6z"/>
		<path class="st0" d="M45.6,49.4c0.1,0.2,0.1,0.4-0.3,0.3C45.4,49.5,45.4,49.4,45.6,49.4z"/>
		<path class="st0" d="M45.9,49.1c0.1,0.3,0,0.3-0.3,0.3C45.6,49.2,45.7,49.1,45.9,49.1z"/>
		<path class="st0" d="M50.3,54.6c0,0,0,0.1,0,0.1c-0.4,1.6-1.1,2.4-2,2.3c-0.9-0.1-1.7-1.2-1.9-2.6c-0.2-2,0.6-3.5,2.2-3.7
			c0.3,0.9,0.5,1.9,1.6,2.1c0,0.2,0.1,0.4,0.1,0.6C50.3,53.9,50.3,54.3,50.3,54.6z"/>
		<path class="st5" d="M50.2,52.9c-1.3,0.1-1.7-0.4-1.6-2.1c0.6-0.9,1.2-1.2,2.1-0.4c0,0,0,0,0,0C51,51.3,51,52.2,50.2,52.9z"/>
		<path class="st5" d="M50.3,54.6c-0.3-0.4-0.5-0.8,0-1.2C51.1,53.9,51.1,54.2,50.3,54.6z"/>
	</g>
</g>
</svg>
