<svg viewBox="0 0 759.7 1677" xmlns="http://www.w3.org/2000/svg"><path d="M756.9 387.8c-3.5-11.8-13.9-19-25.4-9.2-.6-.1-1-.4-1-1 2.6-8.3 3-16.8 2.2-25.2-.9-8.7-4.7-16.6-13-20.6-8.3-3.9-16.6-2.7-24.1 2.5-2.8 2-5.3 4.4-8 6.7-5.7-11.4-19.1-12-27.3-2.3-4 4.8-7.3 9.8-9.2 15.8-3.6 11.2-5.9 22.9-10.9 33.7-2.8 5.9-5.4 12-10.9 16.5-1-1.3-2-2.3-2.7-3.4-4.5-7.1-11.1-9.5-19.2-9.3-11.8.3-27.3 10.8-25.4 27.4 1 8.5 5.8 13.9 11.8 18.9 5.7 4.8 10.5 10.1 11.9 17.8 1.5 8 3.4 15.9 5 23.9.8 3.8 2.3 7.3 5 10.2 1.4 1.5 1.7 2.8.7 4.8-14.2 27.2-30.5 53-50.3 76.6-.8.9-1.4 1.8-3.4.6 1.6-1.6 1.6-3.7 1.7-5.8 3.2-40.5-.7-80.5-7.9-120.3-4-22.2-11.7-43.3-22.8-63-11.7-20.9-26.7-37.8-50.6-45.5-9.5-3.1-18.8-7.7-26.6-14.5-4.7-4.2-7.4-9.2-6.4-15.7 18.8-6.2 30.2-19.8 38.5-36.5.8-1.6 1.2-3.4 3.3-4.1 10.3-3.2 16.3-11 20.8-20.2 5-10.2 6.7-21.1 8-32.2 1.4-12.3-3.9-18.6-15-23.5-3.6-1.6-6.8-2.8-6.1-7.6.3-1.8-1.1-3.1-2.3-4.2-2.5-2.3-5.1-4.6-7.9-7 .9-1 1.7-1.8 2.4-2.6 1.4-1.7 3.9-3.3 2.8-5.9-1.1-2.7-3.9-2-6.1-2.3-.8-.1-1.7-.1-2.5-.3-4.9-1.2-9.2-5.3-9.3-9.2-.1-6.3 2.3-12.2.9-19.7 6.5 3.2 12.2 1.2 17.4 2.7 5.4-2.9 2.4-7.8 2.7-11.8 1.6-19.2-3.8-36.7-13.6-53-.7-1.1-1.9-2.2-1.3-3.6 2.9-7.3 1.1-14.5-.2-21.7-2-10.2-3.2-20.7-8.3-30.1-3.4-6.2-6-7-12-3.1-6.7 4.4-13.4 9-18.5 15.1-4.9 5.8-9.8 5.7-15.8 3-10.5-4.7-21.1-8.9-33.9-4.9 4.9-6.4 9.8-10.9 15.5-15.2-16.4-2.6-30.6 3.4-45.2 11.1 1.2-7.3 4.1-14.1-.6-20.5h-2c-1.6 3.2-3 6.4-4.8 9.5-8.7 15.1-22.5 24.5-37.3 32.9-2.6 1.5-4.2.7-6-1.3C300.6 27 284.3 17 268.1 6.8c-6.8-4.3-9.8-3.2-13.8 3.7-1.2 2.2-2.5 4.3-3.5 6.6-10.1 22-17.1 44.5-19.6 69-2.3 22.8 2.2 43.5 11.8 63.6 3.8 8 10.2 14 19.2 17.2-6.1 5.8-13.1 9.9-20.6 13.2-4.7 2.1-4.9 4.3-.7 7.3 2.2 1.6 4.8 2.7 7.5 4.1-6.5 3.9-11.5 8.7-16 14.1-1.9 2.2-3.5 4.8-1.4 7.7 1.9 2.5 4.6 2.2 7.3 1.4 3.1-.9 6.2-1.9 9.9-1.6-2.9 4.3-3.9 8.8-5.2 13.3-2.3 7.4.4 14.8-.4 22.3-.4 3.4 2.8 4.9 6.3 3.7 1.6-.5 3.1-1.9 5.1-1-1.4 8.6-1.9 15.9 4.3 24 6.5 8.5 11.6 18 20.8 24-.6 1.8-.9 3-1.4 4.3-3.9 10.5-8.2 20.7-19 26.3-6.6 3.5-12.9 7.6-19.5 10.9-17.1 8.5-34.1 17-50.5 26.8-1.7 1-3.9 1.8-3.9 4.2 0 2.3 2.6 2 4.8 3.4-7.2 2.9-9.9 9-12.9 14.9-12.7 24.6-26.8 48.5-35.2 75.1-6.5 20.5-13.4 41-20.1 61.4-9.4 28.2-16.7 57-20.8 86.5-1.8 12.8-4.4 25.3-10.8 36.9-10.1 18.5-17.2 38.4-22.4 58.9-3.6 14.4-5.1 29.1-7.5 43.7-1.6 9.5-3 19-4.1 28.6C55 791 54.7 801.4 45 808c-1.1.7-1.8 1.9-2.6 3-11 13.9-19.9 29-28.3 44.5-6 11.1-10.2 22.7-11.7 35.2-.5 4.5 0 9.2-2.3 13.3v49c1.6.4 1.1 1.9 1.2 2.9 1.2 21.4 6.6 42 12.9 62.3 5 16.1 11.2 31.7 23 44.2 4.4 4.7 8.4 10.5 16.2 10.2 1.4-.1 2.1 1.6 2.7 2.7 3.6 6.8 8.1 13 13.4 18.5 6 6.3 12.4 12 20.3 15.8 2.2 1.1 4.6 2.1 7 .1 2.2-1.8 1.1-4 1-6-.1-2.3-1.2-4.4-.6-6.8h.6c.5.4 1 .9 1.4 1.4 9.3 11.7 21 19.5 35.6 23.3 7.2 1.9 14.8 2 21.7 5.1 5 2.3 10 3.3 15.5 3.1 6.6-.3 13.2-.3 18.7-6.5 1.3 9.5 2.6 17.7 3.5 25.9 2.1 18.3 5.2 36.5 11.3 54 1.7 4.9 2.5 9.2 1 14.6-6.3 24.1-12 48.2-14.8 73.1-1.9 17.8-4 35.7-5.3 53.6-2 26.7.6 53.3 4.3 79.6 3.6 25.8 9 51.4 12.7 77.2 3.4 22.9 5.4 46 5.7 69.1.2 13-8.8 26.7-21.1 31.1-6.8 2.4-11.9 7-14.9 13.8-1.9 4.2-4.5 8.1-6.8 12.1-5.2 8.9-9.2 18.3-7.8 28.8 1.5 11.9 7.4 19.2 19.6 16.8 1.9-.4 4.1-.8 5.9-.5 12.8 2.4 25.1.7 37.3-3.1 1.5-.5 2.5.4 3.6 1.1 4.2 2.5 8.7 3.8 13.6 4.5 2.2.3 4.9-.3 6.7 1.7h3c.6-1.8 2.2-.9 3.3-1.1 8.9-1.2 18-1.3 25.6-6.9 2.1-1.5 3.6-1.9 6.2-1.4 9.7 1.7 17.6-1.9 23.8-9.4 5.5-6.6 4.1-13.5.7-20.5-.7-1.5-1.4-3-2.2-4.5-8.1-14.2-12.5-29.5-14.5-45.7-1.9-15.1 2.1-29.5 4.8-43.9 6.8-36.3 15.1-72.3 23-108.3 7.8-35.1 11.6-70.5 11.8-106.4s-5.6-70.8-13.8-105.5c-1-4.3-.6-8.2 1.5-12 1.4-2.5 2.7-4.9 3.8-7.5 7.7-18 14.1-36.5 20.9-54.8 3.6-9.6 6.7-19.4 10.4-30.1.9 2.6 1.6 4.2 2 5.9 10.8 42.4 31.2 79.9 57.1 114.8 2.1 2.9 2.1 5.3.9 8.3-2.8 7.4-6.1 14.8-8.2 22.5-5.8 20.8-10.9 41.8-14 63.2-3.2 21.8-2.8 43.5.9 65.1 4.8 28 13.4 54.9 24.5 81 17.4 40.8 26.7 83 25.8 127.5-.1 6.8 2 13.4 4.6 19.8 2.3 5.4 5.7 9.8 10.8 12.6 14 7.6 28.3 13.7 44.8 13.5 25.3-.3 50.5-3.3 75.8-2.3 1.5.1 3-.4 4.5-.5 10.6-1.3 21.3-1.7 31.9-.3 6.3.8 12.4.7 18.2-1.2 5-1.7 9.9-2.6 15.1-2.9 10.3-.6 21.2-12.9 20-24.2-1.6-15.9-9-28.2-19.8-39.1-4.7-4.8-10.4-7-16.9-7.4-1.2-.1-2.4 0-3.5-.4-9.9-3.8-18.9-1.5-27.6 3.5-2.9 1.7-5.7 3.6-9.1 4-10.9 1.4-21.8 3.9-32.7 2.6-11.9-1.4-23.5-5.7-26.4-21.8-3.9-22.1-7-44.3-7.8-66.8-.2-7-.5-13.9-1-20.9-1.1-15.4-1.1-31-2-46.4-.7-12-1.3-23.9-.7-35.9.8-16.6 1.5-33.3 1.9-49.9.3-12.1.2-24.3 1.1-36.4 2.9-36.8 2.4-73.8 4.9-110.7 1.4-20.1 1-40.6 1.5-60.9 1-39.4-4.6-78.4-8.7-117.5-2.4-22.7-5.4-45.3-7.5-68-1.9-20.2-4.2-40.4-7.2-60.5-5.9-39.8-11.6-79.7-15.7-119.8-2.8-27.1 1-54.2.6-81.4-.1-3 .6-6.1 1.1-10.3 2.5 4.6 4.3 8.2 6.3 11.8 8.7 15.8 20 29 36.3 37.4 8.9 4.6 18.2 8.3 28.5 7.9 3.4-.2 6.6-.9 4.5-5.5 7.9-1.7 15.9-1.3 23.2-4.5 18.2-8 31.8-21.2 41.6-38.1 15.7-27.1 23.8-56.9 29-87.5 4.5-26.6 9.7-53 18-78.6.5-1.6 1.1-2.7 2.6-3.3 9.5-4.1 16.3-11.4 22.8-18.9 7.8-8.9 15.3-18.1 23.3-26.7 10.2-10.9 19.4-22.3 25.2-36.3 6.2-15.6 7.7-31.4 2.9-47.4zM244.1 674.1c-3 12.4-3.6 25.2-5.8 37.8-2.1 12.1-3.5 24.3-5.3 36.5-.1.6-.2 1.2-.4 2-3-1.1-5.7-2.3-8.5-3.2-2.9-.9-5.9-1-10.3-.9 2.2-1.6 3.4-2.5 4.6-3.3-1.6-3.8-4.6-3.4-7.4-3.4-11.4 0-21.9 3.4-32 8.2-1.2.6-2.4 1.1-3.6 1.7-.1 0-.2-.1-.6-.3 2.6-9.1 5.8-18.2 7.8-27.5 3.2-15.3 5.6-30.7 8.3-46.1.3-1.7.4-3.3 1.4-4.7 11.2-16.9 18.7-35.9 30.6-53.1 4.8 11.2 9.4 22.2 13.2 33.5 2 6 3.9 12 6.9 17.6.8 1.6 1.5 3.4 1.1 5.2z"/><path d="M482.2 183.7c-7.1-.5-13.9-2.3-21.5-4.1 2.6-2.2 4.7-3.9 6.8-5.7-1.5-1.7-3-.1-4.7-.7 1.4-7.1.7-14.4 0-21.6-.9-9.3-5.1-15.9-11.1-17.3-4.9-1.1-12.6 5.1-16.5 12.5-3.1 5.8-3.7 12-4 18.3s3.6 10 8.5 13c7.5 4.6 16.3 5.5 24.6 7.8 12.3 3.3 25.1 5 37.1 9.6.1.6-.1.9-.8.9-8.3-.3-16.6-.2-24.8 1.8-6.6 1.6-12.3 5.2-17.2 9.7-6.1 5.6-5.2 13.3 2.1 17.4 2.2 1.2 4.6 2 6.9 2.9 4.4 1.7 7.6 4.7 9.9 8.7 7.2 12.9 13.5 14.3 25.9 6 3.1-2.1 5.5-4.8 8-7.9.2 8.8-10.9 23-20.9 27.1-1.4-2.5 2.5-4.3 1-7-3 1.5-4.8 4-5.4 7.1-.3 1.4-.7 2.9-2.1 3-11 1.1-20.9 6-31.7 8-18.4 3.4-36.4 2.6-54.2-2.8-1.7-.5-3.5-.9-5.3-1.2-.3-.1-.6.2-1 .4-.6 2.3 1.2 3.2 2.5 4.3 4.4 3.7 9.7 5 15.1 6.1 25.2 4.9 48.9.7 71.2-12 2.1-1.2 2.1-1.2 6.4.3-8.6 9.2-16.4 19-26.6 26.2-10.7 7.6-22.8 8.1-35.4 6.8-14.2-1.4-28.3-4.5-42.8 0 3.5.5 7.1 1.4 10.6 1.5 13.2.3 26.2 1.3 38.9 5.3 3.7 1.2 7.6.4 11.4.8 1.5 3.4-1.2 6.6-.4 10.2 3.2 14.6 11.6 25.1 24.3 32.5 4.5 2.6 9.8 4.1 13.1 8.6.3 6.8 3.9 12.6 6.3 18.7 11 27.7 16.4 56.5 18.3 86 1.3 20.4-4.2 39.5-12.2 58.1-3 7-5.7 14.1-8 21.5 5.9-5.3 9.7-12.3 15-18.9-5.9 30.6-3.1 61.1-7.1 91.5-3-1.6-1.4-5.5-4.6-7.2 2.2 88-5.7 174.7-22.2 260.9 6-11.5 11-23.3 13.5-36 3.7-.5 3 2.4 3.1 4.3.2 4-.8 7.9-1.4 11.9-1.5 10.2-2.8 20.4-2.8 30.7 6.1-2.4 7.4-1.7 7.3 5.4-.3 18.3 0 36.7 3.6 54.6 4.1 20.5 8.1 41.1 13.1 61.5 1.6 6.3 2.9 12.6 4.4 18.9 1.9 7.9 5.5 14.8 11.1 20.7 2.1 21.4 4.2 42.7 5.4 64.1 1.4 22.6.1 45.3.9 67.9 1 25.1-5.5 48.1-18.8 69.3-3.6 5.7-6.7 11.8-10.1 17.8 5.8.3 10.9-4.1 16.9-15 3.8-6.8 7.1-13.7 11.1-21.4-.8 14.9-1.5 28.9-2.2 43-.3 6.3-.6 12.6-1.2 18.9-5.1 55.3-6.9 110.7-5.5 166.2.6 24.3 2.1 48.6 4.1 72.8 1 11.7 1.7 23.6 5 35 6.7 23.6 25.7 35.2 50 30.9 4.1-.7 8.1-1.7 13-1.3-2 2.6-3.9 4.8-5.5 7.2-1.6 2.3-3.1 4.7-3.1 8.2 4.1-1.9 6.5-5.2 9.6-7.7 10.1-8.3 16.5-9.2 27.5-2.1 12.4 8 21 19.4 24.8 33.8 1.9 7.3-1.4 11.1-8.8 11.5-5.8.3-11.2-1.4-16.7-2.4-7.7-1.4-15.1-1.5-22.6 1.4-5.4 2.1-11.2 1.7-16.8 1.5-21.5-.7-42.9 2.1-64.3 2.7-15.2.5-29.8-1.5-44.2-6.4-4.2-1.4-6.9-4.1-8.9-8.1-5.2-10.1-7.5-20.9-8.1-32.2-.4-6.8-.7-13.6-.9-20.5-1-27.4-6.3-54.1-14.8-80.1-8.2-25-18.9-49.1-25.8-74.5-7.6-27.7-11.5-55.8-8.5-84.5 3.3-31.2 8.7-62.1 18.7-92.5 3.8 2.4 5.2 6.6 9 8.9.6-2.5-.6-4.3-1.2-6.2-4.6-14.7-13.3-27.2-21.6-39.8-15.3-23.3-30.4-46.6-39.7-73.1-2.3-6.6-4.9-13.1-7.3-19.6-1.5-4.1-1.1-8.1 0-12.3 7.5-27.8 15.2-55.5 20.4-83.8 3-16.2 5.3-32.5 5.8-49 0-.8.1-1.6.2-2.4 2.6.3 2.6 3.8 5.5 3.5 2.1-4.5 7.7-4.9 10.8-8.6.5.2.8.5.9 1-.5 2.2-2 4.6.7 6.3 2.4 1.5 4.4-.2 6.3-1.5 4.8-3.3 7.8-8 10.9-12.8.7-.1 1.1.3 1 1 1.2 3.2 2.5.7 3.4-.1 3.2-3 5.1-6.9 7.4-10.6 4.7 2.8 6.1 2.4 6.9-2 3.8-20.7 11.9-39.4 25.1-55.9.6-.8 1.4-1.5 1.2-3-2.6-.5-4 1.5-5.5 3-9.1 9.6-15.1 21.1-19.8 33.3-.7 1.9-1.4 3.7-2.1 5.6-5.3-3.5-6.4-3.1-8 2.9-1.1 4-2.1 8-3.3 12.5-1.5-3.4 1.1-6.7-1.5-10.5-4.5 8.9-5.8 18.9-14.4 26.1 0-3.1.1-5.3 0-7.4-.1-2.7-.2-5.9-3.3-6.6-2.9-.7-4.1 2.4-5.3 4.5-2.1 3.8-4.1 7.6-6.3 11.4-1.1 2-2.2 4.2-5 5.1-3.5-4.8-5.9-10.1-6.8-16.1-1.4-9.9-2.9-19.7-6.2-29.2-.5-1.5-.8-3.2-2.6-4.4-1 3.7.2 7.1 1 10.2 4.5 19.8 4.1 39.7 1.6 59.6-3.5 27.7-10.1 54.9-16.7 82-12.7 52.4-31.7 102.6-51.8 152.4-1.8 4.6-3.4 9.3-4.3 14.6 2.7-1.7 3.4-4.4 4.8-6.6s2.7-4.5 4.3-7.3c2.4 5.1 1.4 10.1 2.4 14.9 6.9 34.4 10.5 69.1 9.4 104.2-1.1 33.9-6.4 67.2-13.4 100.3-5.8 27.5-12.6 54.8-16.9 82.6-3 19.4-7 38.6-8.2 58.2-.5 8.1-2.5 16.1 0 24.1.4 1.3-.2 2.4-1.5 2.7-3.5.8-5.4 3.7-7.9 6.4-9-10.6-19.6-16.9-34.1-13.5 15.5 1.3 26.3 9.6 34.4 22.6 2.2-2.8.7-6.8 4.4-8.5 2.7-1.3 4.5-1.5 6.4 1 6.4 8.3 13.1 16.3 17.7 25.9.8 1.7 1 3-.1 4.6-6.3 9.1-14.1 15.5-26 14.9-2.6-.1-4.9.8-7.2 1.7-13.4 5.1-27.4 7.5-41.1 3.7-9.5-2.6-18.2-.3-27.3.1-7.2.3-14.2 1.2-21.2-1.6-5.3-2.1-8.7-5.6-9.3-11.3-1.2-12.7-.4-25.3 4.4-37.3 1.4-3.5 3.9-6.3 7.1-8.1 6.4-3.5 12.6-7.6 20.5-6.4 1.7.3 3.7.4 4.8-2.1-1.7-2.8-4.8-1.2-7.1-2.2-.2-1.9 1.5-2.4 2.5-3.4 4.9-5.5 7.5-11.6 8.2-19.2 1.3-14.4 1-28.6-.1-42.9-1.6-22.6-4.7-45-8.5-67.3-3.6-21.3-7.2-42.5-9-64.1-1.5-18.2-1.2-36.3-1-54.4.1-13.2 2.2-26.2 3.1-39.3 1-14.6 2.8-29.1 4.3-43.7 1.6-15.5 4.5-30.8 8.5-46.8 5.1 8.2 8.7 16.2 14.4 22.9-6.2-24.3-17.2-47.1-21.1-72.2-3.8-25-7-50-8.6-75.2.3-.2.6-.5.8-.5 7.6 1.6 15.1 3.6 23 3.5 2.3 0 2.9 1.9 1.8 4-.6 1.2-1.8 2-1.8 4.1 4.6.8 8.7-.8 12.6-2.7 2.8-1.4 5.3-3.4 7.9-5.3 1.9-1.4 4.1-3.1 6.3-1.1s.4 4.3-.8 6.2c-.2.4-.6.7-.6 1.2 26-25.9 45.5-55.8 55.5-91.5.2-.6-.1.1.1-.5.8-2 .7-5.4 3.9-4.8 3 .5 2.3 3.6 2.5 5.8.5 7.4-.4 14.6-2.8 20.6 8.1-24.8 12.2-51.2 11.1-78.4-.1-3.1-.4-6.4 1.6-9.2s3.5-2.7 6.3.8c-.5-12.9 1.1-25.1-1.2-37.4-1.8-9.5-.6-19.3-.6-28.9 0-2.7 2.1-3.5 4-4.4 0-12.4-1.9-24.2-4.5-36.2-3.1-14.3-6.6-28.5-8.9-43-2.4-15-5.9-29.7-10.1-44.3-1.8-6.1-3-12.3-4.7-18.4-3.5-13-3.5-25.9-.2-39 3.8-15 7.3-30.1 10.1-45.4 3.2-17.4 4.1-35 2.2-52.7-1.2-11.5-6.6-20.4-15-27.2-11.6-9-19.6-20.7-25.7-34-6.4-13.9-11.2-28.2-13.8-43.2-.6-3.2-1.1-6.6.8-9.7 2.8 1 8.9 12.3 14.5 26.6.3.4.3.8.1 1.2.9-.7-.4-1-.2-1.6-2.9-6.8-4.5-13.9-5.6-21.2-.7-5.3-2.5-10.3-3.3-15.6-1.1-7.3-.8-14.4.7-21.7 2.3-10.5 2.3-21.4 5.2-31.9 2.2-7.9 5.8-15.5 5.8-24.1 0-4.5 3.8-5.3 8.2-2.6 1.6-9.3-1.4-20.9 12.4-24 6.6-1 13.3-.8 19.9-.2 22.9 1.9 44.4 8.5 64.7 19.2 1.2.6 2.3 1.4 4.2 1.5-4-3.5-8.4-5.6-12.8-7.8-4.5-2.2-9.1-4.2-13.8-5.9-7.7-2.7-15.6-4.9-23.7-6-2.1-.3-4.3-.3-6.3-1.5-.1-9.2-5.6-16.3-9.3-24.1-5.5-11.6-2.6-25 7.4-33.2 2.3-.1 4.6-.1 6.9-.4 1.4-.2-.4-.6-.1-1-.4-1.1-.8-2.2-.3-3.4 2.3-5.6.2-10.2-2.8-15-4.9-7.5-10.1-14.9-12.2-23.9-.9-3.9-1.4-7.9-1.6-11.9-.2-5.2 2.6-9.1 6.6-12.3 7.3-5.9 7.9-9.4 2.3-16.8-8.9-11.6-14.2-24.6-14.8-39.1-.8-19.9 9.5-46.5 31.7-53.5 1.9-.6 3.8-1.3 5.8-1 2.6.8 4.8-.6 7.1-1.4 5.3-1.7 10.3-4.6 16.2-4.2 13.6 4.2 26.5 10.5 40.4 14 7.1 1.8 13.1.1 18.7-4 1.6-1.2 3.3-2.2 4.9-3.4 9.6 2.4 19.4 2.3 29.2 2.4 3.6 3.9 4.7 9.1 4.8 13.8.2 12.3 6.1 21.4 13.7 30.1 1.7 1.9 4.2 3.4 2.7 6.5z" fill="#44d262"/><path d="M323 308.1c-2.9 5.3-7.1 9.9-8.4 16.1-1 5.3-.9 10.2 1.5 15 2.2 4.3 4.1 8.8 6.7 12.8 2.5 4 3.9 8 2.1 12.6-1.2 1.9-3.2 1.7-5 1.4-8.4-1.4-16.9-.7-25.4-.6-8.2.1-16.3 1.2-24.4 2.1 6.3-.3 12.4-1.9 18.7-1.6 1.5.1 3-.3 4.1 1.1-9.7 2-10.4 9.8-11.1 17.5-.3 3.2 0 6.5 0 10.1-3.2-1.3-2.5-4.9-5.3-5.7-2 .7-3.4 2.3-3.3 4.4.5 11-5.1 20.5-7.2 30.8-1.4 6.9-1.2 13.9-2.7 20.6-2.1 9.6-3.5 19.3-1 28.9 2.8 10.7 3.3 22 7.4 32.4.3.9.2 2 .3 3-4.3-7.2-9.9-13.6-11.2-22.3-.3-1.8-1.7-3.4-3.1-5.8-1.6 5.8-.3 10.5.6 15.1 3.8 18.4 11 35.5 20.1 51.9 3.9 6.9 9.5 12.3 15.6 17.3 10.1 8.5 16.8 18.4 18.2 32.4 2.6 27-2.3 52.9-8.5 78.8-2.4 9.8-4.7 19.7-6.4 29.7-1.6 9.5.3 19 3 28.1 9.6 32.4 15 65.7 22.2 98.6 2.8 12.7 6.2 25.4 5.3 38.6-.1 2 1.5 3.7.7 6-1.5 1.2-2.5-1.4-4.2-.6-2.4 24.1 4.7 48.4.1 73-2.6-1.7-.3-4.8-2.6-6.5-3.3 1.1-3.8 3.8-3.8 6.8 0 7.3-.1 14.7-.1 22 0 10.2-2.5 20-3.7 30-1.4 11.9-6 22.7-9.6 33.9 2-9.9 4-19.7 1-29.9-11.2 39.2-31.6 72.4-61.7 99.5-.5-4 4.7-5.4 3.9-9.8-2.2-1.7-3.8 0-5.4 1.4-5.3 4.5-11.2 7.8-18.2 8.8-1.9.3-4 .8-5.9-.6-.5-3.5 4-4.2 4.5-8.3-8.9.8-17.4-.5-25.6-3.8-2.6-18.8-.5-37.6.2-56.3.2-4.2.5-8.3.5-12.5-.1-19.5 2-38.8 3.8-58.2 1.9-20.5 5.2-40.8 8.8-61.1 3.6-20.1 8.7-39.8 12.5-59.9 6.9-36.2 16.3-72 19.5-108.8 1.2-14.1 3.5-28 3.6-42.2 0-5.1 2.2-10.1 2.6-15.5 1.8 5.3 3.6 10.5 5.8 16.9-2.3-24.9-7.9-51.9-24.2-75.2-3.2-4.6-3-7.8-.2-12.4 7.6-12.2 10.9-26.4 16.7-39.4 3.5-7.7 7.5-15.2 10.2-23.5 5.2 2.9 8.7 7.2 13.6 9.9-1.8-5.2-6.5-8.1-9.5-12.3-3.3-4.7-8.1-5.2-13-7.9-.1 5.1 4.4 5.1 5.3 8.1-9.8 12-15.2 26.3-20.1 40.8-4.8 14.1-12.1 26.9-19.1 40-6.5 12.3-12.3 25.1-18.4 37.6-.6.3-1.2.3-1.8.1 0-1.7.1-3.4.1-5 .2-.3.3-.7.1-1.1 0-2.4.5-4.9-.6-7.2l-.3-.3-.4.2c-2.4 1.9-2.3 4.6-2.2 7.2.3 4.5-.7 8.8-1.9 13-3-.1-3-2.7-3.6-4.6-4.1-12.7-8-25.4-11.6-38.3-.5-1.7-.9-3.5-2.5-6.1-.2 4.8.1 8.5-.2 12.2-.2 2.6 1.3 6.7-2.6 7.1-3.8.4-3.4-3.9-4.1-6.4-1.5-4.9-2.3-10.1-3.7-15-.3-1.2-.2-2.7-1.8-3.4-2.5 2-1.8 6.1-5.1 8.1-5.3-4.4-2-11-4.1-16.3-2.9.2-4.1 2.4-5.5 4.1-1.8 2.2-3.8 3.7-6.8 3.5-2.1-.2-3.9.7-5.6 1.8-6.2 3.9-13.2 6.4-19.2 10.7-2 1.4-2.1 1.2-4-.6.1-.9 1.2-1.5.6-2.6-1.5-.8-2 .8-2.9 1.1-.2-.1-.4-.3-.6-.4 3-12.1 6-24.2 8.9-36.3 12-50.9 29.7-100 46.3-149.4 6.1-18.2 15-35.5 25.8-51.7 3.1-4.6 6.8-8.1 12.5-9.1 1.7-.3 3.6-.9 4.4-2.8-1-3.7-4.4-2.9-8.1-3.6 22.7-14.2 46.7-23.9 68.1-38.2.4 0 .7.2.8.6-1.2 2-2.4 4-3.7 6.2 3.1 1.2 4.3-1.3 5.5-2.9 7-8.9 13-18.4 15.7-29.7.4-1.7 1.1-3.4 1.8-5.5 13.5 7.2 27.9 5 41.5 7.3z" fill="#76e9c8"/><path d="M106.8 624.8c.9 1.4 1.9.9 2.9 0 6.5-5.6 15-7.8 22-12.7.4-.3 1-.7 1.3-.6 6.3 2 8.2-3.6 11.6-6.8 1.2-1.2 2.6-2.4 4.4-1.6s1.1 2.6 1.1 4c.1 4.4-.3 8.9 1.8 13.6 1.6-3.8 3.1-7.3 5.1-12.1 5.2 10.1 5.2 20.3 9.6 29.2 2.7-6.9.5-14.3 2-21.9 3.1 2.4 3.6 5.4 4.5 8.2 4.2 13.8 8.2 27.7 12.4 41.5.3.9 1.1 1.6 1.7 2.4.6 8.5-2.3 16.4-4.1 24.4-4.6 20.4-10.4 40.6-17.8 60.2-6.3 16.8-17.2 30.7-28.3 44.5-7.2 9-14.4 17.9-19.7 28.2-.4.7-1 1.3-1.5 2-4.1-1.3-6.8-5.2-11.4-5.8-.6 2.6 1.3 3.7 2.7 4.7 11.4 8 15.6 19.4 15.8 32.7.1 9.5.2 19 .1 28.5 0 4.3 1.4 7.8 4.5 10.7 4 3.8 8 7.6 11.9 11.5 8.2 8.3 5.9 20.3-4.8 25.2-9.6 4.4-15.7 3.1-22.7-4.7-1-1.1-1.9-2.3-2.8-3.5-6.3-8.5-14.4-8.4-20.1.7-4.8 7.8-6.1 16.3-4.1 25.4 2.4 10.9 7.7 20.9 10.9 31.5 1.1 3.8 2.8 7.5 1.7 11.7-2.8 10-11 13.6-21.8 10.1-6.9-2.2-11.5-7.7-15.9-13.2-10-12.4-14.8-27-17.5-42.4-1.3-7.5-2.8-15-4.3-22.4-.2-.9-.8-1.8-1.6-2.6-1.6 16.9 3.4 33 6.6 50.6-7.6-10.4-13.1-20.6-17.2-31.5-7.3-19.4-10.3-39.1-5.7-59.7 1.6-6.9 4.9-13.1 8.3-19.2 9.9-17.7 20.4-35.1 29.3-53.4 1.6-3.4 2.3-6.9 2.9-10.5 2.4-16.8 5.3-33.5 7.4-50.3 2.3-18.5 4.6-36.9 9.1-55.1 3.5-13.9 8.3-27.4 14.6-40.3 4.9-10.3 8.9-21.3 15.1-31.2zm449.7 23.8c-2.1-3.5-1.6-7.4-2-11.2-3-27.6 6.2-51.1 23.9-71.7 18.2-21.2 32.2-44.8 41-71.7 5.5 1.9 10.6 8.1 17 2-5.2-.1-9.1-2.9-13.1-5.5-3.6-2.4-5.8-5.5-6.3-9.7-1.2-9.8-4.3-19.1-6.3-28.7-1.6-7.8-7.4-13.2-13.1-18.4-3-2.7-6.1-5.2-7.7-9-4.6-11 1.9-23.1 13.8-25.8 8.2-1.8 15.2-.6 20.2 6.9 2.4 3.6 6.1 5.4 11.2 6.7-1.4-2.3-2.2-3.7-3.3-5.5 13.4-12 17.3-28.5 21.7-45 2.3-8.7 6-16.6 13-22.6 5.1-4.3 9.2-4.3 13.8-.4 3.6 3.1 4.5 6.5 2.5 11.1-4.4 10.1-8.2 20.3-9.3 31.4-.2 1.6-.9 3.2.5 5 2.6-2.8 3.1-6.2 4-9.4 2.7-9.8 6.1-19.3 10.7-28.4 3.7-7.4 10-12 17.8-14.3 8.4-2.5 17.9 4.1 20.4 14.7 2.5 10.3 1.3 20.9.6 31.3-.2 2.4-1.8 4.2-3 6.2-4.1 6.8-7.4 14-8.3 22.2 3-.2 3.4-2.4 4.3-4.1 2.3-4.6 4.5-9.3 7-13.8 1.8-3.4 4.3-6.3 7.3-8.8 6.4-5.4 12.9-4.4 16.1 3.4 4 9.8 6 20.1 3 30.7-4.5 15.7-12.6 29.3-23.3 41.5-10 11.4-20.1 22.7-30.2 34-4.3 4.9-9 9.4-14 13.5-6.5 5.4-13.5 9.7-22.6 9.3 3.9 3.3 8.9 1.9 13.4 3.7-2.4 5.5-5 11-7.3 16.6-5.9 13.9-8.9 28.6-11.7 43.2-6.6 34.8-12.4 69.8-29.9 101.4-.9 1.6-1.4 3.4-2.9 4.6-13.4 1.5-26.5-.2-39.7-2.2-2.4-.4-5.8-.7-5.7-3.8.2-3.4 3.8-2.6 6-2.6 9.4.2 18.6-.5 26.3-2.5-4.6.4-10.7.6-16.7-.1-6.3-.8-12.5-2.2-18.4-4.3s-12.2-3.2-17-9.4c7.3-3.1 14.4-.5 18.8-2-7.5 1.1-15.2-2.9-22.5-8.5z" fill="#44d262"/><path d="M345 130.9c-13.1 2.1-22.3 9.7-28.5 21.1-13.1 24.4-10 47.6 5.7 69.6 7 9.7 6.9 12.7-2.5 20.2-7.8 6.1-5.3 13.9-4 21.5 1.4 8.3 5.8 15.3 10.6 21.8 4.9 6.8 7.8 13.5 3.6 21.6-22.2-1.5-39.8-12.9-56.6-26-2.4-1.8-4.4-4.1-6.8-5.9-6.9-5.4-9.1-11.8-6.4-20.5 3.4-10.9 2.5-11.5-8.9-9.8-.5.1-.9 0-1.7 0 1-6.3 5-11.2 7.7-17.8-6.8 1.4-7.9 7.2-11.5 10.7 2.2-10.3 4.8-20.3 14.2-26.9 1.5-1.1 3.4-1.9 2.7-4.2-.8-2.3-2.9-3.3-5.2-3-5.1.6-10.2 1.4-16 2.3 8.1-10.6 18.7-16.3 30.4-20.7-8.7.4-17.1 2.2-25.5-2.1 8.2-4.9 15.8-10.2 22.2-17 7.3-7.7 11.9-17 15.6-26.7.2-.5-.1-1.3-.2-2-.4-1.2.3-1.9 1.3-2.4 5.4 2.9 10.2 1 15-1.7 14.6-8.2 24.8-19.9 29.1-36.4.5-1.8.7-3.5.7-4.1.1 5.1-3.3 10-6 15.1-5.4 10.5-13.6 18.4-24.1 23.9-1.6.8-3.3 1.5-5.1 1.9-3.2.5-5.2-.8-4.8-4 .5-4.1 0-6.8-4.8-7.5-2-.3-2.3-2.2-2.4-3.9s.6-3.2.9-5.3c-2 .1-2.6 2.3-4.6 2.4-2.3-2.3-1.6-5.3-.8-8.1.8-2.9 2-5.7 3-8.5.6-1.6 1.3-3.3-.2-4.7-2.7-2.3-1.7-4.7-.5-7.2 9.3-19.2 5.2-37-6.6-53.5-2.1-3-4.3-7.1-9.4-5.6-4.7 7.3-8.3 15-9.7 23.7-.2 1.3-.7 2.5-1.5 3.7-3.2 6.6-5.1 13.8-5.7 21-1.1 13.3-2.5 26.9 6 38.9 3 4.2 7.2 6.8 11.1 9.8.5.6.6 1.4.4 2.1-.4.8-1.1 1.1-2.3 1.2 3.1 1.3 5.3 3.2 7.1 5.7 1.9 2.6 3.3 5.4.9 8.4 1.3 1.9 2.9.8 4.3 1 1.3 0 2.5.1 3.4 1.2-2.4 6.3-6.5 11.6-10.6 16.8-1.8 2.3-3.2 2.5-5.6.3-13.2-11.8-19.7-27.4-22.4-44.1-5.8-35.7.3-69.8 16.8-102 3.7-7.2 4.5-7.5 11.3-3.4 20.2 12.4 39.9 25.4 54.6 44.6 4.1 5.4 7.7 11.2 11.9 16.7-1.4-10.8-9.6-17.8-15.5-26.6 16.6-7.2 30.9-17 41.8-31.9-.8 3.5-1.4 7.1-2.4 10.6-.9 3.5-2.2 6.9-3.5 11 3.6-1.7 4.6-4.7 6.2-7.2 1-1.5 1.5-3.3 3.3-4.2 10.7-5.9 21.8-10.4 35-12.2-3.8 4.1-7.1 7.5-10.2 11-1.2 1.3-2.8 2.8-1.5 4.8 1.2 1.9 3.3 1.3 5 .8 9.3-2.6 18.7-3 28.1-.4.6.2 1.4.2 1.6 1.1-4.1.7-8.4.2-12.5 2.5 23.9 1.7 44.5 9.9 60.4 28.5 15.7 18.3 20.9 40.3 23.9 63.8-4.5-1.7-5.7-6.6-10.5-7.9 2.6 4 4.7 7.4 7.5 11.6-13-1.9-24.6-5-35.7-12.1.5 4.7 3.6 6.4 6.4 8.2 2.9 1.8 5.9 3.4 9.9 5.8-10.2.8-18.6-2-27.1-3.7-13.2-2.6-25.3-7.9-36.9-14.6-1.4-.8-2.9-1.6-4.5-2.1-4.2-1.5-6.5 0-6.7 4.4-.1 2.1 0 4.3 0 8.1-12.2-8.1-17.9-19.6-23.7-31.2-1.3 9 3.8 16.3 6.4 25.5-13.1-9.3-21.5-20.7-27.3-34.2-2.1-4.9-3.9-9.9-7.2-14.2-1.8-2.3-3.7-4.2-7.6-5.1 6.8 6.8 8.7 15.1 10.8 23.3 4.1 15.9 14.3 26.1 29.5 31.7 2.9 1.1 5.5 2.3 7.5 4.7 1.9 2.2 4.3 3.7 6.9 4.9 6.4 2.9 10.8-.1 10.7-7.2v-3.8c9.2 6.6 18.9 11.3 29.1 14.5-3.4 5.9-13.4 10.5-19.8 9.4-11.3-1.9-21.9-6.4-32.4-10.8-3.8-1.6-8.4-1.2-11.6-4.4 1-2.9-1-3-2.9-3-4.9 0-9.4 1.1-13.4 4.1-2.1 1.4-3.9 3.7-6.7 4.3zm211.5 517.7c1.7.7 3.6 1 5 2 6.7 4.6 14.2 6.1 22.2 5.8-7.1 2.8-14.7 2.2-22.3 3 7.7 6.6 17.3 8.4 26.6 10.9 9.5 2.5 19.1 1.7 29.8 1.8-12.7 5.6-25.2 4.6-37.6 5.7 4.3 3.6 9.6 3.5 14.6 4.1 9 1.1 18 2.3 27.2 1.2 1.2-.1 2.3 0 3.1 1.1-10.4 17.2-24.6 30.1-43.3 37.6-9.1 3.6-17.9-.7-26.6-3.2-1.7-.5-3.4-3.1-5.1-.8-1.6 2.1.6 3.6 2 5 .8.8 1.7 1.5 2.4 2.6-11.3-2.8-21.2-8.3-30.2-15.7-9.2-7.6-16.6-16.8-23.3-26.6-5.8-8.4-8.5-17.4-8.3-28 .3-14.6 1.7-28.8 5.1-43 .3-1.4.4-3 .5-4.5.9-20.1 1.3-40.3 3-60.3 1.2-14 2-28.1 7.1-41.6 5.9-15.5 4.7-31.9 2.5-47.9-3-21.5-7.9-42.8-14.7-63.5-3.3-9.9-7.4-19.6-12-29-1-1.9-1.8-4-3.9-5-5.2-2.9-10.5-5.6-15.6-8.7-12.3-7.5-20.2-18.2-23.1-32.6-.8-3.8 1-6.8 1.6-10.1 1.1-.3 2.2-.6 4-1.1-2 15.5 8.6 21.8 19.3 27.9 5.1 2.9 10.2 5.8 15.7 7.6 20.9 7 34.5 22.1 45.2 40.3 11.7 19.8 19.2 41.3 23.5 63.9 5.6 29.2 8.5 58.6 8.2 88.4-.1 12 0 24 .2 36 .1 5.8-.7 11.3-3.1 16.5-7 15.7-8.4 32.1-6.9 48.9.5 5.8 2.2 11.4 4.5 16.8.7 1.6 1.3 3.1 3.5 2.7 1.6-2-.9-3.7-.5-5.6-.1-.6-.3-1.2-.4-1.9-.2-.1-.1-.4.1-.7zM104 1001c.1-4.2.5-8.4-.7-12.5.8-1 2.3.1 3.3-1.1-1.6-5.5-5.5-9.5-9.2-13.7-4.2-9.4-9.4-18.4-9.2-29.1.1-8.4 2.8-15.3 11.5-19.2 1.8 2.5 3.5 5.2 5.5 7.8 12.7 16.1 35.3 13.9 44.5-4.2 4-7.9 3-15-3.5-21.9-3.9-4.1-8-8-12.3-11.7-2.9-2.5-4.2-5.1-4-9 .4-12.7-.4-25.3-2.6-37.8-.9-4.8-2-9.5-4.9-13.4-1.9-2.6-1.2-4.3.5-6.5 10.9-14.2 21.9-28.5 32.5-43 4.8-6.5 9.2-13.5 12.9-20.7.1-.4.3-.7.6-1v-.1c2.8-3.5 5.9-6.7 8.8-10.2 7.3-3.9 15-6.7 24.2-8.4-4.5 5.1-9.9 8.1-12 14.2 2.2-1.3 4.6-2.4 6.6-4 10-7.9 20.7-4.7 31.3-2.2 2.9.7 4.2 2.4 3.5 6.3-3.2 17-7.3 33.8-10.9 50.7-2.3 11-4.5 22.1-6.6 33.1-1.1 5.8-3.5 10.5-8.3 14.3-10.3 8.1-21.4 13.9-34.8 14.8-16.1 1-25.6-8.5-24.5-24.5-.5-4.4.2-8.8.5-13.2-1 3.8-.1 7.9-1.5 11.7v.5c-5.1 23.4 13.3 35.5 35.1 30.4 10.9-2.6 20.4-7.6 28.7-15.5-12.5 55.5-19.3 111.4-21.3 168-4.4 3.2-8.5 7-15.4 6.7 2.4-6 7.9-9.6 8.6-16.4-6.1 3.2-11.9 5.5-17.7 7.7-2.4.9-5.7 2.9-7.2-.1-1.5-2.8 2.4-3.8 4.1-5.4 1.9-1.8 4-3.4 6.7-5.8-23 7.3-39.4 8.1-44.3 2.4 2.2-3.7 7.2-3 10.6-6.4-5.7.3-10.8.7-15.8 0-3.5-.5-6.1-1.4-7.4-4.8-1.1-3.2-4.3-4.2-5.9-6.8z" fill="#76e9c8"/><path d="M104 1001c3.3 1.3 6.4 2.7 7.4 6.7.7 2.7 2.6 3.5 5.3 3.4 4.6-.1 9.2 1.2 13.8.1 1.6-.4 3.7-.7 5.3 1.6-3.5 3.3-8.6 3.4-13.6 6.7 16.8 3.1 31.9 1.9 46.6-5.1-2.7 5.8-8.2 8.4-12 13.1 8.9-1.7 17.2-5.4 26.2-10.4-.1 8.4-5.3 13-9.4 18.6 5.6-.6 9-5.6 14.2-6 .1 18.3.2 36.6.2 54.8 0 8.8.2 17.6 1.7 26.3s.4 9.4-8.4 10.4c-7.1.8-13.9-.3-20.8-1.6-7.7-1.6-15-4.3-19.4-12.3-1.4 4.7-.8 6.2 4.2 12.2-.1.5-.4.8-.9 1-18-6.9-32.3-18.9-44.5-33.5-1.4-1.7-2.6-3.5-4-5.1-1.2-1.5-2.7-2.6-4.8-1.7-2 .9-2.5 2.6-2.3 4.6.6 5.4 1.3 10.9 2.1 17-7.5-5-13.2-10.9-18.6-17.1-12.5-14.5-21.7-30.6-22.5-50.5-.5-11.1-.8-11.1 5.9-27.2-6.8 7.1-9.9 15-12 23.3-2 8.1-2 16.4-1.9 24.7l.1-.1c-9.7-10.4-14.5-23.3-18.9-36.4C15.7 997 10.2 975 8.6 952.4c-1.5-22.4-1.9-45 .6-67.3 1.2-10.9 7.4-20.6 12.5-30.3 8-15.1 15-30.9 26.3-44 1.1-1.3 1.9-3.2 4.3-3.6 1.2 4.9-1.1 8.7-3.5 12.4-8 12.9-15.7 25.9-24.1 38.5-12.2 18.4-16.4 38.3-13.1 59.9 3.1 20 9.7 38.7 22.2 54.9.9 1.2 1.8 2.6 3 3.3 7.1 4 10.9 10.8 15.1 17.4 4.7 7.4 10.7 13.6 18.6 17.7 14.1 7.2 26.5 3.3 33.5-10.3z" fill="#44d262"/><path d="M517.6 1042.9c-5.2-2.7-8.1-7.3-9.9-12.6-5.5-16.9-8.8-34.4-12.6-51.7-2.2-9.9-3.9-19.8-6.1-29.7-3.9-17.3-4.9-34.8-5-52.4v-14.8c-4.4-1.5-3.9 4.2-7.8 3.7.4-6.2.5-12.6 1.2-18.8.9-8.4 2.5-16.7 3.4-25.1.2-2.1 1.6-5.1-1.6-6.6 3.1-20 5.8-40.1 7.6-60.4 1.5 6.1 1.2 12.5 2.1 18.7 1 7.4 1.1 15 2.5 22.2 3.3 17.3 4.4 34.9 6.8 52.3 3.4 24.2 6.7 48.5 8.7 72.9 2.4 28 5.3 56 8.8 83.9.8 6.2 1.3 12.3 1.9 18.4z" fill="#76e9c8"/><path d="M285 135.3c-.4.6-.7 1.2-1.1 1.8-3.1 1.3-2.6 5.2-5 7-1.6 0-3.3 0-4.7-1-.4-7-4.6-11.9-9.3-16.5-.1-.2-.2-.5-.2-.7 0-.1.2-.2.2-.3-4.4-4.8-8.6-9.7-11.5-15.5-4.9-9.6-6.4-19.7-5.3-30.5.9-8.6 2.9-17 4.7-25.4 1.3-6.5 3-12.9 5.9-18.8 1.6-3.2 3.5-6.2 5.2-9.3 3.2-.2 5.3 1.7 7 4 11.9 16.6 17.2 34.2 9.2 54.2-2.2 5.5-5.9 9.8-9.6 14 1.1 2 2.9 1.4 4.1 2.2.5.3.8.7 1.1 1.2.7 1.8.3 3.6 0 5.4-.6 3.7-.6 7.3 1.2 10.6.4.7.8 1.5.7 2.4-.7 5.2-.4 9.5 6.1 10.8 1.7.2 2.6 2.4 1.3 4.4z" fill="#44d262"/><path d="M517 207.7c-1.6 11.3-5 20.7-13.7 28.5v-8.8c-.3-.1-.6-.1-.8-.2-1.3 3.2-2.4 6.5-3.9 9.6-1.5 3.2-3.5 6.1-7.6 6.4-4.2.2-5.2-3.2-6.4-5.9-3.9-8.4-10-13.9-19-16.3-2.6-.7-5.8-1.3-6.5-4.7-.7-3.6 2.2-5.5 4.5-7.1 14.9-10 30.7-13.8 47.9-6.3 1.7.7 3.3 1.6 4.3 3.9-10.2 2.3-20.1 5-30.4 5.9 10.7 1.8 20.8-1.1 31.6-5z" fill="#343434"/><path d="M602.6 1586.2c7.4-8.7 17.4-9.8 25.5-2.2 8.5 8 16 17 22.6 26.6 3.1 4.5 5 9.7 5.5 15.3.8 8.6-1.7 12-10.9 13.8.1-25-17.1-46.5-42.7-53.5z" fill="#44d262"/><path d="M466.4 29.7c-4.9 1.9-6.8 6.5-9.4 10.8-4.9-2.3-9.4-5.5-15.6-7.2 9.2-6.7 17.2-13.6 26.9-19.7 7.8 15.2 9.6 31.3 11.6 48.9-4-4.5-7.1-7.9-10.2-11.3-.5-1.8.8-3.1 1.5-4.5 3-5.8.9-13.3-4.8-17zm15.8 154c-1.3-5.5-6-8.6-9.1-12.6-4.4-5.6-7.3-11.6-7.8-18.3-.4-6.7-2.7-12.9-4.1-19.3 4.1-.2 8.2-.4 12.6-.6.5 5-.1 9.6-.8 14.1-1.7 10.2 2.2 16 12.3 18.6.8.2 1.6.3 2.7.5-.6 2-2.4 2.7-3.5 3.9-3.2 3.5-3.2 5.7 1.2 7.7 3.9 1.8 6.3 4.2 7.6 8.1l.1-.1c-4.1 1-7.5-1.4-11.2-2z" fill="#76e9c8"/><path d="M466.4 29.7c2.5-1.3 3.7.7 4.8 2.2 3.8 5.2 3.7 12.1 0 17.4-.5.7-.9 1.3-1.4 2-3.6-2.9-7.1-5.9-10.8-8.9 1.9-4.7 4.5-8.8 7.4-12.7z" fill="#44d262"/><path d="M449.1 139.2c4.6-.6 6.7 2.4 7.6 5.4 2.9 9.2 2.7 18.8 2.1 28.4-.3 4.1-2.9 5.3-7.9 4.3 6.5-18.5 6.1-28.2-1.8-38.1z" fill="#fff"/><path d="M168.2 1634.9c-1.6 12.6-3.2 23.7 5.9 33.3-10.3-2-13.5-19.1-5.9-33.3zm466.2-54.8c8.5 2.6 21.4 17.3 22.6 25.9-7.2-9.2-14.4-17.4-22.6-25.9z" fill="#44d262"/><path d="M450 149.3c2.9 8.6 2.8 16.7-2.4 24.2-1.3 1.8-2.9 2-5.3.3 9.3-6 5.4-16.2 7.7-24.5z" fill="#76e9c8"/><path d="M97.4 973.8c4.3 1.6 9.3 8.7 11 15.7-1.9.8-3.4-.9-5.1-1-2-4.9-3.9-9.8-5.9-14.7zm47.9-127.4c-1-12.3-.8-13.3 3.2-15.5-.4 6-.8 11.6-2.2 17.1-.3-.6-.7-1.1-1-1.6zm32.5-92.6c-1.5 4.6-4.9 7.6-8.8 10.2 1.4-4.8 3.1-9.2 8.8-10.2z" fill="#44d262"/><path d="M444.4 143.4c1.5 2.7 2 5.1-.4 7-.9.7-2.5.8-2.9-.6-.8-2.7.7-4.6 3.3-6.4z" fill="#fff"/><path d="M419.3 955.5c1.1-2.6 2.2-5.2 3.4-7.8.5 0 .7.2.8.7-.4 2.9-1.4 5.5-3 8-.7 0-1-.3-1.2-.9zM192.2 661.2c.6 0 1.2 0 1.8-.1.3 1.3-.6 2-1.2 3-1.1-.8-.8-1.8-.6-2.9zm309.3-465.7c.7.3 1.4.5 2.3.9-1.2.9-2.1.6-3 .1.1-.4.4-.7.7-1z" fill="#44d262"/><path d="M422.7 947.7c.2-.9.5-1.7.8-2.8 1 1.4.6 2.5 0 3.5-.3-.2-.6-.5-.8-.7zm-22.1 15.8c.3-.4.4-1.4 1.1-.9.5.4 0 1.1-.6 1.4-.3 0-.4-.2-.5-.5zm17.7-6.1c.3-.6.7-1.2 1-1.8.4.3.7.6 1.1.8-.4.7-.7 1.3-1.1 2-.3-.4-.6-.7-1-1z" fill="#44d262"/><path d="M104.5 623.4c-.3.4-.4 1.4-1.1.9-.5-.3-.2-1.1.5-1.3.2.1.4.2.6.4z" fill="#76e9c8"/><path d="M731.5 378.6c-.4.2-.7.4-1.1.6 0-.5 0-1.1.1-1.6z" fill="#fff"/><path d="M261.9 331.9c.3-.2.6-.3 1-.5 0 .4-.1.7-.1 1.1-.4-.2-.6-.4-.9-.6z" fill="#76e9c8"/><path d="M145.4 1119.6c.1.4.3.7.4 1.1-.4 0-.9-.1-1.3-.1.3-.4.6-.7.9-1zM42 1055.1c.2.1.5.1.7.2 0 .2-.1.3-.1.5-.2-.4-.4-.6-.6-.7 0-.1 0 0 0 0zm359.1-91c-.2.4-.5.9-.7 1.3-.3-.3-.6-.6-.9-1 .4-.3.8-.6 1.1-.9.2.2.3.4.5.6z" fill="#44d262"/><path d="M493.2 185.8c0 .1.1.3.1.4s-.1.1-.1.2c0-.2.1-.4 0-.6z" fill="#76e9c8"/><path d="M169 764c-.2.3-.4.7-.6 1 .2-.3.4-.7.6-1zm23.4-108.9c.1.3.2.5.2.8 0 .1-.2.2-.3.3 0-.4.1-.7.1-1.1zm364-5.6c.1.6.3 1.2.4 1.9-.7-.5-.8-1.2-.4-1.9zm-365.2-1.7c.3-.6.5-.4.7.1h-.3z" fill="#44d262"/><path d="M340.9 200.9c1.2-1.1 1.9-1.7 2.6-2.4-13-19.3-7.2-47.6 12.3-59.6 7.3-4.5 14.9-4.1 22.4-.7 4 1.8 7.4 4.5 10.2 7.9 13.3 16.1 18.8 33.7 10.5 54-5 12.1-12.7 16-25.4 13.2-11.2-2.4-21.4-7.5-32.6-12.4zm96.3 450.3c5.9-1.5 4.7 5.4 8.7 6.6-2-12.1-8.3-22.3-13.4-33.2 1 0 1.5-.1 1.6 0 8.9 9.7 14.5 21 16 34.1.3 2.4 0 4.7-2.1 6.3-1 .8-1.5 1.7-1.2 3 6.2 34.1-5.5 65-17 96-3.6 9.8-7.5 19.7-13 29.7-1.6-3.4.1-5.8.7-8 5.8-21.2 13.7-41.7 20.8-62.5 5.5-16.1 6.4-32.6 5.4-49.3-.3-5.5-1.7-10.8-4.4-15.7-1-2-2.4-3.9-2.1-7zm7.2-53.6c-4.9-13.7-13.5-25.1-22.5-36.3-1.8-2.3-4.2-4.2-4.9-7.2 1.2-.8 1.8 0 2.3.5 12.9 12.8 23.5 27.2 30.3 44.2 1 2.5 3.7 5.8.7 8.2-3.2 2.6-5.2-1.7-8.3-2.8 1.9 10.1 5.3 19.8 4 30-3.1-10.5-6-21-10.7-30.8-1.3-2.7-2.7-5.4-3.9-8.1-.7-1.4-.9-3 .6-4.1 1.3-.9 2.6-.2 3.7.6 2.8 2.1 5.5 4.2 8.3 6.4.3.1.5-.1.4-.6zM293 367.1h-23.6c3.3 1.3 6.3-.6 9.4-1.1 15.3-2.7 30.7-2.4 46.1-1.3 21.8 2.8 42.1 9.4 60.7 23.2-3.4 1.8-5.1.2-6.8-.7-14.1-7.1-28.5-13.6-44.2-16.7-13.8-2.6-27.6-4.2-41.6-3.4zm28.5 417.4c18.3 14.9 44.6 73.5 43.9 97.9-6.9-16.5-9.2-34.6-17.3-50.7-8-16.2-17.8-31.4-26.6-47.2zm72.9-234.3c-17.7 13.4-70.2 23.3-81.6 15.2 28.9.9 55.1-8.3 81.6-15.2zM220.9 1661.7c-9.4-6.4-10.9-15.7-9.6-25.5 1.4-10.3 3.3-20.6 13.5-27-9.9 17-10.9 34.4-3.9 52.5zM344.7 239.9c7.3-4.4 32.8-.2 39.2 6.3-1.4 1.4-3.2 1.7-4.9 1.5-3.5-.4-6.9-1-10.3-1.7-8.1-1.6-15.8-4.7-24-6.1zm74.4 148.2c-2.4-5-.4-7.8 1.4-10.5 7.7-11.4 25.6-21.5 40.7-22.4-18.9 5.5-32 16.7-42.1 32.9zm-186.2 869.4c9.4 11.1 15.4 25.2 29.3 33-11.7.2-26.7-16.7-29.3-33zM345 130.9c5.1-5.1 10.6-9.5 18.3-9.8 3-.1 5.9-.1 7.9 2.4-.5 2-2 1.4-2.9 1.8-6.4.2-12 3.3-17.9 5.2-1.8.5-3.5 2.5-5.4.4zm79.4 332.8c-.6-10.8-3.3-30.3-8.4-49.5 7.3 18.9 8.7 38.6 8.4 49.5zm38.8 83.4c-13 1.7-24-4.6-35.6-9 11.9 3 23.7 6 35.6 9zm-41.9 256.4c4.8 1 5.8-2.1 6.7-5.2 2.3-7.1 2.8-14.6 4.5-22.4.6 8.6-.8 16.5-2.7 24.3-.6 2.5-1.9 4.7-4.1 6.1-2.1 1.3-4 1.3-4.4-2.8zm14.3-595.2c-9.2-.4-17.9-1.7-23.2-10.6 7.6 3.9 14.9 8.5 23.2 10.6zM280 1647.1c-1.5-6.9-4.9-13.3-4.5-21.2 4.2 3.8 5.9 11.8 4.5 21.2zM402.2 405.3c8 2.8 13.7-1.1 19.3-5.7-3.1 8.5-13.5 11.7-19.3 5.7zm78.7 831.2c1.7 5.4 3.4 10.8 5.1 16.4-2.3-5.5-3.4-11-5.1-16.4zM275 1281.8c.9-1.8 1.8-3.7 2.7-5.5.1 0 .1.1.2.1-.9 1.8-1.9 3.7-2.8 5.5z"/><path d="M270 509c.1.1.3.1.4.2-.2-.1-.3-.1-.4-.2zm350.1 162.3v.4l-.4-.2z" fill="#76e9c8"/><path d="M285 135.3c-.2-2-.3-4.2-3.1-4.1-5.5.2-6.5-3.2-5.9-7.5.4-2.9.1-5.1-1.4-7.8-2.6-4.7 0-9.7.8-14.5.1-.5-.2-.7-.7-.6-2.2.2-4.5 1-6.6-.3-.6-1.5.2-2.3 1.1-3.2 14.8-14.6 16.5-31.8 9.7-50.4-3-8.2-6.5-16.4-15-20.9 3.6-1.9 6 .4 8.2 2.7 13 14.1 21 38.6 9 60-.5.9-1 1.7-1.8 3.2 5.8.6 5.3 3.4 3.1 7.5-2.5 4.7-4.2 9.8-3.7 15.5 2.6-1.2 2.8-5.2 6.6-5.1.6 3.9-2.3 7.2-1.7 11 2.5 1.1 6.3-1.2 7.7 2.8 1 2.9-1.5 5.9.2 8.7 14.2.7 32.4-20.1 38.9-44.2 1.4 12.5-4.2 22.5-11.6 31.6-6.2 7.6-14.1 13-23.1 17-3.8 1.5-7.3.9-10.7-1.4zm-32.1-81.2c.5 8.4-2.3 16.4-3.3 24.5-2.2 16.1 2.5 29.7 12.6 41.9 1.2 1.5 3 2.7 2.9 5-12.8-6.8-18.4-17.8-19.1-31.9-.6-12.4.9-24.4 5.3-36 .3-1.2.3-2.7 1.6-3.5zm12 72.4c7.8 4.5 10.8 9.8 9.3 16.5-2.5 2.5-3.6.5-4.6-1.5 4.7-3.2 0-8.8-8.1-14.3 1.2-.2 2.3-.4 3.4-.7z"/><path d="M343.5 184.5c6.9 10.1 16.4 13 27.9 10.6 6.8-1.4 11.2-5.4 13.8-11.7 4.1-9.9 3.2-20.2 2.1-31 6.2 7.2 9.4 15.4 10.5 24.2.8 6.2.6 12.6-1.9 18.7-5.3 12.5-10.1 15.6-22.2 12.7-5.3-1.3-10.5-3.3-15.8-4.6-9.7-2.5-13.5-9.5-14.4-18.9z" fill="#fff"/><path d="M380.2 155.5c3.1 10.7 2.3 20.3-3.7 28.2-7.4 9.6-24.9 5.4-28.2-6 3.9 1.9 7.5 4 11.8 3.7 7.7-.4 13.4-6.3 12.8-14-.2-2.4.1-4.1 2.3-5.3 2.3-1.3 3-3.9 5-6.6z" fill="#76e9c8"/><path d="M362 152c.1-6 3.3-11.4 6.7-11.3 3.6.2 8.5 5.5 8.4 9.2 0 5.1-4.2 10.4-8.2 10.4-4 .1-7-3.5-6.9-8.3z" fill="#fff"/><path d="M444.4 597.6c.4.4.7.8.1 1.2-.1 0-.5-.4-.7-.6zM274.8 100.8c.2-.2.4-.3.7-.5v1.1c-.2-.1-.5-.4-.7-.6z" fill="#44d262"/></svg>