<svg viewBox="1 0.5 15 15" baseProfile="full" xmlns="http://www.w3.org/2000/svg"><path fill="#a7a848" d="M9 2h1v1H9zm1 0h1v1h-1zM8 3h1v1H8z"/><path fill="#eaeac7" d="M9 3h1v1H9z"/><path fill="#daddaa" d="M10 3h1v1h-1z"/><path fill="#a7a848" d="M11 3h1v1h-1zM6 4h1v1H6zm1 0h1v1H7z"/><path fill="#524c44" d="M8 4h1v1H8z"/><path fill="#fcfcf2" d="M9 4h1v1H9zm1 0h1v1h-1z"/><path fill="#eaeac7" d="M11 4h1v1h-1z"/><path fill="#a7a848" d="M12 4h1v1h-1zM5 5h1v1H5z"/><path fill="#eaeac7" d="M6 5h1v1H6z"/><path fill="#fcfcf2" d="M7 5h1v1H7z"/><path fill="#524c44" d="M8 5h1v1H8zm1 0h1v1H9z"/><path fill="#fcfcf2" d="M10 5h1v1h-1zm1 0h1v1h-1z"/><path fill="#daddaa" d="M12 5h1v1h-1z"/><path fill="#878839" d="M13 5h1v1h-1z"/><path fill="#a7a848" d="M3 6h1v1H3zm1 0h1v1H4z"/><path fill="#daddaa" d="M5 6h1v1H5z"/><path fill="#96928a" d="M6 6h1v1H6z"/><path fill="#6b665e" d="M7 6h1v1H7z"/><path fill="#524c44" d="M8 6h1v1H8z"/><path fill="#b6b6af" d="M9 6h1v1H9z"/><path fill="#fcfcf2" d="M10 6h1v1h-1zm1 0h1v1h-1zm1 0h1v1h-1z"/><path fill="#a7a848" d="M13 6h1v1h-1z"/><path fill="#878839" d="M14 6h1v1h-1z"/><path fill="#a7a848" d="M2 7h1v1H2z"/><path fill="#524c44" d="M3 7h1v1H3z"/><path fill="#eaeac7" d="M4 7h1v1H4z"/><path fill="#b6b6af" d="M5 7h1v1H5z"/><path fill="#524c44" d="M6 7h1v1H6z"/><path fill="#b6b6af" d="M7 7h1v1H7z"/><path fill="#fcfcf2" d="M8 7h1v1H8z"/><path fill="#524c44" d="M9 7h1v1H9z"/><path fill="#b6b6af" d="M10 7h1v1h-1z"/><path fill="#fcfcf2" d="M11 7h1v1h-1zm1 0h1v1h-1z"/><path fill="#daddaa" d="M13 7h1v1h-1z"/><path fill="#a7a848" d="M14 7h1v1h-1z"/><path fill="#878839" d="M15 7h1v1h-1z"/><path fill="#a7a848" d="M1 8h1v1H1z"/><path fill="#daddaa" d="M2 8h1v1H2z"/><path fill="#524c44" d="M3 8h1v1H3zm1 0h1v1H4z"/><path fill="#6b665e" d="M5 8h1v1H5z"/><path fill="#96928a" d="M6 8h1v1H6z"/><path fill="#fcfcf2" d="M7 8h1v1H7zm1 0h1v1H8z"/><path fill="#524c44" d="M9 8h1v1H9z"/><path fill="#6b665e" d="M10 8h1v1h-1z"/><path fill="#fcfcf2" d="M11 8h1v1h-1zm1 0h1v1h-1z"/><path fill="#eaeac7" d="M13 8h1v1h-1z"/><path fill="#878839" d="M14 8h1v1h-1zM2 9h1v1H2z"/><path fill="#daddaa" d="M3 9h1v1H3z"/><path fill="#eaeac7" d="M4 9h1v1H4z"/><path fill="#524c44" d="M5 9h1v1H5z"/><path fill="#fcfcf2" d="M6 9h1v1H6z"/><path fill="#524c44" d="M7 9h1v1H7zm1 0h1v1H8z"/><path fill="#fcfcf2" d="M9 9h1v1H9zm1 0h1v1h-1z"/><path fill="#eaeac7" d="M11 9h1v1h-1z"/><path fill="#daddaa" d="M12 9h1v1h-1z"/><path fill="#878839" d="M13 9h1v1h-1zM3 10h1v1H3z"/><path fill="#daddaa" d="M4 10h1v1H4z"/><path fill="#8f8b78" d="M5 10h1v1H5z"/><path fill="#6b665e" d="M6 10h1v1H6z"/><path fill="#b6b6af" d="M7 10h1v1H7z"/><path fill="#524c44" d="M8 10h1v1H8z"/><path fill="#fcfcf2" d="M9 10h1v1H9z"/><path fill="#eaeac7" d="M10 10h1v1h-1z"/><path fill="#878839" d="M11 10h1v1h-1zm1 0h1v1h-1zm-8 1h1v1H4z"/><path fill="#daddaa" d="M5 11h1v1H5z"/><path fill="#eaeac7" d="M6 11h1v1H6z"/><path fill="#fcfcf2" d="M7 11h1v1H7z"/><path fill="#eaeac7" d="M8 11h1v1H8z"/><path fill="#bbc177" d="M9 11h1v1H9z"/><path fill="#878839" d="M10 11h1v1h-1zm-5 1h1v1H5z"/><path fill="#daddaa" d="M6 12h1v1H6z"/><path fill="#bbc177" d="M7 12h1v1H7z"/><path fill="#878839" d="M8 12h1v1H8zm1 0h1v1H9zm-3 1h1v1H6zm1 0h1v1H7z"/></svg>