<svg viewBox="0 0 16 16" baseProfile="full" xmlns="http://www.w3.org/2000/svg"><path fill="#312104" d="M8 1h1v1H8zm1 0h1v1H9zm1 0h1v1h-1zM6 2h1v1H6zm1 0h1v1H7z"/><path fill="#522e10" d="M8 2h1v1H8z"/><path fill="#654b17" d="M9 2h1v1H9z"/><path fill="#543e13" d="M10 2h1v1h-1z"/><path fill="#312104" d="M11 2h1v1h-1zM4 3h1v1H4zm1 0h1v1H5z"/><path fill="#522e10" d="M6 3h1v1H6z"/><path fill="#654b17" d="M7 3h1v1H7zm1 0h1v1H8zm1 0h1v1H9zm1 0h1v1h-1zm1 0h1v1h-1z"/><path fill="#312104" d="M12 3h1v1h-1zM2 4h1v1H2zm1 0h1v1H3z"/><path fill="#522e10" d="M4 4h1v1H4z"/><path fill="#654b17" d="M5 4h1v1H5zm1 0h1v1H6zm1 0h1v1H7z"/><path fill="#44250a" d="M8 4h1v1H8z"/><path fill="#654b17" d="M9 4h1v1H9zm1 0h1v1h-1zm1 0h1v1h-1zm1 0h1v1h-1z"/><path fill="#312104" d="M13 4h1v1h-1zM0 5h1v1H0zm1 0h1v1H1z"/><path fill="#522e10" d="M2 5h1v1H2z"/><path fill="#543e13" d="M3 5h1v1H3z"/><path fill="#654b17" d="M4 5h1v1H4zm1 0h1v1H5zm1 0h1v1H6zm1 0h1v1H7zm1 0h1v1H8z"/><path fill="#44250a" d="M9 5h1v1H9z"/><path fill="#654b17" d="M10 5h1v1h-1zm1 0h1v1h-1zm1 0h1v1h-1z"/><path fill="#543e13" d="M13 5h1v1h-1z"/><path fill="#312104" d="M14 5h1v1h-1zM0 6h1v1H0z"/><path fill="#522e10" d="M1 6h1v1H1z"/><path fill="#543e13" d="M2 6h1v1H2z"/><path fill="#654b17" d="M3 6h1v1H3zm1 0h1v1H4z"/><path fill="#44250a" d="M5 6h1v1H5z"/><path fill="#654b17" d="M6 6h1v1H6zm1 0h1v1H7zm1 0h1v1H8zm1 0h1v1H9z"/><path fill="#44250a" d="M10 6h1v1h-1z"/><path fill="#654b17" d="M11 6h1v1h-1zm1 0h1v1h-1zm1 0h1v1h-1z"/><path fill="#44250a" d="M14 6h1v1h-1z"/><path fill="#312104" d="M15 6h1v1h-1zM0 7h1v1H0zm1 0h1v1H1z"/><path fill="#522e10" d="M2 7h1v1H2z"/><path fill="#654b17" d="M3 7h1v1H3zm1 0h1v1H4zm1 0h1v1H5z"/><path fill="#44250a" d="M6 7h1v1H6z"/><path fill="#654b17" d="M7 7h1v1H7zm1 0h1v1H8zm1 0h1v1H9zm1 0h1v1h-1zm1 0h1v1h-1z"/><path fill="#44250a" d="M12 7h1v1h-1zm1 0h1v1h-1z"/><path fill="#5b5b5b" d="M14 7h1v1h-1z"/><path fill="#312104" d="M0 8h1v1H0zm1 0h1v1H1z"/><path fill="#b7b7b7" d="M2 8h1v1H2z"/><path fill="#522e10" d="M3 8h1v1H3z"/><path fill="#654b17" d="M4 8h1v1H4zm1 0h1v1H5zm1 0h1v1H6zm1 0h1v1H7zm1 0h1v1H8zm1 0h1v1H9z"/><path fill="#44250a" d="M10 8h1v1h-1zm1 0h1v1h-1z"/><path fill="#999" d="M12 8h1v1h-1z"/><path fill="#b7b7b7" d="M13 8h1v1h-1z"/><path fill="#999" d="M14 8h1v1h-1z"/><path fill="#161005" d="M0 9h1v1H0z"/><path fill="#522e10" d="M1 9h1v1H1z"/><path fill="#d6d6d6" d="M2 9h1v1H2z"/><path fill="#b7b7b7" d="M3 9h1v1H3z"/><path fill="#522e10" d="M4 9h1v1H4z"/><path fill="#543e13" d="M5 9h1v1H5z"/><path fill="#654b17" d="M6 9h1v1H6zm1 0h1v1H7z"/><path fill="#44250a" d="M8 9h1v1H8zm1 0h1v1H9z"/><path fill="#999" d="M10 9h1v1h-1z"/><path fill="#b7b7b7" d="M11 9h1v1h-1zm1 0h1v1h-1z"/><path fill="#999" d="M13 9h1v1h-1z"/><path fill="#312104" d="M14 9h1v1h-1z"/><path fill="#44250a" d="M15 9h1v1h-1z"/><path fill="#161005" d="M1 10h1v1H1z"/><path fill="#522e10" d="M2 10h1v1H2z"/><path fill="#d6d6d6" d="M3 10h1v1H3z"/><path fill="#b7b7b7" d="M4 10h1v1H4z"/><path fill="#522e10" d="M5 10h1v1H5z"/><path fill="#44250a" d="M6 10h1v1H6zm1 0h1v1H7z"/><path fill="#999" d="M8 10h1v1H8z"/><path fill="#b7b7b7" d="M9 10h1v1H9zm1 0h1v1h-1z"/><path fill="#999" d="M11 10h1v1h-1z"/><path fill="#312104" d="M12 10h1v1h-1z"/><path fill="#44250a" d="M13 10h1v1h-1z"/><path fill="#161005" d="M14 10h1v1h-1zm1 0h1v1h-1zM2 11h1v1H2z"/><path fill="#522e10" d="M3 11h1v1H3z"/><path fill="#d6d6d6" d="M4 11h1v1H4z"/><path fill="#b7b7b7" d="M5 11h1v1H5z"/><path fill="#999" d="M6 11h1v1H6z"/><path fill="#b7b7b7" d="M7 11h1v1H7zm1 0h1v1H8z"/><path fill="#999" d="M9 11h1v1H9z"/><path fill="#312104" d="M10 11h1v1h-1z"/><path fill="#44250a" d="M11 11h1v1h-1z"/><path fill="#161005" d="M12 11h1v1h-1zm1 0h1v1h-1zM3 12h1v1H3z"/><path fill="#522e10" d="M4 12h1v1H4z"/><path fill="#d6d6d6" d="M5 12h1v1H5z"/><path fill="#b7b7b7" d="M6 12h1v1H6z"/><path fill="#999" d="M7 12h1v1H7z"/><path fill="#44250a" d="M8 12h1v1H8zm1 0h1v1H9z"/><path fill="#161005" d="M10 12h1v1h-1zm1 0h1v1h-1zm-7 1h1v1H4z"/><path fill="#522e10" d="M5 13h1v1H5z"/><path fill="#44250a" d="M6 13h1v1H6zm1 0h1v1H7z"/><path fill="#161005" d="M8 13h1v1H8zm1 0h1v1H9zm-4 1h1v1H5zm1 0h1v1H6zm1 0h1v1H7z"/></svg>