<svg viewBox="0 0 495 312" xmlns="http://www.w3.org/2000/svg"><path d="M317.5 0h30c14.1 1.5 28.4 3.2 41.4 9.1 16.5 7.3 34 14 46.8 27.1 11.2 11.1 20.3 24.1 28.5 37.5 5 8.2 6 17.9 9.6 26.6 3.6 7 8.1 13.6 10.5 21.2 4.5 16.4 8.3 33 10.7 49.9v24.3c-6.9 12.9-20.4 19.7-32.6 26.6-13.8 7.9-29.6 10.7-44.3 16.3 1.9 14.6 11 27.4 11.6 42.3.7 6.9-3 14.3-9.1 17.6-11.5 3.1-23.7 1.7-35.4 3.2-8.4 2.2-16.4 6.4-25.3 7-21.4 2.3-43-.2-64.3 3.2h-.6c-.1-1.4-.2-2.8-.2-4.1-4.2.5-8.3 1.1-12.5 1.6.1-1.3.2-4 .3-5.3-2.6-.2-5.3-.4-7.9-.6 5.6-7 11.5-14.9 20.7-17.2 9.1-4.1 19.3-3.1 28.8-5.5 1.8-7.1-.4-14.1-1.9-20.9-1.8-7.5-3.2-15.1-4.6-22.8-14.4 2-29.3 4.6-43.6.8-9.1-1.5-17.2-6.2-25.3-10.3.1 11.5 2.6 22.7 4.4 34 1.7 10.3-1.3 22-9.7 28.7-7.4 3-15.6 3-23.2 5.4-8.6 1.9-14 10.8-23.1 11.3-13.6 2.4-27.4 1.9-41.1 1.9-14.2-.5-28.6-.8-42.5-3.8 3-6.9 7.1-14.2 14.6-16.9 10.8-4.8 25.2-8.3 29-21.2 2.4-12.8-1.3-25.6-4.5-37.9-4.9-8.8-13.8-14.7-22.2-19.8-11.3-7.4-25.1-8.9-38.1-11.5-17.1-3.3-33.2 5.3-50.1 5.5-9.8-.8-18.4-6.1-27.1-10.3-6.3-3-12.8-7.2-15.1-14.3v-5.2c2.4-8.6 4.3-17.5 7.9-25.8 6-12.5 12.2-24.9 19.3-36.7 9.1-15.1 24.4-24.8 38.9-34 12-7.6 21.7-18.3 30.9-29.1 3.9-4.6 7.2-12.5 14.8-11.3 2.2 2.7 2.7 6.2 3.2 9.6 6.5-3.3 12.7-9.2 20.6-8.2 6.5 3.4 4.9 12.5 6.4 18.3 12.3-3.9 22-12.9 34-17.5 15.8-6.1 32.9-7.2 48.8-13.1 12.2-4.5 24.8-7.2 37.3-10.7 18-6.2 36.5-11.1 55.3-15z"/><path d="M331 19.9c18.1-2.7 37-3.5 54.9 1.3 18.7 4.9 36.1 13.6 52.8 23.2 7.7 6.4 13.2 15 18.4 23.4 4.8 14.5 6 29.9 9.3 44.8 3.6 19.9 10.8 40.1 5.7 60.4-2.4 16.2-14.1 29-27.2 37.9-10.8 6.9-20.4 15.9-27.2 26.8-2.2 3.5-1.7 8-.3 11.6 4.5 11.8 10.4 23.6 9.5 36.6-.9 4-2.9 8.4-7 10-11.9 3.9-24.6 4-36.9 3.4 2.3-3.8 4.7-7.5 6.7-11.5 5-9.4 5.5-20.4 10.3-29.8 2.6-5.7 5.9-10.9 9-16.3-14.3 10.4-21.3 27.5-30.3 42.1-4.5 7.3-10.8 13.7-18.8 17.2-15.1 6.3-31.8 7-47.9 7.2-.9-1.6-1.9-3.3-2.8-4.9-7.3 1.8-13.7-2.2-20.6-3.5-1.1-2-2-3.8-3.1-5.7 8.7-5.1 18.4-8.5 28.5-8.8 4.5-.6 12.2.2 13.6-5.7-.8-15.8-6.9-30.9-8.4-46.6.8-17.8 12.7-32.1 18.9-48.2-6.5 4.9-12 10.9-18 16.3-14.7 10.8-32.9 16.9-51.1 17-3.2 0-6.9-1.9-7.3-5.4-.2-3.9.8-7.9.8-11.8 1.1-6.8-1.9-13.2-4.2-19.3-1 .5-2.1 1-3.1 1.5-.3 7.8.7 15.9-1.7 23.5-1.5 6.2-4.9 11.8-6.7 17.9-2.6 15.7 4.7 30.8 4.2 46.5-.9 6.8-4 14-9.8 18.1-8.8 2.8-18.2 3-27.3 4 4.8-18 11.9-35.2 19.1-52.3-6.9 9.3-13.4 19.1-18.8 29.4-3.6 6.7-7.7 13.5-14.3 17.8-13.3 9.5-29.8 12.6-45.6 14.6-6.4 1.2-12.3-2.7-18.7-1.7-2.4-3.6-6.2-5.8-9.7-8.2 10-5.6 22.3-7.6 29.8-16.8 7.6-10.4 4-23.9 2-35.5-1.7-5.9-1.2-13.3-6.6-17.4-4.5-4.6-8.9-9.6-14.9-12.3-6.5-2.9-11.4-9.1-18.9-9.9-12.8-2.5-25.5-6.9-38.8-5.2-15.6.3-31.2 9.6-46.6 3.2-4.4-1.5-10.6-2.5-12.2-7.6-1-6.6-1.7-13.4-4.3-19.6-2.2-4.5-7.8-2.4-11.8-2.3C8.1 149.6 18.2 132.2 28 115c9.3-16.5 25.5-27.2 41.2-36.8 12.6-8.8 24-19.6 33.1-32 2.2-2.9 4.7-6.5 8.8-6.5.7 4 .6 8.1.2 12.1 7.7-5.1 15.8-10 25.1-11.4 2.2 6.1 3.4 12.9 1.6 19.3-1.8 8.9-3.5 18.1-8.3 26-3 4.1-6.8 7.6-10.4 11.2 1.3 10.3 3.2 20.7 7.9 30l2.4-8.7c2 .8 4 1.5 6 2.2 1.1-7.9 1.4-15.9 2.4-23.8 1.1 2.2 3.4 6.8 4.6 9 1.4-8 1.1-16.2 2.9-24 3.5 9.9 2.5 20.9 7.1 30.4 3.2-10.4 1.7-21.9 6.4-31.9 3.4 10.1 2.6 21 6.1 31.1.9 1.9 2.6 3.3 4 4.8 2.1-15.6-.7-32.4 6.8-47 24-3 46.4-12.5 68.3-22.1 27.8-11.9 57-20.7 86.8-27z" fill="#ff0"/><path d="M127.1 44c2.8-1.3 8-1.7 8.5 2.4 1.3 15.2-.6 32.8-12.2 44-3.6 3.9-8 6.9-12.8 9.2-2.5 1.4-7.1-1.2-5.1-4.2 3.4-5.3 9.4-8.7 12-14.7-5.7 2.8-11 8.8-17.9 6.7-4.7-3.5-6.3-11.6-2.5-16.3 7.4-11.3 17.5-21.4 30-27.1zm-86.8 84.4c4.3-1.4 8.8-1 13.3-1-6.7 2.2-14.4 2.4-19.1 8.4 1.6-2.7 2.7-6.2 5.8-7.4z"/><path d="M39.2 133.3c3.8-1.4 8-.9 11.9-1.7l-5.4 13.2c3.4-4.2 5.6-9.2 9.2-13.2.1 4.4 2.3 10.3-2.3 13.2-5.6 3.2-11.6-.3-16.6-2.9 1.2-2.8 1.1-6.3 3.2-8.6z"/></svg>