<svg viewBox="0.5 1 15 15" baseProfile="full" xmlns="http://www.w3.org/2000/svg"><path fill="#408f2f" d="M11 1h1v1h-1z"/><path fill="#57ad3f" d="M7 2h1v1H7z"/><path fill="#1f6519" d="M10 2h1v1h-1zm1 0h1v1h-1z"/><path fill="#105210" d="M4 3h1v1H4z"/><path fill="#408f2f" d="M6 3h1v1H6z"/><path fill="#57ad3f" d="M7 3h1v1H7z"/><path fill="#105210" d="M10 3h1v1h-1z"/><path fill="#7f6139" d="M11 3h1v1h-1z"/><path fill="#70532e" d="M12 3h1v1h-1z"/><path fill="#105210" d="M13 3h1v1h-1z"/><path fill="#70532e" d="M4 4h1v1H4zm1 0h1v1H5z"/><path fill="#1f6519" d="M6 4h1v1H6z"/><path fill="#408f2f" d="M7 4h1v1H7z"/><path fill="#105210" d="M8 4h1v1H8zm1 0h1v1H9z"/><path fill="#7f6139" d="M10 4h1v1h-1z"/><path fill="#70532e" d="M11 4h1v1h-1z"/><path fill="#5a3f1e" d="M12 4h1v1h-1zm1 0h1v1h-1z"/><path fill="#57ad3f" d="M2 5h1v1H2z"/><path fill="#408f2f" d="M3 5h1v1H3z"/><path fill="#57ad3f" d="M4 5h1v1H4z"/><path fill="#1f6519" d="M5 5h1v1H5z"/><path fill="#70532e" d="M6 5h1v1H6z"/><path fill="#105210" d="M8 5h1v1H8z"/><path fill="#70532e" d="M9 5h1v1H9zm1 0h1v1h-1z"/><path fill="#5a3f1e" d="M11 5h1v1h-1z"/><path fill="#1f6519" d="M12 5h1v1h-1z"/><path fill="#57ad3f" d="M13 5h1v1h-1zM3 6h1v1H3z"/><path fill="#408f2f" d="M4 6h1v1H4z"/><path fill="#70532e" d="M5 6h1v1H5z"/><path fill="#7f6139" d="M6 6h1v1H6z"/><path fill="#5a3f1e" d="M7 6h1v1H7z"/><path fill="#70532e" d="M9 6h1v1H9zm1 0h1v1h-1z"/><path fill="#57ad3f" d="M12 6h1v1h-1z"/><path fill="#408f2f" d="M13 6h1v1h-1z"/><path fill="#57ad3f" d="M14 6h1v1h-1z"/><path fill="#70532e" d="M6 7h1v1H6zm1 0h1v1H7z"/><path fill="#4c3214" d="M8 7h1v1H8z"/><path fill="#70532e" d="M9 7h1v1H9z"/><path fill="#57ad3f" d="M13 7h1v1h-1zm1 0h1v1h-1z"/><path fill="#1f6519" d="M5 8h1v1H5z"/><path fill="#105210" d="M6 8h1v1H6z"/><path fill="#70532e" d="M7 8h1v1H7z"/><path fill="#57ad3f" d="M8 8h1v1H8z"/><path fill="#408f2f" d="M9 8h1v1H9z"/><path fill="#105210" d="M11 8h1v1h-1z"/><path fill="#1f6519" d="M12 8h1v1h-1z"/><path fill="#5a3f1e" d="M3 9h1v1H3z"/><path fill="#70532e" d="M4 9h1v1H4z"/><path fill="#5a3f1e" d="M5 9h1v1H5z"/><path fill="#1f6519" d="M6 9h1v1H6z"/><path fill="#57ad3f" d="M7 9h1v1H7z"/><path fill="#408f2f" d="M8 9h1v1H8z"/><path fill="#57ad3f" d="M9 9h1v1H9z"/><path fill="#1f6519" d="M10 9h1v1h-1z"/><path fill="#70532e" d="M11 9h1v1h-1z"/><path fill="#5a3f1e" d="M12 9h1v1h-1z"/><path fill="#4c3214" d="M13 9h1v1h-1z"/><path fill="#408f2f" d="M2 10h1v1H2z"/><path fill="#1f6519" d="M3 10h1v1H3zm1 0h1v1H4z"/><path fill="#70532e" d="M5 10h1v1H5z"/><path fill="#5a3f1e" d="M6 10h1v1H6z"/><path fill="#70532e" d="M7 10h1v1H7z"/><path fill="#7f6139" d="M8 10h1v1H8z"/><path fill="#4c3214" d="M9 10h1v1H9z"/><path fill="#70532e" d="M10 10h1v1h-1z"/><path fill="#5a3f1e" d="M11 10h1v1h-1z"/><path fill="#4c3214" d="M12 10h1v1h-1z"/><path fill="#1f6519" d="M13 10h1v1h-1z"/><path fill="#408f2f" d="M14 10h1v1h-1zM1 11h1v1H1zm1 0h1v1H2zm1 0h1v1H3z"/><path fill="#5a3f1e" d="M5 11h1v1H5z"/><path fill="#57ad3f" d="M6 11h1v1H6z"/><path fill="#70532e" d="M7 11h1v1H7zm1 0h1v1H8z"/><path fill="#4c3214" d="M9 11h1v1H9z"/><path fill="#5a3f1e" d="M10 11h1v1h-1z"/><path fill="#4c3214" d="M11 11h1v1h-1z"/><path fill="#408f2f" d="M13 11h1v1h-1zm1 0h1v1h-1z"/><path fill="#57ad3f" d="M5 12h1v1H5z"/><path fill="#408f2f" d="M6 12h1v1H6z"/><path fill="#1f6519" d="M7 12h1v1H7z"/><path fill="#70532e" d="M8 12h1v1H8z"/><path fill="#408f2f" d="M9 12h1v1H9z"/><path fill="#57ad3f" d="M10 12h1v1h-1z"/><path fill="#408f2f" d="M14 12h1v1h-1zm-9 1h1v1H5z"/><path fill="#57ad3f" d="M6 13h1v1H6z"/><path fill="#4c3214" d="M7 13h1v1H7z"/><path fill="#70532e" d="M8 13h1v1H8z"/><path fill="#57ad3f" d="M9 13h1v1H9z"/><path fill="#408f2f" d="M10 13h1v1h-1z"/><path fill="#5a3f1e" d="M7 14h1v1H7z"/><path fill="#70532e" d="M8 14h1v1H8z"/><path fill="#4c3214" d="M9 14h1v1H9z"/><path fill="#57ad3f" d="M10 14h1v1h-1z"/><path fill="#5a3f1e" d="M7 15h1v1H7zm1 0h1v1H8z"/><path fill="#4c3214" d="M9 15h1v1H9z"/></svg>