<svg viewBox="1.5 1 13 14" baseProfile="full" xmlns="http://www.w3.org/2000/svg"><path fill="#752802" d="M9 1h1v1H9z"/><path fill="#b26411" d="M8 2h1v1H8z"/><path fill="#542409" d="M9 2h1v1H9z"/><path fill="#752802" d="M8 3h1v1H8z"/><path fill="#b26411" d="M5 4h1v1H5zm1 0h1v1H6z"/><path fill="#752802" d="M7 4h1v1H7z"/><path fill="#542409" d="M8 4h1v1H8z"/><path fill="#752802" d="M9 4h1v1H9zm1 0h1v1h-1z"/><path fill="#b26411" d="M3 5h1v1H3z"/><path fill="#dba213" d="M4 5h1v1H4z"/><path fill="#feffe6" d="M5 5h1v1H5z"/><path fill="#dba213" d="M6 5h1v1H6z"/><path fill="#542409" d="M7 5h1v1H7z"/><path fill="#b26411" d="M8 5h1v1H8z"/><path fill="#eccb45" d="M9 5h1v1H9z"/><path fill="#dba213" d="M10 5h1v1h-1z"/><path fill="#752802" d="M11 5h1v1h-1zm1 0h1v1h-1z"/><path fill="#b26411" d="M2 6h1v1H2z"/><path fill="#dba213" d="M3 6h1v1H3z"/><path fill="#eaee57" d="M4 6h1v1H4z"/><path fill="#f6f892" d="M5 6h1v1H5z"/><path fill="#feffe6" d="M6 6h1v1H6zm1 0h1v1H7zm1 0h1v1H8z"/><path fill="#f6f892" d="M9 6h1v1H9z"/><path fill="#eaee57" d="M10 6h1v1h-1z"/><path fill="#dba213" d="M11 6h1v1h-1z"/><path fill="#752802" d="M12 6h1v1h-1zm1 0h1v1h-1z"/><path fill="#b26411" d="M2 7h1v1H2z"/><path fill="#dba213" d="M3 7h1v1H3z"/><path fill="#eaee57" d="M4 7h1v1H4zm1 0h1v1H5zm1 0h1v1H6zm1 0h1v1H7zm1 0h1v1H8zm1 0h1v1H9z"/><path fill="#eccb45" d="M10 7h1v1h-1z"/><path fill="#eaee57" d="M11 7h1v1h-1z"/><path fill="#dba213" d="M12 7h1v1h-1z"/><path fill="#752802" d="M13 7h1v1h-1z"/><path fill="#b26411" d="M2 8h1v1H2z"/><path fill="#dba213" d="M3 8h1v1H3z"/><path fill="#eccb45" d="M4 8h1v1H4z"/><path fill="#eaee57" d="M5 8h1v1H5z"/><path fill="#eccb45" d="M6 8h1v1H6z"/><path fill="#eaee57" d="M7 8h1v1H7z"/><path fill="#eccb45" d="M8 8h1v1H8zm1 0h1v1H9zm1 0h1v1h-1z"/><path fill="#eaee57" d="M11 8h1v1h-1z"/><path fill="#eccb45" d="M12 8h1v1h-1z"/><path fill="#541209" d="M13 8h1v1h-1z"/><path fill="#752802" d="M2 9h1v1H2z"/><path fill="#dba213" d="M3 9h1v1H3zm1 0h1v1H4z"/><path fill="#eccb45" d="M5 9h1v1H5zm1 0h1v1H6z"/><path fill="#dba213" d="M7 9h1v1H7zm1 0h1v1H8z"/><path fill="#eccb45" d="M9 9h1v1H9z"/><path fill="#dba213" d="M10 9h1v1h-1z"/><path fill="#eaee57" d="M11 9h1v1h-1z"/><path fill="#eccb45" d="M12 9h1v1h-1z"/><path fill="#541209" d="M13 9h1v1h-1z"/><path fill="#752802" d="M2 10h1v1H2z"/><path fill="#dba213" d="M3 10h1v1H3zm1 0h1v1H4zm1 0h1v1H5zm1 0h1v1H6zm1 0h1v1H7z"/><path fill="#eccb45" d="M8 10h1v1H8z"/><path fill="#dba213" d="M9 10h1v1H9zm1 0h1v1h-1z"/><path fill="#eaee57" d="M11 10h1v1h-1z"/><path fill="#dba213" d="M12 10h1v1h-1z"/><path fill="#541209" d="M13 10h1v1h-1z"/><path fill="#752802" d="M3 11h1v1H3z"/><path fill="#dba213" d="M4 11h1v1H4zm1 0h1v1H5z"/><path fill="#eccb45" d="M6 11h1v1H6z"/><path fill="#dba213" d="M7 11h1v1H7zm1 0h1v1H8zm1 0h1v1H9z"/><path fill="#eccb45" d="M10 11h1v1h-1z"/><path fill="#dba213" d="M11 11h1v1h-1z"/><path fill="#541209" d="M12 11h1v1h-1z"/><path fill="#752802" d="M3 12h1v1H3z"/><path fill="#b26411" d="M4 12h1v1H4z"/><path fill="#dba213" d="M5 12h1v1H5zm1 0h1v1H6zm1 0h1v1H7z"/><path fill="#eccb45" d="M8 12h1v1H8zm1 0h1v1H9z"/><path fill="#dba213" d="M10 12h1v1h-1z"/><path fill="#b26411" d="M11 12h1v1h-1z"/><path fill="#541209" d="M12 12h1v1h-1zm-8 1h1v1H4z"/><path fill="#b26411" d="M5 13h1v1H5z"/><path fill="#dba213" d="M6 13h1v1H6z"/><path fill="#b26411" d="M7 13h1v1H7zm1 0h1v1H8z"/><path fill="#dba213" d="M9 13h1v1H9z"/><path fill="#b26411" d="M10 13h1v1h-1z"/><path fill="#541209" d="M11 13h1v1h-1zm-6 1h1v1H5z"/><path fill="#752802" d="M6 14h1v1H6zm1 0h1v1H7zm1 0h1v1H8z"/><path fill="#541209" d="M9 14h1v1H9zm1 0h1v1h-1z"/></svg>