<svg viewBox="2 2 13 13" baseProfile="full" xmlns="http://www.w3.org/2000/svg"><path fill="#316364" d="M7 2h1v1H7z"/><path fill="#1e4835" d="M8 2h1v1H8zm1 0h1v1H9z"/><path fill="#316364" d="M5 3h1v1H5zm1 0h1v1H6z"/><path fill="#4e8386" d="M7 3h1v1H7zm1 0h1v1H8zm1 0h1v1H9z"/><path fill="#1e4835" d="M10 3h1v1h-1zm1 0h1v1h-1z"/><path fill="#316364" d="M4 4h1v1H4z"/><path fill="#4e8386" d="M5 4h1v1H5z"/><path fill="#659b7d" d="M6 4h1v1H6zm1 0h1v1H7zm1 0h1v1H8zm1 0h1v1H9zm1 0h1v1h-1z"/><path fill="#316364" d="M11 4h1v1h-1z"/><path fill="#1e4835" d="M12 4h1v1h-1zM3 5h1v1H3z"/><path fill="#4e8386" d="M4 5h1v1H4z"/><path fill="#659b7d" d="M5 5h1v1H5z"/><path fill="#cbfcdd" d="M6 5h1v1H6z"/><path fill="#b5e45a" d="M7 5h1v1H7z"/><path fill="#88c35a" d="M8 5h1v1H8z"/><path fill="#71ac49" d="M9 5h1v1H9z"/><path fill="#659b7d" d="M10 5h1v1h-1zm1 0h1v1h-1z"/><path fill="#316364" d="M12 5h1v1h-1z"/><path fill="#1e4835" d="M13 5h1v1h-1zM3 6h1v1H3z"/><path fill="#659b7d" d="M4 6h1v1H4z"/><path fill="#cbfcdd" d="M5 6h1v1H5z"/><path fill="#b5e45a" d="M6 6h1v1H6z"/><path fill="#97d16b" d="M7 6h1v1H7z"/><path fill="#1e4835" d="M8 6h1v1H8z"/><path fill="#579143" d="M9 6h1v1H9z"/><path fill="#71ac49" d="M10 6h1v1h-1z"/><path fill="#659b7d" d="M11 6h1v1h-1zm1 0h1v1h-1z"/><path fill="#102c31" d="M13 6h1v1h-1z"/><path fill="#1e4835" d="M2 7h1v1H2z"/><path fill="#316364" d="M3 7h1v1H3z"/><path fill="#659b7d" d="M4 7h1v1H4z"/><path fill="#b5e45a" d="M5 7h1v1H5z"/><path fill="#97d16b" d="M6 7h1v1H6z"/><path fill="#1e4835" d="M7 7h1v1H7z"/><path fill="#1b2b10" d="M8 7h1v1H8z"/><path fill="#1e4835" d="M9 7h1v1H9z"/><path fill="#579143" d="M10 7h1v1h-1z"/><path fill="#71ac49" d="M11 7h1v1h-1z"/><path fill="#659b7d" d="M12 7h1v1h-1z"/><path fill="#316364" d="M13 7h1v1h-1z"/><path fill="#102c31" d="M14 7h1v1h-1z"/><path fill="#1e4835" d="M2 8h1v1H2z"/><path fill="#316364" d="M3 8h1v1H3z"/><path fill="#71ac49" d="M4 8h1v1H4zm1 0h1v1H5z"/><path fill="#88c35a" d="M6 8h1v1H6z"/><path fill="#1e4835" d="M7 8h1v1H7z"/><path fill="#1b2b10" d="M8 8h1v1H8z"/><path fill="#1e4835" d="M9 8h1v1H9z"/><path fill="#579143" d="M10 8h1v1h-1z"/><path fill="#71ac49" d="M11 8h1v1h-1z"/><path fill="#659b7d" d="M12 8h1v1h-1z"/><path fill="#316364" d="M13 8h1v1h-1z"/><path fill="#102c31" d="M14 8h1v1h-1z"/><path fill="#1e4835" d="M2 9h1v1H2z"/><path fill="#316364" d="M3 9h1v1H3z"/><path fill="#659b7d" d="M4 9h1v1H4z"/><path fill="#71ac49" d="M5 9h1v1H5z"/><path fill="#579143" d="M6 9h1v1H6z"/><path fill="#1e4835" d="M7 9h1v1H7z"/><path fill="#1b2b10" d="M8 9h1v1H8z"/><path fill="#1e4835" d="M9 9h1v1H9z"/><path fill="#88c35a" d="M10 9h1v1h-1z"/><path fill="#71ac49" d="M11 9h1v1h-1zm1 0h1v1h-1z"/><path fill="#316364" d="M13 9h1v1h-1z"/><path fill="#102c31" d="M14 9h1v1h-1z"/><path fill="#1e4835" d="M3 10h1v1H3z"/><path fill="#4e8386" d="M4 10h1v1H4z"/><path fill="#659b7d" d="M5 10h1v1H5z"/><path fill="#71ac49" d="M6 10h1v1H6z"/><path fill="#88c35a" d="M7 10h1v1H7z"/><path fill="#1e4835" d="M8 10h1v1H8z"/><path fill="#97d16b" d="M9 10h1v1H9z"/><path fill="#71ac49" d="M10 10h1v1h-1z"/><path fill="#4e8386" d="M11 10h1v1h-1z"/><path fill="#659b7d" d="M12 10h1v1h-1z"/><path fill="#102c31" d="M13 10h1v1h-1z"/><path fill="#1e4835" d="M3 11h1v1H3z"/><path fill="#316364" d="M4 11h1v1H4z"/><path fill="#4e8386" d="M5 11h1v1H5z"/><path fill="#659b7d" d="M6 11h1v1H6z"/><path fill="#71ac49" d="M7 11h1v1H7z"/><path fill="#579143" d="M8 11h1v1H8z"/><path fill="#71ac49" d="M9 11h1v1H9z"/><path fill="#4e8386" d="M10 11h1v1h-1z"/><path fill="#71ac49" d="M11 11h1v1h-1z"/><path fill="#316364" d="M12 11h1v1h-1z"/><path fill="#102c31" d="M13 11h1v1h-1zm-9 1h1v1H4z"/><path fill="#316364" d="M5 12h1v1H5z"/><path fill="#4e8386" d="M6 12h1v1H6zm1 0h1v1H7zm1 0h1v1H8zm1 0h1v1H9z"/><path fill="#659b7d" d="M10 12h1v1h-1z"/><path fill="#316364" d="M11 12h1v1h-1z"/><path fill="#102c31" d="M12 12h1v1h-1zm-7 1h1v1H5zm1 0h1v1H6z"/><path fill="#316364" d="M7 13h1v1H7zm1 0h1v1H8zm1 0h1v1H9z"/><path fill="#102c31" d="M10 13h1v1h-1zm1 0h1v1h-1zm-4 1h1v1H7zm1 0h1v1H8zm1 0h1v1H9z"/></svg>